<svg width="61" height="82" viewBox="0 0 61 82" fill="none" xmlns="http://www.w3.org/2000/svg">
<path d="M24.9554 53.9091V59H24.339V54.5554H24.3091L23.0662 55.3807V54.7543L24.339 53.9091H24.9554ZM28.0801 59.0696C27.7056 59.0696 27.3865 58.9677 27.123 58.7638C26.8596 58.5584 26.6582 58.2609 26.519 57.8714C26.3798 57.4804 26.3102 57.008 26.3102 56.4545C26.3102 55.9044 26.3798 55.4345 26.519 55.0451C26.6599 54.654 26.862 54.3557 27.1255 54.1502C27.3907 53.9431 27.7089 53.8395 28.0801 53.8395C28.4513 53.8395 28.7686 53.9431 29.0321 54.1502C29.2973 54.3557 29.4995 54.654 29.6387 55.0451C29.7795 55.4345 29.85 55.9044 29.85 56.4545C29.85 57.008 29.7804 57.4804 29.6412 57.8714C29.502 58.2609 29.3006 58.5584 29.0371 58.7638C28.7736 58.9677 28.4546 59.0696 28.0801 59.0696ZM28.0801 58.5227C28.4513 58.5227 28.7396 58.3437 28.9451 57.9858C29.1506 57.6278 29.2534 57.1174 29.2534 56.4545C29.2534 56.0137 29.2061 55.6384 29.1117 55.3285C29.0189 55.0186 28.8846 54.7824 28.709 54.62C28.535 54.4576 28.3253 54.3764 28.0801 54.3764C27.7122 54.3764 27.4247 54.5579 27.2175 54.9208C27.0104 55.2821 26.9068 55.7933 26.9068 56.4545C26.9068 56.8954 26.9532 57.2699 27.046 57.5781C27.1388 57.8864 27.2722 58.1209 27.4462 58.2816C27.6219 58.4424 27.8332 58.5227 28.0801 58.5227ZM32.4551 59.0696C32.0806 59.0696 31.7615 58.9677 31.498 58.7638C31.2346 58.5584 31.0332 58.2609 30.894 57.8714C30.7548 57.4804 30.6852 57.008 30.6852 56.4545C30.6852 55.9044 30.7548 55.4345 30.894 55.0451C31.0349 54.654 31.237 54.3557 31.5005 54.1502C31.7657 53.9431 32.0839 53.8395 32.4551 53.8395C32.8263 53.8395 33.1436 53.9431 33.4071 54.1502C33.6723 54.3557 33.8745 54.654 34.0137 55.0451C34.1545 55.4345 34.225 55.9044 34.225 56.4545C34.225 57.008 34.1554 57.4804 34.0162 57.8714C33.877 58.2609 33.6756 58.5584 33.4121 58.7638C33.1486 58.9677 32.8296 59.0696 32.4551 59.0696ZM32.4551 58.5227C32.8263 58.5227 33.1146 58.3437 33.3201 57.9858C33.5256 57.6278 33.6284 57.1174 33.6284 56.4545C33.6284 56.0137 33.5811 55.6384 33.4867 55.3285C33.3939 55.0186 33.2596 54.7824 33.084 54.62C32.91 54.4576 32.7003 54.3764 32.4551 54.3764C32.0872 54.3764 31.7997 54.5579 31.5925 54.9208C31.3854 55.2821 31.2818 55.7933 31.2818 56.4545C31.2818 56.8954 31.3282 57.2699 31.421 57.5781C31.5138 57.8864 31.6472 58.1209 31.8212 58.2816C31.9969 58.4424 32.2082 58.5227 32.4551 58.5227ZM37.7647 58.0455V57.777C37.7647 57.5914 37.8029 57.4215 37.8791 57.2674C37.957 57.1116 38.0697 56.9873 38.2172 56.8945C38.3663 56.8001 38.5469 56.7528 38.7591 56.7528C38.9745 56.7528 39.1551 56.8001 39.301 56.8945C39.4468 56.9873 39.557 57.1116 39.6316 57.2674C39.7061 57.4215 39.7434 57.5914 39.7434 57.777V58.0455C39.7434 58.2311 39.7053 58.4018 39.6291 58.5575C39.5545 58.7116 39.4435 58.8359 39.296 58.9304C39.1502 59.0232 38.9712 59.0696 38.7591 59.0696C38.5436 59.0696 38.3622 59.0232 38.2147 58.9304C38.0672 58.8359 37.9553 58.7116 37.8791 58.5575C37.8029 58.4018 37.7647 58.2311 37.7647 58.0455ZM38.2718 57.777V58.0455C38.2718 58.1996 38.3083 58.3379 38.3812 58.4606C38.4541 58.5816 38.5801 58.642 38.7591 58.642C38.9331 58.642 39.0557 58.5816 39.127 58.4606C39.1999 58.3379 39.2363 58.1996 39.2363 58.0455V57.777C39.2363 57.6229 39.2015 57.4853 39.1319 57.3643C39.0623 57.2417 38.938 57.1804 38.7591 57.1804C38.585 57.1804 38.4599 57.2417 38.3837 57.3643C38.3091 57.4853 38.2718 57.6229 38.2718 57.777ZM35.2292 55.1321V54.8636C35.2292 54.678 35.2673 54.5082 35.3436 54.354C35.4215 54.1983 35.5342 54.074 35.6816 53.9812C35.8308 53.8867 36.0114 53.8395 36.2235 53.8395C36.439 53.8395 36.6196 53.8867 36.7654 53.9812C36.9113 54.074 37.0215 54.1983 37.0961 54.354C37.1706 54.5082 37.2079 54.678 37.2079 54.8636V55.1321C37.2079 55.3177 37.1698 55.4884 37.0936 55.6442C37.019 55.7983 36.908 55.9226 36.7605 56.017C36.6146 56.1098 36.4357 56.1562 36.2235 56.1562C36.0081 56.1562 35.8266 56.1098 35.6792 56.017C35.5317 55.9226 35.4198 55.7983 35.3436 55.6442C35.2673 55.4884 35.2292 55.3177 35.2292 55.1321ZM35.7363 54.8636V55.1321C35.7363 55.2862 35.7728 55.4246 35.8457 55.5472C35.9186 55.6682 36.0446 55.7287 36.2235 55.7287C36.3975 55.7287 36.5202 55.6682 36.5914 55.5472C36.6644 55.4246 36.7008 55.2862 36.7008 55.1321V54.8636C36.7008 54.7095 36.666 54.572 36.5964 54.451C36.5268 54.3284 36.4025 54.267 36.2235 54.267C36.0495 54.267 35.9244 54.3284 35.8482 54.451C35.7736 54.572 35.7363 54.7095 35.7363 54.8636ZM35.4181 59L38.9181 53.9091H39.4849L35.9849 59H35.4181ZM12.1452 65.5H11.5287C11.4923 65.3227 11.4285 65.1669 11.3373 65.0327C11.2478 64.8984 11.1384 64.7857 11.0092 64.6946C10.8816 64.6018 10.7399 64.5322 10.5841 64.4858C10.4283 64.4394 10.2659 64.4162 10.0969 64.4162C9.78866 64.4162 9.50943 64.4941 9.25919 64.6499C9.01061 64.8056 8.81257 65.0352 8.66508 65.3384C8.51925 65.6417 8.44633 66.0137 8.44633 66.4545C8.44633 66.8954 8.51925 67.2674 8.66508 67.5707C8.81257 67.8739 9.01061 68.1035 9.25919 68.2592C9.50943 68.415 9.78866 68.4929 10.0969 68.4929C10.2659 68.4929 10.4283 68.4697 10.5841 68.4233C10.7399 68.3769 10.8816 68.3081 11.0092 68.217C11.1384 68.1242 11.2478 68.0107 11.3373 67.8764C11.4285 67.7405 11.4923 67.5848 11.5287 67.4091H12.1452C12.0988 67.6693 12.0143 67.9021 11.8916 68.1076C11.769 68.3131 11.6166 68.4879 11.4343 68.6321C11.252 68.7746 11.0473 68.8832 10.8203 68.9577C10.5949 69.0323 10.3538 69.0696 10.0969 69.0696C9.66272 69.0696 9.27659 68.9635 8.93852 68.7514C8.60045 68.5393 8.33447 68.2377 8.14058 67.8466C7.94669 67.4555 7.84974 66.9915 7.84974 66.4545C7.84974 65.9176 7.94669 65.4536 8.14058 65.0625C8.33447 64.6714 8.60045 64.3698 8.93852 64.1577C9.27659 63.9455 9.66272 63.8395 10.0969 63.8395C10.3538 63.8395 10.5949 63.8768 10.8203 63.9513C11.0473 64.0259 11.252 64.1353 11.4343 64.2795C11.6166 64.422 11.769 64.596 11.8916 64.8015C12.0143 65.0053 12.0988 65.2382 12.1452 65.5ZM14.613 69.0795C14.2683 69.0795 13.9658 68.9975 13.7057 68.8335C13.4471 68.6694 13.245 68.4399 13.0991 68.1449C12.9549 67.8499 12.8829 67.5052 12.8829 67.1108C12.8829 66.7131 12.9549 66.3659 13.0991 66.0692C13.245 65.7726 13.4471 65.5423 13.7057 65.3782C13.9658 65.2141 14.2683 65.1321 14.613 65.1321C14.9577 65.1321 15.2593 65.2141 15.5178 65.3782C15.778 65.5423 15.9802 65.7726 16.1243 66.0692C16.2702 66.3659 16.3431 66.7131 16.3431 67.1108C16.3431 67.5052 16.2702 67.8499 16.1243 68.1449C15.9802 68.4399 15.778 68.6694 15.5178 68.8335C15.2593 68.9975 14.9577 69.0795 14.613 69.0795ZM14.613 68.5526C14.8748 68.5526 15.0902 68.4854 15.2593 68.3512C15.4283 68.217 15.5534 68.0405 15.6346 67.8217C15.7158 67.603 15.7564 67.366 15.7564 67.1108C15.7564 66.8556 15.7158 66.6178 15.6346 66.3974C15.5534 66.177 15.4283 65.9988 15.2593 65.8629C15.0902 65.727 14.8748 65.6591 14.613 65.6591C14.3511 65.6591 14.1357 65.727 13.9667 65.8629C13.7976 65.9988 13.6725 66.177 13.5913 66.3974C13.5101 66.6178 13.4695 66.8556 13.4695 67.1108C13.4695 67.366 13.5101 67.603 13.5913 67.8217C13.6725 68.0405 13.7976 68.217 13.9667 68.3512C14.1357 68.4854 14.3511 68.5526 14.613 68.5526ZM17.2386 70.4318V65.1818H17.8054V65.7884H17.875C17.918 65.7221 17.9777 65.6375 18.0539 65.5348C18.1318 65.4304 18.2429 65.3376 18.387 65.2564C18.5329 65.1735 18.7301 65.1321 18.9786 65.1321C19.3001 65.1321 19.5835 65.2125 19.8288 65.3732C20.0741 65.534 20.2655 65.7618 20.403 66.0568C20.5406 66.3518 20.6093 66.6998 20.6093 67.1009C20.6093 67.5052 20.5406 67.8557 20.403 68.1523C20.2655 68.4473 20.0749 68.676 19.8313 68.8384C19.5877 68.9992 19.3068 69.0795 18.9886 69.0795C18.7433 69.0795 18.5469 69.0389 18.3995 68.9577C18.252 68.8749 18.1384 68.7812 18.0589 68.6768C17.9794 68.5708 17.918 68.483 17.875 68.4134H17.8252V70.4318H17.2386ZM17.8153 67.0909C17.8153 67.3793 17.8576 67.6336 17.9421 67.854C18.0266 68.0728 18.1501 68.2443 18.3125 68.3686C18.4749 68.4912 18.6737 68.5526 18.909 68.5526C19.1543 68.5526 19.359 68.4879 19.523 68.3587C19.6888 68.2277 19.813 68.0521 19.8959 67.8317C19.9804 67.6096 20.0227 67.3627 20.0227 67.0909C20.0227 66.8224 19.9813 66.5805 19.8984 66.3651C19.8172 66.148 19.6937 65.9764 19.528 65.8505C19.3639 65.7229 19.1576 65.6591 18.909 65.6591C18.6704 65.6591 18.4699 65.7196 18.3075 65.8406C18.1451 65.9599 18.0224 66.1272 17.9396 66.3427C17.8567 66.5565 17.8153 66.8059 17.8153 67.0909ZM21.5042 70.4318V65.1818H22.071V65.7884H22.1406C22.1837 65.7221 22.2433 65.6375 22.3196 65.5348C22.3974 65.4304 22.5085 65.3376 22.6527 65.2564C22.7985 65.1735 22.9957 65.1321 23.2443 65.1321C23.5658 65.1321 23.8492 65.2125 24.0944 65.3732C24.3397 65.534 24.5311 65.7618 24.6686 66.0568C24.8062 66.3518 24.875 66.6998 24.875 67.1009C24.875 67.5052 24.8062 67.8557 24.6686 68.1523C24.5311 68.4473 24.3405 68.676 24.0969 68.8384C23.8533 68.9992 23.5724 69.0795 23.2542 69.0795C23.009 69.0795 22.8126 69.0389 22.6651 68.9577C22.5176 68.8749 22.4041 68.7812 22.3245 68.6768C22.245 68.5708 22.1837 68.483 22.1406 68.4134H22.0909V70.4318H21.5042ZM22.0809 67.0909C22.0809 67.3793 22.1232 67.6336 22.2077 67.854C22.2922 68.0728 22.4157 68.2443 22.5781 68.3686C22.7405 68.4912 22.9393 68.5526 23.1747 68.5526C23.4199 68.5526 23.6246 68.4879 23.7887 68.3587C23.9544 68.2277 24.0787 68.0521 24.1615 67.8317C24.246 67.6096 24.2883 67.3627 24.2883 67.0909C24.2883 66.8224 24.2469 66.5805 24.164 66.3651C24.0828 66.148 23.9594 65.9764 23.7936 65.8505C23.6296 65.7229 23.4233 65.6591 23.1747 65.6591C22.936 65.6591 22.7355 65.7196 22.5731 65.8406C22.4107 65.9599 22.2881 66.1272 22.2052 66.3427C22.1224 66.5565 22.0809 66.8059 22.0809 67.0909ZM27.3707 69.0795C27.0028 69.0795 26.6854 68.9983 26.4186 68.8359C26.1535 68.6719 25.9488 68.4432 25.8046 68.1499C25.6621 67.8549 25.5909 67.5118 25.5909 67.1207C25.5909 66.7296 25.6621 66.3849 25.8046 66.0866C25.9488 65.7867 26.1493 65.553 26.4062 65.3857C26.6647 65.2166 26.9663 65.1321 27.311 65.1321C27.5099 65.1321 27.7063 65.1652 27.9002 65.2315C28.0941 65.2978 28.2706 65.4055 28.4296 65.5547C28.5887 65.7022 28.7155 65.8977 28.81 66.1413C28.9044 66.3849 28.9517 66.6849 28.9517 67.0412V67.2898H26.0085V66.7827H28.3551C28.3551 66.5672 28.312 66.375 28.2258 66.206C28.1413 66.0369 28.0203 65.9035 27.8629 65.8058C27.7071 65.708 27.5232 65.6591 27.311 65.6591C27.0774 65.6591 26.8752 65.7171 26.7045 65.8331C26.5355 65.9474 26.4054 66.0966 26.3142 66.2805C26.2231 66.4645 26.1775 66.6617 26.1775 66.8722V67.2102C26.1775 67.4986 26.2272 67.743 26.3267 67.9435C26.4277 68.1424 26.5678 68.294 26.7468 68.3984C26.9257 68.5012 27.1337 68.5526 27.3707 68.5526C27.5248 68.5526 27.664 68.531 27.7883 68.4879C27.9143 68.4432 28.0228 68.3769 28.1139 68.2891C28.2051 68.1996 28.2755 68.0885 28.3252 67.956L28.892 68.1151C28.8323 68.3073 28.7321 68.4763 28.5912 68.6222C28.4504 68.7663 28.2764 68.879 28.0692 68.9602C27.8621 69.0398 27.6292 69.0795 27.3707 69.0795ZM29.8441 69V65.1818H30.4108V65.7585H30.4506C30.5202 65.5696 30.6461 65.4163 30.8284 65.2987C31.0107 65.181 31.2162 65.1222 31.4449 65.1222C31.488 65.1222 31.5419 65.123 31.6065 65.1246C31.6711 65.1263 31.72 65.1288 31.7532 65.1321V65.7287C31.7333 65.7237 31.6877 65.7163 31.6164 65.7063C31.5468 65.6947 31.4731 65.6889 31.3952 65.6889C31.2096 65.6889 31.0439 65.7279 30.898 65.8058C30.7539 65.882 30.6395 65.988 30.555 66.1239C30.4721 66.2582 30.4307 66.4115 30.4307 66.5838V69H29.8441ZM34.4968 63.9091H35.2326L36.9628 68.1349H37.0224L38.7525 63.9091H39.4883V69H38.9116V65.1321H38.8619L37.271 69H36.7142L35.1233 65.1321H35.0736V69H34.4968V63.9091ZM42.196 69.0795C41.8513 69.0795 41.5488 68.9975 41.2887 68.8335C41.0301 68.6694 40.828 68.4399 40.6821 68.1449C40.538 67.8499 40.4659 67.5052 40.4659 67.1108C40.4659 66.7131 40.538 66.3659 40.6821 66.0692C40.828 65.7726 41.0301 65.5423 41.2887 65.3782C41.5488 65.2141 41.8513 65.1321 42.196 65.1321C42.5407 65.1321 42.8423 65.2141 43.1008 65.3782C43.361 65.5423 43.5632 65.7726 43.7073 66.0692C43.8532 66.3659 43.9261 66.7131 43.9261 67.1108C43.9261 67.5052 43.8532 67.8499 43.7073 68.1449C43.5632 68.4399 43.361 68.6694 43.1008 68.8335C42.8423 68.9975 42.5407 69.0795 42.196 69.0795ZM42.196 68.5526C42.4578 68.5526 42.6733 68.4854 42.8423 68.3512C43.0113 68.217 43.1364 68.0405 43.2176 67.8217C43.2988 67.603 43.3394 67.366 43.3394 67.1108C43.3394 66.8556 43.2988 66.6178 43.2176 66.3974C43.1364 66.177 43.0113 65.9988 42.8423 65.8629C42.6733 65.727 42.4578 65.6591 42.196 65.6591C41.9341 65.6591 41.7187 65.727 41.5497 65.8629C41.3806 65.9988 41.2555 66.177 41.1743 66.3974C41.0931 66.6178 41.0525 66.8556 41.0525 67.1108C41.0525 67.366 41.0931 67.603 41.1743 67.8217C41.2555 68.0405 41.3806 68.217 41.5497 68.3512C41.7187 68.4854 41.9341 68.5526 42.196 68.5526ZM46.4821 65.1818V65.679H44.5034V65.1818H46.4821ZM45.0801 64.267H45.6668V67.9062C45.6668 68.072 45.6908 68.1963 45.7389 68.2791C45.7886 68.3603 45.8515 68.415 45.9278 68.4432C46.0057 68.4697 46.0877 68.483 46.1739 68.483C46.2385 68.483 46.2915 68.4796 46.333 68.473C46.3744 68.4647 46.4075 68.4581 46.4324 68.4531L46.5517 68.9801C46.5119 68.995 46.4564 69.0099 46.3852 69.0249C46.3139 69.0414 46.2236 69.0497 46.1142 69.0497C45.9485 69.0497 45.7861 69.0141 45.627 68.9428C45.4696 68.8716 45.3386 68.763 45.2342 68.6172C45.1315 68.4714 45.0801 68.2874 45.0801 68.0653V64.267ZM48.8747 69.0795C48.53 69.0795 48.2276 68.9975 47.9674 68.8335C47.7089 68.6694 47.5067 68.4399 47.3608 68.1449C47.2167 67.8499 47.1446 67.5052 47.1446 67.1108C47.1446 66.7131 47.2167 66.3659 47.3608 66.0692C47.5067 65.7726 47.7089 65.5423 47.9674 65.3782C48.2276 65.2141 48.53 65.1321 48.8747 65.1321C49.2194 65.1321 49.521 65.2141 49.7795 65.3782C50.0397 65.5423 50.2419 65.7726 50.3861 66.0692C50.5319 66.3659 50.6048 66.7131 50.6048 67.1108C50.6048 67.5052 50.5319 67.8499 50.3861 68.1449C50.2419 68.4399 50.0397 68.6694 49.7795 68.8335C49.521 68.9975 49.2194 69.0795 48.8747 69.0795ZM48.8747 68.5526C49.1365 68.5526 49.352 68.4854 49.521 68.3512C49.69 68.217 49.8151 68.0405 49.8964 67.8217C49.9776 67.603 50.0182 67.366 50.0182 67.1108C50.0182 66.8556 49.9776 66.6178 49.8964 66.3974C49.8151 66.177 49.69 65.9988 49.521 65.8629C49.352 65.727 49.1365 65.6591 48.8747 65.6591C48.6129 65.6591 48.3974 65.727 48.2284 65.8629C48.0593 65.9988 47.9342 66.177 47.853 66.3974C47.7718 66.6178 47.7312 66.8556 47.7312 67.1108C47.7312 67.366 47.7718 67.603 47.853 67.8217C47.9342 68.0405 48.0593 68.217 48.2284 68.3512C48.3974 68.4854 48.6129 68.5526 48.8747 68.5526ZM51.5003 69V65.1818H52.0671V65.7585H52.1068C52.1764 65.5696 52.3024 65.4163 52.4847 65.2987C52.667 65.181 52.8725 65.1222 53.1012 65.1222C53.1443 65.1222 53.1981 65.123 53.2627 65.1246C53.3274 65.1263 53.3763 65.1288 53.4094 65.1321V65.7287C53.3895 65.7237 53.3439 65.7163 53.2727 65.7063C53.2031 65.6947 53.1293 65.6889 53.0514 65.6889C52.8658 65.6889 52.7001 65.7279 52.5543 65.8058C52.4101 65.882 52.2958 65.988 52.2112 66.1239C52.1284 66.2582 52.087 66.4115 52.087 66.5838V69H51.5003Z" fill="#E5C152"/>
<path d="M30 44C39.9411 44 48 35.9411 48 26C48 16.0589 39.9411 8 30 8C20.0589 8 12 16.0589 12 26C12 35.9411 20.0589 44 30 44Z" fill="#E6C252"/>
<path d="M30.2967 16.0853C35.9275 16.0853 40.5082 20.666 40.5082 26.2967C40.5082 31.9275 35.9275 36.5082 30.2967 36.5082C24.666 36.5082 20.0853 31.9275 20.0853 26.2967C20.0853 20.666 24.666 16.0853 30.2967 16.0853ZM30.2967 15C24.0599 15 19 20.0599 19 26.2967C19 32.5335 24.0599 37.5935 30.2967 37.5935C36.5335 37.5935 41.5935 32.5335 41.5935 26.2967C41.5935 20.0599 36.5335 15 30.2967 15Z" fill="#231F20"/>
<path d="M31.8611 15.8174H29.0352V20.0175H31.8611V15.8174Z" fill="#231F20"/>
<path d="M31.8611 32.3855H29.0352V36.5857H31.8611V32.3855Z" fill="#231F20"/>
<path d="M40.1402 22.4597L38.8367 19.9524L35.1101 21.8899L36.4136 24.3972L40.1402 22.4597Z" fill="#231F20"/>
<path d="M38.8417 32.3843L40.1453 29.877L36.4187 27.9395L35.1151 30.4468L38.8417 32.3843Z" fill="#231F20"/>
<path d="M25.6329 30.4419L24.3293 27.9346L20.6027 29.872L21.9063 32.3794L25.6329 30.4419Z" fill="#231F20"/>
<path d="M24.3356 24.4045L25.6392 21.8972L21.9126 19.9598L20.609 22.4671L24.3356 24.4045Z" fill="#231F20"/>
<path d="M30.5434 22.5052C32.5095 22.5052 34.1163 24.0274 34.2643 25.9584H35.9768C35.8288 23.0831 33.4609 20.7998 30.5504 20.7998C27.6399 20.7998 25.272 23.0902 25.124 25.9584H26.8365C26.9774 24.0274 28.5842 22.5052 30.5574 22.5052H30.5434Z" fill="#231F20"/>
<path d="M30.5434 29.9683C28.6476 29.9683 27.0832 28.5518 26.8436 26.7195H25.124C25.3707 29.4961 27.6963 31.6807 30.5434 31.6807C33.3904 31.6807 35.716 29.5031 35.9627 26.7195H34.2432C34.0036 28.5518 32.4461 29.9683 30.5434 29.9683Z" fill="#231F20"/>
<path d="M30.5432 27.227C31.1231 27.227 31.5932 26.7569 31.5932 26.177C31.5932 25.5971 31.1231 25.127 30.5432 25.127C29.9633 25.127 29.4932 25.5971 29.4932 26.177C29.4932 26.7569 29.9633 27.227 30.5432 27.227Z" fill="#231F20"/>
</svg>
