<svg width="61" height="82" viewBox="0 0 61 82" fill="none" xmlns="http://www.w3.org/2000/svg">
<path d="M14.4387 55.1818C14.4088 54.9299 14.2878 54.7344 14.0757 54.5952C13.8636 54.456 13.6034 54.3864 13.2952 54.3864C13.0698 54.3864 12.8726 54.4228 12.7036 54.4957C12.5362 54.5687 12.4053 54.6689 12.3108 54.7965C12.218 54.9241 12.1716 55.0691 12.1716 55.2315C12.1716 55.3674 12.2039 55.4843 12.2686 55.582C12.3348 55.6781 12.4194 55.7585 12.5221 55.8232C12.6249 55.8861 12.7326 55.9383 12.8453 55.9798C12.9579 56.0195 13.0615 56.0518 13.156 56.0767L13.673 56.2159C13.8056 56.2507 13.9531 56.2988 14.1155 56.3601C14.2796 56.4214 14.4362 56.5051 14.5853 56.6112C14.7361 56.7156 14.8604 56.8498 14.9582 57.0138C15.056 57.1779 15.1048 57.3793 15.1048 57.6179C15.1048 57.893 15.0328 58.1416 14.8886 58.3636C14.7461 58.5857 14.5373 58.7622 14.2622 58.8931C13.9887 59.024 13.6565 59.0895 13.2654 59.0895C12.9008 59.0895 12.5851 59.0307 12.3183 58.913C12.0531 58.7953 11.8443 58.6313 11.6919 58.4208C11.541 58.2103 11.4557 57.9659 11.4358 57.6875H12.0722C12.0887 57.8797 12.1534 58.0388 12.2661 58.1648C12.3804 58.2891 12.5246 58.3819 12.6986 58.4432C12.8743 58.5028 13.0632 58.5327 13.2654 58.5327C13.5007 58.5327 13.712 58.4946 13.8992 58.4183C14.0865 58.3404 14.2348 58.2327 14.3442 58.0952C14.4536 57.956 14.5083 57.7936 14.5083 57.608C14.5083 57.4389 14.461 57.3014 14.3666 57.1953C14.2721 57.0893 14.1478 57.0031 13.9937 56.9368C13.8396 56.8705 13.673 56.8125 13.4941 56.7628L12.8676 56.5838C12.4699 56.4695 12.155 56.3062 11.923 56.0941C11.691 55.882 11.575 55.6044 11.575 55.2614C11.575 54.9763 11.6521 54.7277 11.8062 54.5156C11.962 54.3018 12.1708 54.1361 12.4326 54.0185C12.6961 53.8991 12.9903 53.8395 13.3151 53.8395C13.6432 53.8395 13.9349 53.8983 14.1901 54.016C14.4453 54.132 14.6475 54.2911 14.7966 54.4933C14.9474 54.6954 15.027 54.925 15.0352 55.1818H14.4387ZM18.4451 57.4389V55.1818H19.0318V59H18.4451V58.3537H18.4054C18.3159 58.5476 18.1767 58.7125 17.9877 58.8484C17.7988 58.9826 17.5602 59.0497 17.2718 59.0497C17.0332 59.0497 16.8211 58.9975 16.6355 58.8931C16.4499 58.7871 16.304 58.628 16.198 58.4158C16.0919 58.2021 16.0389 57.9328 16.0389 57.608V55.1818H16.6255V57.5682C16.6255 57.8466 16.7034 58.0687 16.8592 58.2344C17.0166 58.4001 17.2172 58.483 17.4608 58.483C17.6066 58.483 17.7549 58.4457 17.9057 58.3711C18.0582 58.2965 18.1858 58.1822 18.2885 58.0281C18.3929 57.8739 18.4451 57.6776 18.4451 57.4389ZM20.1063 60.4318V55.1818H20.673V55.7884H20.7426C20.7857 55.7221 20.8454 55.6375 20.9216 55.5348C20.9995 55.4304 21.1105 55.3376 21.2547 55.2564C21.4005 55.1735 21.5977 55.1321 21.8463 55.1321C22.1678 55.1321 22.4512 55.2125 22.6965 55.3732C22.9417 55.534 23.1331 55.7618 23.2707 56.0568C23.4082 56.3518 23.477 56.6998 23.477 57.1009C23.477 57.5052 23.4082 57.8557 23.2707 58.1523C23.1331 58.4473 22.9426 58.676 22.699 58.8384C22.4553 58.9992 22.1744 59.0795 21.8563 59.0795C21.611 59.0795 21.4146 59.0389 21.2671 58.9577C21.1196 58.8749 21.0061 58.7812 20.9266 58.6768C20.847 58.5708 20.7857 58.483 20.7426 58.4134H20.6929V60.4318H20.1063ZM20.683 57.0909C20.683 57.3793 20.7252 57.6336 20.8097 57.854C20.8943 58.0728 21.0177 58.2443 21.1801 58.3686C21.3425 58.4912 21.5414 58.5526 21.7767 58.5526C22.022 58.5526 22.2267 58.4879 22.3907 58.3587C22.5564 58.2277 22.6807 58.0521 22.7636 57.8317C22.8481 57.6096 22.8904 57.3627 22.8904 57.0909C22.8904 56.8224 22.8489 56.5805 22.7661 56.3651C22.6849 56.148 22.5614 55.9764 22.3957 55.8505C22.2316 55.7229 22.0253 55.6591 21.7767 55.6591C21.5381 55.6591 21.3376 55.7196 21.1752 55.8406C21.0128 55.9599 20.8901 56.1272 20.8073 56.3427C20.7244 56.5565 20.683 56.8059 20.683 57.0909ZM25.9727 59.0795C25.6048 59.0795 25.2875 58.9983 25.0207 58.8359C24.7555 58.6719 24.5509 58.4432 24.4067 58.1499C24.2642 57.8549 24.1929 57.5118 24.1929 57.1207C24.1929 56.7296 24.2642 56.3849 24.4067 56.0866C24.5509 55.7867 24.7514 55.553 25.0083 55.3857C25.2668 55.2166 25.5684 55.1321 25.9131 55.1321C26.1119 55.1321 26.3083 55.1652 26.5022 55.2315C26.6961 55.2978 26.8726 55.4055 27.0317 55.5547C27.1908 55.7022 27.3176 55.8977 27.412 56.1413C27.5065 56.3849 27.5537 56.6849 27.5537 57.0412V57.2898H24.6105V56.7827H26.9571C26.9571 56.5672 26.914 56.375 26.8279 56.206C26.7433 56.0369 26.6224 55.9035 26.4649 55.8058C26.3092 55.708 26.1252 55.6591 25.9131 55.6591C25.6794 55.6591 25.4772 55.7171 25.3066 55.8331C25.1375 55.9474 25.0074 56.0966 24.9163 56.2805C24.8251 56.4645 24.7796 56.6617 24.7796 56.8722V57.2102C24.7796 57.4986 24.8293 57.743 24.9287 57.9435C25.0298 58.1424 25.1698 58.294 25.3488 58.3984C25.5278 58.5012 25.7358 58.5526 25.9727 58.5526C26.1269 58.5526 26.2661 58.531 26.3904 58.4879C26.5163 58.4432 26.6249 58.3769 26.716 58.2891C26.8071 58.1996 26.8776 58.0885 26.9273 57.956L27.4941 58.1151C27.4344 58.3073 27.3341 58.4763 27.1933 58.6222C27.0524 58.7663 26.8784 58.879 26.6713 58.9602C26.4641 59.0398 26.2313 59.0795 25.9727 59.0795ZM28.4461 59V55.1818H29.0129V55.7585H29.0526C29.1222 55.5696 29.2482 55.4163 29.4305 55.2987C29.6128 55.181 29.8183 55.1222 30.047 55.1222C30.0901 55.1222 30.1439 55.123 30.2085 55.1246C30.2732 55.1263 30.3221 55.1288 30.3552 55.1321V55.7287C30.3353 55.7237 30.2897 55.7163 30.2185 55.7063C30.1489 55.6947 30.0751 55.6889 29.9972 55.6889C29.8116 55.6889 29.6459 55.7279 29.5001 55.8058C29.3559 55.882 29.2416 55.988 29.157 56.1239C29.0742 56.2582 29.0328 56.4115 29.0328 56.5838V59H28.4461ZM31.0506 59V55.1818H31.6373V59H31.0506ZM31.3489 54.5455C31.2346 54.5455 31.1359 54.5065 31.0531 54.4286C30.9719 54.3507 30.9313 54.2571 30.9313 54.1477C30.9313 54.0384 30.9719 53.9447 31.0531 53.8668C31.1359 53.7889 31.2346 53.75 31.3489 53.75C31.4632 53.75 31.561 53.7889 31.6422 53.8668C31.7251 53.9447 31.7665 54.0384 31.7665 54.1477C31.7665 54.2571 31.7251 54.3507 31.6422 54.4286C31.561 54.5065 31.4632 54.5455 31.3489 54.5455ZM34.2629 59.0795C33.9182 59.0795 33.6157 58.9975 33.3556 58.8335C33.097 58.6694 32.8949 58.4399 32.749 58.1449C32.6048 57.8499 32.5328 57.5052 32.5328 57.1108C32.5328 56.7131 32.6048 56.3659 32.749 56.0692C32.8949 55.7726 33.097 55.5423 33.3556 55.3782C33.6157 55.2141 33.9182 55.1321 34.2629 55.1321C34.6076 55.1321 34.9092 55.2141 35.1677 55.3782C35.4279 55.5423 35.6301 55.7726 35.7742 56.0692C35.9201 56.3659 35.993 56.7131 35.993 57.1108C35.993 57.5052 35.9201 57.8499 35.7742 58.1449C35.6301 58.4399 35.4279 58.6694 35.1677 58.8335C34.9092 58.9975 34.6076 59.0795 34.2629 59.0795ZM34.2629 58.5526C34.5247 58.5526 34.7401 58.4854 34.9092 58.3512C35.0782 58.217 35.2033 58.0405 35.2845 57.8217C35.3657 57.603 35.4063 57.366 35.4063 57.1108C35.4063 56.8556 35.3657 56.6178 35.2845 56.3974C35.2033 56.177 35.0782 55.9988 34.9092 55.8629C34.7401 55.727 34.5247 55.6591 34.2629 55.6591C34.001 55.6591 33.7856 55.727 33.6166 55.8629C33.4475 55.9988 33.3224 56.177 33.2412 56.3974C33.16 56.6178 33.1194 56.8556 33.1194 57.1108C33.1194 57.366 33.16 57.603 33.2412 57.8217C33.3224 58.0405 33.4475 58.217 33.6166 58.3512C33.7856 58.4854 34.001 58.5526 34.2629 58.5526ZM36.8885 59V55.1818H37.4553V55.7585H37.495C37.5646 55.5696 37.6906 55.4163 37.8729 55.2987C38.0552 55.181 38.2607 55.1222 38.4893 55.1222C38.5324 55.1222 38.5863 55.123 38.6509 55.1246C38.7156 55.1263 38.7644 55.1288 38.7976 55.1321V55.7287C38.7777 55.7237 38.7321 55.7163 38.6609 55.7063C38.5913 55.6947 38.5175 55.6889 38.4396 55.6889C38.254 55.6889 38.0883 55.7279 37.9425 55.8058C37.7983 55.882 37.6839 55.988 37.5994 56.1239C37.5166 56.2582 37.4751 56.4115 37.4751 56.5838V59H36.8885ZM41.7501 59H41.1038L42.9731 53.9091H43.6095L45.4788 59H44.8325L43.3112 54.7145H43.2714L41.7501 59ZM41.9887 57.0114H44.5938V57.5582H41.9887V57.0114ZM46.2332 59V55.1818H46.8199V59H46.2332ZM46.5315 54.5455C46.4172 54.5455 46.3186 54.5065 46.2357 54.4286C46.1545 54.3507 46.1139 54.2571 46.1139 54.1477C46.1139 54.0384 46.1545 53.9447 46.2357 53.8668C46.3186 53.7889 46.4172 53.75 46.5315 53.75C46.6459 53.75 46.7436 53.7889 46.8248 53.8668C46.9077 53.9447 46.9491 54.0384 46.9491 54.1477C46.9491 54.2571 46.9077 54.3507 46.8248 54.4286C46.7436 54.5065 46.6459 54.5455 46.5315 54.5455ZM47.8944 59V55.1818H48.4611V55.7585H48.5009C48.5705 55.5696 48.6964 55.4163 48.8787 55.2987C49.061 55.181 49.2665 55.1222 49.4952 55.1222C49.5383 55.1222 49.5922 55.123 49.6568 55.1246C49.7214 55.1263 49.7703 55.1288 49.8034 55.1321V55.7287C49.7836 55.7237 49.738 55.7163 49.6667 55.7063C49.5971 55.6947 49.5234 55.6889 49.4455 55.6889C49.2599 55.6889 49.0942 55.7279 48.9483 55.8058C48.8042 55.882 48.6898 55.988 48.6053 56.1239C48.5224 56.2582 48.481 56.4115 48.481 56.5838V59H47.8944ZM19.248 69H17.677V63.9091H19.3176C19.8115 63.9091 20.2341 64.011 20.5854 64.2148C20.9367 64.417 21.206 64.7079 21.3933 65.0874C21.5806 65.4652 21.6742 65.9176 21.6742 66.4446C21.6742 66.9749 21.5797 67.4315 21.3908 67.8143C21.2019 68.1954 20.9268 68.4888 20.5655 68.6942C20.2042 68.8981 19.7651 69 19.248 69ZM18.2935 68.4531H19.2083C19.6292 68.4531 19.978 68.3719 20.2548 68.2095C20.5315 68.0471 20.7379 67.8159 20.8738 67.516C21.0096 67.216 21.0776 66.8589 21.0776 66.4446C21.0776 66.0336 21.0105 65.6798 20.8762 65.3832C20.742 65.0849 20.5415 64.8562 20.2747 64.6971C20.0079 64.5363 19.6756 64.456 19.2779 64.456H18.2935V68.4531ZM24.2296 69.0795C23.8617 69.0795 23.5443 68.9983 23.2775 68.8359C23.0124 68.6719 22.8077 68.4432 22.6635 68.1499C22.521 67.8549 22.4498 67.5118 22.4498 67.1207C22.4498 66.7296 22.521 66.3849 22.6635 66.0866C22.8077 65.7867 23.0082 65.553 23.2651 65.3857C23.5236 65.2166 23.8252 65.1321 24.1699 65.1321C24.3688 65.1321 24.5652 65.1652 24.7591 65.2315C24.9529 65.2978 25.1294 65.4055 25.2885 65.5547C25.4476 65.7022 25.5744 65.8977 25.6689 66.1413C25.7633 66.3849 25.8105 66.6849 25.8105 67.0412V67.2898H22.8674V66.7827H25.214C25.214 66.5672 25.1709 66.375 25.0847 66.206C25.0002 66.0369 24.8792 65.9035 24.7218 65.8058C24.566 65.708 24.382 65.6591 24.1699 65.6591C23.9363 65.6591 23.7341 65.7171 23.5634 65.8331C23.3944 65.9474 23.2643 66.0966 23.1731 66.2805C23.082 66.4645 23.0364 66.6617 23.0364 66.8722V67.2102C23.0364 67.4986 23.0861 67.743 23.1855 67.9435C23.2866 68.1424 23.4267 68.294 23.6056 68.3984C23.7846 68.5012 23.9926 68.5526 24.2296 68.5526C24.3837 68.5526 24.5229 68.531 24.6472 68.4879C24.7731 68.4432 24.8817 68.3769 24.9728 68.2891C25.064 68.1996 25.1344 68.0885 25.1841 67.956L25.7509 68.1151C25.6912 68.3073 25.591 68.4763 25.4501 68.6222C25.3092 68.7663 25.1352 68.879 24.9281 68.9602C24.7209 69.0398 24.4881 69.0795 24.2296 69.0795ZM27.2896 63.9091V69H26.7029V63.9091H27.2896ZM28.3641 69V65.1818H28.9507V69H28.3641ZM28.6624 64.5455C28.548 64.5455 28.4494 64.5065 28.3666 64.4286C28.2854 64.3507 28.2448 64.2571 28.2448 64.1477C28.2448 64.0384 28.2854 63.9447 28.3666 63.8668C28.4494 63.7889 28.548 63.75 28.6624 63.75C28.7767 63.75 28.8745 63.7889 28.9557 63.8668C29.0386 63.9447 29.08 64.0384 29.08 64.1477C29.08 64.2571 29.0386 64.3507 28.9557 64.4286C28.8745 64.5065 28.7767 64.5455 28.6624 64.5455ZM33.1474 65.1818L31.7354 69H31.1388L29.7269 65.1818H30.3633L31.4173 68.2244H31.457L32.511 65.1818H33.1474ZM35.3858 69.0795C35.0179 69.0795 34.7006 68.9983 34.4338 68.8359C34.1686 68.6719 33.964 68.4432 33.8198 68.1499C33.6773 67.8549 33.606 67.5118 33.606 67.1207C33.606 66.7296 33.6773 66.3849 33.8198 66.0866C33.964 65.7867 34.1645 65.553 34.4213 65.3857C34.6799 65.2166 34.9815 65.1321 35.3262 65.1321C35.525 65.1321 35.7214 65.1652 35.9153 65.2315C36.1092 65.2978 36.2857 65.4055 36.4448 65.5547C36.6039 65.7022 36.7306 65.8977 36.8251 66.1413C36.9196 66.3849 36.9668 66.6849 36.9668 67.0412V67.2898H34.0236V66.7827H36.3702C36.3702 66.5672 36.3271 66.375 36.2409 66.206C36.1564 66.0369 36.0355 65.9035 35.878 65.8058C35.7222 65.708 35.5383 65.6591 35.3262 65.6591C35.0925 65.6591 34.8903 65.7171 34.7196 65.8331C34.5506 65.9474 34.4205 66.0966 34.3294 66.2805C34.2382 66.4645 34.1926 66.6617 34.1926 66.8722V67.2102C34.1926 67.4986 34.2424 67.743 34.3418 67.9435C34.4429 68.1424 34.5829 68.294 34.7619 68.3984C34.9409 68.5012 35.1489 68.5526 35.3858 68.5526C35.54 68.5526 35.6792 68.531 35.8034 68.4879C35.9294 68.4432 36.0379 68.3769 36.1291 68.2891C36.2202 68.1996 36.2907 68.0885 36.3404 67.956L36.9071 68.1151C36.8475 68.3073 36.7472 68.4763 36.6064 68.6222C36.4655 68.7663 36.2915 68.879 36.0843 68.9602C35.8772 69.0398 35.6444 69.0795 35.3858 69.0795ZM37.8592 69V65.1818H38.426V65.7585H38.4657C38.5353 65.5696 38.6613 65.4163 38.8436 65.2987C39.0259 65.181 39.2314 65.1222 39.46 65.1222C39.5031 65.1222 39.557 65.123 39.6216 65.1246C39.6863 65.1263 39.7351 65.1288 39.7683 65.1321V65.7287C39.7484 65.7237 39.7028 65.7163 39.6316 65.7063C39.562 65.6947 39.4882 65.6889 39.4103 65.6889C39.2247 65.6889 39.059 65.7279 38.9132 65.8058C38.769 65.882 38.6547 65.988 38.5701 66.1239C38.4873 66.2582 38.4458 66.4115 38.4458 66.5838V69H37.8592ZM40.9577 70.4318C40.8583 70.4318 40.7696 70.4235 40.6918 70.407C40.6139 70.392 40.56 70.3771 40.5302 70.3622L40.6793 69.8452C40.8219 69.8816 40.9478 69.8949 41.0572 69.8849C41.1665 69.875 41.2635 69.8261 41.348 69.7383C41.4342 69.6521 41.5129 69.5121 41.5842 69.3182L41.6935 69.0199L40.2816 65.1818H40.918L41.9719 68.2244H42.0117L43.0657 65.1818H43.7021L42.0813 69.5568C42.0084 69.754 41.9181 69.9173 41.8104 70.0465C41.7027 70.1774 41.5775 70.2744 41.435 70.3374C41.2942 70.4003 41.1351 70.4318 40.9577 70.4318Z" fill="#E5C152"/>
<path d="M30 44C39.9411 44 48 35.9411 48 26C48 16.0589 39.9411 8 30 8C20.0589 8 12 16.0589 12 26C12 35.9411 20.0589 44 30 44Z" fill="#E6C252"/>
<path d="M19 28.7355C19 28.7355 19 28.9584 19.2445 28.9584C19.2445 29.1813 19.2445 29.4042 19.489 29.6272C19.7334 30.073 19.9707 30.526 20.2152 30.9718C20.697 31.4176 20.9415 31.6405 21.4232 31.8706C21.905 32.3165 22.394 32.5394 22.8757 32.7695C23.1202 32.7695 23.3575 32.9924 23.602 32.9924C24.0837 32.9924 24.3282 33.2153 24.5727 33.2153H25.7807C26.0252 33.2153 26.0252 32.9924 26.2625 32.9924C26.7443 32.9924 27.2332 32.7695 27.715 32.5466C28.1968 32.3236 28.6857 32.1007 29.1675 31.8778C29.412 31.6549 29.8937 31.2091 30.1382 30.979C30.62 30.7561 31.109 30.5332 31.3462 30.3103C32.317 29.8645 32.7987 29.6415 33.2805 29.4114H34.2512V29.6344H35.222C35.7037 29.8573 36.1927 30.0802 36.6745 30.5332C37.1562 30.7561 37.4007 31.2019 37.6452 31.432C37.8897 31.6549 37.8897 31.8778 38.127 32.1007V32.3236L38.8532 31.8778H39.0977L39.5795 31.6549C39.5795 31.432 39.335 31.432 39.335 31.432C39.335 30.9862 39.0905 30.7633 38.8532 30.3103C38.6087 29.8645 38.127 29.4114 37.6452 28.9656C37.4007 28.7427 37.1634 28.5198 36.919 28.2969C36.6745 28.074 36.1927 28.074 35.9482 27.8511C35.4664 27.6282 34.9775 27.6282 34.7402 27.4053H33.2877C32.8059 27.4053 32.0797 27.4053 31.5907 27.6282C31.3462 27.8511 30.8645 28.074 30.3827 28.2969C29.9009 28.7427 29.412 28.9656 28.9302 29.1957C28.4484 29.4186 28.204 29.6415 27.9595 29.8645C26.9887 30.5332 26.2625 30.7633 25.7807 30.9862H24.5727C24.3282 30.9862 23.8465 30.9862 23.602 30.7633C23.1202 30.7633 22.8757 30.5404 22.394 30.3175C22.394 30.3175 22.1495 30.0946 21.9122 30.0946C21.9122 29.8717 21.6677 29.8717 21.4304 29.6487C21.1859 29.4258 20.9486 29.2029 20.7042 28.7499C20.7042 28.7499 20.4597 28.527 20.4597 28.3041C20.4597 28.3041 20.4597 28.0812 20.2152 28.0812L19.0072 28.7499L19 28.7355Z" fill="black"/>
<path d="M19 23.8603V24.0832C19 24.0832 19 24.3061 19.2445 24.3061C19.2445 24.529 19.2445 24.7519 19.489 24.9748C19.7334 25.4206 19.9707 25.8736 20.2152 26.0966C20.697 26.5424 20.9415 26.9954 21.4232 27.2183C21.905 27.6641 22.394 27.887 22.8757 28.1171C23.1202 28.1171 23.3575 28.1171 23.602 28.34H24.5727L24.8172 28.5629H25.5434C25.5434 28.34 25.7879 28.34 25.7879 28.34H26.2697C26.7515 28.34 27.2404 28.1171 27.7222 27.8942C28.2039 27.6713 28.6929 27.4484 29.1747 26.9954C29.4192 26.7725 29.9009 26.5496 30.1454 26.3267C30.6272 26.1038 31.1161 25.8808 31.3534 25.6579C32.3242 25.2121 32.8059 24.7591 33.2877 24.7591H34.2584C34.5029 24.7591 34.9847 24.982 35.2292 24.982C35.7109 25.2049 36.1999 25.4278 36.6817 25.6507C37.1634 26.0966 37.4079 26.3195 37.6524 26.5496C37.8969 26.7725 37.8969 26.9954 38.1342 27.4484L38.8604 27.2255L39.5867 26.7797C39.5867 26.7797 39.3422 26.7797 39.3422 26.5568C39.3422 26.3338 39.0977 25.888 38.8604 25.6579C38.6159 25.2121 38.1342 24.7591 37.6524 24.3133C37.4079 24.0904 37.1706 23.8675 36.9261 23.6446C36.6817 23.4217 36.1999 23.1987 35.9554 23.1987C35.4736 22.9758 34.9847 22.7529 34.7474 22.7529H34.2656C34.1026 22.7529 34.0211 22.6786 34.0211 22.53H33.2949C32.8131 22.7529 32.0869 22.7529 31.5979 22.9758C31.3534 23.1988 30.8717 23.4217 30.3899 23.6446C29.9081 23.8675 29.4192 24.3133 28.9374 24.5434C28.4556 24.7663 28.2111 24.9892 27.9667 25.2121C26.9959 25.6579 26.2697 26.1109 25.7879 26.1109C25.7879 26.3338 25.5434 26.3338 25.5434 26.3338H24.5727C24.3282 26.3338 23.8465 26.3338 23.602 26.1109C23.1202 26.1109 22.8757 25.888 22.394 25.6651C22.394 25.6651 22.1495 25.4422 21.9122 25.4422C21.9122 25.2193 21.6677 25.2193 21.4304 24.9964C21.1859 24.7735 20.9486 24.3277 20.7042 24.0976C20.7042 23.8747 20.4597 23.8747 20.4597 23.6518C20.4597 23.4289 20.4597 23.4289 20.2152 23.4289L19.0072 23.8747L19 23.8603Z" fill="black"/>
<path d="M19.978 19.3375C19.978 19.4861 20.0595 19.6347 20.2225 19.7833C20.2225 20.0062 20.2225 20.2291 20.467 20.452C20.7115 20.8978 20.9487 21.3508 21.1932 21.5737C21.675 22.0195 21.9195 22.4725 22.4013 22.6955C22.883 22.9184 23.372 23.1413 23.8538 23.3642C24.0982 23.5871 24.3355 23.5871 24.58 23.5871C25.0618 23.81 25.3063 23.81 25.5507 23.81H27.2477C27.7295 23.5871 28.2184 23.5871 28.7002 23.1413C29.182 22.9184 29.6709 22.6955 30.1527 22.4725C30.3972 22.2496 30.879 22.0267 31.1234 21.8038C31.6052 21.5809 32.0942 21.1351 32.3315 20.905C33.3022 20.4592 33.784 20.2363 34.2657 20.2363H35.2365C35.4809 20.2363 35.9627 20.2363 36.2072 20.4592C36.689 20.6821 37.1779 20.905 37.6597 21.1279C38.1415 21.5737 38.3859 21.7966 38.6304 22.0267C38.8749 22.2496 38.8749 22.4725 39.1122 22.6955V22.9184L39.8384 22.6955L40.0829 22.4725L40.5647 22.2496L40.3202 22.0267C40.3202 21.5809 40.0757 21.358 39.8384 21.1279C39.594 20.6821 39.1122 20.2291 38.6304 19.7833C38.3859 19.5604 38.1486 19.3375 37.9042 19.1145C37.6597 18.8916 37.1779 18.6687 36.9334 18.4458C36.4517 18.4458 35.9627 18.2229 35.7254 18.2229C35.4881 18.2229 35.4809 18 35.2436 18H34.2729C33.7911 18 33.0649 18.2229 32.5759 18.4458C32.3315 18.4458 31.8497 18.6687 31.3679 19.1145C30.8862 19.3375 30.3972 19.5604 29.9154 20.0134C29.4336 20.2363 29.1892 20.4592 28.9447 20.4592C27.974 21.1279 27.2477 21.358 26.7659 21.5809H26.5215C26.5215 21.5809 26.277 21.5809 26.277 21.8038H25.5507C25.3063 21.8038 24.8245 21.5809 24.58 21.5809C24.0982 21.358 23.8538 21.358 23.372 21.1351C23.372 20.9122 23.1275 20.9122 22.8902 20.6893C22.8902 20.6893 22.6457 20.4664 22.4084 20.4664C22.164 20.0206 21.9267 19.7976 21.6822 19.5675C21.6822 19.3446 21.4377 19.1217 21.4377 19.1217V18.8988H21.1932V18.6759L19.9852 19.3446L19.978 19.3375Z" fill="black"/>
</svg>
