<svg width="119" height="35" viewBox="0 0 119 35" fill="none" xmlns="http://www.w3.org/2000/svg">
<path d="M7 21.1467C7 21.1467 7 21.3989 7.27209 21.3989C7.27209 21.6511 7.27208 21.9033 7.54417 22.1555C7.81626 22.66 8.08036 23.1725 8.35245 23.6769C8.88863 24.1814 9.16071 24.4336 9.69689 24.6939C10.2331 25.1983 10.7772 25.4505 11.3134 25.7109C11.5855 25.7109 11.8496 25.9631 12.1217 25.9631C12.6579 25.9631 12.93 26.2153 13.202 26.2153H14.5465C14.8186 26.2153 14.8186 25.9631 15.0827 25.9631C15.6188 25.9631 16.163 25.7109 16.6992 25.4587C17.2354 25.2065 17.7796 24.9542 18.3157 24.702C18.5878 24.4498 19.124 23.9454 19.3961 23.6851C19.9323 23.4329 20.4764 23.1807 20.7405 22.9284C21.8209 22.424 22.3571 22.1718 22.8932 21.9115H23.9736V22.1637H25.054C25.5901 22.4159 26.1343 22.6681 26.6705 23.1807C27.2067 23.4329 27.4787 23.9373 27.7508 24.1976C28.0229 24.4498 28.0229 24.702 28.287 24.9542V25.2064L29.0953 24.702H29.3674L29.9036 24.4498C29.9036 24.1976 29.6315 24.1976 29.6315 24.1976C29.6315 23.6932 29.3594 23.441 29.0953 22.9284C28.8232 22.424 28.287 21.9115 27.7508 21.4071C27.4787 21.1549 27.2147 20.9026 26.9426 20.6504C26.6705 20.3982 26.1343 20.3982 25.8622 20.146C25.326 19.8938 24.7819 19.8938 24.5178 19.6416H22.9012C22.3651 19.6416 21.5568 19.6416 21.0126 19.8938C20.7405 20.146 20.2044 20.3982 19.6682 20.6504C19.132 21.1549 18.5878 21.4071 18.0516 21.6674C17.5155 21.9196 17.2434 22.1718 16.9713 22.424C15.8909 23.1807 15.0827 23.441 14.5465 23.6932H13.202C12.93 23.6932 12.3938 23.6932 12.1217 23.441C11.5855 23.441 11.3134 23.1888 10.7772 22.9366C10.7772 22.9366 10.5051 22.6844 10.2411 22.6844C10.2411 22.4322 9.96897 22.4322 9.70488 22.18C9.43279 21.9278 9.16871 21.6756 8.89662 21.163C8.89662 21.163 8.62453 20.9108 8.62453 20.6586C8.62453 20.6586 8.62454 20.4064 8.35245 20.4064L7.008 21.163L7 21.1467Z" fill="white" fill-opacity="0.7"/>
<path d="M7 15.6306V15.8828C7 15.8828 7 16.135 7.27209 16.135C7.27209 16.3872 7.27208 16.6394 7.54417 16.8916C7.81626 17.3961 8.08036 17.9086 8.35245 18.1608C8.88862 18.6652 9.16071 19.1778 9.69689 19.43C10.2331 19.9344 10.7772 20.1866 11.3134 20.447C11.5855 20.447 11.8496 20.447 12.1217 20.6992H13.202L13.4741 20.9514H14.2824C14.2824 20.6992 14.5545 20.6992 14.5545 20.6992H15.0907C15.6268 20.6992 16.171 20.447 16.7072 20.1948C17.2434 19.9426 17.7876 19.6903 18.3237 19.1778C18.5958 18.9256 19.132 18.6734 19.4041 18.4212C19.9403 18.169 20.4844 17.9167 20.7485 17.6645C21.8289 17.1601 22.3651 16.6476 22.9012 16.6476H23.9816C24.2537 16.6476 24.7899 16.8998 25.062 16.8998C25.5981 17.152 26.1423 17.4042 26.6785 17.6564C27.2147 18.1608 27.4868 18.413 27.7588 18.6734C28.0309 18.9256 28.0309 19.1778 28.295 19.6903L29.1033 19.4381L29.9115 18.9337C29.9115 18.9337 29.6395 18.9337 29.6395 18.6815C29.6395 18.4293 29.3674 17.9249 29.1033 17.6645C28.8312 17.1601 28.295 16.6476 27.7588 16.1432C27.4868 15.8909 27.2227 15.6387 26.9506 15.3865C26.6785 15.1343 26.1423 14.8821 25.8702 14.8821C25.334 14.6299 24.7899 14.3777 24.5258 14.3777H23.9896C23.8082 14.3777 23.7175 14.2936 23.7175 14.1255H22.9092C22.3731 14.3777 21.5648 14.3777 21.0206 14.6299C20.7485 14.8821 20.2124 15.1343 19.6762 15.3865C19.14 15.6387 18.5958 16.1431 18.0596 16.4035C17.5235 16.6557 17.2514 16.9079 16.9793 17.1601C15.8989 17.6645 15.0907 18.1771 14.5545 18.1771C14.5545 18.4293 14.2824 18.4293 14.2824 18.4293H13.202C12.93 18.4293 12.3938 18.4293 12.1217 18.1771C11.5855 18.1771 11.3134 17.9249 10.7772 17.6727C10.7772 17.6727 10.5051 17.4205 10.2411 17.4205C10.2411 17.1683 9.96897 17.1683 9.70488 16.916C9.43279 16.6638 9.16871 16.1594 8.89662 15.8991C8.89662 15.6469 8.62453 15.6469 8.62453 15.3947C8.62453 15.1425 8.62454 15.1425 8.35245 15.1425L7.008 15.6469L7 15.6306Z" fill="white" fill-opacity="0.7"/>
<path d="M8.0885 10.5133C8.0885 10.6814 8.17919 10.8495 8.36059 11.0177C8.36059 11.2699 8.36058 11.5221 8.63267 11.7743C8.90476 12.2787 9.16885 12.7913 9.44094 13.0435C9.97711 13.5479 10.2492 14.0604 10.7854 14.3127C11.3216 14.5649 11.8657 14.8171 12.4019 15.0693C12.674 15.3215 12.9381 15.3215 13.2102 15.3215C13.7464 15.5737 14.0185 15.5737 14.2905 15.5737H16.1792C16.7153 15.3215 17.2595 15.3215 17.7957 14.8171C18.3319 14.5649 18.8761 14.3127 19.4122 14.0604C19.6843 13.8082 20.2205 13.556 20.4926 13.3038C21.0288 13.0516 21.5729 12.5472 21.837 12.2868C22.9174 11.7824 23.4536 11.5302 23.9897 11.5302H25.0701C25.3422 11.5302 25.8784 11.5302 26.1505 11.7824C26.6866 12.0346 27.2308 12.2868 27.767 12.539C28.3032 13.0435 28.5752 13.2957 28.8473 13.556C29.1194 13.8082 29.1194 14.0604 29.3835 14.3127V14.5649L30.1918 14.3127L30.4639 14.0604L31 13.8082L30.728 13.556C30.728 13.0516 30.4559 12.7994 30.1918 12.539C29.9197 12.0346 29.3835 11.5221 28.8473 11.0177C28.5752 10.7655 28.3112 10.5133 28.0391 10.261C27.767 10.0088 27.2308 9.75662 26.9587 9.50441C26.4225 9.50441 25.8784 9.25221 25.6143 9.25221C25.3502 9.25221 25.3422 9 25.0781 9H23.9977C23.4616 9 22.6533 9.2522 22.1091 9.50441C21.837 9.50441 21.3009 9.75663 20.7647 10.261C20.2285 10.5133 19.6843 10.7655 19.1481 11.278C18.612 11.5302 18.3399 11.7824 18.0678 11.7824C16.9874 12.5391 16.1792 12.7994 15.643 13.0516H15.3709C15.3709 13.0516 15.0988 13.0516 15.0988 13.3038H14.2905C14.0185 13.3038 13.4823 13.0516 13.2102 13.0516C12.674 12.7994 12.4019 12.7994 11.8657 12.5472C11.8657 12.295 11.5936 12.295 11.3296 12.0428C11.3296 12.0428 11.0575 11.7906 10.7934 11.7906C10.5213 11.2861 10.2572 11.0339 9.98512 10.7736C9.98512 10.5214 9.71304 10.2692 9.71304 10.2692V10.017H9.44094V9.76476L8.0965 10.5214L8.0885 10.5133Z" fill="white" fill-opacity="0.7"/>
<path d="M42.6056 10.7925C42.6056 11.2828 42.8909 11.4968 44.0856 11.7821C45.4051 12.1031 46.0916 12.5756 46.0916 13.6187C46.0916 14.7956 45.1733 15.491 43.8627 15.491C42.9087 15.491 42.0083 15.1611 41.2593 14.4924L41.9191 13.7079C42.5164 14.225 43.1138 14.5192 43.8894 14.5192C44.567 14.5192 44.995 14.2071 44.995 13.7257C44.995 13.271 44.7453 13.0303 43.5863 12.7628C42.2579 12.4418 41.509 12.0496 41.509 10.8905C41.509 9.80287 42.4005 9.07178 43.6398 9.07178C44.5492 9.07178 45.2714 9.34817 45.9044 9.85635L45.3159 10.6855C44.7543 10.2664 44.1926 10.0436 43.622 10.0436C42.9801 10.0436 42.6056 10.3734 42.6056 10.7925ZM52.267 9.16094V12.7004C52.267 14.5638 51.2149 15.4999 49.5834 15.4999C47.9607 15.4999 46.9265 14.5638 46.9265 12.7539V9.16094H48.0231V12.7093C48.0231 13.8683 48.6205 14.4924 49.6012 14.4924C50.573 14.4924 51.1703 13.904 51.1703 12.7539V9.16094H52.267ZM58.2478 11.2561C58.2478 12.6647 57.1245 13.3958 55.7515 13.3958H54.5122V15.4018H53.4156V9.16094H55.8763C57.3295 9.16094 58.2478 9.98117 58.2478 11.2561ZM57.1334 11.2828C57.1334 10.5428 56.6074 10.1595 55.7871 10.1595H54.5122V12.4062H55.7871C56.6163 12.4062 57.1334 11.9515 57.1334 11.2828ZM63.6415 9.16094V10.1416H60.1109V11.7643H63.2403V12.745H60.1109V14.4211H63.6861V15.4018H59.0143V9.16094H63.6415ZM69.9263 15.4018H68.6335L67.1 13.2264H65.727V15.4018H64.6304V9.16094H67.4121C68.8475 9.16094 69.7301 9.91876 69.7301 11.1402C69.7301 12.1744 69.115 12.7985 68.2412 13.0392L69.9263 15.4018ZM68.6157 11.2026C68.6157 10.5161 68.1343 10.1595 67.3229 10.1595H65.727V12.2546H67.3319C68.1164 12.2546 68.6157 11.8445 68.6157 11.2026ZM70.7791 9.16094H71.8757V15.4018H70.7791V9.16094ZM79.4396 12.2724C79.4396 14.0377 78.0844 15.5088 76.1675 15.5088C74.2507 15.5088 72.9134 14.0556 72.9134 12.2903C72.9134 10.525 74.2685 9.05396 76.1854 9.05396C78.1022 9.05396 79.4396 10.5072 79.4396 12.2724ZM78.2894 12.2903C78.2894 11.0688 77.4068 10.0614 76.1675 10.0614C74.9283 10.0614 74.0635 11.051 74.0635 12.2724C74.0635 13.4939 74.9461 14.5013 76.1854 14.5013C77.4246 14.5013 78.2894 13.5117 78.2894 12.2903ZM85.7037 15.4018H84.411L82.8775 13.2264H81.5045V15.4018H80.4079V9.16094H83.1895C84.6249 9.16094 85.5076 9.91876 85.5076 11.1402C85.5076 12.1744 84.8924 12.7985 84.0187 13.0392L85.7037 15.4018ZM84.3931 11.2026C84.3931 10.5161 83.9117 10.1595 83.1004 10.1595H81.5045V12.2546H83.1093C83.8939 12.2546 84.3931 11.8445 84.3931 11.2026ZM44.9058 20.1163L47.6518 26.4018H46.4928L45.8598 24.8951H42.9087L42.2668 26.4018H41.1434L43.8894 20.1163H44.9058ZM45.4586 23.9233L44.3798 21.4269L43.3099 23.9233H45.4586ZM48.4278 20.1609H49.5244V26.4018H48.4278V20.1609ZM56.1343 26.4018H54.8415L53.3081 24.2264H51.9351V26.4018H50.8384V20.1609H53.6201C55.0555 20.1609 55.9382 20.9187 55.9382 22.1402C55.9382 23.1744 55.323 23.7985 54.4493 24.0392L56.1343 26.4018ZM54.8237 22.2026C54.8237 21.5161 54.3423 21.1595 53.5309 21.1595H51.9351V23.2546H53.5399C54.3244 23.2546 54.8237 22.8445 54.8237 22.2026ZM64.8846 23.2724C64.8846 25.0377 63.5294 26.4018 61.568 26.4018H59.241V20.1609H61.568C63.5294 20.1609 64.8846 21.5072 64.8846 23.2724ZM63.7345 23.2903C63.7345 22.0599 62.8786 21.1595 61.568 21.1595H60.3376V25.4033H61.568C62.8786 25.4033 63.7345 24.5206 63.7345 23.2903ZM70.4856 20.1609V21.1416H66.955V22.7643H70.0844V23.745H66.955V25.4211H70.5302V26.4018H65.8584V20.1609H70.4856ZM71.4745 26.4018V20.1609H72.5711V25.4033H75.8521V26.4018H71.4745ZM76.7003 20.1609H77.7969V26.4018H76.7003V20.1609ZM81.6697 24.9575L83.542 20.1609H84.7278L82.1333 26.4464H81.1704L78.576 20.1609H79.7885L81.6697 24.9575ZM90.0682 20.1609V21.1416H86.5376V22.7643H89.667V23.745H86.5376V25.4211H90.1128V26.4018H85.441V20.1609H90.0682ZM96.353 26.4018H95.0602L93.5267 24.2264H92.1537V26.4018H91.0571V20.1609H93.8388C95.2742 20.1609 96.1568 20.9187 96.1568 22.1402C96.1568 23.1744 95.5417 23.7985 94.6679 24.0392L96.353 26.4018ZM95.0424 22.2026C95.0424 21.5161 94.5609 21.1595 93.7496 21.1595H92.1537V23.2546H93.7585C94.5431 23.2546 95.0424 22.8445 95.0424 22.2026ZM99.8592 23.9144V26.4018H98.7536V23.9411L96.2751 20.1609H97.5679L99.3153 22.9247L101.081 20.1609H102.338L99.8592 23.9144Z" fill="white" fill-opacity="0.7"/>
</svg>
