<svg width="61" height="82" viewBox="0 0 61 82" fill="none" xmlns="http://www.w3.org/2000/svg">
<path d="M11.951 59H11.2124L13.3487 53.1818H14.076L16.2124 59H15.4737L13.7351 54.1023H13.6896L11.951 59ZM12.2237 56.7273H15.201V57.3523H12.2237V56.7273ZM17.6982 53.1818V59H17.0277V53.1818H17.6982ZM21.6761 57.2159V54.6364H22.3466V59H21.6761V58.2614H21.6307C21.5284 58.483 21.3693 58.6714 21.1534 58.8267C20.9375 58.9801 20.6648 59.0568 20.3352 59.0568C20.0625 59.0568 19.8201 58.9972 19.608 58.8778C19.3958 58.7566 19.2292 58.5748 19.108 58.3324C18.9867 58.0881 18.9261 57.7803 18.9261 57.4091V54.6364H19.5966V57.3636C19.5966 57.6818 19.6856 57.9356 19.8636 58.125C20.0436 58.3144 20.2727 58.4091 20.5511 58.4091C20.7178 58.4091 20.8873 58.3665 21.0597 58.2812C21.2339 58.196 21.3797 58.0653 21.4972 57.8892C21.6165 57.7131 21.6761 57.4886 21.6761 57.2159ZM23.5746 59V54.6364H24.2223V55.3182H24.2791C24.37 55.0852 24.5168 54.9044 24.7195 54.7756C24.9221 54.6449 25.1655 54.5795 25.4496 54.5795C25.7375 54.5795 25.977 54.6449 26.1683 54.7756C26.3615 54.9044 26.5121 55.0852 26.62 55.3182H26.6655C26.7772 55.0928 26.9448 54.9138 27.1683 54.7812C27.3918 54.6468 27.6598 54.5795 27.9723 54.5795C28.3625 54.5795 28.6816 54.7017 28.9297 54.946C29.1778 55.1884 29.3018 55.5663 29.3018 56.0795V59H28.6314V56.0795C28.6314 55.7576 28.5433 55.5275 28.3672 55.3892C28.1911 55.2509 27.9837 55.1818 27.745 55.1818C27.4382 55.1818 27.2005 55.2746 27.032 55.4602C26.8634 55.6439 26.7791 55.8769 26.7791 56.1591V59H26.0973V56.0114C26.0973 55.7633 26.0168 55.5634 25.8558 55.4119C25.6948 55.2585 25.4875 55.1818 25.2337 55.1818C25.0594 55.1818 24.8965 55.2282 24.745 55.321C24.5954 55.4138 24.4742 55.5426 24.3814 55.7074C24.2905 55.8703 24.245 56.0587 24.245 56.2727V59H23.5746ZM30.5277 59V54.6364H31.1982V59H30.5277ZM30.8686 53.9091C30.7379 53.9091 30.6252 53.8646 30.5305 53.7756C30.4377 53.6866 30.3913 53.5795 30.3913 53.4545C30.3913 53.3295 30.4377 53.2225 30.5305 53.1335C30.6252 53.0445 30.7379 53 30.8686 53C30.9993 53 31.111 53.0445 31.2038 53.1335C31.2985 53.2225 31.3459 53.3295 31.3459 53.4545C31.3459 53.5795 31.2985 53.6866 31.2038 53.7756C31.111 53.8646 30.9993 53.9091 30.8686 53.9091ZM33.0966 56.375V59H32.4261V54.6364H33.0739V55.3182H33.1307C33.233 55.0966 33.3883 54.9186 33.5966 54.7841C33.8049 54.6477 34.0739 54.5795 34.4034 54.5795C34.6989 54.5795 34.9574 54.6402 35.179 54.7614C35.4006 54.8807 35.5729 55.0625 35.696 55.3068C35.8191 55.5492 35.8807 55.8561 35.8807 56.2273V59H35.2102V56.2727C35.2102 55.9299 35.1212 55.6629 34.9432 55.4716C34.7652 55.2784 34.5208 55.1818 34.2102 55.1818C33.9962 55.1818 33.8049 55.2282 33.6364 55.321C33.4697 55.4138 33.3381 55.5492 33.2415 55.7273C33.1449 55.9053 33.0966 56.1212 33.0966 56.375ZM37.1058 59V54.6364H37.7763V59H37.1058ZM37.4467 53.9091C37.3161 53.9091 37.2034 53.8646 37.1087 53.7756C37.0159 53.6866 36.9695 53.5795 36.9695 53.4545C36.9695 53.3295 37.0159 53.2225 37.1087 53.1335C37.2034 53.0445 37.3161 53 37.4467 53C37.5774 53 37.6892 53.0445 37.782 53.1335C37.8767 53.2225 37.924 53.3295 37.924 53.4545C37.924 53.5795 37.8767 53.6866 37.782 53.7756C37.6892 53.8646 37.5774 53.9091 37.4467 53.9091ZM41.7543 57.2159V54.6364H42.4247V59H41.7543V58.2614H41.7088C41.6065 58.483 41.4474 58.6714 41.2315 58.8267C41.0156 58.9801 40.7429 59.0568 40.4134 59.0568C40.1406 59.0568 39.8982 58.9972 39.6861 58.8778C39.474 58.7566 39.3073 58.5748 39.1861 58.3324C39.0649 58.0881 39.0043 57.7803 39.0043 57.4091V54.6364H39.6747V57.3636C39.6747 57.6818 39.7637 57.9356 39.9418 58.125C40.1217 58.3144 40.3509 58.4091 40.6293 58.4091C40.7959 58.4091 40.9654 58.3665 41.1378 58.2812C41.312 58.196 41.4579 58.0653 41.5753 57.8892C41.6946 57.7131 41.7543 57.4886 41.7543 57.2159ZM43.6527 59V54.6364H44.3004V55.3182H44.3572C44.4482 55.0852 44.5949 54.9044 44.7976 54.7756C45.0002 54.6449 45.2436 54.5795 45.5277 54.5795C45.8156 54.5795 46.0552 54.6449 46.2464 54.7756C46.4396 54.9044 46.5902 55.0852 46.6982 55.3182H46.7436C46.8554 55.0928 47.023 54.9138 47.2464 54.7812C47.4699 54.6468 47.7379 54.5795 48.0504 54.5795C48.4406 54.5795 48.7597 54.7017 49.0078 54.946C49.2559 55.1884 49.38 55.5663 49.38 56.0795V59H48.7095V56.0795C48.7095 55.7576 48.6214 55.5275 48.4453 55.3892C48.2692 55.2509 48.0618 55.1818 47.8232 55.1818C47.5163 55.1818 47.2786 55.2746 47.1101 55.4602C46.9415 55.6439 46.8572 55.8769 46.8572 56.1591V59H46.1754V56.0114C46.1754 55.7633 46.0949 55.5634 45.9339 55.4119C45.773 55.2585 45.5656 55.1818 45.3118 55.1818C45.1375 55.1818 44.9747 55.2282 44.8232 55.321C44.6735 55.4138 44.5523 55.5426 44.4595 55.7074C44.3686 55.8703 44.3232 56.0587 44.3232 56.2727V59H43.6527ZM18.4975 69V63.1818H20.5316C20.9369 63.1818 21.2712 63.2519 21.5344 63.392C21.7977 63.5303 21.9937 63.7169 22.1225 63.9517C22.2513 64.1847 22.3157 64.4432 22.3157 64.7273C22.3157 64.9773 22.2712 65.1837 22.1822 65.3466C22.0951 65.5095 21.9795 65.6383 21.8356 65.733C21.6935 65.8277 21.5392 65.8977 21.3725 65.9432V66C21.5505 66.0114 21.7295 66.0739 21.9094 66.1875C22.0894 66.3011 22.2399 66.464 22.3612 66.6761C22.4824 66.8883 22.543 67.1477 22.543 67.4545C22.543 67.7462 22.4767 68.0085 22.3441 68.2415C22.2115 68.4744 22.0022 68.6591 21.7163 68.7955C21.4303 68.9318 21.0581 69 20.5998 69H18.4975ZM19.2021 68.375H20.5998C21.06 68.375 21.3867 68.286 21.5799 68.108C21.775 67.928 21.8725 67.7102 21.8725 67.4545C21.8725 67.2576 21.8223 67.0758 21.7219 66.9091C21.6216 66.7405 21.4786 66.6061 21.293 66.5057C21.1074 66.4034 20.8877 66.3523 20.6339 66.3523H19.2021V68.375ZM19.2021 65.7386H20.5089C20.721 65.7386 20.9123 65.697 21.0827 65.6136C21.2551 65.5303 21.3915 65.4129 21.4918 65.2614C21.5941 65.1098 21.6452 64.9318 21.6452 64.7273C21.6452 64.4716 21.5562 64.2547 21.3782 64.0767C21.2002 63.8968 20.918 63.8068 20.5316 63.8068H19.2021V65.7386ZM24.2802 63.1818V69H23.6097V63.1818H24.2802ZM26.7923 69.1023C26.5157 69.1023 26.2648 69.0502 26.0394 68.946C25.814 68.84 25.6351 68.6875 25.5025 68.4886C25.3699 68.2879 25.3036 68.0455 25.3036 67.7614C25.3036 67.5114 25.3529 67.3087 25.4513 67.1534C25.5498 66.9962 25.6815 66.8731 25.8462 66.7841C26.011 66.6951 26.1928 66.6288 26.3917 66.5852C26.5924 66.5398 26.7942 66.5038 26.9968 66.4773C27.262 66.4432 27.4769 66.4176 27.6417 66.4006C27.8084 66.3816 27.9296 66.3504 28.0053 66.3068C28.083 66.2633 28.1218 66.1875 28.1218 66.0795V66.0568C28.1218 65.7765 28.0451 65.5587 27.8917 65.4034C27.7402 65.2481 27.5101 65.1705 27.2013 65.1705C26.8813 65.1705 26.6303 65.2405 26.4485 65.3807C26.2667 65.5208 26.1388 65.6705 26.065 65.8295L25.4286 65.6023C25.5423 65.3371 25.6938 65.1307 25.8832 64.983C26.0745 64.8333 26.2828 64.7292 26.5082 64.6705C26.7354 64.6098 26.9589 64.5795 27.1786 64.5795C27.3188 64.5795 27.4798 64.5966 27.6616 64.6307C27.8453 64.6629 28.0224 64.7301 28.1928 64.8324C28.3652 64.9347 28.5082 65.089 28.6218 65.2955C28.7354 65.5019 28.7923 65.7784 28.7923 66.125V69H28.1218V68.4091H28.0877C28.0423 68.5038 27.9665 68.6051 27.8604 68.7131C27.7544 68.821 27.6133 68.9129 27.4371 68.9886C27.261 69.0644 27.046 69.1023 26.7923 69.1023ZM26.8945 68.5C27.1597 68.5 27.3832 68.4479 27.565 68.3438C27.7487 68.2396 27.887 68.1051 27.9798 67.9403C28.0745 67.7756 28.1218 67.6023 28.1218 67.4205V66.8068C28.0934 66.8409 28.0309 66.8722 27.9343 66.9006C27.8396 66.9271 27.7298 66.9508 27.6048 66.9716C27.4817 66.9905 27.3614 67.0076 27.244 67.0227C27.1284 67.036 27.0347 67.0473 26.9627 67.0568C26.7885 67.0795 26.6256 67.1165 26.4741 67.1676C26.3245 67.2169 26.2032 67.2917 26.1104 67.392C26.0195 67.4905 25.9741 67.625 25.9741 67.7955C25.9741 68.0284 26.0603 68.2045 26.2326 68.3239C26.4068 68.4413 26.6275 68.5 26.8945 68.5ZM31.6637 69.0909C31.3001 69.0909 30.979 68.9991 30.7006 68.8153C30.4222 68.6297 30.2044 68.3684 30.0472 68.0312C29.89 67.6922 29.8114 67.2917 29.8114 66.8295C29.8114 66.3712 29.89 65.9735 30.0472 65.6364C30.2044 65.2992 30.4232 65.0388 30.7035 64.8551C30.9838 64.6714 31.3076 64.5795 31.6751 64.5795C31.9592 64.5795 32.1836 64.6269 32.3484 64.7216C32.515 64.8144 32.6419 64.9205 32.729 65.0398C32.8181 65.1572 32.8872 65.2538 32.9364 65.3295H32.9933V63.1818H33.6637V69H33.016V68.3295H32.9364C32.8872 68.4091 32.8171 68.5095 32.7262 68.6307C32.6353 68.75 32.5056 68.857 32.337 68.9517C32.1684 69.0445 31.944 69.0909 31.6637 69.0909ZM31.7546 68.4886C32.0236 68.4886 32.2508 68.4186 32.4364 68.2784C32.622 68.1364 32.7631 67.9403 32.8597 67.6903C32.9563 67.4384 33.0046 67.1477 33.0046 66.8182C33.0046 66.4924 32.9573 66.2074 32.8626 65.9631C32.7679 65.7169 32.6277 65.5256 32.4421 65.3892C32.2565 65.2509 32.0273 65.1818 31.7546 65.1818C31.4705 65.1818 31.2338 65.2547 31.0444 65.4006C30.8569 65.5445 30.7158 65.7405 30.6211 65.9886C30.5283 66.2348 30.4819 66.5114 30.4819 66.8182C30.4819 67.1288 30.5292 67.411 30.6239 67.6648C30.7205 67.9167 30.8626 68.1174 31.0501 68.267C31.2395 68.4148 31.4743 68.4886 31.7546 68.4886ZM36.8143 69.0909C36.3938 69.0909 36.0311 68.9981 35.7262 68.8125C35.4232 68.625 35.1893 68.3636 35.0245 68.0284C34.8616 67.6913 34.7802 67.2992 34.7802 66.8523C34.7802 66.4053 34.8616 66.0114 35.0245 65.6705C35.1893 65.3277 35.4184 65.0606 35.712 64.8693C36.0075 64.6761 36.3522 64.5795 36.7461 64.5795C36.9734 64.5795 37.1978 64.6174 37.4194 64.6932C37.641 64.7689 37.8427 64.892 38.0245 65.0625C38.2063 65.2311 38.3512 65.4545 38.4592 65.733C38.5671 66.0114 38.6211 66.3542 38.6211 66.7614V67.0455H35.2575V66.4659H37.9393C37.9393 66.2197 37.89 66 37.7915 65.8068C37.695 65.6136 37.5567 65.4612 37.3768 65.3494C37.1987 65.2377 36.9885 65.1818 36.7461 65.1818C36.479 65.1818 36.248 65.2481 36.0529 65.3807C35.8597 65.5114 35.7111 65.6818 35.6069 65.892C35.5027 66.1023 35.4506 66.3277 35.4506 66.5682V66.9545C35.4506 67.2841 35.5075 67.5634 35.6211 67.7926C35.7366 68.0199 35.8967 68.1932 36.1012 68.3125C36.3058 68.4299 36.5434 68.4886 36.8143 68.4886C36.9904 68.4886 37.1495 68.464 37.2915 68.4148C37.4355 68.3636 37.5595 68.2879 37.6637 68.1875C37.7679 68.0852 37.8484 67.9583 37.9052 67.8068L38.5529 67.9886C38.4847 68.2083 38.3701 68.4015 38.2092 68.5682C38.0482 68.733 37.8493 68.8617 37.6126 68.9545C37.3758 69.0455 37.1097 69.0909 36.8143 69.0909ZM42.7319 65.6136L42.1296 65.7841C42.0917 65.6837 42.0359 65.5862 41.962 65.4915C41.89 65.3949 41.7915 65.3153 41.6665 65.2528C41.5415 65.1903 41.3815 65.1591 41.1864 65.1591C40.9194 65.1591 40.6969 65.2206 40.5188 65.3438C40.3427 65.465 40.2546 65.6193 40.2546 65.8068C40.2546 65.9735 40.3152 66.1051 40.4364 66.2017C40.5576 66.2983 40.747 66.3788 41.0046 66.4432L41.6523 66.6023C42.0425 66.697 42.3332 66.8419 42.5245 67.0369C42.7158 67.2301 42.8114 67.4792 42.8114 67.7841C42.8114 68.0341 42.7395 68.2576 42.5955 68.4545C42.4535 68.6515 42.2546 68.8068 41.9989 68.9205C41.7433 69.0341 41.4459 69.0909 41.1069 69.0909C40.6618 69.0909 40.2934 68.9943 40.0018 68.8011C39.7101 68.608 39.5254 68.3258 39.4478 67.9545L40.0842 67.7955C40.1448 68.0303 40.2594 68.2064 40.4279 68.3239C40.5984 68.4413 40.8209 68.5 41.0955 68.5C41.408 68.5 41.6561 68.4337 41.8398 68.3011C42.0254 68.1667 42.1183 68.0057 42.1183 67.8182C42.1183 67.6667 42.0652 67.5398 41.9592 67.4375C41.8531 67.3333 41.6902 67.2557 41.4705 67.2045L40.7433 67.0341C40.3436 66.9394 40.0501 66.7926 39.8626 66.5938C39.677 66.393 39.5842 66.142 39.5842 65.8409C39.5842 65.5947 39.6533 65.3769 39.7915 65.1875C39.9317 64.9981 40.122 64.8494 40.3626 64.7415C40.605 64.6335 40.8796 64.5795 41.1864 64.5795C41.6183 64.5795 41.9573 64.6742 42.2035 64.8636C42.4516 65.053 42.6277 65.303 42.7319 65.6136Z" fill="#E6C252"/>
<path d="M30 44C39.9411 44 48 35.9411 48 26C48 16.0589 39.9411 8 30 8C20.0589 8 12 16.0589 12 26C12 35.9411 20.0589 44 30 44Z" fill="#E6C252"/>
<path d="M26.6617 30.0638C26.8601 30.6874 26.4916 30.9283 26.031 31.1764C23.7066 32.4094 21.3963 33.6709 19.079 34.9181C18.4483 35.2583 18.1932 35.1874 17.8459 34.585C17.6121 34.174 17.364 33.7701 17.1373 33.352C16.8963 32.9126 16.9672 32.615 17.3924 32.3528C19.7593 30.8929 22.1263 29.4331 24.4932 27.9661C24.8688 27.7323 25.2018 27.7748 25.542 28.0724C26.0239 27.6685 26.4845 27.3567 26.4703 26.563C26.442 25.2803 27.0373 24.1748 28.1641 23.5441C28.8656 23.1472 29.0215 22.6016 29.0995 21.9C28.5751 21.7866 28.4546 21.4181 28.4759 20.915C28.5751 18.3 28.6459 15.678 28.731 13.063C28.7664 12.0638 28.8302 12 29.8152 12C30.1766 12 30.5381 12 30.8924 12C31.594 12 31.7853 12.1843 31.7995 12.9C31.842 14.5654 31.8774 16.2378 31.92 17.9031C31.9483 18.9024 31.9625 19.9016 32.0192 20.8937C32.0475 21.3898 31.9554 21.7724 31.4026 21.8929C31.516 22.5591 31.6011 23.1189 32.3097 23.5016C33.394 24.0898 33.9467 25.1315 34.0601 26.3575C34.1593 27.3992 34.131 27.3992 34.9743 28.0583C35.3641 27.6827 35.7538 27.789 36.1861 28.0583C38.4042 29.4402 40.6436 30.8079 42.8688 32.1827C43.6129 32.6433 43.6625 32.8276 43.2231 33.6C43.0105 33.9685 42.805 34.3441 42.5853 34.7055C42.3302 35.1236 42.0184 35.2228 41.5932 34.9961C39.1129 33.6638 36.6396 32.3244 34.1664 30.9921C33.7766 30.7866 33.7341 30.4606 33.8263 30.0425C33.5003 29.9504 33.1955 29.837 32.8766 29.7803C32.7207 29.752 32.5152 29.7803 32.3877 29.8512C30.9633 30.7157 29.5601 30.7157 28.1286 29.8512C27.9869 29.7661 27.7601 29.752 27.59 29.7803C27.3066 29.8299 27.0302 29.9362 26.6688 30.0425L26.6617 30.0638ZM33.479 26.7047C33.479 24.8976 32.0688 23.4591 30.2617 23.4449C28.49 23.4236 27.0018 24.8906 26.9877 26.6622C26.9806 28.4835 28.4333 29.9504 30.2404 29.9433C32.0546 29.9362 33.4719 28.5189 33.4719 26.7118L33.479 26.7047ZM31.4026 21.2976C31.4239 21.1701 31.4522 21.0921 31.4452 21.0142C31.3743 18.6331 31.3034 16.2449 31.2255 13.8638C31.2113 13.4457 31.3034 12.8646 31.0766 12.6591C30.8357 12.4394 30.2688 12.6094 29.8507 12.5669C29.3688 12.5102 29.2483 12.7157 29.2412 13.1693C29.1987 15.3449 29.1207 17.5134 29.064 19.689C29.0499 20.2205 29.064 20.752 29.064 21.2976H31.4026ZM42.9609 32.9268C40.4664 31.389 38.0144 29.8795 35.52 28.3488C35.1018 29.0717 34.7121 29.7378 34.3011 30.4465C36.8877 31.8354 39.4247 33.2031 41.9971 34.585C42.3302 34.011 42.6278 33.4937 42.9538 32.9268H42.9609ZM24.9751 28.3417C22.4593 29.8937 20.0003 31.4031 17.5341 32.9268C17.8105 33.3945 18.0585 33.7843 18.264 34.1882C18.427 34.5142 18.5829 34.5496 18.9089 34.3654C20.5105 33.4795 22.1333 32.6291 23.742 31.7575C24.5428 31.3252 25.3436 30.8858 26.1869 30.4323C25.7759 29.7236 25.4003 29.0646 24.9751 28.3346V28.3417ZM29.4255 22.8709H31.0058C30.7436 21.652 30.8924 21.8646 30.0562 21.8717C29.3404 21.8717 29.7373 22.5591 29.4255 22.8709ZM33.1743 29.2276C34.053 29.6528 34.131 29.6386 34.4641 29.0291C34.7192 28.5685 34.6483 28.4339 33.89 27.9661C33.6491 28.3843 33.4081 28.8094 33.1672 29.2276H33.1743ZM26.5625 27.8811C26.3286 28.1646 26.1089 28.4339 25.8751 28.7244C26.3286 29.6598 26.3995 29.6882 27.3207 29.2134C27.0869 28.7953 26.8459 28.3843 26.5625 27.8811Z" fill="#231F20"/>
<path d="M26.6617 30.0638C26.8601 30.6874 26.4916 30.9283 26.031 31.1764C23.7066 32.4094 21.3963 33.6709 19.079 34.9181C18.4483 35.2583 18.1932 35.1874 17.8459 34.585C17.6121 34.174 17.364 33.7701 17.1373 33.352C16.8963 32.9126 16.9672 32.615 17.3924 32.3528C19.7593 30.8929 22.1263 29.4331 24.4932 27.9661C24.8688 27.7323 25.2018 27.7748 25.542 28.0724C26.0239 27.6685 26.4845 27.3567 26.4703 26.563C26.442 25.2803 27.0373 24.1748 28.1641 23.5441C28.8656 23.1472 29.0215 22.6016 29.0995 21.9C28.5751 21.7866 28.4546 21.4181 28.4759 20.915C28.5751 18.3 28.6459 15.678 28.731 13.063C28.7664 12.0638 28.8302 12 29.8152 12C30.1766 12 30.5381 12 30.8924 12C31.594 12 31.7853 12.1843 31.7995 12.9C31.842 14.5654 31.8774 16.2378 31.92 17.9031C31.9483 18.9024 31.9625 19.9016 32.0192 20.8937C32.0475 21.3898 31.9554 21.7724 31.4026 21.8929C31.516 22.5591 31.6011 23.1189 32.3097 23.5016C33.394 24.0898 33.9467 25.1315 34.0601 26.3575C34.1593 27.3992 34.131 27.3992 34.9743 28.0583C35.3641 27.6827 35.7538 27.789 36.1861 28.0583C38.4042 29.4402 40.6436 30.8079 42.8688 32.1827C43.6129 32.6433 43.6625 32.8276 43.2231 33.6C43.0105 33.9685 42.805 34.3441 42.5853 34.7055C42.3302 35.1236 42.0184 35.2228 41.5932 34.9961C39.1129 33.6638 36.6396 32.3244 34.1664 30.9921C33.7766 30.7866 33.7341 30.4606 33.8263 30.0425C33.5003 29.9504 33.1955 29.837 32.8766 29.7803C32.7207 29.752 32.5152 29.7803 32.3877 29.8512C30.9633 30.7157 29.5601 30.7157 28.1286 29.8512C27.9869 29.7661 27.7601 29.752 27.59 29.7803C27.3066 29.8299 27.0302 29.9362 26.6688 30.0425L26.6617 30.0638ZM33.479 26.7047C33.479 24.8976 32.0688 23.4591 30.2617 23.4449C28.49 23.4236 27.0018 24.8906 26.9877 26.6622C26.9806 28.4835 28.4333 29.9504 30.2404 29.9433C32.0546 29.9362 33.4719 28.5189 33.4719 26.7118L33.479 26.7047ZM31.4026 21.2976C31.4239 21.1701 31.4522 21.0921 31.4452 21.0142C31.3743 18.6331 31.3034 16.2449 31.2255 13.8638C31.2113 13.4457 31.3034 12.8646 31.0766 12.6591C30.8357 12.4394 30.2688 12.6094 29.8507 12.5669C29.3688 12.5102 29.2483 12.7157 29.2412 13.1693C29.1987 15.3449 29.1207 17.5134 29.064 19.689C29.0499 20.2205 29.064 20.752 29.064 21.2976H31.4026ZM42.9609 32.9268C40.4664 31.389 38.0144 29.8795 35.52 28.3488C35.1018 29.0717 34.7121 29.7378 34.3011 30.4465C36.8877 31.8354 39.4247 33.2031 41.9971 34.585C42.3302 34.011 42.6278 33.4937 42.9538 32.9268H42.9609ZM24.9751 28.3417C22.4593 29.8937 20.0003 31.4031 17.5341 32.9268C17.8105 33.3945 18.0585 33.7843 18.264 34.1882C18.427 34.5142 18.5829 34.5496 18.9089 34.3654C20.5105 33.4795 22.1333 32.6291 23.742 31.7575C24.5428 31.3252 25.3436 30.8858 26.1869 30.4323C25.7759 29.7236 25.4003 29.0646 24.9751 28.3346V28.3417ZM29.4255 22.8709H31.0058C30.7436 21.652 30.8924 21.8646 30.0562 21.8717C29.3404 21.8717 29.7373 22.5591 29.4255 22.8709ZM33.1743 29.2276C34.053 29.6528 34.131 29.6386 34.4641 29.0291C34.7192 28.5685 34.6483 28.4339 33.89 27.9661C33.6491 28.3843 33.4081 28.8094 33.1672 29.2276H33.1743ZM26.5625 27.8811C26.3286 28.1646 26.1089 28.4339 25.8751 28.7244C26.3286 29.6598 26.3995 29.6882 27.3207 29.2134C27.0869 28.7953 26.8459 28.3843 26.5625 27.8811Z" fill="#231F20"/>
<path d="M30.2688 24.685C31.3601 24.6921 32.2601 25.5992 32.2601 26.6834C32.2601 27.7747 31.3176 28.7173 30.2262 28.7031C29.1136 28.6889 28.242 27.7747 28.2491 26.6409C28.2632 25.5425 29.1491 24.6708 30.2617 24.685H30.2688ZM30.2688 25.2661C29.4538 25.2661 28.8443 25.8472 28.8302 26.6622C28.816 27.47 29.4184 28.1078 30.2121 28.122C31.027 28.1362 31.6932 27.4984 31.7002 26.6976C31.7002 25.911 31.0695 25.2732 30.2758 25.2661H30.2688Z" fill="#231F20"/>
<path d="M30.8144 26.7402C30.5664 26.5206 30.3963 26.2796 30.2829 26.3009C30.1128 26.3363 29.9073 26.5347 29.8648 26.6977C29.8364 26.7898 30.0845 27.0521 30.2333 27.0804C30.3679 27.1017 30.5451 26.9103 30.8144 26.7402Z" fill="white"/>
<path d="M30.8144 26.7402C30.5381 26.9103 30.368 27.1017 30.2333 27.0804C30.0845 27.0521 29.8436 26.7898 29.8648 26.6977C29.9144 26.5276 30.12 26.3292 30.283 26.3009C30.3963 26.2796 30.5593 26.5206 30.8144 26.7402Z" fill="#231F20"/>
</svg>
