<svg width="153" height="46" viewBox="0 0 153 46" fill="none" xmlns="http://www.w3.org/2000/svg">
<path d="M146.4 45.0461H5.63076C2.47754 45.0461 0 42.5686 0 39.4153V5.63076C0 2.47754 2.47754 0 5.63076 0H146.4C149.553 0 152.031 2.47754 152.031 5.63076V39.4153C152.031 42.5686 149.553 45.0461 146.4 45.0461Z" fill="black"/>
<path d="M146.4 0.900922C148.99 0.900922 151.13 3.04061 151.13 5.63076V39.4153C151.13 42.0055 148.99 44.1452 146.4 44.1452H5.63076C3.04061 44.1452 0.900922 42.0055 0.900922 39.4153V5.63076C0.900922 3.04061 3.04061 0.900922 5.63076 0.900922H146.4ZM146.4 0H5.63076C2.47754 0 0 2.59015 0 5.63076V39.4153C0 42.5686 2.47754 45.0461 5.63076 45.0461H146.4C149.553 45.0461 152.031 42.5686 152.031 39.4153V5.63076C152.031 2.59015 149.553 0 146.4 0Z" fill="#A6A6A6"/>
<path d="M53.3792 11.4878C53.3792 12.3887 53.154 13.177 52.5909 13.7401C51.9152 14.4158 51.1269 14.7536 50.1134 14.7536C49.0998 14.7536 48.3115 14.4158 47.6358 13.7401C46.9602 13.0644 46.6223 12.2761 46.6223 11.2626C46.6223 10.249 46.9602 9.46071 47.6358 8.78502C48.3115 8.10933 49.0998 7.77148 50.1134 7.77148C50.5638 7.77148 51.0143 7.8841 51.4648 8.10933C51.9152 8.33456 52.2531 8.55979 52.4783 8.89764L51.9152 9.46071C51.4648 8.89764 50.9017 8.67241 50.1134 8.67241C49.4377 8.67241 48.762 8.89764 48.3115 9.46071C47.7485 9.91117 47.5232 10.5869 47.5232 11.3752C47.5232 12.1635 47.7485 12.8392 48.3115 13.2896C48.8746 13.7401 49.4377 14.0779 50.1134 14.0779C50.9017 14.0779 51.4648 13.8527 52.0278 13.2896C52.3657 12.9518 52.5909 12.5013 52.5909 11.9382H50.1134V11.0373H53.3792V11.4878ZM58.5595 8.67241H55.5189V10.8121H58.3343V11.6004H55.5189V13.7401H58.5595V14.641H54.618V7.8841H58.5595V8.67241ZM62.2758 14.641H61.3749V8.67241H59.4604V7.8841H64.1903V8.67241H62.2758V14.641ZM67.4561 14.641V7.8841H68.3571V14.641H67.4561ZM72.186 14.641H71.285V8.67241H69.3706V7.8841H73.9878V8.67241H72.0734V14.641H72.186ZM82.8844 13.7401C82.2087 14.4158 81.4204 14.7536 80.4069 14.7536C79.3933 14.7536 78.605 14.4158 77.9293 13.7401C77.2537 13.0644 76.9158 12.2761 76.9158 11.2626C76.9158 10.249 77.2537 9.46071 77.9293 8.78502C78.605 8.10933 79.3933 7.77148 80.4069 7.77148C81.4204 7.77148 82.2087 8.10933 82.8844 8.78502C83.5601 9.46071 83.898 10.249 83.898 11.2626C83.898 12.2761 83.5601 13.0644 82.8844 13.7401ZM78.605 13.177C79.0555 13.6275 79.7312 13.9653 80.4069 13.9653C81.0826 13.9653 81.7583 13.7401 82.2087 13.177C82.6592 12.7266 82.997 12.0509 82.997 11.2626C82.997 10.4743 82.7718 9.79856 82.2087 9.3481C81.7583 8.89764 81.0826 8.55979 80.4069 8.55979C79.7312 8.55979 79.0555 8.78502 78.605 9.3481C78.1546 9.79856 77.8167 10.4743 77.8167 11.2626C77.8167 12.0509 78.042 12.7266 78.605 13.177ZM85.1367 14.641V7.8841H86.1503L89.4161 13.177V7.8841H90.317V14.641H89.4161L85.925 9.12287V14.641H85.1367Z" fill="white"/>
<path d="M76.6903 24.5517C73.9875 24.5517 71.8478 26.5788 71.8478 29.3942C71.8478 32.0969 73.9875 34.2366 76.6903 34.2366C79.3931 34.2366 81.5328 32.2095 81.5328 29.3942C81.5328 26.4662 79.3931 24.5517 76.6903 24.5517ZM76.6903 32.2095C75.2263 32.2095 73.9875 30.9708 73.9875 29.2815C73.9875 27.5923 75.2263 26.3535 76.6903 26.3535C78.1543 26.3535 79.3931 27.4797 79.3931 29.2815C79.3931 30.9708 78.1543 32.2095 76.6903 32.2095ZM66.2171 24.5517C63.5143 24.5517 61.3746 26.5788 61.3746 29.3942C61.3746 32.0969 63.5143 34.2366 66.2171 34.2366C68.9198 34.2366 71.0595 32.2095 71.0595 29.3942C71.0595 26.4662 68.9198 24.5517 66.2171 24.5517ZM66.2171 32.2095C64.7531 32.2095 63.5143 30.9708 63.5143 29.2815C63.5143 27.5923 64.7531 26.3535 66.2171 26.3535C67.6811 26.3535 68.9198 27.4797 68.9198 29.2815C68.9198 30.9708 67.6811 32.2095 66.2171 32.2095ZM53.7168 26.0157V28.0428H58.5592C58.4466 29.1689 57.9962 30.0699 57.4331 30.6329C56.7574 31.3086 55.6312 32.0969 53.7168 32.0969C50.6762 32.0969 48.4239 29.732 48.4239 26.6914C48.4239 23.6508 50.7888 21.2859 53.7168 21.2859C55.2934 21.2859 56.5322 21.9616 57.4331 22.7499L58.8971 21.2859C57.6583 20.1597 56.0817 19.2588 53.8294 19.2588C49.7753 19.2588 46.2842 22.6372 46.2842 26.6914C46.2842 30.7455 49.7753 34.124 53.8294 34.124C56.0817 34.124 57.6583 33.4483 59.0097 31.9843C60.3611 30.6329 60.8116 28.7185 60.8116 27.2545C60.8116 26.804 60.8116 26.3535 60.6989 26.0157H53.7168ZM104.844 27.5923C104.394 26.4662 103.268 24.5517 100.79 24.5517C98.3124 24.5517 96.2854 26.4662 96.2854 29.3942C96.2854 32.0969 98.3124 34.2366 101.015 34.2366C103.155 34.2366 104.506 32.8852 104.957 32.0969L103.38 30.9708C102.817 31.7591 102.141 32.3222 101.015 32.3222C99.889 32.3222 99.2134 31.8717 98.6503 30.8582L105.069 28.1554L104.844 27.5923ZM98.3124 29.1689C98.3124 27.3671 99.7764 26.3535 100.79 26.3535C101.578 26.3535 102.367 26.804 102.592 27.3671L98.3124 29.1689ZM93.0195 33.7862H95.1592V19.7092H93.0195V33.7862ZM89.6411 25.5652C89.078 25.0022 88.1771 24.4391 87.0509 24.4391C84.686 24.4391 82.4337 26.5788 82.4337 29.2815C82.4337 31.9843 84.5734 34.0114 87.0509 34.0114C88.1771 34.0114 89.078 33.4483 89.5284 32.8852H89.6411V33.5609C89.6411 35.3628 88.6275 36.3763 87.0509 36.3763C85.8121 36.3763 84.9112 35.4754 84.686 34.6871L82.8841 35.4754C83.4472 36.7142 84.7986 38.2908 87.1635 38.2908C89.6411 38.2908 91.6681 36.8268 91.6681 33.3357V24.7769H89.6411V25.5652ZM87.1635 32.2095C85.6995 32.2095 84.4608 30.9708 84.4608 29.2815C84.4608 27.5923 85.6995 26.3535 87.1635 26.3535C88.6275 26.3535 89.7537 27.5923 89.7537 29.2815C89.7537 30.9708 88.6275 32.2095 87.1635 32.2095ZM114.642 19.7092H109.574V33.7862H111.714V28.4932H114.642C117.007 28.4932 119.259 26.804 119.259 24.1012C119.259 21.3985 117.007 19.7092 114.642 19.7092ZM114.754 26.4662H111.714V21.6237H114.754C116.331 21.6237 117.232 22.9751 117.232 23.9886C117.119 25.2274 116.218 26.4662 114.754 26.4662ZM127.705 24.4391C126.128 24.4391 124.552 25.1148 123.989 26.5788L125.903 27.3671C126.354 26.5788 127.029 26.3535 127.818 26.3535C128.944 26.3535 129.957 27.0292 130.07 28.1554V28.268C129.732 28.0428 128.831 27.7049 127.93 27.7049C125.903 27.7049 123.876 28.8311 123.876 30.8582C123.876 32.7726 125.565 34.0114 127.367 34.0114C128.831 34.0114 129.507 33.3357 130.07 32.66H130.183V33.7862H132.21V28.3806C131.984 25.9031 130.07 24.4391 127.705 24.4391ZM127.48 32.2095C126.804 32.2095 125.791 31.8717 125.791 30.9708C125.791 29.8446 127.029 29.5068 128.043 29.5068C128.944 29.5068 129.394 29.732 129.957 29.9572C129.732 31.3086 128.606 32.2095 127.48 32.2095ZM139.304 24.7769L136.939 30.8582H136.827L134.349 24.7769H132.097L135.813 33.3357L133.674 38.0655H135.813L141.557 24.7769H139.304ZM120.385 33.7862H122.525V19.7092H120.385V33.7862Z" fill="white"/>
<path d="M11.7116 8.44629C11.3737 8.78413 11.2611 9.34721 11.2611 10.0229V34.9109C11.2611 35.5866 11.4863 36.1496 11.8242 36.4875L11.9368 36.6001L25.9011 22.6358V22.4106L11.7116 8.44629Z" fill="url(#paint0_linear_1_2527)"/>
<path d="M30.4056 27.3653L25.7883 22.748V22.4102L30.4056 17.793L30.5182 17.9056L36.0363 21.0588C37.6129 21.9597 37.6129 23.4237 36.0363 24.3247L30.4056 27.3653Z" fill="url(#paint1_linear_1_2527)"/>
<path d="M30.5176 27.2503L25.7877 22.5205L11.7108 36.5974C12.2739 37.1605 13.0622 37.1605 14.0757 36.71L30.5176 27.2503Z" fill="url(#paint2_linear_1_2527)"/>
<path d="M30.5176 17.7925L14.0757 8.44539C13.0622 7.88231 12.2739 7.99493 11.7108 8.55801L25.7877 22.5223L30.5176 17.7925Z" fill="url(#paint3_linear_1_2527)"/>
<path opacity="0.2" d="M30.4049 27.1387L14.0757 36.3731C13.1748 36.9362 12.3865 36.8236 11.8234 36.3731L11.7108 36.4857L11.8234 36.5984C12.3865 37.0488 13.1748 37.1614 14.0757 36.5984L30.4049 27.1387Z" fill="black"/>
<path opacity="0.12" d="M11.7116 36.3722C11.3737 36.0343 11.2611 35.4713 11.2611 34.7956V34.9082C11.2611 35.5839 11.4863 36.147 11.8242 36.4848V36.3722H11.7116ZM36.0365 23.9845L30.4057 27.1377L30.5183 27.2503L36.0365 24.0971C36.8248 23.6467 37.1626 23.0836 37.1626 22.5205C37.1626 23.0836 36.7122 23.534 36.0365 23.9845Z" fill="black"/>
<path opacity="0.25" d="M14.0765 8.55778L36.0365 21.0581C36.7122 21.5085 37.1626 21.959 37.1626 22.5221C37.1626 21.959 36.8248 21.3959 36.0365 20.9455L14.0765 8.44517C12.4999 7.54425 11.2611 8.21994 11.2611 10.0218V10.1344C11.2611 8.44517 12.4999 7.65686 14.0765 8.55778Z" fill="white"/>
<defs>
<linearGradient id="paint0_linear_1_2527" x1="24.5497" y1="9.80893" x2="5.64949" y2="28.708" gradientUnits="userSpaceOnUse">
<stop stop-color="#00A0FF"/>
<stop offset="0.007" stop-color="#00A1FF"/>
<stop offset="0.26" stop-color="#00BEFF"/>
<stop offset="0.512" stop-color="#00D2FF"/>
<stop offset="0.76" stop-color="#00DFFF"/>
<stop offset="1" stop-color="#00E3FF"/>
</linearGradient>
<linearGradient id="paint1_linear_1_2527" x1="38.1017" y1="22.5239" x2="10.8522" y2="22.5239" gradientUnits="userSpaceOnUse">
<stop stop-color="#FFE000"/>
<stop offset="0.409" stop-color="#FFBD00"/>
<stop offset="0.775" stop-color="#FFA500"/>
<stop offset="1" stop-color="#FF9C00"/>
</linearGradient>
<linearGradient id="paint2_linear_1_2527" x1="27.9578" y1="25.1062" x2="2.32884" y2="50.7351" gradientUnits="userSpaceOnUse">
<stop stop-color="#FF3A44"/>
<stop offset="1" stop-color="#C31162"/>
</linearGradient>
<linearGradient id="paint3_linear_1_2527" x1="8.21636" y1="0.197449" x2="19.6615" y2="11.6425" gradientUnits="userSpaceOnUse">
<stop stop-color="#32A071"/>
<stop offset="0.069" stop-color="#2DA771"/>
<stop offset="0.476" stop-color="#15CF74"/>
<stop offset="0.801" stop-color="#06E775"/>
<stop offset="1" stop-color="#00F076"/>
</linearGradient>
</defs>
</svg>
