<svg width="71" height="71" viewBox="0 0 71 71" fill="none" xmlns="http://www.w3.org/2000/svg">
<g filter="url(#filter0_b_533_867)">
<path d="M21.3779 22.3793C21.3779 21.585 22.0218 20.9412 22.8161 20.9412H49.6438C50.438 20.9412 51.0819 21.585 51.0819 22.3793V25.3863C51.0819 26.1806 50.438 26.8244 49.6438 26.8244H22.8161C22.0218 26.8244 21.3779 26.1806 21.3779 25.3863V22.3793Z" stroke="#B6B5B4" stroke-width="1.04591"/>
<path d="M34.6102 12.9508L36.1371 13.7863L37.625 12.8829L37.3022 14.5933L38.6211 15.7292L36.8947 15.9508L36.222 17.5561L35.4777 15.9827L33.7431 15.839L35.0095 14.6449L34.6102 12.9508Z" fill="#B6B5B4"/>
<path d="M29.7326 15.0376L30.7403 15.589L31.7221 14.9928L31.5091 16.1216L32.3795 16.8712L31.2402 17.0174L30.7963 18.0769L30.3051 17.0385L29.1603 16.9437L29.9961 16.1557L29.7326 15.0376Z" fill="#B6B5B4"/>
<path d="M27.3752 17.9045L27.9883 18.24L28.5858 17.8773L28.4562 18.5641L28.9858 19.0202L28.2925 19.1092L28.0224 19.7538L27.7235 19.122L27.027 19.0643L27.5355 18.5848L27.3752 17.9045Z" fill="#B6B5B4"/>
<path d="M40.6274 14.7097L41.5699 15.2254L42.4882 14.6678L42.289 15.7235L43.1031 16.4246L42.0375 16.5614L41.6223 17.5523L41.1629 16.5811L40.0922 16.4924L40.8739 15.7554L40.6274 14.7097Z" fill="#B6B5B4"/>
<path d="M43.8848 17.6092L44.7214 18.067L45.5366 17.572L45.3597 18.5091L46.0824 19.1315L45.1365 19.2529L44.7679 20.1325L44.3601 19.2704L43.4097 19.1917L44.1036 18.5374L43.8848 17.6092Z" fill="#B6B5B4"/>
<path d="M44.8261 27.4778L45.2144 28.3488L46.1628 28.4489L45.4544 29.0874L45.6522 30.0203L44.8261 29.5438L44 30.0203L44.1979 29.0874L43.4894 28.4489L44.4378 28.3488L44.8261 27.4778Z" fill="#B6B5B4"/>
<path d="M28.2224 28.1316L28.6106 29.0026L29.559 29.1027L28.8506 29.7412L29.0485 30.6741L28.2224 30.1976L27.3962 30.6741L27.5941 29.7412L26.8857 29.1027L27.8341 29.0026L28.2224 28.1316Z" fill="#B6B5B4"/>
<path d="M41.7211 30.093L42.1906 31.1462L43.3374 31.2673L42.4808 32.0392L42.72 33.1673L41.7211 32.5911L40.7222 33.1673L40.9615 32.0392L40.1049 31.2673L41.2517 31.1462L41.7211 30.093Z" fill="#B6B5B4"/>
<path d="M31.0004 30.4849L31.4699 31.5381L32.6167 31.6591L31.7601 32.4311L31.9993 33.5591L31.0004 32.983L30.0015 33.5591L30.2408 32.4311L29.3842 31.6591L30.531 31.5381L31.0004 30.4849Z" fill="#B6B5B4"/>
<path fill-rule="evenodd" clip-rule="evenodd" d="M47.4952 27.87C45.9227 32.4349 41.5899 35.7145 36.491 35.7145C31.3922 35.7145 27.0593 32.4349 25.4869 27.87H24.3857C25.9977 33.0219 30.8078 36.7604 36.491 36.7604C42.1743 36.7604 46.9844 33.0219 48.5963 27.87H47.4952ZM25.63 19.8949C27.3103 15.5357 31.5395 12.4429 36.491 12.4429C41.4425 12.4429 45.6717 15.5357 47.352 19.8949H48.4664C46.7378 14.9467 42.0289 11.397 36.491 11.397C30.9531 11.397 26.2442 14.9467 24.5156 19.8949H25.63Z" fill="#B6B5B4"/>
<path fill-rule="evenodd" clip-rule="evenodd" d="M34.4872 16.4929C32.5465 17.0044 30.9001 18.2408 29.8551 19.8951H31.1328C32.1794 18.5563 33.7167 17.6198 35.4742 17.356L35.0896 16.5428L34.4872 16.4929ZM36.9696 17.2969C38.9508 17.4345 40.6982 18.4209 41.8507 19.8951H43.1283C42.0085 18.1223 40.198 16.8294 38.0748 16.3943L37.3065 16.4929L36.9696 17.2969ZM29.623 27.8699C30.9598 30.2865 33.5346 31.9227 36.4917 31.9227C39.4488 31.9227 42.0237 30.2865 43.3604 27.8699H42.1354C40.9146 29.6837 38.8425 30.8768 36.4917 30.8768C34.141 30.8768 32.0689 29.6837 30.848 27.8699H29.623Z" fill="#B6B5B4"/>
<path d="M28.2264 24.0208C28.2264 24.6206 27.7598 24.9316 27.1785 24.9316H26.7453V25.7092H26.175V23.1173H27.234C27.8524 23.1173 28.2264 23.4838 28.2264 24.0133V24.0208ZM27.6488 24.0319V24.0245C27.6488 23.769 27.471 23.632 27.1859 23.632H26.7453V24.4244H27.197C27.4821 24.4244 27.6488 24.254 27.6488 24.0319ZM31.2218 25.7092H30.5553L29.9999 24.8798H29.5519V25.7092H28.9817V23.1173H30.1665C30.7775 23.1173 31.1441 23.4394 31.1441 23.9726V23.98C31.1441 24.3984 30.9182 24.6613 30.5887 24.7835L31.2218 25.7092ZM30.5665 24.0096V24.0022C30.5665 23.7579 30.3961 23.632 30.1184 23.632H29.5519V24.3762H30.1295C30.4072 24.3762 30.5665 24.2281 30.5665 24.0096ZM33.9643 25.7092H31.9908V23.1173H33.9458V23.6246H32.5573V24.1504H33.7792V24.6576H32.5573V25.2019H33.9643V25.7092ZM37.3966 25.7092H36.83V24.017L36.1006 25.1242H36.0858L35.3637 24.0282V25.7092H34.8046V23.1173H35.4193L36.1006 24.2133L36.7819 23.1173H37.3966V25.7092ZM38.9486 25.7092H38.3784V23.1173H38.9486V25.7092ZM42.1476 24.5799C42.1476 25.3649 41.707 25.75 41.0109 25.75C40.3147 25.75 39.8889 25.3612 39.8889 24.5984V23.1173H40.4591V24.5836C40.4591 25.0057 40.6702 25.2242 41.0183 25.2242C41.3663 25.2242 41.5774 25.0131 41.5774 24.6021V23.1173H42.1476V24.5799ZM45.6536 25.7092H45.0871V24.017L44.3577 25.1242H44.3429L43.6208 24.0282V25.7092H43.0617V23.1173H43.6764L44.3577 24.2133L45.039 23.1173H45.6536V25.7092Z" fill="#B6B5B4"/>
<path d="M25.1921 44.8382C25.1921 45.993 24.2711 46.5923 23.1456 46.5923H22.1296V48.2368H21.2306V43.1206H23.2479C24.4392 43.1206 25.1921 43.793 25.1921 44.8382ZM24.2784 44.8601C24.2784 44.2535 23.8472 43.9392 23.1748 43.9392H22.1296V45.781H23.1748C23.8545 45.781 24.2784 45.4083 24.2784 44.8601ZM26.6024 46.7677V48.2368H25.7181V44.3777H26.6024V45.2475C26.8436 44.6701 27.2895 44.2754 27.9692 44.3046V45.2402H27.9181C27.1433 45.2402 26.6024 45.7445 26.6024 46.7677ZM28.9889 46.6215C29.0912 47.2501 29.5297 47.6009 30.0998 47.6009C30.531 47.6009 30.838 47.4401 31.145 47.1405L31.6639 47.6009C31.2985 48.0395 30.7942 48.3245 30.0852 48.3245C28.9669 48.3245 28.1045 47.5132 28.1045 46.3146C28.1045 45.2036 28.8865 44.2973 29.9902 44.2973C31.2181 44.2973 31.8393 45.2621 31.8393 46.3804C31.8393 46.4608 31.832 46.5338 31.8247 46.6215H28.9889ZM28.9816 46.0368H30.9623C30.9038 45.4667 30.5676 45.0209 29.9829 45.0209C29.442 45.0209 29.062 45.4375 28.9816 46.0368ZM35.6437 44.977C35.958 44.5677 36.3673 44.2973 36.952 44.2973C37.7925 44.2973 38.3042 44.8309 38.3042 45.7737V48.2368H37.4198V46.0441C37.4198 45.4302 37.1347 45.1013 36.6377 45.1013C36.1554 45.1013 35.8118 45.4375 35.8118 46.0588V48.2368H34.9275V46.0368C34.9275 45.4375 34.6351 45.1013 34.1454 45.1013C33.6557 45.1013 33.3195 45.4667 33.3195 46.0661V48.2368H32.4351V44.3777H33.3195V44.9624C33.568 44.6189 33.9042 44.2973 34.4962 44.2973C35.0517 44.2973 35.4391 44.5677 35.6437 44.977ZM40.0524 43.7857H39.1023V42.9452H40.0524V43.7857ZM40.0232 48.2368H39.1388V44.3777H40.0232V48.2368ZM43.4228 46.5558V44.3777H44.3072V48.2368H43.4228V47.6375C43.1743 48.0029 42.8162 48.3172 42.2168 48.3172C41.3471 48.3172 40.8428 47.7325 40.8428 46.8335V44.3777H41.7271V46.5704C41.7271 47.1697 42.0268 47.5132 42.553 47.5132C43.0647 47.5132 43.4228 47.1551 43.4228 46.5558ZM48.3352 44.977C48.6495 44.5677 49.0588 44.2973 49.6435 44.2973C50.4841 44.2973 50.9957 44.8309 50.9957 45.7737V48.2368H50.1113V46.0441C50.1113 45.4302 49.8263 45.1013 49.3292 45.1013C48.8469 45.1013 48.5033 45.4375 48.5033 46.0588V48.2368H47.619V46.0368C47.619 45.4375 47.3266 45.1013 46.8369 45.1013C46.3472 45.1013 46.011 45.4667 46.011 46.0661V48.2368H45.1266V44.3777H46.011V44.9624C46.2595 44.6189 46.5957 44.2973 47.1877 44.2973C47.7432 44.2973 48.1306 44.5677 48.3352 44.977ZM21.2959 52.084L23.5471 57.2368H22.5969L22.078 56.0016H19.6587L19.1325 57.2368H18.2116L20.4627 52.084H21.2959ZM21.7491 55.2049L20.8647 53.1584L19.9876 55.2049H21.7491ZM24.5166 55.6215C24.6189 56.2501 25.0574 56.6009 25.6275 56.6009C26.0588 56.6009 26.3657 56.4401 26.6727 56.1405L27.1916 56.6009C26.8262 57.0395 26.3219 57.3245 25.6129 57.3245C24.4947 57.3245 23.6322 56.5132 23.6322 55.3146C23.6322 54.2036 24.4143 53.2973 25.5179 53.2973C26.7458 53.2973 27.3671 54.2621 27.3671 55.3804C27.3671 55.4608 27.3598 55.5338 27.3524 55.6215H24.5166ZM24.5093 55.0368H26.49C26.4315 54.4667 26.0953 54.0209 25.5106 54.0209C24.9697 54.0209 24.5897 54.4375 24.5093 55.0368ZM30.7183 56.0966C30.7183 56.9079 30.0897 57.3099 29.2858 57.3099C28.7376 57.3099 28.1309 57.1126 27.6486 56.7325L28.0432 56.1332C28.4598 56.4475 28.913 56.6083 29.3077 56.6083C29.6877 56.6083 29.907 56.4475 29.907 56.1916V56.177C29.907 55.8774 29.4977 55.775 29.0446 55.6362C28.4745 55.4754 27.8386 55.2415 27.8386 54.5033V54.4887C27.8386 53.7578 28.4452 53.3119 29.2127 53.3119C29.6951 53.3119 30.2213 53.48 30.6306 53.7505L30.2798 54.379C29.907 54.1525 29.5123 54.0136 29.1907 54.0136C28.8472 54.0136 28.6499 54.1744 28.6499 54.401V54.4156C28.6499 54.6933 29.0665 54.8103 29.5196 54.9564C30.0824 55.1319 30.7183 55.3877 30.7183 56.082V56.0966ZM32.3207 54.1378V56.0308C32.3207 56.3744 32.4961 56.5132 32.7957 56.5132C32.9931 56.5132 33.1685 56.4694 33.3439 56.3817V57.1053C33.1246 57.2295 32.8761 57.3026 32.5472 57.3026C31.8967 57.3026 31.4363 57.0175 31.4363 56.1697V54.1378H30.9466V53.3777H31.4363V52.3179H32.3207V53.3777H33.3585V54.1378H32.3207ZM34.8434 55.0588V57.2368H33.959V51.9013H34.8434V53.977C35.0919 53.6116 35.45 53.2973 36.0493 53.2973C36.9191 53.2973 37.4234 53.882 37.4234 54.781V57.2368H36.539V55.0441C36.539 54.4448 36.2394 54.1013 35.7131 54.1013C35.2015 54.1013 34.8434 54.4594 34.8434 55.0588ZM38.8714 55.6215C38.9738 56.2501 39.4123 56.6009 39.9824 56.6009C40.4136 56.6009 40.7206 56.4401 41.0276 56.1405L41.5465 56.6009C41.181 57.0395 40.6767 57.3245 39.9678 57.3245C38.8495 57.3245 37.9871 56.5132 37.9871 55.3146C37.9871 54.2036 38.7691 53.2973 39.8728 53.2973C41.1006 53.2973 41.7219 54.2621 41.7219 55.3804C41.7219 55.4608 41.7146 55.5338 41.7073 55.6215H38.8714ZM38.8641 55.0368H40.8448C40.7864 54.4667 40.4502 54.0209 39.8654 54.0209C39.3246 54.0209 38.9445 54.4375 38.8641 55.0368ZM43.3848 54.1378V56.0308C43.3848 56.3744 43.5602 56.5132 43.8599 56.5132C44.0572 56.5132 44.2326 56.4694 44.408 56.3817V57.1053C44.1888 57.2295 43.9403 57.3026 43.6114 57.3026C42.9609 57.3026 42.5004 57.0175 42.5004 56.1697V54.1378H42.0107V53.3777H42.5004V52.3179H43.3848V53.3777H44.4227V54.1378H43.3848ZM45.9879 52.7857H45.0377V51.9452H45.9879V52.7857ZM45.9587 57.2368H45.0743V53.3777H45.9587V57.2368ZM50.1842 56.6009C49.8041 57.0249 49.3583 57.3245 48.6055 57.3245C47.458 57.3245 46.6101 56.4255 46.6101 55.3219C46.6101 54.2182 47.458 53.2973 48.6128 53.2973C49.3437 53.2973 49.7968 53.5677 50.155 53.9624L49.6068 54.5544C49.3364 54.2694 49.0513 54.0721 48.6055 54.0721C47.9623 54.0721 47.4945 54.6275 47.4945 55.3073C47.4945 56.0016 47.9696 56.5571 48.6493 56.5571C49.0659 56.5571 49.3729 56.3597 49.6506 56.0747L50.1842 56.6009ZM53.4607 56.0966C53.4607 56.9079 52.8321 57.3099 52.0281 57.3099C51.48 57.3099 50.8733 57.1126 50.3909 56.7325L50.7856 56.1332C51.2022 56.4475 51.6554 56.6083 52.0501 56.6083C52.4301 56.6083 52.6494 56.4475 52.6494 56.1916V56.177C52.6494 55.8774 52.2401 55.775 51.7869 55.6362C51.2169 55.4754 50.581 55.2415 50.581 54.5033V54.4887C50.581 53.7578 51.1876 53.3119 51.9551 53.3119C52.4374 53.3119 52.9637 53.48 53.373 53.7505L53.0222 54.379C52.6494 54.1525 52.2547 54.0136 51.9331 54.0136C51.5896 54.0136 51.3923 54.1744 51.3923 54.401V54.4156C51.3923 54.6933 51.8089 54.8103 52.262 54.9564C52.8248 55.1319 53.4607 55.3877 53.4607 56.082V56.0966Z" fill="white" fill-opacity="0.7"/>
</g>
<defs>
<filter id="filter0_b_533_867" x="-6.51172" y="-7.41016" width="84.8203" height="85.8203" filterUnits="userSpaceOnUse" color-interpolation-filters="sRGB">
<feFlood flood-opacity="0" result="BackgroundImageFix"/>
<feGaussianBlur in="BackgroundImageFix" stdDeviation="3.70508"/>
<feComposite in2="SourceAlpha" operator="in" result="effect1_backgroundBlur_533_867"/>
<feBlend mode="normal" in="SourceGraphic" in2="effect1_backgroundBlur_533_867" result="shape"/>
</filter>
</defs>
</svg>
