<svg width="61" height="82" viewBox="0 0 61 82" fill="none" xmlns="http://www.w3.org/2000/svg">
<path d="M16.6653 59V53.9091H18.3855C18.7849 53.9091 19.1113 53.9812 19.3649 54.1254C19.6201 54.2679 19.809 54.4609 19.9316 54.7045C20.0543 54.9482 20.1156 55.2199 20.1156 55.5199C20.1156 55.8198 20.0543 56.0924 19.9316 56.3377C19.8107 56.583 19.6234 56.7785 19.3699 56.9244C19.1163 57.0685 18.7915 57.1406 18.3954 57.1406H17.1625V56.5938H18.3755C18.649 56.5938 18.8685 56.5465 19.0343 56.4521C19.2 56.3576 19.3201 56.23 19.3947 56.0692C19.4709 55.9068 19.5091 55.7237 19.5091 55.5199C19.5091 55.3161 19.4709 55.1338 19.3947 54.973C19.3201 54.8123 19.1992 54.6863 19.0318 54.5952C18.8644 54.5024 18.6423 54.456 18.3656 54.456H17.2818V59H16.6653ZM21.0291 59V55.1818H21.5959V55.7585H21.6357C21.7053 55.5696 21.8312 55.4163 22.0135 55.2987C22.1958 55.181 22.4013 55.1222 22.63 55.1222C22.6731 55.1222 22.7269 55.123 22.7915 55.1246C22.8562 55.1263 22.9051 55.1288 22.9382 55.1321V55.7287C22.9183 55.7237 22.8728 55.7163 22.8015 55.7063C22.7319 55.6947 22.6581 55.6889 22.5803 55.6889C22.3946 55.6889 22.2289 55.7279 22.0831 55.8058C21.9389 55.882 21.8246 55.988 21.7401 56.1239C21.6572 56.2582 21.6158 56.4115 21.6158 56.5838V59H21.0291ZM25.1183 59.0795C24.7504 59.0795 24.433 58.9983 24.1662 58.8359C23.901 58.6719 23.6964 58.4432 23.5522 58.1499C23.4097 57.8549 23.3384 57.5118 23.3384 57.1207C23.3384 56.7296 23.4097 56.3849 23.5522 56.0866C23.6964 55.7867 23.8969 55.553 24.1538 55.3857C24.4123 55.2166 24.7139 55.1321 25.0586 55.1321C25.2575 55.1321 25.4538 55.1652 25.6477 55.2315C25.8416 55.2978 26.0181 55.4055 26.1772 55.5547C26.3363 55.7022 26.4631 55.8977 26.5575 56.1413C26.652 56.3849 26.6992 56.6849 26.6992 57.0412V57.2898H23.756V56.7827H26.1026C26.1026 56.5672 26.0595 56.375 25.9734 56.206C25.8888 56.0369 25.7679 55.9035 25.6104 55.8058C25.4547 55.708 25.2707 55.6591 25.0586 55.6591C24.8249 55.6591 24.6228 55.7171 24.4521 55.8331C24.283 55.9474 24.1529 56.0966 24.0618 56.2805C23.9706 56.4645 23.9251 56.6617 23.9251 56.8722V57.2102C23.9251 57.4986 23.9748 57.743 24.0742 57.9435C24.1753 58.1424 24.3153 58.294 24.4943 58.3984C24.6733 58.5012 24.8813 58.5526 25.1183 58.5526C25.2724 58.5526 25.4116 58.531 25.5359 58.4879C25.6618 58.4432 25.7704 58.3769 25.8615 58.2891C25.9527 58.1996 26.0231 58.0885 26.0728 57.956L26.6396 58.1151C26.5799 58.3073 26.4796 58.4763 26.3388 58.6222C26.1979 58.7663 26.0239 58.879 25.8168 58.9602C25.6096 59.0398 25.3768 59.0795 25.1183 59.0795ZM27.5916 59V55.1818H28.1584V55.7784H28.2081C28.2876 55.5746 28.4161 55.4163 28.5934 55.3036C28.7707 55.1893 28.9837 55.1321 29.2322 55.1321C29.4841 55.1321 29.6938 55.1893 29.8612 55.3036C30.0302 55.4163 30.1619 55.5746 30.2564 55.7784H30.2962C30.3939 55.5812 30.5406 55.4246 30.7362 55.3086C30.9317 55.1909 31.1662 55.1321 31.4396 55.1321C31.781 55.1321 32.0603 55.239 32.2773 55.4528C32.4944 55.6649 32.603 55.9955 32.603 56.4446V59H32.0163V56.4446C32.0163 56.1629 31.9393 55.9615 31.7852 55.8406C31.631 55.7196 31.4496 55.6591 31.2408 55.6591C30.9723 55.6591 30.7643 55.7403 30.6168 55.9027C30.4693 56.0634 30.3956 56.2673 30.3956 56.5142V59H29.799V56.3849C29.799 56.1679 29.7286 55.993 29.5877 55.8604C29.4469 55.7262 29.2654 55.6591 29.0433 55.6591C28.8909 55.6591 28.7483 55.6997 28.6158 55.7809C28.4848 55.8621 28.3788 55.9748 28.2976 56.119C28.218 56.2615 28.1783 56.4264 28.1783 56.6136V59H27.5916ZM33.6756 59V55.1818H34.2623V59H33.6756ZM33.9739 54.5455C33.8596 54.5455 33.7609 54.5065 33.6781 54.4286C33.5969 54.3507 33.5563 54.2571 33.5563 54.1477C33.5563 54.0384 33.5969 53.9447 33.6781 53.8668C33.7609 53.7889 33.8596 53.75 33.9739 53.75C34.0882 53.75 34.186 53.7889 34.2672 53.8668C34.3501 53.9447 34.3915 54.0384 34.3915 54.1477C34.3915 54.2571 34.3501 54.3507 34.2672 54.4286C34.186 54.5065 34.0882 54.5455 33.9739 54.5455ZM37.743 57.4389V55.1818H38.3296V59H37.743V58.3537H37.7032C37.6137 58.5476 37.4745 58.7125 37.2856 58.8484C37.0967 58.9826 36.858 59.0497 36.5697 59.0497C36.3311 59.0497 36.1189 58.9975 35.9333 58.8931C35.7477 58.7871 35.6019 58.628 35.4958 58.4158C35.3898 58.2021 35.3367 57.9328 35.3367 57.608V55.1818H35.9234V57.5682C35.9234 57.8466 36.0013 58.0687 36.157 58.2344C36.3145 58.4001 36.515 58.483 36.7586 58.483C36.9044 58.483 37.0528 58.4457 37.2036 58.3711C37.356 58.2965 37.4836 58.1822 37.5864 58.0281C37.6908 57.8739 37.743 57.6776 37.743 57.4389ZM39.4041 59V55.1818H39.9709V55.7784H40.0206C40.1001 55.5746 40.2286 55.4163 40.4059 55.3036C40.5832 55.1893 40.7962 55.1321 41.0447 55.1321C41.2966 55.1321 41.5063 55.1893 41.6737 55.3036C41.8427 55.4163 41.9744 55.5746 42.0689 55.7784H42.1087C42.2064 55.5812 42.3531 55.4246 42.5487 55.3086C42.7442 55.1909 42.9787 55.1321 43.2521 55.1321C43.5935 55.1321 43.8728 55.239 44.0898 55.4528C44.3069 55.6649 44.4155 55.9955 44.4155 56.4446V59H43.8288V56.4446C43.8288 56.1629 43.7518 55.9615 43.5977 55.8406C43.4435 55.7196 43.2621 55.6591 43.0533 55.6591C42.7848 55.6591 42.5768 55.7403 42.4293 55.9027C42.2818 56.0634 42.2081 56.2673 42.2081 56.5142V59H41.6115V56.3849C41.6115 56.1679 41.5411 55.993 41.4002 55.8604C41.2594 55.7262 41.0779 55.6591 40.8558 55.6591C40.7034 55.6591 40.5608 55.6997 40.4283 55.7809C40.2973 55.8621 40.1913 55.9748 40.1101 56.119C40.0305 56.2615 39.9908 56.4264 39.9908 56.6136V59H39.4041ZM13.7911 69H13.1448L15.0141 63.9091H15.6505L17.5198 69H16.8735L15.3522 64.7145H15.3124L13.7911 69ZM14.0297 67.0114H16.6349V67.5582H14.0297V67.0114ZM19.8341 69.0795C19.4662 69.0795 19.1488 68.9983 18.882 68.8359C18.6169 68.6719 18.4122 68.4432 18.268 68.1499C18.1255 67.8549 18.0542 67.5118 18.0542 67.1207C18.0542 66.7296 18.1255 66.3849 18.268 66.0866C18.4122 65.7867 18.6127 65.553 18.8696 65.3857C19.1281 65.2166 19.4297 65.1321 19.7744 65.1321C19.9733 65.1321 20.1697 65.1652 20.3635 65.2315C20.5574 65.2978 20.7339 65.4055 20.893 65.5547C21.0521 65.7022 21.1789 65.8977 21.2733 66.1413C21.3678 66.3849 21.415 66.6849 21.415 67.0412V67.2898H18.4719V66.7827H20.8184C20.8184 66.5672 20.7754 66.375 20.6892 66.206C20.6047 66.0369 20.4837 65.9035 20.3263 65.8058C20.1705 65.708 19.9865 65.6591 19.7744 65.6591C19.5407 65.6591 19.3386 65.7171 19.1679 65.8331C18.9988 65.9474 18.8688 66.0966 18.7776 66.2805C18.6865 66.4645 18.6409 66.6617 18.6409 66.8722V67.2102C18.6409 67.4986 18.6906 67.743 18.79 67.9435C18.8911 68.1424 19.0312 68.294 19.2101 68.3984C19.3891 68.5012 19.5971 68.5526 19.8341 68.5526C19.9882 68.5526 20.1274 68.531 20.2517 68.4879C20.3776 68.4432 20.4862 68.3769 20.5773 68.2891C20.6685 68.1996 20.7389 68.0885 20.7886 67.956L21.3554 68.1151C21.2957 68.3073 21.1955 68.4763 21.0546 68.6222C20.9137 68.7663 20.7397 68.879 20.5326 68.9602C20.3254 69.0398 20.0926 69.0795 19.8341 69.0795ZM25.012 66.0369L24.485 66.1861C24.4519 66.0982 24.403 66.0129 24.3383 65.93C24.2754 65.8455 24.1892 65.7759 24.0798 65.7212C23.9704 65.6665 23.8304 65.6392 23.6597 65.6392C23.426 65.6392 23.2313 65.6931 23.0756 65.8008C22.9214 65.9068 22.8444 66.0419 22.8444 66.206C22.8444 66.3518 22.8974 66.467 23.0035 66.5515C23.1095 66.636 23.2752 66.7064 23.5006 66.7628L24.0674 66.902C24.4088 66.9848 24.6631 67.1116 24.8305 67.2823C24.9979 67.4513 25.0816 67.6693 25.0816 67.9361C25.0816 68.1548 25.0186 68.3504 24.8927 68.5227C24.7684 68.6951 24.5944 68.831 24.3706 68.9304C24.1469 69.0298 23.8867 69.0795 23.5901 69.0795C23.2007 69.0795 22.8783 68.995 22.6231 68.826C22.3679 68.657 22.2064 68.41 22.1384 68.0852L22.6952 67.946C22.7483 68.1515 22.8485 68.3056 22.996 68.4084C23.1452 68.5111 23.3399 68.5625 23.5802 68.5625C23.8536 68.5625 24.0707 68.5045 24.2314 68.3885C24.3939 68.2708 24.4751 68.13 24.4751 67.9659C24.4751 67.8333 24.4287 67.7223 24.3358 67.6328C24.243 67.5417 24.1005 67.4737 23.9083 67.429L23.2719 67.2798C22.9223 67.197 22.6654 67.0685 22.5013 66.8945C22.3389 66.7189 22.2577 66.4993 22.2577 66.2358C22.2577 66.0204 22.3182 65.8298 22.4392 65.6641C22.5618 65.4983 22.7284 65.3683 22.9388 65.2738C23.151 65.1793 23.3912 65.1321 23.6597 65.1321C24.0376 65.1321 24.3342 65.215 24.5496 65.3807C24.7667 65.5464 24.9208 65.7652 25.012 66.0369ZM27.6252 65.1818V65.679H25.6465V65.1818H27.6252ZM26.2232 64.267H26.8098V67.9062C26.8098 68.072 26.8339 68.1963 26.8819 68.2791C26.9316 68.3603 26.9946 68.415 27.0708 68.4432C27.1487 68.4697 27.2308 68.483 27.3169 68.483C27.3816 68.483 27.4346 68.4796 27.476 68.473C27.5175 68.4647 27.5506 68.4581 27.5755 68.4531L27.6948 68.9801C27.655 68.995 27.5995 69.0099 27.5282 69.0249C27.457 69.0414 27.3667 69.0497 27.2573 69.0497C27.0916 69.0497 26.9292 69.0141 26.7701 68.9428C26.6126 68.8716 26.4817 68.763 26.3773 68.6172C26.2746 68.4714 26.2232 68.2874 26.2232 68.0653V64.267ZM29.1763 66.7031V69H28.5897V63.9091H29.1763V65.7784H29.226C29.3155 65.5812 29.4498 65.4246 29.6287 65.3086C29.8094 65.1909 30.0497 65.1321 30.3496 65.1321C30.6098 65.1321 30.8377 65.1843 31.0332 65.2887C31.2288 65.3915 31.3804 65.5497 31.4881 65.7635C31.5975 65.9756 31.6522 66.2457 31.6522 66.5739V69H31.0655V66.6136C31.0655 66.3104 30.9868 66.0759 30.8294 65.9102C30.6736 65.7428 30.4573 65.6591 30.1806 65.6591C29.9883 65.6591 29.816 65.6997 29.6635 65.7809C29.5127 65.8621 29.3934 65.9806 29.3056 66.1364C29.2194 66.2921 29.1763 66.4811 29.1763 66.7031ZM34.3263 69.0795C33.9584 69.0795 33.641 68.9983 33.3742 68.8359C33.109 68.6719 32.9044 68.4432 32.7602 68.1499C32.6177 67.8549 32.5464 67.5118 32.5464 67.1207C32.5464 66.7296 32.6177 66.3849 32.7602 66.0866C32.9044 65.7867 33.1049 65.553 33.3618 65.3857C33.6203 65.2166 33.9219 65.1321 34.2666 65.1321C34.4655 65.1321 34.6618 65.1652 34.8557 65.2315C35.0496 65.2978 35.2261 65.4055 35.3852 65.5547C35.5443 65.7022 35.6711 65.8977 35.7655 66.1413C35.86 66.3849 35.9072 66.6849 35.9072 67.0412V67.2898H32.964V66.7827H35.3106C35.3106 66.5672 35.2675 66.375 35.1814 66.206C35.0969 66.0369 34.9759 65.9035 34.8184 65.8058C34.6627 65.708 34.4787 65.6591 34.2666 65.6591C34.0329 65.6591 33.8308 65.7171 33.6601 65.8331C33.491 65.9474 33.3609 66.0966 33.2698 66.2805C33.1787 66.4645 33.1331 66.6617 33.1331 66.8722V67.2102C33.1331 67.4986 33.1828 67.743 33.2822 67.9435C33.3833 68.1424 33.5233 68.294 33.7023 68.3984C33.8813 68.5012 34.0893 68.5526 34.3263 68.5526C34.4804 68.5526 34.6196 68.531 34.7439 68.4879C34.8698 68.4432 34.9784 68.3769 35.0695 68.2891C35.1607 68.1996 35.2311 68.0885 35.2808 67.956L35.8476 68.1151C35.7879 68.3073 35.6876 68.4763 35.5468 68.6222C35.4059 68.7663 35.2319 68.879 35.0248 68.9602C34.8176 69.0398 34.5848 69.0795 34.3263 69.0795ZM38.4601 65.1818V65.679H36.4814V65.1818H38.4601ZM37.0581 64.267H37.6448V67.9062C37.6448 68.072 37.6688 68.1963 37.7169 68.2791C37.7666 68.3603 37.8296 68.415 37.9058 68.4432C37.9837 68.4697 38.0657 68.483 38.1519 68.483C38.2165 68.483 38.2696 68.4796 38.311 68.473C38.3524 68.4647 38.3856 68.4581 38.4104 68.4531L38.5297 68.9801C38.49 68.995 38.4345 69.0099 38.3632 69.0249C38.2919 69.0414 38.2016 69.0497 38.0922 69.0497C37.9265 69.0497 37.7641 69.0141 37.605 68.9428C37.4476 68.8716 37.3167 68.763 37.2123 68.6172C37.1095 68.4714 37.0581 68.2874 37.0581 68.0653V64.267ZM39.3426 69V65.1818H39.9292V69H39.3426ZM39.6409 64.5455C39.5265 64.5455 39.4279 64.5065 39.3451 64.4286C39.2639 64.3507 39.2233 64.2571 39.2233 64.1477C39.2233 64.0384 39.2639 63.9447 39.3451 63.8668C39.4279 63.7889 39.5265 63.75 39.6409 63.75C39.7552 63.75 39.853 63.7889 39.9342 63.8668C40.0171 63.9447 40.0585 64.0384 40.0585 64.1477C40.0585 64.2571 40.0171 64.3507 39.9342 64.4286C39.853 64.5065 39.7552 64.5455 39.6409 64.5455ZM42.5549 69.0795C42.1969 69.0795 41.8887 68.995 41.6301 68.826C41.3716 68.657 41.1728 68.4241 41.0336 68.1275C40.8944 67.8308 40.8248 67.492 40.8248 67.1108C40.8248 66.723 40.896 66.3808 41.0385 66.0842C41.1827 65.7859 41.3832 65.553 41.6401 65.3857C41.8986 65.2166 42.2002 65.1321 42.5449 65.1321C42.8134 65.1321 43.0553 65.1818 43.2708 65.2812C43.4862 65.3807 43.6627 65.5199 43.8002 65.6989C43.9378 65.8778 44.0231 66.0866 44.0563 66.3253H43.4696C43.4249 66.1513 43.3255 65.9972 43.1713 65.8629C43.0189 65.727 42.8134 65.6591 42.5549 65.6591C42.3262 65.6591 42.1257 65.7187 41.9533 65.8381C41.7826 65.9557 41.6492 66.1223 41.5531 66.3377C41.4586 66.5515 41.4114 66.8026 41.4114 67.0909C41.4114 67.3859 41.4578 67.6428 41.5506 67.8615C41.6451 68.0803 41.7776 68.2501 41.9483 68.3711C42.1207 68.4921 42.3229 68.5526 42.5549 68.5526C42.7073 68.5526 42.8457 68.526 42.97 68.473C43.0943 68.42 43.1995 68.3438 43.2857 68.2443C43.3719 68.1449 43.4332 68.0256 43.4696 67.8864H44.0563C44.0231 68.1117 43.9411 68.3147 43.8102 68.4954C43.6809 68.6744 43.5094 68.8169 43.2956 68.9229C43.0835 69.0273 42.8366 69.0795 42.5549 69.0795ZM47.6184 66.0369L47.0914 66.1861C47.0583 66.0982 47.0094 66.0129 46.9448 65.93C46.8818 65.8455 46.7956 65.7759 46.6863 65.7212C46.5769 65.6665 46.4368 65.6392 46.2662 65.6392C46.0325 65.6392 45.8378 65.6931 45.682 65.8008C45.5279 65.9068 45.4508 66.0419 45.4508 66.206C45.4508 66.3518 45.5038 66.467 45.6099 66.5515C45.716 66.636 45.8817 66.7064 46.1071 66.7628L46.6738 66.902C47.0152 66.9848 47.2696 67.1116 47.437 67.2823C47.6043 67.4513 47.688 67.6693 47.688 67.9361C47.688 68.1548 47.6251 68.3504 47.4991 68.5227C47.3748 68.6951 47.2008 68.831 46.9771 68.9304C46.7534 69.0298 46.4932 69.0795 46.1966 69.0795C45.8071 69.0795 45.4848 68.995 45.2296 68.826C44.9744 68.657 44.8128 68.41 44.7449 68.0852L45.3017 67.946C45.3547 68.1515 45.455 68.3056 45.6025 68.4084C45.7516 68.5111 45.9463 68.5625 46.1866 68.5625C46.46 68.5625 46.6771 68.5045 46.8379 68.3885C47.0003 68.2708 47.0815 68.13 47.0815 67.9659C47.0815 67.8333 47.0351 67.7223 46.9423 67.6328C46.8495 67.5417 46.707 67.4737 46.5147 67.429L45.8784 67.2798C45.5287 67.197 45.2718 67.0685 45.1078 66.8945C44.9454 66.7189 44.8642 66.4993 44.8642 66.2358C44.8642 66.0204 44.9247 65.8298 45.0456 65.6641C45.1683 65.4983 45.3348 65.3683 45.5453 65.2738C45.7574 65.1793 45.9977 65.1321 46.2662 65.1321C46.644 65.1321 46.9406 65.215 47.1561 65.3807C47.3732 65.5464 47.5273 65.7652 47.6184 66.0369Z" fill="#E5C152"/>
<path d="M30 44C39.9411 44 48 35.9411 48 26C48 16.0589 39.9411 8 30 8C20.0589 8 12 16.0589 12 26C12 35.9411 20.0589 44 30 44Z" fill="#E6C252"/>
<path d="M22.5629 26.8136H22.1448V27.5648H21.592V25.0632H22.6125C23.2078 25.0632 23.5692 25.4176 23.5692 25.9278C23.5692 26.516 23.1157 26.8136 22.5558 26.8136H22.5629ZM23.0164 25.942C23.0164 25.6939 22.8464 25.5664 22.57 25.5664H22.1448V26.3317H22.5842C22.8605 26.3317 23.0235 26.1687 23.0235 25.9491L23.0164 25.942Z" fill="#231F20"/>
<path d="M25.674 27.5648L25.1354 26.764H24.7031V27.5648H24.1504V25.0632H25.2913C25.8795 25.0632 26.2339 25.375 26.2339 25.8924C26.2339 26.3034 26.0142 26.5585 25.6953 26.679L26.3047 27.5719H25.6598L25.674 27.5648ZM25.6811 25.9207C25.6811 25.6869 25.5181 25.5664 25.2488 25.5664H24.7031V26.2821H25.263C25.5323 26.2821 25.6882 26.1404 25.6882 25.9278L25.6811 25.9207Z" fill="#231F20"/>
<path d="M26.907 27.5648V25.0632H28.792V25.5522H27.4527V26.0624H28.6361V26.5514H27.4527V27.0758H28.8133V27.5648H26.907Z" fill="#231F20"/>
<path d="M31.4351 27.5648V25.9278L30.7336 26.9979H30.7194L30.0249 25.942V27.5648H29.4863V25.0632H30.0816L30.7407 26.1191L31.3997 25.0632H31.995V27.5648H31.4493H31.4351Z" fill="#231F20"/>
<path d="M32.7747 27.5648V25.0632H33.3274V27.5648H32.7747Z" fill="#231F20"/>
<path d="M35.1699 27.6073C34.4967 27.6073 34.0857 27.2317 34.0857 26.4947V25.0632H34.6384V26.4806C34.6384 26.8916 34.844 27.0971 35.177 27.0971C35.5101 27.0971 35.7156 26.8916 35.7156 26.4947V25.0632H36.2684V26.4735C36.2684 27.2317 35.8432 27.6002 35.1699 27.6002V27.6073Z" fill="#231F20"/>
<path d="M38.9542 27.5648V25.9278L38.2526 26.9979H38.2384L37.544 25.942V27.5648H37.0054V25.0632H37.6006L38.2597 26.1191L38.9188 25.0632H39.514V27.5648H38.9684H38.9542Z" fill="#231F20"/>
<path d="M17.0071 26.2822C17.0071 25.9349 17 25.5877 17.0071 25.2404C17.0354 24.2908 17.7157 23.6247 18.6583 23.6176C19.2252 23.6176 19.7921 23.6176 20.3591 23.6176C20.515 23.6176 20.5858 23.5822 20.6425 23.4121C21.826 19.6207 24.3276 17.1759 28.1969 16.2759C31.3646 15.5459 34.2772 16.2759 36.8142 18.331C38.4512 19.6562 39.5496 21.3641 40.1236 23.3908C40.1732 23.5751 40.2583 23.6176 40.4354 23.6176C41.0803 23.6176 41.7252 23.5822 42.363 23.6459C43.1638 23.7239 43.7094 24.2979 43.752 25.0987C43.7945 25.8924 43.7945 26.6932 43.752 27.4798C43.7024 28.3585 43.022 28.9396 42.1291 28.9538C41.5409 28.9609 40.9457 28.9609 40.3575 28.9538C40.1732 28.9538 40.1024 29.0105 40.0457 29.1877C38.8835 32.5963 36.6087 34.9278 33.1362 35.8845C29.2811 36.9404 25.8866 35.9766 23.0591 33.1349C21.9465 32.0152 21.1953 30.6688 20.7205 29.1735C20.6709 29.0105 20.6 28.9609 20.437 28.9609C19.8559 28.968 19.2677 28.9609 18.6866 28.9609C17.6803 28.9609 17.0071 28.2877 17 27.2814C17 26.9483 17 26.6152 17 26.2822H17.0071ZM30.3866 28.2593C34.2559 28.2593 38.1252 28.2593 41.9945 28.2593C42.0724 28.2593 42.1433 28.2593 42.2213 28.2593C42.6961 28.231 43.0717 27.8766 43.0787 27.4018C43.0929 26.6578 43.0787 25.9207 43.0787 25.1766C43.0787 24.8932 42.937 24.6735 42.7173 24.5034C42.5047 24.3404 42.2638 24.3263 42.0087 24.3263C34.3126 24.3263 26.6236 24.3263 18.9276 24.3263C18.8 24.3263 18.6724 24.3263 18.5449 24.3263C18.0701 24.3688 17.7299 24.7231 17.7228 25.1908C17.7087 25.9278 17.7228 26.6578 17.7228 27.3948C17.7228 27.6782 17.8646 27.8979 18.0772 28.0751C18.2898 28.2452 18.5307 28.2593 18.7858 28.2593C22.6551 28.2593 26.5244 28.2593 30.3937 28.2593H30.3866ZM39.5213 23.6105C38.6638 20.0814 35.085 16.4105 29.8764 16.6727C25.2417 16.9066 22.0102 20.4286 21.2732 23.6105H39.5213ZM21.3441 28.9751C22.2228 32.2207 25.5323 35.4948 30.0394 35.6507C35.0283 35.8207 38.5362 32.2916 39.4433 28.9751H21.3441Z" fill="#231F20"/>
<path d="M29.0825 17.1548C29.4935 17.3674 29.8691 17.5587 30.2376 17.7642C30.351 17.828 30.4361 17.8209 30.5424 17.7642C30.9109 17.5587 31.2935 17.3674 31.6975 17.1548C31.6266 17.5658 31.5699 17.9485 31.492 18.3241C31.4494 18.5296 31.492 18.6713 31.6479 18.8201C31.9313 19.0824 32.1865 19.3658 32.4628 19.6564C32.0518 19.7201 31.6408 19.791 31.2227 19.8406C31.0809 19.8548 31.0172 19.9186 30.9605 20.039C30.7833 20.4146 30.592 20.7831 30.3865 21.1942C30.188 20.7973 30.0038 20.4359 29.8337 20.0745C29.7628 19.9257 29.6778 19.8477 29.5006 19.8264C29.1038 19.7839 28.7069 19.7131 28.2888 19.6493C28.4872 19.4509 28.6431 19.2383 28.8557 19.0824C29.2597 18.7847 29.3872 18.4375 29.2172 17.9556C29.1321 17.7075 29.125 17.4383 29.0825 17.1477V17.1548Z" fill="#231F20"/>
<path d="M25.9006 21.3923C25.7802 21.1514 25.6668 20.9459 25.5818 20.7333C25.5109 20.5561 25.3904 20.4994 25.2203 20.4852C25.0006 20.464 24.7739 20.4214 24.5613 20.3931C24.7314 20.2088 24.8943 20.0246 25.0715 19.8474C25.1636 19.7553 25.2132 19.6774 25.1778 19.5356C25.1211 19.3018 25.0999 19.0608 25.0503 18.7703C25.3195 18.912 25.5392 19.0325 25.766 19.1388C25.8369 19.1742 25.9503 19.1742 26.0282 19.1388C26.2692 19.0325 26.4959 18.9049 26.7581 18.7703C26.7156 19.0254 26.6802 19.2592 26.6306 19.486C26.5951 19.649 26.6235 19.7695 26.7581 19.8829C26.9353 20.0317 27.0841 20.2088 27.2755 20.4002C27.0203 20.4356 26.7936 20.4711 26.5597 20.4994C26.4109 20.5207 26.2975 20.5703 26.2337 20.7262C26.1416 20.9459 26.0282 21.1514 25.9006 21.4065V21.3923Z" fill="#231F20"/>
<path d="M34.7024 21.3852C34.5749 21.1301 34.4615 20.9246 34.3694 20.7049C34.3056 20.5561 34.2135 20.4994 34.0646 20.4852C33.8308 20.4569 33.604 20.4215 33.3347 20.386C33.5331 20.1876 33.7174 20.0104 33.8804 19.8191C33.9442 19.7482 33.9867 19.6278 33.9725 19.5285C33.9513 19.2734 33.8946 19.0254 33.852 18.7561C34.0505 18.8624 34.2489 18.9404 34.4119 19.0537C34.6174 19.2026 34.8016 19.1884 35.0001 19.0537C35.156 18.9474 35.3261 18.8766 35.5457 18.7632C35.5032 19.0537 35.482 19.2947 35.4253 19.5285C35.3898 19.6703 35.4394 19.7482 35.5316 19.8404C35.7087 20.0104 35.8717 20.2018 36.0418 20.386C35.8505 20.4144 35.652 20.464 35.4536 20.4711C35.2268 20.4852 35.078 20.5561 34.993 20.7829C34.9221 20.9742 34.8087 21.1585 34.7024 21.3782V21.3852Z" fill="#231F20"/>
<path d="M25.3977 23.0365C26.3686 21.69 27.6158 20.8822 29.2174 20.5278C29.2174 20.7192 29.2245 20.8892 29.2174 21.0593C29.2174 21.1089 29.1394 21.1869 29.0827 21.2011C27.9701 21.4916 27.0276 22.0656 26.2764 22.9373C26.241 22.9798 26.1843 23.0294 26.1347 23.0294C25.915 23.0365 25.6883 23.0294 25.4119 23.0294L25.3977 23.0365Z" fill="#231F20"/>
<path d="M35.3685 23.0436C35.1063 23.0436 34.8866 23.0436 34.6669 23.0436C34.6173 23.0436 34.5464 23.0081 34.511 22.9727C33.7385 22.0727 32.7677 21.4916 31.6055 21.1939V20.5562C33.1787 20.9105 34.4047 21.7254 35.3614 23.0506L35.3685 23.0436Z" fill="#231F20"/>
<path d="M22.2866 22.3418C22.7331 22.0655 22.8039 21.704 22.641 21.2363C23.0378 21.5623 23.4063 21.5623 23.8032 21.2363C23.6331 21.697 23.6969 22.0584 24.1575 22.2993C24.1433 22.3135 24.1362 22.3348 24.1221 22.3489C24.0016 22.3702 23.8811 22.3914 23.7606 22.4056C23.5764 22.4198 23.4559 22.5048 23.3992 22.682C23.3638 22.7954 23.2929 22.8946 23.2079 23.0576C23.0803 22.5686 22.8252 22.2993 22.2937 22.3489L22.2866 22.3418Z" fill="#231F20"/>
<path d="M37.3526 23.0153C37.2534 22.5334 36.9558 22.3138 36.4526 22.3421C36.8707 22.0586 36.9983 21.7114 36.7999 21.2437C37.1896 21.52 37.5581 21.6051 37.9267 21.2224C37.9479 21.2791 37.9621 21.3004 37.955 21.3145C37.8133 21.7256 37.8912 22.0657 38.2881 22.335C38.1889 22.3563 38.0896 22.3846 37.9833 22.3917C37.7778 22.413 37.6078 22.4697 37.5511 22.7035C37.5227 22.8027 37.4589 22.8878 37.4093 22.987C37.3881 23.0012 37.3739 23.0082 37.3526 23.0224V23.0153Z" fill="#231F20"/>
<path d="M24.5755 32.1003C24.8093 32.0649 25.0503 32.0152 25.2983 31.994C25.44 31.9798 25.5109 31.916 25.5605 31.7885C25.6597 31.5688 25.7731 31.3562 25.9006 31.1011C26.0211 31.3491 26.1416 31.5475 26.2266 31.7672C26.2904 31.9231 26.3896 31.9869 26.5455 32.0011C26.7794 32.0294 27.0062 32.0649 27.2684 32.1003C27.0841 32.2916 26.9211 32.4688 26.744 32.6247C26.6306 32.731 26.5951 32.8302 26.6235 32.979C26.6731 33.2129 26.7085 33.4538 26.751 33.7231C26.4959 33.5885 26.2762 33.4609 26.0424 33.3617C25.9573 33.3263 25.8298 33.3263 25.7377 33.3617C25.5109 33.4609 25.2983 33.5814 25.0432 33.716C25.0928 33.4184 25.1424 33.1704 25.1636 32.9152C25.1707 32.8373 25.1353 32.731 25.0857 32.6672C24.9227 32.4688 24.7455 32.2845 24.5613 32.0932L24.5755 32.1003Z" fill="#231F20"/>
<path d="M35.5528 33.7231C35.2906 33.5885 35.078 33.4609 34.8512 33.3688C34.7662 33.3334 34.6386 33.3334 34.5465 33.3688C34.3198 33.468 34.1072 33.5956 33.852 33.7302C33.9016 33.4538 33.9371 33.2058 33.9796 32.9649C34.0079 32.8373 33.9796 32.7452 33.8733 32.646C33.6961 32.483 33.5331 32.3058 33.3418 32.1074C33.6111 32.0649 33.8662 32.0365 34.1213 31.9798C34.1993 31.9656 34.2914 31.8948 34.3339 31.8239C34.4615 31.6042 34.5678 31.3704 34.7024 31.1011C34.8229 31.3491 34.9434 31.5617 35.0426 31.7885C35.0993 31.9089 35.1631 31.9798 35.3048 31.994C35.5528 32.0152 35.7938 32.0649 36.0418 32.1074C35.8575 32.3058 35.6733 32.483 35.5032 32.6814C35.4536 32.7452 35.4182 32.8515 35.4253 32.9294C35.4536 33.1845 35.4961 33.4326 35.5457 33.7302L35.5528 33.7231Z" fill="#231F20"/>
<path d="M29.2103 31.7671V32.3624C28.0764 32.4758 25.6882 30.7608 25.1426 29.4427C25.3481 29.4427 25.5536 29.4215 25.752 29.4498C25.8442 29.464 25.9292 29.5632 25.993 29.6482C26.8008 30.7466 27.8709 31.4482 29.2174 31.7742L29.2103 31.7671Z" fill="#231F20"/>
<path d="M31.6055 32.3979C31.6055 32.1995 31.5913 32.0223 31.6055 31.8523C31.6055 31.8027 31.6905 31.7318 31.7472 31.7176C33.037 31.3633 34.0574 30.6405 34.837 29.5491C34.8724 29.4995 34.9504 29.4712 35.0141 29.4428C35.0425 29.4286 35.0921 29.4428 35.1275 29.4428C35.2834 29.4428 35.4393 29.4428 35.6448 29.4428C34.7094 31.0161 33.3771 31.9869 31.5984 32.3979H31.6055Z" fill="#231F20"/>
<path d="M36.807 31.2499C36.9983 30.7751 36.8778 30.4279 36.4597 30.1515C36.9487 30.1515 37.2747 29.9814 37.3881 29.4641C37.5298 29.9389 37.8133 30.1869 38.3306 30.1515C37.9125 30.435 37.792 30.7893 37.9763 31.2641C37.5794 30.931 37.2109 30.931 36.814 31.2641L36.807 31.2499Z" fill="#231F20"/>
<path d="M22.6055 31.2568C22.8181 30.7749 22.726 30.4206 22.2795 30.1513C22.7969 30.1796 23.0874 29.9458 23.2008 29.4285C23.3284 29.6765 23.3851 29.9033 23.5339 30.0096C23.6827 30.1159 23.9165 30.1017 24.1433 30.1442C23.9874 30.3143 23.789 30.4489 23.7323 30.6261C23.6756 30.8033 23.7677 31.023 23.7961 31.2356C23.5977 31.1434 23.4134 30.9804 23.2221 30.9804C23.0378 30.9804 22.8536 31.1363 22.6055 31.2568Z" fill="#231F20"/>
</svg>
