<svg width="61" height="82" viewBox="0 0 61 82" fill="none" xmlns="http://www.w3.org/2000/svg">
<path d="M20.9002 59V53.9091H22.68C23.0346 53.9091 23.3271 53.9704 23.5575 54.093C23.7878 54.214 23.9594 54.3772 24.072 54.5827C24.1847 54.7866 24.2411 55.0128 24.2411 55.2614C24.2411 55.4801 24.2021 55.6607 24.1242 55.8033C24.048 55.9458 23.9469 56.0585 23.821 56.1413C23.6967 56.2242 23.5616 56.2855 23.4158 56.3253V56.375C23.5716 56.3849 23.7282 56.4396 23.8856 56.5391C24.043 56.6385 24.1748 56.781 24.2809 56.9666C24.3869 57.1522 24.4399 57.3793 24.4399 57.6477C24.4399 57.9029 24.3819 58.1325 24.2659 58.3363C24.1499 58.5401 23.9668 58.7017 23.7166 58.821C23.4663 58.9403 23.1407 59 22.7397 59H20.9002ZM21.5166 58.4531H22.7397C23.1424 58.4531 23.4282 58.3752 23.5973 58.2195C23.7679 58.062 23.8533 57.8714 23.8533 57.6477C23.8533 57.4754 23.8094 57.3163 23.7215 57.1705C23.6337 57.023 23.5086 56.9053 23.3462 56.8175C23.1838 56.728 22.9916 56.6832 22.7695 56.6832H21.5166V58.4531ZM21.5166 56.1463H22.6601C22.8457 56.1463 23.0131 56.1098 23.1622 56.0369C23.313 55.964 23.4324 55.8613 23.5202 55.7287C23.6097 55.5961 23.6544 55.4403 23.6544 55.2614C23.6544 55.0376 23.5765 54.8479 23.4208 54.6921C23.265 54.5347 23.0181 54.456 22.68 54.456H21.5166V56.1463ZM25.4529 59V53.9091H26.0694V58.4531H28.4359V59H25.4529ZM30.9614 59H29.3904V53.9091H31.031C31.5249 53.9091 31.9475 54.011 32.2988 54.2148C32.6501 54.417 32.9194 54.7079 33.1067 55.0874C33.2939 55.4652 33.3876 55.9176 33.3876 56.4446C33.3876 56.9749 33.2931 57.4315 33.1042 57.8143C32.9153 58.1954 32.6402 58.4888 32.2789 58.6942C31.9176 58.8981 31.4785 59 30.9614 59ZM30.0069 58.4531H30.9217C31.3426 58.4531 31.6914 58.3719 31.9682 58.2095C32.2449 58.0471 32.4512 57.8159 32.5871 57.516C32.723 57.216 32.791 56.8589 32.791 56.4446C32.791 56.0336 32.7239 55.6798 32.5896 55.3832C32.4554 55.0849 32.2549 54.8562 31.9881 54.6971C31.7213 54.5363 31.389 54.456 30.9913 54.456H30.0069V58.4531ZM38.5182 55.5H37.9018C37.8653 55.3227 37.8015 55.1669 37.7104 55.0327C37.6209 54.8984 37.5115 54.7857 37.3822 54.6946C37.2546 54.6018 37.1129 54.5322 36.9572 54.4858C36.8014 54.4394 36.639 54.4162 36.4699 54.4162C36.1617 54.4162 35.8825 54.4941 35.6322 54.6499C35.3837 54.8056 35.1856 55.0352 35.0381 55.3384C34.8923 55.6417 34.8194 56.0137 34.8194 56.4545C34.8194 56.8954 34.8923 57.2674 35.0381 57.5707C35.1856 57.8739 35.3837 58.1035 35.6322 58.2592C35.8825 58.415 36.1617 58.4929 36.4699 58.4929C36.639 58.4929 36.8014 58.4697 36.9572 58.4233C37.1129 58.3769 37.2546 58.3081 37.3822 58.217C37.5115 58.1242 37.6209 58.0107 37.7104 57.8764C37.8015 57.7405 37.8653 57.5848 37.9018 57.4091H38.5182C38.4718 57.6693 38.3873 57.9021 38.2647 58.1076C38.1421 58.3131 37.9896 58.4879 37.8073 58.6321C37.625 58.7746 37.4204 58.8832 37.1933 58.9577C36.9679 59.0323 36.7268 59.0696 36.4699 59.0696C36.0358 59.0696 35.6496 58.9635 35.3116 58.7514C34.9735 58.5393 34.7075 58.2377 34.5136 57.8466C34.3197 57.4555 34.2228 56.9915 34.2228 56.4545C34.2228 55.9176 34.3197 55.4536 34.5136 55.0625C34.7075 54.6714 34.9735 54.3698 35.3116 54.1577C35.6496 53.9455 36.0358 53.8395 36.4699 53.8395C36.7268 53.8395 36.9679 53.8768 37.1933 53.9513C37.4204 54.0259 37.625 54.1353 37.8073 54.2795C37.9896 54.422 38.1421 54.596 38.2647 54.8015C38.3873 55.0053 38.4718 55.2382 38.5182 55.5ZM11.6735 64.456V63.9091H15.4917V64.456H13.8908V69H13.2744V64.456H11.6735ZM17.4107 69.0795C17.0428 69.0795 16.7255 68.9983 16.4587 68.8359C16.1935 68.6719 15.9889 68.4432 15.8447 68.1499C15.7022 67.8549 15.6309 67.5118 15.6309 67.1207C15.6309 66.7296 15.7022 66.3849 15.8447 66.0866C15.9889 65.7867 16.1894 65.553 16.4462 65.3857C16.7048 65.2166 17.0064 65.1321 17.3511 65.1321C17.5499 65.1321 17.7463 65.1652 17.9402 65.2315C18.1341 65.2978 18.3106 65.4055 18.4697 65.5547C18.6288 65.7022 18.7555 65.8977 18.85 66.1413C18.9445 66.3849 18.9917 66.6849 18.9917 67.0412V67.2898H16.0485V66.7827H18.3951C18.3951 66.5672 18.352 66.375 18.2658 66.206C18.1813 66.0369 18.0604 65.9035 17.9029 65.8058C17.7471 65.708 17.5632 65.6591 17.3511 65.6591C17.1174 65.6591 16.9152 65.7171 16.7445 65.8331C16.5755 65.9474 16.4454 66.0966 16.3543 66.2805C16.2631 66.4645 16.2176 66.6617 16.2176 66.8722V67.2102C16.2176 67.4986 16.2673 67.743 16.3667 67.9435C16.4678 68.1424 16.6078 68.294 16.7868 68.3984C16.9658 68.5012 17.1738 68.5526 17.4107 68.5526C17.5649 68.5526 17.7041 68.531 17.8283 68.4879C17.9543 68.4432 18.0628 68.3769 18.154 68.2891C18.2451 68.1996 18.3156 68.0885 18.3653 67.956L18.932 68.1151C18.8724 68.3073 18.7721 68.4763 18.6313 68.6222C18.4904 68.7663 18.3164 68.879 18.1092 68.9602C17.9021 69.0398 17.6693 69.0795 17.4107 69.0795ZM21.4352 69.0795C21.0773 69.0795 20.769 68.995 20.5105 68.826C20.252 68.657 20.0531 68.4241 19.9139 68.1275C19.7747 67.8308 19.7051 67.492 19.7051 67.1108C19.7051 66.723 19.7764 66.3808 19.9189 66.0842C20.0631 65.7859 20.2636 65.553 20.5205 65.3857C20.779 65.2166 21.0806 65.1321 21.4253 65.1321C21.6938 65.1321 21.9357 65.1818 22.1511 65.2812C22.3666 65.3807 22.5431 65.5199 22.6806 65.6989C22.8182 65.8778 22.9035 66.0866 22.9367 66.3253H22.35C22.3053 66.1513 22.2058 65.9972 22.0517 65.8629C21.8993 65.727 21.6938 65.6591 21.4352 65.6591C21.2065 65.6591 21.006 65.7187 20.8337 65.8381C20.663 65.9557 20.5296 66.1223 20.4335 66.3377C20.339 66.5515 20.2918 66.8026 20.2918 67.0909C20.2918 67.3859 20.3382 67.6428 20.431 67.8615C20.5254 68.0803 20.658 68.2501 20.8287 68.3711C21.0011 68.4921 21.2032 68.5526 21.4352 68.5526C21.5877 68.5526 21.7261 68.526 21.8504 68.473C21.9747 68.42 22.0799 68.3438 22.1661 68.2443C22.2522 68.1449 22.3136 68.0256 22.35 67.8864H22.9367C22.9035 68.1117 22.8215 68.3147 22.6906 68.4954C22.5613 68.6744 22.3898 68.8169 22.176 68.9229C21.9639 69.0273 21.717 69.0795 21.4352 69.0795ZM24.3809 66.7031V69H23.7943V63.9091H24.3809V65.7784H24.4306C24.5201 65.5812 24.6543 65.4246 24.8333 65.3086C25.014 65.1909 25.2542 65.1321 25.5542 65.1321C25.8144 65.1321 26.0422 65.1843 26.2378 65.2887C26.4333 65.3915 26.585 65.5497 26.6927 65.7635C26.8021 65.9756 26.8568 66.2457 26.8568 66.5739V69H26.2701V66.6136C26.2701 66.3104 26.1914 66.0759 26.034 65.9102C25.8782 65.7428 25.6619 65.6591 25.3852 65.6591C25.1929 65.6591 25.0206 65.6997 24.8681 65.7809C24.7173 65.8621 24.598 65.9806 24.5102 66.1364C24.424 66.2921 24.3809 66.4811 24.3809 66.7031ZM28.5166 66.7031V69H27.93V65.1818H28.4968V65.7784H28.5465C28.636 65.5845 28.7719 65.4287 28.9541 65.3111C29.1364 65.1918 29.3718 65.1321 29.6601 65.1321C29.9186 65.1321 30.1448 65.1851 30.3387 65.2912C30.5326 65.3956 30.6834 65.5547 30.7911 65.7685C30.8989 65.9806 30.9527 66.2491 30.9527 66.5739V69H30.3661V66.6136C30.3661 66.3137 30.2882 66.08 30.1324 65.9126C29.9766 65.7436 29.7629 65.6591 29.4911 65.6591C29.3038 65.6591 29.1364 65.6997 28.9889 65.7809C28.8431 65.8621 28.7279 65.9806 28.6434 66.1364C28.5589 66.2921 28.5166 66.4811 28.5166 66.7031ZM33.5759 69.0795C33.2312 69.0795 32.9287 68.9975 32.6685 68.8335C32.41 68.6694 32.2078 68.4399 32.062 68.1449C31.9178 67.8499 31.8457 67.5052 31.8457 67.1108C31.8457 66.7131 31.9178 66.3659 32.062 66.0692C32.2078 65.7726 32.41 65.5423 32.6685 65.3782C32.9287 65.2141 33.2312 65.1321 33.5759 65.1321C33.9206 65.1321 34.2222 65.2141 34.4807 65.3782C34.7409 65.5423 34.943 65.7726 35.0872 66.0692C35.2331 66.3659 35.306 66.7131 35.306 67.1108C35.306 67.5052 35.2331 67.8499 35.0872 68.1449C34.943 68.4399 34.7409 68.6694 34.4807 68.8335C34.2222 68.9975 33.9206 69.0795 33.5759 69.0795ZM33.5759 68.5526C33.8377 68.5526 34.0531 68.4854 34.2222 68.3512C34.3912 68.217 34.5163 68.0405 34.5975 67.8217C34.6787 67.603 34.7193 67.366 34.7193 67.1108C34.7193 66.8556 34.6787 66.6178 34.5975 66.3974C34.5163 66.177 34.3912 65.9988 34.2222 65.8629C34.0531 65.727 33.8377 65.6591 33.5759 65.6591C33.314 65.6591 33.0986 65.727 32.9296 65.8629C32.7605 65.9988 32.6354 66.177 32.5542 66.3974C32.473 66.6178 32.4324 66.8556 32.4324 67.1108C32.4324 67.366 32.473 67.603 32.5542 67.8217C32.6354 68.0405 32.7605 68.217 32.9296 68.3512C33.0986 68.4854 33.314 68.5526 33.5759 68.5526ZM36.7881 63.9091V69H36.2015V63.9091H36.7881ZM39.4138 69.0795C39.0691 69.0795 38.7666 68.9975 38.5064 68.8335C38.2479 68.6694 38.0457 68.4399 37.8999 68.1449C37.7557 67.8499 37.6836 67.5052 37.6836 67.1108C37.6836 66.7131 37.7557 66.3659 37.8999 66.0692C38.0457 65.7726 38.2479 65.5423 38.5064 65.3782C38.7666 65.2141 39.0691 65.1321 39.4138 65.1321C39.7584 65.1321 40.0601 65.2141 40.3186 65.3782C40.5788 65.5423 40.7809 65.7726 40.9251 66.0692C41.0709 66.3659 41.1439 66.7131 41.1439 67.1108C41.1439 67.5052 41.0709 67.8499 40.9251 68.1449C40.7809 68.4399 40.5788 68.6694 40.3186 68.8335C40.0601 68.9975 39.7584 69.0795 39.4138 69.0795ZM39.4138 68.5526C39.6756 68.5526 39.891 68.4854 40.0601 68.3512C40.2291 68.217 40.3542 68.0405 40.4354 67.8217C40.5166 67.603 40.5572 67.366 40.5572 67.1108C40.5572 66.8556 40.5166 66.6178 40.4354 66.3974C40.3542 66.177 40.2291 65.9988 40.0601 65.8629C39.891 65.727 39.6756 65.6591 39.4138 65.6591C39.1519 65.6591 38.9365 65.727 38.7674 65.8629C38.5984 65.9988 38.4733 66.177 38.3921 66.3974C38.3109 66.6178 38.2703 66.8556 38.2703 67.1108C38.2703 67.366 38.3109 67.603 38.3921 67.8217C38.4733 68.0405 38.5984 68.217 38.7674 68.3512C38.9365 68.4854 39.1519 68.5526 39.4138 68.5526ZM43.5806 70.5114C43.2972 70.5114 43.0536 70.4749 42.8497 70.402C42.6459 70.3307 42.476 70.2363 42.3402 70.1186C42.2059 70.0026 42.099 69.8783 42.0195 69.7457L42.4868 69.4176C42.5398 69.4872 42.607 69.5668 42.6882 69.6562C42.7694 69.7474 42.8804 69.8261 43.0213 69.8924C43.1638 69.9603 43.3502 69.9943 43.5806 69.9943C43.8888 69.9943 44.1432 69.9197 44.3437 69.7706C44.5442 69.6214 44.6445 69.3878 44.6445 69.0696V68.294H44.5948C44.5517 68.3636 44.4904 68.4498 44.4108 68.5526C44.3329 68.6536 44.2202 68.744 44.0728 68.8235C43.9269 68.9014 43.7297 68.9403 43.4811 68.9403C43.1729 68.9403 42.8961 68.8674 42.6509 68.7216C42.4073 68.5758 42.2142 68.3636 42.0717 68.0852C41.9308 67.8068 41.8604 67.4687 41.8604 67.071C41.8604 66.6799 41.9292 66.3394 42.0667 66.0494C42.2043 65.7577 42.3957 65.5323 42.6409 65.3732C42.8862 65.2125 43.1696 65.1321 43.4911 65.1321C43.7397 65.1321 43.9369 65.1735 44.0827 65.2564C44.2302 65.3376 44.3429 65.4304 44.4208 65.5348C44.5003 65.6375 44.5616 65.7221 44.6047 65.7884H44.6644V65.1818H45.2311V69.1094C45.2311 69.4375 45.1566 69.7043 45.0074 69.9098C44.8599 70.117 44.6611 70.2686 44.4108 70.3647C44.1622 70.4625 43.8855 70.5114 43.5806 70.5114ZM43.5607 68.4134C43.796 68.4134 43.9949 68.3595 44.1573 68.2518C44.3197 68.1441 44.4431 67.9891 44.5277 67.7869C44.6122 67.5848 44.6544 67.3428 44.6544 67.0611C44.6544 66.786 44.613 66.5432 44.5301 66.3327C44.4473 66.1223 44.3246 65.9574 44.1622 65.8381C43.9998 65.7187 43.7993 65.6591 43.5607 65.6591C43.3121 65.6591 43.105 65.7221 42.9392 65.848C42.7752 65.974 42.6517 66.143 42.5688 66.3551C42.4876 66.5672 42.447 66.8026 42.447 67.0611C42.447 67.3262 42.4885 67.5607 42.5713 67.7646C42.6559 67.9667 42.7801 68.1258 42.9442 68.2418C43.1099 68.3562 43.3154 68.4134 43.5607 68.4134ZM46.6828 70.4318C46.5834 70.4318 46.4947 70.4235 46.4169 70.407C46.339 70.392 46.2851 70.3771 46.2553 70.3622L46.4044 69.8452C46.5469 69.8816 46.6729 69.8949 46.7823 69.8849C46.8916 69.875 46.9886 69.8261 47.0731 69.7383C47.1593 69.6521 47.238 69.5121 47.3093 69.3182L47.4186 69.0199L46.0067 65.1818H46.6431L47.697 68.2244H47.7368L48.7908 65.1818H49.4272L47.8064 69.5568C47.7335 69.754 47.6432 69.9173 47.5355 70.0465C47.4277 70.1774 47.3026 70.2744 47.1601 70.3374C47.0193 70.4003 46.8602 70.4318 46.6828 70.4318Z" fill="#E5C152"/>
<path d="M30 44C39.9411 44 48 35.9411 48 26C48 16.0589 39.9411 8 30 8C20.0589 8 12 16.0589 12 26C12 35.9411 20.0589 44 30 44Z" fill="#E6C252"/>
<path d="M17.4699 19.7236L17.9949 18.8486C18.0649 18.7319 18.1465 18.6386 18.2282 18.5686C18.3215 18.4986 18.4032 18.4519 18.5082 18.4286C18.6599 18.3936 18.7999 18.4286 18.9282 18.5102C18.9982 18.5569 19.0565 18.6036 19.1032 18.6502C19.1499 18.6969 19.1732 18.7552 19.1965 18.8136C19.2199 18.8719 19.2315 18.9186 19.2315 18.9769C19.2315 19.0352 19.2315 19.0819 19.2315 19.1402C19.2899 19.0936 19.3482 19.0469 19.4065 19.0119C19.4649 18.9769 19.5349 18.9536 19.5932 18.9419C19.6632 18.9302 19.7215 18.9302 19.7915 18.9419C19.8615 18.9419 19.9315 18.9769 20.0132 19.0236C20.1065 19.0819 20.1765 19.1519 20.2232 19.2336C20.2699 19.3152 20.3049 19.3969 20.3165 19.4902C20.3165 19.5836 20.3165 19.6886 20.2932 19.7936C20.2699 19.8986 20.2115 20.0152 20.1532 20.1202L19.6049 21.0302L17.4465 19.7352L17.4699 19.7236ZM19.8615 19.2452C19.7449 19.1752 19.6282 19.1636 19.5115 19.2219C19.3949 19.2686 19.2782 19.3852 19.1732 19.5719L18.7882 20.2136L19.5465 20.6686L19.9549 19.9802C20.0482 19.8286 20.0832 19.6769 20.0715 19.5486C20.0599 19.4202 19.9899 19.3152 19.8732 19.2452H19.8615ZM18.8232 18.7669C18.7182 18.6969 18.6015 18.6852 18.4965 18.7319C18.3915 18.7669 18.2865 18.8602 18.2049 19.0119L17.8315 19.6302L18.5782 20.0736L18.9399 19.4669C19.0215 19.3269 19.0565 19.1986 19.0449 19.0702C19.0332 18.9419 18.9632 18.8486 18.8349 18.7669H18.8232Z" fill="#231F20"/>
<path d="M18.8582 17.5652L19.0332 17.3552L20.7365 18.8252L21.6115 17.8102L21.8098 17.9852L20.7598 19.2102L18.8582 17.5769V17.5652Z" fill="#231F20"/>
<path d="M20.3633 15.8968L21.0049 15.3718C21.1449 15.2551 21.2966 15.1735 21.4599 15.1151C21.6233 15.0685 21.7749 15.0451 21.9383 15.0685C22.1016 15.0801 22.2533 15.1268 22.3933 15.2085C22.5333 15.2901 22.6616 15.3951 22.7783 15.5351C22.8949 15.6751 22.9766 15.8268 23.0233 15.9785C23.0699 16.1301 23.0933 16.2935 23.0699 16.4568C23.0583 16.6201 23.0116 16.7718 22.9299 16.9118C22.8483 17.0635 22.7433 17.1918 22.5916 17.3085L21.9499 17.8335L20.3633 15.8851V15.8968ZM20.7366 15.9318L21.9966 17.4718L22.4283 17.1218C22.5449 17.0285 22.6383 16.9235 22.6966 16.8068C22.7549 16.6901 22.8016 16.5735 22.8016 16.4451C22.8016 16.3285 22.8016 16.2001 22.7549 16.0718C22.7199 15.9435 22.6499 15.8385 22.5566 15.7218C22.4633 15.6051 22.3699 15.5235 22.2533 15.4535C22.1366 15.3951 22.0199 15.3485 21.9033 15.3368C21.7749 15.3251 21.6583 15.3368 21.5299 15.3718C21.4016 15.4068 21.2849 15.4768 21.1683 15.5701L20.7366 15.9201V15.9318Z" fill="#231F20"/>
<path d="M24.7732 15.9085C24.6216 15.9902 24.4699 16.0368 24.3066 16.0485C24.1432 16.0485 23.9916 16.0485 23.8399 15.9902C23.6882 15.9435 23.5482 15.8618 23.4199 15.7452C23.2916 15.6402 23.1866 15.5002 23.1049 15.3485C23.0232 15.1852 22.9649 15.0218 22.9416 14.8585C22.9182 14.6952 22.9299 14.5318 22.9649 14.3802C22.9999 14.2285 23.0699 14.0768 23.1632 13.9485C23.2566 13.8202 23.3849 13.7152 23.5366 13.6218C23.6299 13.5752 23.7232 13.5285 23.8049 13.5052C23.8866 13.4818 23.9799 13.4702 24.0616 13.4585C24.1432 13.4585 24.2249 13.4585 24.3066 13.4585C24.3882 13.4702 24.4699 13.4935 24.5516 13.5168L24.4932 13.7852C24.3532 13.7502 24.2249 13.7268 24.0849 13.7268C23.9566 13.7268 23.8166 13.7618 23.6649 13.8435C23.5482 13.9018 23.4549 13.9835 23.3849 14.0885C23.3149 14.1935 23.2566 14.2985 23.2332 14.4152C23.2099 14.5318 23.1982 14.6602 23.2216 14.8002C23.2449 14.9285 23.2799 15.0568 23.3499 15.1852C23.4199 15.3252 23.5016 15.4302 23.6066 15.5118C23.7116 15.6052 23.8166 15.6635 23.9332 15.7102C24.0499 15.7568 24.1666 15.7685 24.2949 15.7685C24.4232 15.7685 24.5399 15.7218 24.6566 15.6635C24.7966 15.5818 24.9132 15.4885 24.9832 15.3835C25.0532 15.2668 25.1116 15.1385 25.1582 14.9868L25.4032 15.0685C25.3799 15.1618 25.3566 15.2435 25.3216 15.3252C25.2866 15.4068 25.2516 15.4768 25.1932 15.5468C25.1466 15.6168 25.0882 15.6868 25.0182 15.7452C24.9482 15.8035 24.8666 15.8618 24.7732 15.9202V15.9085Z" fill="#231F20"/>
<path d="M26.5116 12.7701L25.7416 12.9684L25.6716 12.7117L27.48 12.2334L27.55 12.4901L26.78 12.6884L27.3516 14.8701L27.095 14.9401L26.5233 12.7584L26.5116 12.7701Z" fill="#231F20"/>
<path d="M29.0666 14.6253C28.9499 14.637 28.8333 14.6253 28.7166 14.5903C28.5999 14.5553 28.5066 14.497 28.4133 14.427C28.3199 14.3453 28.2499 14.252 28.1916 14.147C28.1333 14.0303 28.0983 13.902 28.0866 13.762C28.0749 13.622 28.0866 13.4936 28.1099 13.377C28.1449 13.2603 28.1916 13.1436 28.2499 13.0503C28.3199 12.957 28.4016 12.8753 28.4949 12.817C28.5883 12.7586 28.7049 12.7236 28.8216 12.712C28.9499 12.7003 29.0666 12.712 29.1716 12.7586C29.2766 12.7936 29.3699 12.8636 29.4516 12.9453C29.5333 13.027 29.5916 13.1203 29.6383 13.237C29.6849 13.3536 29.7199 13.4703 29.7316 13.6103C29.7316 13.6336 29.7316 13.6453 29.7316 13.657C29.7316 13.6686 29.7316 13.6803 29.7316 13.7036L28.3433 13.8436C28.3666 13.9486 28.3899 14.0303 28.4366 14.1003C28.4833 14.1703 28.5299 14.2403 28.5999 14.287C28.6583 14.3336 28.7283 14.3686 28.7983 14.392C28.8683 14.4153 28.9499 14.4153 29.0316 14.4153C29.1483 14.4036 29.2533 14.3686 29.3349 14.3103C29.4166 14.252 29.4866 14.182 29.5566 14.1003L29.7316 14.2403C29.6499 14.357 29.5566 14.4503 29.4516 14.5203C29.3466 14.5903 29.2066 14.637 29.0433 14.6603L29.0666 14.6253ZM29.4749 13.5053C29.4633 13.4236 29.4399 13.342 29.4049 13.272C29.3699 13.202 29.3233 13.132 29.2766 13.0853C29.2299 13.0386 29.1599 12.992 29.0899 12.9686C29.0199 12.9453 28.9383 12.9336 28.8566 12.9453C28.7749 12.9453 28.7049 12.9803 28.6466 13.0153C28.5883 13.0503 28.5299 13.1086 28.4833 13.167C28.4366 13.2253 28.4016 13.2953 28.3783 13.377C28.3549 13.4586 28.3433 13.5403 28.3433 13.6336L29.4749 13.517V13.5053Z" fill="#231F20"/>
<path d="M30.8047 14.5783C30.6764 14.5783 30.5597 14.5433 30.443 14.485C30.338 14.4266 30.2447 14.3566 30.163 14.2633C30.0814 14.17 30.023 14.065 29.988 13.9483C29.9414 13.8316 29.9297 13.7033 29.9297 13.575C29.9297 13.435 29.9647 13.3183 30.0114 13.2016C30.058 13.085 30.128 12.9916 30.2097 12.8983C30.2914 12.8166 30.3964 12.7466 30.5014 12.7C30.618 12.6533 30.7347 12.63 30.863 12.6416C30.9447 12.6416 31.0264 12.6533 31.0847 12.6766C31.1547 12.7 31.213 12.7233 31.2714 12.7583C31.3297 12.7933 31.3764 12.8283 31.423 12.875C31.4697 12.9216 31.5164 12.9683 31.5514 13.015L31.3647 13.2016C31.2947 13.12 31.2247 13.05 31.143 12.9916C31.0614 12.9333 30.9564 12.8983 30.8397 12.8983C30.7464 12.8983 30.6647 12.8983 30.583 12.945C30.5014 12.98 30.4314 13.0266 30.373 13.085C30.3147 13.1433 30.268 13.225 30.233 13.3066C30.198 13.3883 30.1747 13.4816 30.1747 13.5866C30.1747 13.6916 30.1747 13.785 30.2097 13.8783C30.2447 13.9716 30.2797 14.0416 30.338 14.1116C30.3964 14.1816 30.4547 14.2283 30.5364 14.275C30.618 14.31 30.6997 14.3333 30.793 14.345C30.9097 14.345 31.003 14.3216 31.0964 14.275C31.1897 14.2283 31.2714 14.1583 31.3414 14.0883L31.5047 14.2633C31.4114 14.3683 31.3064 14.45 31.1897 14.5083C31.073 14.5666 30.933 14.6016 30.7697 14.59L30.8047 14.5783Z" fill="#231F20"/>
<path d="M32.1466 12.0117L32.4033 12.0583L32.2049 13.1317C32.2866 13.0383 32.3683 12.9683 32.4849 12.9217C32.5899 12.875 32.7183 12.8633 32.8699 12.8867C32.9749 12.91 33.0683 12.945 33.1383 12.9917C33.2083 13.0383 33.2783 13.1083 33.3133 13.1783C33.3599 13.2483 33.3833 13.3417 33.3949 13.435C33.4066 13.5283 33.3949 13.6333 33.3949 13.7383L33.1849 14.87L32.9283 14.8233L33.1266 13.75C33.1616 13.575 33.1383 13.435 33.0799 13.3183C33.0099 13.2017 32.9049 13.1317 32.7533 13.1083C32.6833 13.0967 32.6133 13.0967 32.5433 13.1083C32.4733 13.12 32.4149 13.155 32.3566 13.19C32.2983 13.2367 32.2516 13.2833 32.2166 13.3533C32.1816 13.4233 32.1466 13.4933 32.1349 13.575L31.9366 14.625L31.6799 14.5783L32.1583 12L32.1466 12.0117Z" fill="#231F20"/>
<path d="M34.0483 13.1902L34.2933 13.2719L34.1883 13.5752C34.2816 13.5052 34.375 13.4469 34.4916 13.4119C34.6083 13.3769 34.7366 13.3885 34.8766 13.4352C34.9816 13.4702 35.0633 13.5169 35.1333 13.5752C35.2033 13.6335 35.25 13.7035 35.285 13.7852C35.32 13.8669 35.3316 13.9602 35.3316 14.0535C35.3316 14.1469 35.3083 14.2519 35.2733 14.3569L34.8883 15.4419L34.6433 15.3602L35.005 14.3335C35.0633 14.1702 35.0633 14.0302 35.0167 13.9019C34.97 13.7735 34.8767 13.6919 34.725 13.6452C34.655 13.6219 34.585 13.6102 34.515 13.6102C34.445 13.6102 34.375 13.6335 34.3167 13.6685C34.2583 13.7035 34.2 13.7502 34.1533 13.8085C34.1067 13.8669 34.0717 13.9369 34.0367 14.0185L33.6866 15.0219L33.4417 14.9402L34.0483 13.1902Z" fill="#231F20"/>
<path d="M35.8216 15.9668C35.7049 15.9085 35.6116 15.8268 35.5416 15.7218C35.4716 15.6285 35.4133 15.5118 35.3899 15.4068C35.3549 15.2902 35.3549 15.1735 35.3666 15.0452C35.3783 14.9168 35.4249 14.8002 35.4833 14.6835C35.5416 14.5668 35.6233 14.4618 35.7166 14.3802C35.8099 14.2985 35.9149 14.2402 36.0316 14.1935C36.1483 14.1585 36.2649 14.1352 36.3933 14.1468C36.5216 14.1468 36.6383 14.1935 36.7549 14.2518C36.8716 14.3102 36.9649 14.3918 37.0466 14.4968C37.1166 14.5902 37.1749 14.7068 37.2099 14.8235C37.2449 14.9402 37.2449 15.0568 37.2333 15.1852C37.2216 15.3135 37.1749 15.4302 37.1166 15.5468C37.0583 15.6635 36.9766 15.7685 36.8833 15.8502C36.7899 15.9318 36.6849 15.9902 36.5683 16.0368C36.4516 16.0718 36.3349 16.0952 36.2066 16.0835C36.0783 16.0835 35.9616 16.0368 35.8449 15.9785L35.8216 15.9668ZM35.9383 15.7568C36.0199 15.8035 36.1133 15.8268 36.1949 15.8268C36.2883 15.8268 36.3699 15.8268 36.4516 15.7918C36.5333 15.7568 36.6033 15.7218 36.6733 15.6518C36.7433 15.5818 36.8016 15.5235 36.8483 15.4302C36.8949 15.3368 36.9299 15.2435 36.9416 15.1502C36.9533 15.0568 36.9416 14.9635 36.9299 14.8818C36.9066 14.8002 36.8716 14.7185 36.8249 14.6485C36.7783 14.5785 36.7083 14.5202 36.6266 14.4735C36.5449 14.4268 36.4516 14.4035 36.3699 14.4035C36.2766 14.4035 36.1949 14.4035 36.1133 14.4385C36.0316 14.4735 35.9616 14.5202 35.8916 14.5785C35.8216 14.6368 35.7633 14.7185 35.7166 14.8002C35.6699 14.8935 35.6349 14.9868 35.6233 15.0802C35.6116 15.1735 35.6233 15.2552 35.6349 15.3485C35.6583 15.4302 35.6933 15.5118 35.7399 15.5818C35.7866 15.6518 35.8566 15.7102 35.9383 15.7568Z" fill="#231F20"/>
<path d="M38.3066 14.3684L38.5283 14.5201L37.0466 16.6784L36.825 16.5267L38.3066 14.3684Z" fill="#231F20"/>
<path d="M37.91 17.402C37.805 17.3203 37.735 17.2153 37.6884 17.1103C37.6417 17.0053 37.6067 16.8886 37.6067 16.7603C37.6067 16.6436 37.6184 16.527 37.665 16.4103C37.7117 16.2936 37.77 16.1886 37.8517 16.0836C37.9334 15.9786 38.0384 15.897 38.1434 15.8386C38.2484 15.7803 38.365 15.7453 38.4934 15.7336C38.61 15.722 38.7384 15.7336 38.855 15.7686C38.9717 15.8036 39.0884 15.862 39.1817 15.9553C39.2867 16.037 39.3567 16.142 39.415 16.247C39.4617 16.3636 39.4967 16.4803 39.4967 16.597C39.4967 16.7136 39.485 16.8303 39.4384 16.9586C39.3917 17.0753 39.3334 17.1803 39.2517 17.2853C39.17 17.3903 39.065 17.472 38.96 17.5303C38.8434 17.5886 38.7267 17.6236 38.61 17.6353C38.4934 17.647 38.365 17.6353 38.2484 17.6003C38.1317 17.5653 38.015 17.507 37.9217 17.4136L37.91 17.402ZM38.0734 17.227C38.1434 17.2853 38.225 17.332 38.3067 17.3553C38.3884 17.3786 38.4817 17.3786 38.5634 17.367C38.645 17.3553 38.7267 17.332 38.8084 17.2853C38.89 17.2386 38.96 17.1803 39.03 17.1103C39.1 17.0286 39.1467 16.947 39.17 16.8536C39.205 16.7603 39.2167 16.6786 39.2167 16.5853C39.2167 16.492 39.1934 16.4103 39.1584 16.3286C39.1234 16.247 39.065 16.177 38.995 16.1186C38.925 16.0603 38.8434 16.0136 38.7617 15.9903C38.68 15.967 38.5867 15.967 38.505 15.9786C38.4234 15.9903 38.3417 16.0253 38.26 16.0603C38.1784 16.107 38.1084 16.1653 38.0384 16.2353C37.9684 16.317 37.9217 16.3986 37.8984 16.492C37.8634 16.5853 37.8517 16.667 37.8517 16.7486C37.8517 16.8303 37.875 16.9236 37.91 17.0053C37.945 17.087 38.0034 17.157 38.0734 17.2153V17.227Z" fill="#231F20"/>
<path d="M38.8199 19.0818C38.7266 18.9651 38.6565 18.8484 38.5982 18.7201C38.5399 18.5918 38.5165 18.4518 38.5049 18.3001L38.7499 18.2534C38.7499 18.3818 38.7849 18.4984 38.8199 18.6151C38.8549 18.7318 38.9249 18.8251 39.0065 18.9301C39.1349 19.0818 39.2749 19.1634 39.4382 19.1868C39.6015 19.1984 39.7649 19.1401 39.9282 19.0001L40.0915 18.8601C39.9632 18.8601 39.8232 18.8601 39.6949 18.8251C39.5665 18.7901 39.4499 18.7084 39.3449 18.5801C39.2749 18.4984 39.2282 18.4051 39.1932 18.3001C39.1582 18.1951 39.1465 18.0901 39.1582 17.9851C39.1582 17.8801 39.1932 17.7751 39.2515 17.6701C39.2982 17.5651 39.3799 17.4718 39.4849 17.3901C39.5899 17.2968 39.6949 17.2384 39.8115 17.2034C39.9282 17.1684 40.0332 17.1568 40.1382 17.1684C40.2432 17.1684 40.3482 17.2151 40.4415 17.2618C40.5349 17.3084 40.6165 17.3784 40.6865 17.4601C40.7449 17.5184 40.7799 17.5884 40.8032 17.6584C40.8265 17.7284 40.8499 17.7868 40.8615 17.8568C40.8615 17.9268 40.8732 17.9851 40.8615 18.0434C40.8615 18.1018 40.8499 18.1718 40.8265 18.2301L41.0832 18.0201L41.2465 18.2184L40.0682 19.1984C39.9632 19.2918 39.8465 19.3618 39.7415 19.3968C39.6365 19.4318 39.5315 19.4551 39.4265 19.4434C39.3099 19.4434 39.2049 19.3968 39.0999 19.3384C38.9949 19.2801 38.9015 19.1984 38.8082 19.0818H38.8199ZM39.5549 18.4518C39.6132 18.5218 39.6715 18.5684 39.7415 18.6034C39.8115 18.6384 39.8932 18.6734 39.9749 18.6734C40.0565 18.6734 40.1382 18.6734 40.2199 18.6618C40.3015 18.6384 40.3832 18.6034 40.4532 18.5451C40.5232 18.4751 40.5815 18.4051 40.6165 18.3351C40.6515 18.2651 40.6749 18.1834 40.6749 18.1018C40.6749 18.0201 40.6749 17.9384 40.6399 17.8568C40.6165 17.7751 40.5699 17.7051 40.5232 17.6468C40.4649 17.5768 40.4065 17.5301 40.3365 17.4951C40.2665 17.4601 40.1965 17.4368 40.1149 17.4251C40.0332 17.4251 39.9632 17.4251 39.8815 17.4484C39.7999 17.4718 39.7299 17.5184 39.6482 17.5768C39.5782 17.6351 39.5199 17.7051 39.4849 17.7868C39.4499 17.8684 39.4265 17.9384 39.4149 18.0201C39.4149 18.1018 39.4149 18.1718 39.4382 18.2534C39.4615 18.3351 39.4965 18.4051 39.5549 18.4634V18.4518Z" fill="#231F20"/>
<path d="M42.2731 19.7934L42.4131 20.0267L40.3948 20.3884C40.1964 20.4234 40.0331 20.4234 39.9164 20.3884C39.7998 20.3534 39.7064 20.2717 39.6364 20.1667C39.6014 20.1084 39.5664 20.0384 39.5548 19.9801C39.5431 19.9217 39.5314 19.8634 39.5198 19.7934L39.7531 19.7584C39.7531 19.7584 39.7531 19.8517 39.7764 19.8984C39.7881 19.9451 39.8114 19.9801 39.8348 20.0384C39.8814 20.1084 39.9281 20.1551 39.9981 20.1667C40.0681 20.1901 40.1731 20.1901 40.3131 20.1667L41.4798 18.5217L41.6314 18.7667L40.6398 20.1201L42.2614 19.8051L42.2731 19.7934Z" fill="#231F20"/>
<path d="M34.4333 31.7286C34.5733 31.9036 34.7016 32.067 34.8183 32.2186C33.255 33.9453 29.6266 35.0536 26.3833 33.6186C22.8016 32.032 20.9116 28.1003 21.9266 24.2853C22.9183 20.5636 26.5116 18.102 30.42 18.4986C34.445 18.907 36.8366 22.1503 37.2333 24.5186C36.65 24.6586 36.6033 24.6353 36.4166 24.087C35.3666 20.9486 32.2633 18.8953 29.0083 19.1753C25.6833 19.4553 22.9883 21.9636 22.4516 25.2303C21.985 28.147 23.3616 31.0403 25.9633 32.5803C28.4483 34.0503 31.6683 33.8403 33.955 32.067C34.1066 31.9503 34.2583 31.8336 34.4333 31.7053" fill="#231F20"/>
<path d="M28.3082 29.8036C28.3432 29.2086 28.3665 28.6019 28.4132 28.0069C28.4365 27.7386 28.3315 27.6453 28.0865 27.6219C27.6198 27.5753 27.1532 27.5169 26.6748 27.4469C26.1498 27.3769 26.0098 27.0619 26.3015 26.6069C27.5498 24.6819 28.7982 22.7453 30.0465 20.8203C30.1865 20.6103 30.3498 20.4703 30.6182 20.5519C30.9098 20.6336 30.9448 20.8669 30.9332 21.1353C30.8632 22.3136 30.8048 23.4803 30.7115 24.6586C30.6882 24.9736 30.7582 25.1253 31.0965 25.1486C31.5515 25.1836 32.0065 25.2536 32.4615 25.3119C32.9632 25.3819 33.1148 25.6969 32.8348 26.1286C31.5865 28.0653 30.3382 29.9903 29.0898 31.9153C28.9498 32.1369 28.7748 32.2886 28.4948 32.1953C28.2032 32.1019 28.1798 31.8569 28.1915 31.6003C28.2265 31.0053 28.2615 30.3986 28.2965 29.8036M28.9965 30.5853C28.9965 30.5853 29.0548 30.6086 29.0898 30.6203C30.0815 29.0919 31.0615 27.5753 32.0998 25.9769C31.4815 25.8953 30.9682 25.8136 30.4548 25.7669C30.1165 25.7319 29.9882 25.5569 30.0115 25.2303C30.0465 24.8103 30.0582 24.3903 30.0815 23.9703C30.1165 23.3636 30.1398 22.7686 30.1748 22.1619C30.1398 22.1503 30.1048 22.1386 30.0698 22.1269C29.0782 23.6553 28.0982 25.1719 27.0715 26.7703C27.6315 26.8403 28.0865 26.8986 28.5415 26.9569C29.1598 27.0386 29.2065 27.0969 29.1715 27.7036C29.1248 28.5436 29.0665 29.3836 29.0198 30.2236C29.0198 30.3403 29.0198 30.4686 29.0198 30.5853" fill="#231F20"/>
<path d="M38.575 27.5403C38.575 28.0187 38.575 28.4853 38.575 28.9637C38.575 29.2087 38.645 29.3137 38.9017 29.302C39.24 29.2903 39.625 29.2437 39.8 29.6403C39.975 30.0253 39.7067 30.2937 39.4967 30.562C38.8783 31.367 38.2483 32.1837 37.63 32.9887C37.2333 33.502 36.86 33.502 36.4517 32.9887C35.7867 32.1253 35.1333 31.262 34.4683 30.4103C34.2817 30.1653 34.1417 29.9087 34.305 29.6053C34.4567 29.302 34.7483 29.2787 35.04 29.302C35.4367 29.3487 35.5417 29.1853 35.53 28.8003C35.5067 27.937 35.53 27.062 35.53 26.1987C35.53 25.6037 35.7167 25.417 36.3117 25.417C36.8367 25.417 37.3617 25.417 37.8867 25.417C38.3767 25.417 38.5867 25.627 38.5983 26.117C38.5983 26.5837 38.5983 27.062 38.5983 27.5287M35.0867 30.0253C35.7633 30.912 36.3933 31.717 37.0467 32.5803C37.7117 31.717 38.33 30.912 38.995 30.037C38.7733 30.0137 38.6333 30.002 38.505 30.002C37.91 29.9903 37.8633 29.9437 37.8633 29.337C37.8633 28.672 37.8633 28.007 37.8633 27.342C37.8633 26.957 37.98 26.4203 37.7817 26.2453C37.56 26.0353 37.0467 26.1637 36.65 26.1287C36.3 26.0937 36.2183 26.2453 36.2183 26.572C36.2417 27.5403 36.2183 28.5087 36.2183 29.477C36.2183 29.897 36.1133 29.9903 35.6933 30.002C35.5183 30.002 35.3433 30.0137 35.075 30.037" fill="#231F20"/>
<path d="M17.82 24.1685C17.82 24.6702 17.4117 25.0785 16.91 25.0785C16.4083 25.0785 16 24.6702 16 24.1685C16 23.6669 16.4083 23.2585 16.91 23.2585C17.4117 23.2585 17.82 23.6669 17.82 24.1685Z" fill="#231F20"/>
<path d="M43.1134 24.6584C43.616 24.6584 44.0234 24.251 44.0234 23.7484C44.0234 23.2458 43.616 22.8384 43.1134 22.8384C42.6108 22.8384 42.2034 23.2458 42.2034 23.7484C42.2034 24.251 42.6108 24.6584 43.1134 24.6584Z" fill="#231F20"/>
<path d="M18.3682 26.7236L18.3916 26.9686L16.4549 27.202L16.5949 28.4153L16.3732 28.4386L16.1982 26.9803L18.3566 26.7236H18.3682Z" fill="#231F20"/>
<path d="M16.6531 29.7221C16.6181 29.6054 16.6181 29.4887 16.6298 29.3837C16.6414 29.2787 16.6764 29.1737 16.7348 29.0804C16.7931 28.9871 16.8631 28.9054 16.9448 28.8471C17.0264 28.7771 17.1314 28.7304 17.2364 28.7071C17.3414 28.6721 17.4581 28.6721 17.5631 28.6837C17.6681 28.6954 17.7731 28.7304 17.8664 28.7771C17.9598 28.8237 18.0414 28.8937 18.1114 28.9871C18.1814 29.0687 18.2281 29.1737 18.2631 29.2904C18.2981 29.4071 18.2981 29.5237 18.2864 29.6287C18.2748 29.7454 18.2398 29.8387 18.1814 29.9321C18.1231 30.0254 18.0531 30.1071 17.9714 30.1654C17.8898 30.2354 17.7848 30.2821 17.6798 30.3054C17.5748 30.3404 17.4581 30.3404 17.3531 30.3287C17.2481 30.3171 17.1431 30.2821 17.0498 30.2354C16.9564 30.1887 16.8748 30.1187 16.8048 30.0254C16.7348 29.9321 16.6881 29.8387 16.6531 29.7221ZM16.8631 29.6754C16.8864 29.7571 16.9214 29.8271 16.9798 29.8971C17.0264 29.9554 17.0848 30.0021 17.1548 30.0371C17.2248 30.0721 17.2948 30.0954 17.3764 30.1071C17.4581 30.1187 17.5398 30.1071 17.6214 30.0837C17.7031 30.0604 17.7848 30.0254 17.8431 29.9787C17.9131 29.9321 17.9598 29.8737 18.0064 29.8037C18.0414 29.7337 18.0764 29.6637 18.0881 29.5821C18.0998 29.5004 18.0881 29.4187 18.0764 29.3371C18.0531 29.2554 18.0181 29.1854 17.9598 29.1154C17.9014 29.0454 17.8548 29.0104 17.7848 28.9754C17.7148 28.9404 17.6448 28.9171 17.5631 28.9171C17.4814 28.9171 17.3998 28.9171 17.3181 28.9404C17.2364 28.9637 17.1548 28.9987 17.0964 29.0454C17.0264 29.0921 16.9798 29.1504 16.9448 29.2204C16.9098 29.2904 16.8748 29.3604 16.8631 29.4421C16.8514 29.5237 16.8631 29.6054 16.8748 29.6871L16.8631 29.6754Z" fill="#231F20"/>
<path d="M18.508 30.3171L18.6246 30.5505L17.6446 31.4955L18.998 31.3205L19.0796 31.4955L18.0996 32.4521L19.4413 32.2655L19.5463 32.4871L17.843 32.6855L17.7496 32.4988L18.7063 31.5538L17.3763 31.7171L17.283 31.5305L18.4963 30.3171H18.508Z" fill="#231F20"/>
<path d="M20.7364 33.1284L21.2614 33.7467C21.3431 33.8401 21.4014 33.9334 21.4364 34.0267C21.4831 34.1201 21.4948 34.2134 21.4948 34.3068C21.4948 34.4001 21.4831 34.4934 21.4364 34.5751C21.4014 34.6568 21.3314 34.7384 21.2498 34.8084C21.1564 34.8901 21.0631 34.9368 20.9698 34.9601C20.8764 34.9834 20.7714 34.9834 20.6781 34.9601C20.5848 34.9368 20.4914 34.9018 20.3981 34.8434C20.3048 34.7851 20.2231 34.7151 20.1531 34.6217L19.8148 34.2251L19.2314 34.7268L19.0681 34.5401L20.7248 33.1284H20.7364ZM20.3398 34.4934C20.3981 34.5634 20.4564 34.6101 20.5264 34.6568C20.5964 34.7034 20.6548 34.7268 20.7248 34.7384C20.7948 34.7501 20.8531 34.7384 20.9231 34.7384C20.9814 34.7268 21.0398 34.6918 21.0981 34.6451C21.2148 34.5401 21.2731 34.4234 21.2614 34.2951C21.2614 34.1668 21.1914 34.0268 21.0748 33.8984L20.7131 33.4784L19.9898 34.0968L20.3398 34.5051V34.4934Z" fill="#231F20"/>
<path d="M21.0983 36.6988C21.005 36.6171 20.935 36.5354 20.8883 36.4304C20.8416 36.3254 20.8066 36.2321 20.8066 36.1271C20.8066 36.0221 20.8066 35.9171 20.8416 35.8121C20.8766 35.7071 20.935 35.6138 21.005 35.5321C21.075 35.4388 21.1683 35.3688 21.2616 35.3221C21.355 35.2754 21.46 35.2404 21.565 35.2288C21.67 35.2288 21.775 35.2288 21.88 35.2638C21.985 35.2988 22.09 35.3571 22.1833 35.4271C22.2766 35.5088 22.3466 35.5904 22.3933 35.6954C22.44 35.8004 22.475 35.8938 22.475 36.0104C22.475 36.1154 22.475 36.2204 22.44 36.3254C22.405 36.4304 22.3466 36.5238 22.2766 36.6054C22.2066 36.6988 22.1133 36.7688 22.02 36.8154C21.9266 36.8621 21.8216 36.8971 21.7166 36.9088C21.6116 36.9088 21.5066 36.9088 21.39 36.8738C21.285 36.8388 21.18 36.7804 21.0866 36.7104L21.0983 36.6988ZM21.25 36.5354C21.32 36.5938 21.39 36.6288 21.46 36.6521C21.53 36.6754 21.6116 36.6754 21.6933 36.6754C21.7633 36.6754 21.845 36.6404 21.915 36.6054C21.985 36.5704 22.0433 36.5121 22.1016 36.4538C22.16 36.3838 22.195 36.3138 22.23 36.2321C22.265 36.1504 22.265 36.0804 22.265 35.9988C22.265 35.9171 22.2416 35.8471 22.2066 35.7771C22.1716 35.7071 22.125 35.6371 22.055 35.5904C21.985 35.5321 21.915 35.4971 21.845 35.4738C21.7633 35.4504 21.6933 35.4504 21.6233 35.4504C21.5533 35.4504 21.4716 35.4854 21.4016 35.5204C21.3316 35.5554 21.2733 35.6138 21.215 35.6721C21.1566 35.7421 21.1216 35.8121 21.0866 35.8938C21.0633 35.9754 21.0516 36.0454 21.0516 36.1271C21.0516 36.2088 21.075 36.2788 21.11 36.3488C21.145 36.4188 21.1916 36.4888 21.2616 36.5354H21.25Z" fill="#231F20"/>
<path d="M22.9649 36.1504L23.1865 36.2787L22.9065 37.6087L23.9332 36.6987L24.1082 36.8037L23.8399 38.1454L24.8548 37.2354L25.0649 37.3637L23.7582 38.4837L23.5832 38.3787L23.8399 37.0604L22.8249 37.9354L22.6382 37.8304L22.9649 36.1504Z" fill="#231F20"/>
<path d="M25.4732 39.242C25.3682 39.207 25.2749 39.1487 25.2049 39.0787C25.1232 39.0087 25.0649 38.927 25.0182 38.8337C24.9716 38.7404 24.9482 38.6354 24.9482 38.5304C24.9482 38.4137 24.9599 38.3087 25.0066 38.192C25.0416 38.0754 25.0999 37.982 25.1699 37.9004C25.2399 37.8187 25.3216 37.7487 25.4149 37.702C25.5082 37.6554 25.6016 37.6204 25.7066 37.6204C25.8116 37.6204 25.9166 37.6204 26.0216 37.667C26.1382 37.702 26.2199 37.7604 26.3016 37.842C26.3716 37.912 26.4299 38.0054 26.4649 38.0987C26.4999 38.192 26.5116 38.297 26.5116 38.402C26.5116 38.507 26.4882 38.6237 26.4416 38.7287C26.4416 38.7404 26.4416 38.752 26.4299 38.7637C26.4299 38.7637 26.4299 38.787 26.4182 38.7987L25.2166 38.367C25.1932 38.4487 25.1932 38.5304 25.1932 38.6004C25.1932 38.6704 25.2166 38.7404 25.2516 38.7987C25.2866 38.857 25.3216 38.9154 25.3799 38.962C25.4266 39.0087 25.4966 39.0437 25.5666 39.067C25.6716 39.102 25.7649 39.1137 25.8582 39.102C25.9516 39.0904 26.0332 39.067 26.1149 39.0204L26.2082 39.1954C26.1032 39.2537 25.9866 39.2887 25.8699 39.312C25.7532 39.3237 25.6249 39.312 25.4849 39.2537L25.4732 39.242ZM26.2432 38.5187C26.2666 38.4487 26.2666 38.3787 26.2666 38.3087C26.2666 38.2387 26.2666 38.1687 26.2316 38.1104C26.2082 38.052 26.1732 37.9937 26.1266 37.947C26.0799 37.9004 26.0216 37.8537 25.9399 37.8304C25.8699 37.807 25.8116 37.7954 25.7416 37.807C25.6716 37.807 25.6132 37.8304 25.5549 37.8654C25.4966 37.9004 25.4382 37.9354 25.3916 37.9937C25.3449 38.0404 25.2982 38.1104 25.2632 38.1804L26.2316 38.5304L26.2432 38.5187Z" fill="#231F20"/>
<path d="M27.0599 38.0051L27.2932 38.0635L27.1999 38.4718C27.2465 38.4135 27.2932 38.3668 27.3515 38.3201C27.4099 38.2735 27.4682 38.2385 27.5265 38.2151C27.5849 38.1918 27.6549 38.1685 27.7249 38.1685C27.7949 38.1685 27.8649 38.1685 27.9349 38.1918L27.8765 38.4485H27.8532C27.7715 38.4251 27.6899 38.4251 27.5965 38.4368C27.5149 38.4485 27.4332 38.4835 27.3632 38.5301C27.2932 38.5768 27.2349 38.6468 27.1765 38.7285C27.1182 38.8101 27.0832 38.9151 27.0599 39.0318L26.9199 39.6618L26.6865 39.6035L27.0482 38.0401L27.0599 38.0051Z" fill="#231F20"/>
<path d="M30.1049 40.0585C29.9416 40.0585 29.8016 40.0235 29.6733 39.9652C29.5449 39.9069 29.4283 39.8252 29.3349 39.7202C29.2416 39.6152 29.1599 39.4986 29.1133 39.3586C29.0666 39.2186 29.0316 39.0786 29.0433 38.9152C29.0433 38.7519 29.0783 38.6119 29.1366 38.4719C29.1949 38.3319 29.2766 38.2152 29.3699 38.1219C29.4749 38.0169 29.5916 37.9469 29.7199 37.8886C29.8599 37.8302 29.9999 37.8069 30.1633 37.8069C30.2683 37.8069 30.3499 37.8186 30.4316 37.8419C30.5133 37.8652 30.5833 37.8885 30.6533 37.9119C30.7233 37.9352 30.7816 37.9819 30.8399 38.0285C30.8983 38.0752 30.9566 38.1219 31.0033 38.1686L30.8283 38.3436C30.7349 38.2502 30.6416 38.1802 30.5366 38.1219C30.4316 38.0635 30.3033 38.0285 30.1516 38.0285C30.0349 38.0285 29.9183 38.0519 29.8133 38.0869C29.7083 38.1336 29.6149 38.1919 29.5449 38.2736C29.4633 38.3552 29.4049 38.4486 29.3583 38.5536C29.3116 38.6586 29.2883 38.7752 29.2883 38.9035C29.2883 39.0319 29.2999 39.1486 29.3466 39.2652C29.3816 39.3702 29.4399 39.4752 29.5216 39.5569C29.5916 39.6386 29.6849 39.7086 29.7899 39.7552C29.8949 39.8019 29.9999 39.8252 30.1283 39.8369C30.2799 39.8369 30.4083 39.8135 30.5133 39.7669C30.6183 39.7085 30.7349 39.6386 30.8399 39.5452L31.0033 39.7086C31.0033 39.7086 30.8866 39.8135 30.8283 39.8602C30.7699 39.9069 30.6999 39.9419 30.6299 39.9769C30.5599 40.0119 30.4783 40.0352 30.3966 40.0469C30.3149 40.0586 30.2216 40.0702 30.1283 40.0702L30.1049 40.0585Z" fill="#231F20"/>
<path d="M32.2863 39.9067C32.1696 39.9184 32.0529 39.9067 31.9479 39.8834C31.8429 39.8484 31.7496 39.8017 31.6563 39.7434C31.5746 39.6734 31.5046 39.6034 31.4463 39.5101C31.3879 39.4167 31.3529 39.3117 31.3413 39.1951C31.3296 39.0784 31.3413 38.9617 31.3529 38.8567C31.3763 38.7517 31.4229 38.6584 31.4813 38.5651C31.5396 38.4834 31.6213 38.4017 31.7146 38.3434C31.8079 38.2851 31.9129 38.2501 32.0413 38.2267C32.1579 38.2151 32.2746 38.2267 32.3796 38.2501C32.4846 38.2851 32.5896 38.3201 32.6713 38.3901C32.7529 38.4601 32.8229 38.5301 32.8813 38.6234C32.9396 38.7167 32.9746 38.8217 32.9863 38.9384C32.9979 39.0551 32.9863 39.1717 32.9746 39.2767C32.9513 39.3817 32.9046 39.4751 32.8346 39.5684C32.7763 39.6501 32.6946 39.7317 32.6013 39.7901C32.5079 39.8484 32.4029 39.8834 32.2746 39.9067H32.2863ZM32.2629 39.6967C32.3446 39.6851 32.4263 39.6617 32.4963 39.6151C32.5663 39.5684 32.6129 39.5217 32.6596 39.4517C32.7063 39.3934 32.7296 39.3234 32.7529 39.2417C32.7763 39.1601 32.7763 39.0784 32.7529 38.9967C32.7413 38.9034 32.7179 38.8217 32.6713 38.7517C32.6363 38.6817 32.5779 38.6234 32.5196 38.5767C32.4613 38.5301 32.3913 38.4951 32.3096 38.4717C32.2279 38.4484 32.1579 38.4484 32.0646 38.4601C31.9829 38.4717 31.9013 38.4951 31.8313 38.5417C31.7613 38.5884 31.7146 38.6351 31.6679 38.7051C31.6213 38.7634 31.5979 38.8334 31.5746 38.9151C31.5513 38.9967 31.5513 39.0784 31.5746 39.1601C31.5863 39.2534 31.6096 39.3351 31.6563 39.4051C31.7029 39.4751 31.7496 39.5334 31.8079 39.5801C31.8663 39.6267 31.9363 39.6617 32.0179 39.6851C32.0996 39.7084 32.1696 39.7084 32.2629 39.6967Z" fill="#231F20"/>
<path d="M33.2316 38.0636L33.465 37.9936L33.5466 38.2619C33.57 38.1686 33.6166 38.0753 33.6866 37.9819C33.7566 37.9003 33.85 37.8303 33.9783 37.7953C34.0716 37.7719 34.1533 37.7603 34.235 37.7603C34.3166 37.7603 34.3866 37.7953 34.4566 37.8303C34.5266 37.8653 34.585 37.9236 34.6316 37.9936C34.6783 38.0636 34.725 38.1453 34.7483 38.2269L35.04 39.1836L34.8066 39.2536L34.5266 38.3553C34.48 38.2153 34.41 38.1103 34.3166 38.0519C34.2233 37.9936 34.095 37.9819 33.9666 38.0286C33.8966 38.0519 33.8383 38.0753 33.7916 38.1219C33.745 38.1569 33.6983 38.2153 33.675 38.2619C33.6516 38.3203 33.6283 38.3786 33.6283 38.4486C33.6283 38.5186 33.6283 38.5886 33.6516 38.6586L33.92 39.5453L33.6866 39.6153L33.22 38.0753L33.2316 38.0636Z" fill="#231F20"/>
<path d="M36.1597 38.7517C36.0547 38.7984 35.938 38.8334 35.8097 38.8451C35.6814 38.8451 35.5647 38.8451 35.448 38.8217L35.483 38.6117C35.588 38.6351 35.693 38.6467 35.798 38.6351C35.903 38.6351 35.9964 38.6001 36.078 38.5651C36.1714 38.5301 36.2297 38.4717 36.2647 38.4017C36.2997 38.3317 36.2997 38.2617 36.2647 38.1917C36.2647 38.1917 36.2297 38.1217 36.1947 38.1101C36.1597 38.0984 36.1247 38.0867 36.078 38.0751C36.0314 38.0751 35.9847 38.0751 35.938 38.0751C35.8914 38.0751 35.833 38.0867 35.7864 38.0984C35.7164 38.0984 35.658 38.1101 35.588 38.1217C35.518 38.1217 35.4597 38.1217 35.4014 38.1217C35.343 38.1217 35.2847 38.0984 35.238 38.0634C35.1914 38.0284 35.1447 37.9817 35.1214 37.9117C35.098 37.8417 35.0747 37.7834 35.0747 37.7134C35.0747 37.6551 35.0864 37.5851 35.1214 37.5384C35.1564 37.4917 35.1914 37.4334 35.238 37.3751C35.2847 37.3284 35.3547 37.2817 35.4247 37.2584C35.518 37.2117 35.6114 37.1884 35.7164 37.1767C35.8214 37.1651 35.9264 37.1651 36.0197 37.1767L35.9964 37.3867C35.903 37.3751 35.8214 37.3751 35.7397 37.3867C35.658 37.3867 35.5764 37.4217 35.5064 37.4451C35.4247 37.4801 35.3547 37.5384 35.3314 37.5967C35.2964 37.6551 35.2964 37.7251 35.3314 37.7834C35.3314 37.7834 35.3664 37.8534 35.4014 37.8651C35.4364 37.8767 35.4714 37.8884 35.518 37.8884C35.5647 37.8884 35.6114 37.8884 35.658 37.8884C35.7047 37.8884 35.763 37.8767 35.8214 37.8651C35.8914 37.8651 35.9497 37.8534 36.0197 37.8417C36.0897 37.8417 36.148 37.8417 36.2064 37.8417C36.2647 37.8417 36.323 37.8767 36.3697 37.9117C36.4164 37.9467 36.4514 37.9934 36.4864 38.0634C36.5214 38.1334 36.533 38.2034 36.533 38.2734C36.533 38.3434 36.5097 38.4017 36.4864 38.4601C36.463 38.5184 36.4164 38.5767 36.358 38.6234C36.2997 38.6701 36.2414 38.7167 36.1714 38.7517H36.1597Z" fill="#231F20"/>
<path d="M37.6998 37.9119C37.6181 37.9586 37.5365 37.9936 37.4548 38.0169C37.3731 38.0286 37.2915 38.0169 37.2215 38.0169C37.1515 37.9936 37.0815 37.9586 37.0115 37.9119C36.9415 37.8652 36.8831 37.7952 36.8365 37.7136L36.2998 36.8736L36.4981 36.7452L36.9998 37.5386C37.0815 37.6669 37.1748 37.7486 37.2915 37.7719C37.4081 37.8069 37.5248 37.7719 37.6415 37.7019C37.6998 37.6669 37.7465 37.6202 37.7815 37.5736C37.8165 37.5269 37.8398 37.4686 37.8515 37.4102C37.8631 37.3519 37.8515 37.2819 37.8515 37.2236C37.8515 37.1652 37.8165 37.0952 37.7698 37.0252L37.2798 36.2436L37.4781 36.1152L38.3415 37.4686L38.1431 37.5969L37.9915 37.3636C37.9915 37.4686 37.9681 37.5619 37.9331 37.6669C37.8981 37.7602 37.8165 37.8536 37.6998 37.9236V37.9119Z" fill="#231F20"/>
<path d="M37.8867 35.8587L38.0617 35.6954L38.2484 35.8937C38.2484 35.8937 38.2367 35.8004 38.2367 35.7537C38.2367 35.7071 38.2367 35.6604 38.2484 35.602C38.2484 35.5554 38.2834 35.5087 38.3067 35.4621C38.3301 35.4154 38.3767 35.3687 38.4234 35.322C38.5167 35.2287 38.6217 35.1821 38.7267 35.1704C38.8317 35.1587 38.9251 35.1704 39.0184 35.2054C39.0184 35.1587 39.0067 35.1004 39.0067 35.042C39.0067 34.9837 39.0067 34.9371 39.0301 34.8787C39.0417 34.8321 39.0651 34.7737 39.1001 34.727C39.1351 34.6804 39.1701 34.6221 39.2167 34.5754C39.3567 34.4471 39.4967 34.3887 39.6484 34.4004C39.8001 34.4004 39.9517 34.4937 40.0917 34.6337L40.7801 35.3571L40.6051 35.5204L39.9634 34.832C39.8584 34.7154 39.7417 34.657 39.6367 34.6454C39.5201 34.6454 39.4267 34.6687 39.3217 34.7621C39.2751 34.8087 39.2401 34.8554 39.2167 34.902C39.1934 34.9604 39.1817 35.0071 39.1817 35.0654C39.1817 35.1237 39.1934 35.182 39.2167 35.2404C39.2401 35.2987 39.2867 35.357 39.3334 35.4154L39.9751 36.092L39.8001 36.2554L39.1467 35.5671C39.0417 35.4621 38.9367 35.3921 38.8201 35.3804C38.7034 35.3804 38.6101 35.4037 38.5167 35.497C38.4701 35.5437 38.4351 35.5904 38.4117 35.6487C38.3884 35.7071 38.3767 35.7654 38.3767 35.8237C38.3767 35.882 38.3884 35.9404 38.4234 36.0104C38.4467 36.0687 38.4817 36.127 38.5401 36.1854L39.1701 36.8504L38.9951 37.0137L37.8867 35.8471V35.8587Z" fill="#231F20"/>
<path d="M39.9165 33.8286L40.0565 33.6303L40.3248 33.817C40.3248 33.817 40.2898 33.7003 40.2782 33.642C40.2665 33.5836 40.2665 33.5253 40.2665 33.467C40.2665 33.4086 40.2782 33.3503 40.3015 33.292C40.3248 33.2336 40.3482 33.1753 40.3948 33.1053C40.4532 33.0236 40.5232 32.9653 40.6048 32.907C40.6865 32.8486 40.7798 32.8136 40.8848 32.802C40.9898 32.7903 41.0948 32.7903 41.1998 32.802C41.3048 32.8253 41.4215 32.872 41.5265 32.9536C41.6315 33.0353 41.7132 33.117 41.7715 33.2103C41.8298 33.3036 41.8648 33.4086 41.8882 33.502C41.9115 33.5953 41.8998 33.7003 41.8882 33.7936C41.8648 33.887 41.8298 33.9803 41.7715 34.062C41.7248 34.1203 41.6782 34.1786 41.6315 34.2136C41.5848 34.2486 41.5265 34.2836 41.4682 34.307C41.4098 34.3303 41.3632 34.342 41.3048 34.3536C41.2465 34.3536 41.1882 34.3653 41.1415 34.3536L41.7948 34.8203L41.6548 35.0186L39.9398 33.7936L39.9165 33.8286ZM41.5498 34.0036C41.5965 33.9453 41.6315 33.8753 41.6432 33.8053C41.6665 33.7353 41.6665 33.6653 41.6432 33.5836C41.6315 33.5136 41.5965 33.4436 41.5615 33.3736C41.5148 33.3036 41.4565 33.2453 41.3748 33.187C41.2932 33.1286 41.2232 33.0936 41.1415 33.0703C41.0598 33.047 40.9898 33.047 40.9082 33.0586C40.8382 33.0586 40.7682 33.0936 40.6982 33.1286C40.6398 33.1636 40.5815 33.222 40.5348 33.2803C40.4882 33.3386 40.4648 33.4086 40.4415 33.4786C40.4298 33.5486 40.4182 33.6303 40.4415 33.7003C40.4532 33.782 40.4765 33.852 40.5232 33.922C40.5698 33.992 40.6282 34.0503 40.6982 34.1086C40.7682 34.167 40.8498 34.202 40.9315 34.2253C41.0132 34.2486 41.0948 34.2486 41.1648 34.2253C41.2348 34.2136 41.3165 34.1903 41.3748 34.1436C41.4448 34.1086 41.4915 34.0503 41.5382 33.992L41.5498 34.0036Z" fill="#231F20"/>
<path d="M42.728 32.4754C42.728 32.4754 42.658 32.5804 42.623 32.6271C42.5763 32.6737 42.5413 32.6971 42.483 32.7204C42.4363 32.7437 42.378 32.7437 42.308 32.7321C42.2496 32.7321 42.1796 32.6971 42.1096 32.6621L41.258 32.2071L41.153 32.4054L40.9663 32.3004L41.0713 32.1021L40.6396 31.8687L40.7563 31.6587L41.188 31.8921L41.433 31.4487L41.6196 31.5537L41.3746 31.9971L42.203 32.4404C42.2963 32.4871 42.3663 32.4987 42.4246 32.4754C42.483 32.4521 42.5296 32.4054 42.5646 32.3354C42.588 32.3004 42.5996 32.2654 42.6113 32.2304C42.623 32.1954 42.623 32.1487 42.623 32.1021L42.798 32.1954C42.798 32.1954 42.798 32.2887 42.7863 32.3354C42.7746 32.3821 42.7513 32.4287 42.728 32.4871V32.4754Z" fill="#231F20"/>
<path d="M41.5849 31.0755L41.6782 30.8538L43.1482 31.4955L43.0548 31.7172L41.5849 31.0755ZM41.0132 30.8422L41.1182 30.5972L41.3632 30.7022L41.2582 30.9472L41.0132 30.8422Z" fill="#231F20"/>
<path d="M43.6731 30.2004C43.6381 30.3171 43.5798 30.4104 43.5098 30.4921C43.4398 30.5738 43.3581 30.6438 43.2531 30.6904C43.1598 30.7371 43.0548 30.7721 42.9498 30.7721C42.8448 30.7721 42.7281 30.7721 42.6231 30.7371C42.5181 30.7021 42.4131 30.6438 42.3315 30.5738C42.2498 30.5038 42.1798 30.4221 42.1331 30.3288C42.0865 30.2354 42.0515 30.1304 42.0398 30.0254C42.0398 29.9088 42.0398 29.8038 42.0748 29.6871C42.1098 29.5704 42.1681 29.4771 42.2381 29.3838C42.3081 29.3021 42.3898 29.2321 42.4948 29.1854C42.5881 29.1388 42.6931 29.1038 42.7981 29.1038C42.9031 29.1038 43.0198 29.1038 43.1248 29.1388C43.2298 29.1738 43.3348 29.2321 43.4165 29.3021C43.4981 29.3721 43.5681 29.4538 43.6148 29.5471C43.6615 29.6404 43.6965 29.7454 43.7081 29.8621C43.7081 29.9788 43.7081 30.0838 43.6731 30.2004ZM43.4748 30.1304C43.4981 30.0488 43.5098 29.9671 43.4981 29.8854C43.4981 29.8038 43.4631 29.7338 43.4281 29.6638C43.3931 29.5938 43.3348 29.5354 43.2765 29.4888C43.2181 29.4421 43.1481 29.3954 43.0665 29.3721C42.9848 29.3488 42.9031 29.3371 42.8215 29.3371C42.7398 29.3371 42.6698 29.3604 42.5998 29.3954C42.5298 29.4304 42.4715 29.4771 42.4131 29.5354C42.3548 29.5938 42.3198 29.6638 42.2965 29.7454C42.2731 29.8271 42.2615 29.9088 42.2731 29.9904C42.2731 30.0721 42.3081 30.1421 42.3431 30.2121C42.3781 30.2821 42.4365 30.3404 42.4948 30.3871C42.5531 30.4338 42.6348 30.4804 42.7165 30.5038C42.7981 30.5271 42.8798 30.5388 42.9615 30.5388C43.0431 30.5388 43.1131 30.5154 43.1831 30.4804C43.2531 30.4454 43.3115 30.3988 43.3698 30.3404C43.4281 30.2821 43.4631 30.2121 43.4865 30.1304H43.4748Z" fill="#231F20"/>
<path d="M42.4365 28.5435L42.4715 28.3102L42.7515 28.3568C42.6699 28.2868 42.6115 28.2052 42.5649 28.1118C42.5182 28.0185 42.5065 27.9018 42.5299 27.7618C42.5415 27.6685 42.5765 27.5868 42.6115 27.5168C42.6582 27.4468 42.7049 27.3885 42.7749 27.3418C42.8449 27.2952 42.9149 27.2718 42.9965 27.2485C43.0782 27.2368 43.1715 27.2368 43.2649 27.2485L44.2565 27.4002L44.2215 27.6335L43.2882 27.4935C43.1365 27.4702 43.0199 27.4935 42.9149 27.5518C42.8215 27.6102 42.7632 27.7152 42.7399 27.8552C42.7399 27.9252 42.7399 27.9835 42.7399 28.0535C42.7515 28.1118 42.7865 28.1702 42.8215 28.2168C42.8565 28.2635 42.9032 28.3102 42.9615 28.3452C43.0199 28.3802 43.0899 28.4035 43.1599 28.4152L44.0699 28.5552L44.0349 28.7885L42.4482 28.5435H42.4365Z" fill="#231F20"/>
</svg>
