<svg width="36" height="36" viewBox="0 0 36 36" fill="none" xmlns="http://www.w3.org/2000/svg">
<path d="M18 36C27.9411 36 36 27.9411 36 18C36 8.05887 27.9411 0 18 0C8.05888 0 0 8.05887 0 18C0 27.9411 8.05888 36 18 36Z" fill="#E6C252"/>
<path d="M18.0001 7.80516C24.0291 7.80516 28.9356 12.7109 28.9356 18.739C28.9356 24.7672 24.0291 29.6729 18.0001 29.6729C11.9711 29.6729 7.06461 24.7672 7.06461 18.739C7.06461 12.7109 11.9711 7.80516 18.0001 7.80516ZM18.0001 6.64404C11.3227 6.64404 5.90332 12.0626 5.90332 18.739C5.90332 25.4155 11.3227 30.834 18.0001 30.834C24.6775 30.834 30.0969 25.4155 30.0969 18.739C30.0969 12.0626 24.6775 6.64404 18.0001 6.64404Z" fill="#231F20"/>
<path d="M19.6743 7.51489H16.6453V12.0142H19.6743V7.51489Z" fill="#231F20"/>
<path d="M19.6743 25.2605H16.6453V29.7598H19.6743V25.2605Z" fill="#231F20"/>
<path d="M28.5283 14.64L27.1311 11.9529L23.1385 14.0284L24.5357 16.7155L28.5283 14.64Z" fill="#231F20"/>
<path d="M27.1391 25.2594L28.5364 22.5723L24.5437 20.4968L23.1465 23.1839L27.1391 25.2594Z" fill="#231F20"/>
<path d="M12.9978 23.1866L11.6006 20.4995L7.60795 22.575L9.00519 25.2621L12.9978 23.1866Z" fill="#231F20"/>
<path d="M11.605 16.7181L13.0022 14.031L9.00956 11.9555L7.61232 14.6427L11.605 16.7181Z" fill="#231F20"/>
<path d="M18.2614 14.6847C20.371 14.6847 22.0839 16.3103 22.2388 18.381H24.0678C23.913 15.304 21.3678 12.856 18.2517 12.856C15.1355 12.856 12.6001 15.304 12.4355 18.381H14.2646C14.4194 16.3103 16.142 14.6847 18.242 14.6847H18.2614Z" fill="#231F20"/>
<path d="M18.2614 22.6773C16.2291 22.6773 14.5549 21.1582 14.3033 19.2036H12.4646C12.7259 22.1741 15.2227 24.5157 18.271 24.5157C21.3194 24.5157 23.8065 22.1838 24.0775 19.2036H22.2388C21.9872 21.1678 20.313 22.6773 18.2807 22.6773H18.2614Z" fill="#231F20"/>
<path d="M18.2615 19.7358C18.8815 19.7358 19.3841 19.2333 19.3841 18.6134C19.3841 17.9935 18.8815 17.491 18.2615 17.491C17.6415 17.491 17.1389 17.9935 17.1389 18.6134C17.1389 19.2333 17.6415 19.7358 18.2615 19.7358Z" fill="#231F20"/>
</svg>
