<svg width="59" height="56" viewBox="0 0 59 56" fill="none" xmlns="http://www.w3.org/2000/svg">
<path d="M30.0483 6.3083C42.034 6.3083 51.788 16.0609 51.788 28.0448C51.788 40.0287 42.034 49.7813 30.0483 49.7813C18.0626 49.7813 8.30864 40.0287 8.30864 28.0448C8.30864 16.0609 18.0626 6.3083 30.0483 6.3083ZM30.0483 4C16.7737 4 6 14.7721 6 28.0448C6 41.3175 16.7737 52.0896 30.0483 52.0896C43.323 52.0896 54.0967 41.3175 54.0967 28.0448C54.0967 14.7721 43.323 4 30.0483 4Z" fill="#C7BCD2"/>
<path d="M33.3767 5.7312H27.355V14.6759H33.3767V5.7312Z" fill="#C7BCD2"/>
<path d="M33.3767 41.0095H27.355V49.9542H33.3767V41.0095Z" fill="#C7BCD2"/>
<path d="M50.9784 19.8959L48.2007 14.554L40.2633 18.68L43.0411 24.022L50.9784 19.8959Z" fill="#C7BCD2"/>
<path d="M48.2167 41.0073L50.9944 35.6653L43.057 31.5392L40.2793 36.8812L48.2167 41.0073Z" fill="#C7BCD2"/>
<path d="M20.1039 36.8867L17.3262 31.5447L9.38883 35.6707L12.1665 41.0127L20.1039 36.8867Z" fill="#C7BCD2"/>
<path d="M17.3348 24.0273L20.1125 18.6853L12.1752 14.5593L9.39749 19.9013L17.3348 24.0273Z" fill="#C7BCD2"/>
<path d="M30.5678 19.9849C34.7618 19.9849 38.167 23.2166 38.4749 27.333H42.111C41.8031 21.216 36.7434 16.3494 30.5485 16.3494C24.3537 16.3494 19.3131 21.216 18.9861 27.333H22.6222C22.93 23.2166 26.3545 19.9849 30.5293 19.9849H30.5678Z" fill="#C7BCD2"/>
<path d="M30.5677 35.8739C26.5275 35.8739 23.1993 32.8539 22.699 28.9683H19.0437C19.5631 34.8737 24.5267 39.5287 30.5869 39.5287C36.6471 39.5287 41.5914 34.8929 42.1301 28.9683H38.4748C37.9746 32.8731 34.6463 35.8739 30.6061 35.8739H30.5677Z" fill="#C7BCD2"/>
<path d="M30.5681 30.0264C31.8006 30.0264 32.7998 29.0274 32.7998 27.7951C32.7998 26.5627 31.8006 25.5637 30.5681 25.5637C29.3356 25.5637 28.3364 26.5627 28.3364 27.7951C28.3364 29.0274 29.3356 30.0264 30.5681 30.0264Z" fill="#C7BCD2"/>
</svg>
