<svg width="61" height="82" viewBox="0 0 61 82" fill="none" xmlns="http://www.w3.org/2000/svg">
<path d="M11.7734 59H9.97798V53.1818H11.853C12.4174 53.1818 12.9003 53.2983 13.3018 53.5312C13.7034 53.7623 14.0111 54.0947 14.2251 54.5284C14.4392 54.9602 14.5462 55.4773 14.5462 56.0795C14.5462 56.6856 14.4382 57.2074 14.2223 57.6449C14.0064 58.0805 13.692 58.4157 13.2791 58.6506C12.8662 58.8835 12.3643 59 11.7734 59ZM10.6825 58.375H11.728C12.209 58.375 12.6077 58.2822 12.924 58.0966C13.2403 57.911 13.4761 57.6468 13.6314 57.304C13.7867 56.9612 13.8643 56.553 13.8643 56.0795C13.8643 55.6098 13.7876 55.2055 13.6342 54.8665C13.4808 54.5256 13.2517 54.2642 12.9467 54.0824C12.6418 53.8987 12.2621 53.8068 11.8075 53.8068H10.6825V58.375ZM17.4098 59.0909C17.0159 59.0909 16.6702 58.9972 16.3729 58.8097C16.0774 58.6222 15.8464 58.3598 15.6797 58.0227C15.5149 57.6856 15.4325 57.2917 15.4325 56.8409C15.4325 56.3864 15.5149 55.9896 15.6797 55.6506C15.8464 55.3116 16.0774 55.0483 16.3729 54.8608C16.6702 54.6733 17.0159 54.5795 17.4098 54.5795C17.8037 54.5795 18.1484 54.6733 18.4439 54.8608C18.7412 55.0483 18.9723 55.3116 19.1371 55.6506C19.3037 55.9896 19.3871 56.3864 19.3871 56.8409C19.3871 57.2917 19.3037 57.6856 19.1371 58.0227C18.9723 58.3598 18.7412 58.6222 18.4439 58.8097C18.1484 58.9972 17.8037 59.0909 17.4098 59.0909ZM17.4098 58.4886C17.709 58.4886 17.9553 58.4119 18.1484 58.2585C18.3416 58.1051 18.4846 57.9034 18.5774 57.6534C18.6702 57.4034 18.7166 57.1326 18.7166 56.8409C18.7166 56.5492 18.6702 56.2775 18.5774 56.0256C18.4846 55.7737 18.3416 55.5701 18.1484 55.4148C17.9553 55.2595 17.709 55.1818 17.4098 55.1818C17.1106 55.1818 16.8643 55.2595 16.6712 55.4148C16.478 55.5701 16.335 55.7737 16.2422 56.0256C16.1494 56.2775 16.103 56.5492 16.103 56.8409C16.103 57.1326 16.1494 57.4034 16.2422 57.6534C16.335 57.9034 16.478 58.1051 16.6712 58.2585C16.8643 58.4119 17.1106 58.4886 17.4098 58.4886ZM23.1605 57.2159V54.6364H23.831V59H23.1605V58.2614H23.1151C23.0128 58.483 22.8537 58.6714 22.6378 58.8267C22.4219 58.9801 22.1491 59.0568 21.8196 59.0568C21.5469 59.0568 21.3045 58.9972 21.0923 58.8778C20.8802 58.7566 20.7135 58.5748 20.5923 58.3324C20.4711 58.0881 20.4105 57.7803 20.4105 57.4091V54.6364H21.081V57.3636C21.081 57.6818 21.17 57.9356 21.348 58.125C21.5279 58.3144 21.7571 58.4091 22.0355 58.4091C22.2022 58.4091 22.3717 58.3665 22.544 58.2812C22.7183 58.196 22.8641 58.0653 22.9815 57.8892C23.1009 57.7131 23.1605 57.4886 23.1605 57.2159ZM25.1499 59V53.1818H25.8203V55.3295H25.8771C25.9264 55.2538 25.9946 55.1572 26.0817 55.0398C26.1707 54.9205 26.2976 54.8144 26.4624 54.7216C26.629 54.6269 26.8544 54.5795 27.1385 54.5795C27.5059 54.5795 27.8298 54.6714 28.1101 54.8551C28.3904 55.0388 28.6091 55.2992 28.7663 55.6364C28.9235 55.9735 29.0021 56.3712 29.0021 56.8295C29.0021 57.2917 28.9235 57.6922 28.7663 58.0312C28.6091 58.3684 28.3913 58.6297 28.1129 58.8153C27.8345 58.9991 27.5135 59.0909 27.1499 59.0909C26.8696 59.0909 26.6451 59.0445 26.4766 58.9517C26.308 58.857 26.1783 58.75 26.0874 58.6307C25.9964 58.5095 25.9264 58.4091 25.8771 58.3295H25.7976V59H25.1499ZM25.8089 56.8182C25.8089 57.1477 25.8572 57.4384 25.9538 57.6903C26.0504 57.9403 26.1915 58.1364 26.3771 58.2784C26.5627 58.4186 26.79 58.4886 27.0589 58.4886C27.3393 58.4886 27.5732 58.4148 27.7607 58.267C27.95 58.1174 28.0921 57.9167 28.1868 57.6648C28.2834 57.411 28.3317 57.1288 28.3317 56.8182C28.3317 56.5114 28.2843 56.2348 28.1896 55.9886C28.0968 55.7405 27.9557 55.5445 27.7663 55.4006C27.5788 55.2547 27.343 55.1818 27.0589 55.1818C26.7862 55.1818 26.5571 55.2509 26.3714 55.3892C26.1858 55.5256 26.0457 55.7169 25.951 55.9631C25.8563 56.2074 25.8089 56.4924 25.8089 56.8182ZM30.6982 53.1818V59H30.0277V53.1818H30.6982ZM33.7557 59.0909C33.3352 59.0909 32.9725 58.9981 32.6676 58.8125C32.3646 58.625 32.1307 58.3636 31.9659 58.0284C31.803 57.6913 31.7216 57.2992 31.7216 56.8523C31.7216 56.4053 31.803 56.0114 31.9659 55.6705C32.1307 55.3277 32.3598 55.0606 32.6534 54.8693C32.9489 54.6761 33.2936 54.5795 33.6875 54.5795C33.9148 54.5795 34.1392 54.6174 34.3608 54.6932C34.5824 54.7689 34.7841 54.892 34.9659 55.0625C35.1477 55.2311 35.2926 55.4545 35.4006 55.733C35.5085 56.0114 35.5625 56.3542 35.5625 56.7614V57.0455H32.1989V56.4659H34.8807C34.8807 56.2197 34.8314 56 34.733 55.8068C34.6364 55.6136 34.4981 55.4612 34.3182 55.3494C34.1402 55.2377 33.9299 55.1818 33.6875 55.1818C33.4205 55.1818 33.1894 55.2481 32.9943 55.3807C32.8011 55.5114 32.6525 55.6818 32.5483 55.892C32.4441 56.1023 32.392 56.3277 32.392 56.5682V56.9545C32.392 57.2841 32.4489 57.5634 32.5625 57.7926C32.678 58.0199 32.8381 58.1932 33.0426 58.3125C33.2472 58.4299 33.4848 58.4886 33.7557 58.4886C33.9318 58.4886 34.0909 58.464 34.233 58.4148C34.3769 58.3636 34.5009 58.2879 34.6051 58.1875C34.7093 58.0852 34.7898 57.9583 34.8466 57.8068L35.4943 57.9886C35.4261 58.2083 35.3116 58.4015 35.1506 58.5682C34.9896 58.733 34.7907 58.8617 34.554 58.9545C34.3172 59.0455 34.0511 59.0909 33.7557 59.0909ZM38.9233 59V53.1818H40.9574C41.3627 53.1818 41.697 53.2519 41.9602 53.392C42.2235 53.5303 42.4195 53.7169 42.5483 53.9517C42.6771 54.1847 42.7415 54.4432 42.7415 54.7273C42.7415 54.9773 42.697 55.1837 42.608 55.3466C42.5208 55.5095 42.4053 55.6383 42.2614 55.733C42.1193 55.8277 41.965 55.8977 41.7983 55.9432V56C41.9763 56.0114 42.1553 56.0739 42.3352 56.1875C42.5152 56.3011 42.6657 56.464 42.7869 56.6761C42.9081 56.8883 42.9688 57.1477 42.9688 57.4545C42.9688 57.7462 42.9025 58.0085 42.7699 58.2415C42.6373 58.4744 42.428 58.6591 42.142 58.7955C41.8561 58.9318 41.4839 59 41.0256 59H38.9233ZM39.6278 58.375H41.0256C41.4858 58.375 41.8125 58.286 42.0057 58.108C42.2008 57.928 42.2983 57.7102 42.2983 57.4545C42.2983 57.2576 42.2481 57.0758 42.1477 56.9091C42.0473 56.7405 41.9044 56.6061 41.7188 56.5057C41.5331 56.4034 41.3134 56.3523 41.0597 56.3523H39.6278V58.375ZM39.6278 55.7386H40.9347C41.1468 55.7386 41.3381 55.697 41.5085 55.6136C41.6809 55.5303 41.8172 55.4129 41.9176 55.2614C42.0199 55.1098 42.071 54.9318 42.071 54.7273C42.071 54.4716 41.982 54.2547 41.804 54.0767C41.6259 53.8968 41.3438 53.8068 40.9574 53.8068H39.6278V55.7386ZM45.3196 59.1023C45.0431 59.1023 44.7921 59.0502 44.5668 58.946C44.3414 58.84 44.1624 58.6875 44.0298 58.4886C43.8973 58.2879 43.831 58.0455 43.831 57.7614C43.831 57.5114 43.8802 57.3087 43.9787 57.1534C44.0772 56.9962 44.2088 56.8731 44.3736 56.7841C44.5384 56.6951 44.7202 56.6288 44.919 56.5852C45.1198 56.5398 45.3215 56.5038 45.5241 56.4773C45.7893 56.4432 46.0043 56.4176 46.169 56.4006C46.3357 56.3816 46.4569 56.3504 46.5327 56.3068C46.6103 56.2633 46.6491 56.1875 46.6491 56.0795V56.0568C46.6491 55.7765 46.5724 55.5587 46.419 55.4034C46.2675 55.2481 46.0374 55.1705 45.7287 55.1705C45.4086 55.1705 45.1577 55.2405 44.9759 55.3807C44.794 55.5208 44.6662 55.6705 44.5923 55.8295L43.956 55.6023C44.0696 55.3371 44.2211 55.1307 44.4105 54.983C44.6018 54.8333 44.8101 54.7292 45.0355 54.6705C45.2628 54.6098 45.4863 54.5795 45.706 54.5795C45.8461 54.5795 46.0071 54.5966 46.1889 54.6307C46.3726 54.6629 46.5497 54.7301 46.7202 54.8324C46.8925 54.9347 47.0355 55.089 47.1491 55.2955C47.2628 55.5019 47.3196 55.7784 47.3196 56.125V59H46.6491V58.4091H46.6151C46.5696 58.5038 46.4938 58.6051 46.3878 58.7131C46.2817 58.821 46.1406 58.9129 45.9645 58.9886C45.7884 59.0644 45.5734 59.1023 45.3196 59.1023ZM45.4219 58.5C45.687 58.5 45.9105 58.4479 46.0923 58.3438C46.276 58.2396 46.4143 58.1051 46.5071 57.9403C46.6018 57.7756 46.6491 57.6023 46.6491 57.4205V56.8068C46.6207 56.8409 46.5582 56.8722 46.4616 56.9006C46.367 56.9271 46.2571 56.9508 46.1321 56.9716C46.009 56.9905 45.8887 57.0076 45.7713 57.0227C45.6558 57.036 45.562 57.0473 45.4901 57.0568C45.3158 57.0795 45.1529 57.1165 45.0014 57.1676C44.8518 57.2169 44.7306 57.2917 44.6378 57.392C44.5469 57.4905 44.5014 57.625 44.5014 57.7955C44.5014 58.0284 44.5876 58.2045 44.7599 58.3239C44.9342 58.4413 45.1548 58.5 45.4219 58.5ZM49.2138 53.1818V59H48.5433V53.1818H49.2138ZM51.1122 53.1818V59H50.4418V53.1818H51.1122ZM16.8061 69V63.1818H18.8402C19.2455 63.1818 19.5798 63.2519 19.843 63.392C20.1063 63.5303 20.3023 63.7169 20.4311 63.9517C20.5599 64.1847 20.6243 64.4432 20.6243 64.7273C20.6243 64.9773 20.5798 65.1837 20.4908 65.3466C20.4036 65.5095 20.2881 65.6383 20.1442 65.733C20.0021 65.8277 19.8478 65.8977 19.6811 65.9432V66C19.8591 66.0114 20.0381 66.0739 20.218 66.1875C20.398 66.3011 20.5485 66.464 20.6697 66.6761C20.791 66.8883 20.8516 67.1477 20.8516 67.4545C20.8516 67.7462 20.7853 68.0085 20.6527 68.2415C20.5201 68.4744 20.3108 68.6591 20.0249 68.7955C19.7389 68.9318 19.3667 69 18.9084 69H16.8061ZM17.5107 68.375H18.9084C19.3686 68.375 19.6953 68.286 19.8885 68.108C20.0836 67.928 20.1811 67.7102 20.1811 67.4545C20.1811 67.2576 20.1309 67.0758 20.0305 66.9091C19.9302 66.7405 19.7872 66.6061 19.6016 66.5057C19.416 66.4034 19.1963 66.3523 18.9425 66.3523H17.5107V68.375ZM17.5107 65.7386H18.8175C19.0296 65.7386 19.2209 65.697 19.3913 65.6136C19.5637 65.5303 19.7 65.4129 19.8004 65.2614C19.9027 65.1098 19.9538 64.9318 19.9538 64.7273C19.9538 64.4716 19.8648 64.2547 19.6868 64.0767C19.5088 63.8968 19.2266 63.8068 18.8402 63.8068H17.5107V65.7386ZM23.7479 69.0909C23.3274 69.0909 22.9647 68.9981 22.6598 68.8125C22.3568 68.625 22.1229 68.3636 21.9581 68.0284C21.7952 67.6913 21.7138 67.2992 21.7138 66.8523C21.7138 66.4053 21.7952 66.0114 21.9581 65.6705C22.1229 65.3277 22.352 65.0606 22.6456 64.8693C22.9411 64.6761 23.2857 64.5795 23.6797 64.5795C23.907 64.5795 24.1314 64.6174 24.353 64.6932C24.5746 64.7689 24.7763 64.892 24.9581 65.0625C25.1399 65.2311 25.2848 65.4545 25.3928 65.733C25.5007 66.0114 25.5547 66.3542 25.5547 66.7614V67.0455H22.1911V66.4659H24.8729C24.8729 66.2197 24.8236 66 24.7251 65.8068C24.6286 65.6136 24.4903 65.4612 24.3104 65.3494C24.1323 65.2377 23.9221 65.1818 23.6797 65.1818C23.4126 65.1818 23.1816 65.2481 22.9865 65.3807C22.7933 65.5114 22.6446 65.6818 22.5405 65.892C22.4363 66.1023 22.3842 66.3277 22.3842 66.5682V66.9545C22.3842 67.2841 22.4411 67.5634 22.5547 67.7926C22.6702 68.0199 22.8303 68.1932 23.0348 68.3125C23.2393 68.4299 23.477 68.4886 23.7479 68.4886C23.924 68.4886 24.0831 68.464 24.2251 68.4148C24.3691 68.3636 24.4931 68.2879 24.5973 68.1875C24.7015 68.0852 24.782 67.9583 24.8388 67.8068L25.4865 67.9886C25.4183 68.2083 25.3037 68.4015 25.1428 68.5682C24.9818 68.733 24.7829 68.8617 24.5462 68.9545C24.3094 69.0455 24.0433 69.0909 23.7479 69.0909ZM27.8587 69.1023C27.5821 69.1023 27.3312 69.0502 27.1058 68.946C26.8804 68.84 26.7015 68.6875 26.5689 68.4886C26.4363 68.2879 26.37 68.0455 26.37 67.7614C26.37 67.5114 26.4193 67.3087 26.5178 67.1534C26.6162 66.9962 26.7479 66.8731 26.9126 66.7841C27.0774 66.6951 27.2592 66.6288 27.4581 66.5852C27.6589 66.5398 27.8606 66.5038 28.0632 66.4773C28.3284 66.4432 28.5433 66.4176 28.7081 66.4006C28.8748 66.3816 28.996 66.3504 29.0717 66.3068C29.1494 66.2633 29.1882 66.1875 29.1882 66.0795V66.0568C29.1882 65.7765 29.1115 65.5587 28.9581 65.4034C28.8066 65.2481 28.5765 65.1705 28.2678 65.1705C27.9477 65.1705 27.6967 65.2405 27.5149 65.3807C27.3331 65.5208 27.2053 65.6705 27.1314 65.8295L26.495 65.6023C26.6087 65.3371 26.7602 65.1307 26.9496 64.983C27.1409 64.8333 27.3492 64.7292 27.5746 64.6705C27.8018 64.6098 28.0253 64.5795 28.245 64.5795C28.3852 64.5795 28.5462 64.5966 28.728 64.6307C28.9117 64.6629 29.0888 64.7301 29.2592 64.8324C29.4316 64.9347 29.5746 65.089 29.6882 65.2955C29.8018 65.5019 29.8587 65.7784 29.8587 66.125V69H29.1882V68.4091H29.1541C29.1087 68.5038 29.0329 68.6051 28.9268 68.7131C28.8208 68.821 28.6797 68.9129 28.5036 68.9886C28.3274 69.0644 28.1125 69.1023 27.8587 69.1023ZM27.9609 68.5C28.2261 68.5 28.4496 68.4479 28.6314 68.3438C28.8151 68.2396 28.9534 68.1051 29.0462 67.9403C29.1409 67.7756 29.1882 67.6023 29.1882 67.4205V66.8068C29.1598 66.8409 29.0973 66.8722 29.0007 66.9006C28.906 66.9271 28.7962 66.9508 28.6712 66.9716C28.5481 66.9905 28.4278 67.0076 28.3104 67.0227C28.1948 67.036 28.1011 67.0473 28.0291 67.0568C27.8549 67.0795 27.692 67.1165 27.5405 67.1676C27.3909 67.2169 27.2696 67.2917 27.1768 67.392C27.0859 67.4905 27.0405 67.625 27.0405 67.7955C27.0405 68.0284 27.1267 68.2045 27.299 68.3239C27.4732 68.4413 27.6939 68.5 27.9609 68.5ZM31.0824 69V64.6364H31.7301V65.2955H31.7756C31.8551 65.0795 31.9991 64.9044 32.2074 64.7699C32.4157 64.6354 32.6506 64.5682 32.9119 64.5682C32.9612 64.5682 33.0227 64.5691 33.0966 64.571C33.1705 64.5729 33.2263 64.5758 33.2642 64.5795V65.2614C33.2415 65.2557 33.1894 65.2472 33.108 65.2358C33.0284 65.2225 32.9441 65.2159 32.8551 65.2159C32.643 65.2159 32.4536 65.2604 32.2869 65.3494C32.1222 65.4366 31.9915 65.5578 31.8949 65.7131C31.8002 65.8665 31.7528 66.0417 31.7528 66.2386V69H31.0824ZM34.0589 69V64.6364H34.7294V69H34.0589ZM34.3999 63.9091C34.2692 63.9091 34.1565 63.8646 34.0618 63.7756C33.969 63.6866 33.9226 63.5795 33.9226 63.4545C33.9226 63.3295 33.969 63.2225 34.0618 63.1335C34.1565 63.0445 34.2692 63 34.3999 63C34.5305 63 34.6423 63.0445 34.7351 63.1335C34.8298 63.2225 34.8771 63.3295 34.8771 63.4545C34.8771 63.5795 34.8298 63.6866 34.7351 63.7756C34.6423 63.8646 34.5305 63.9091 34.3999 63.9091ZM36.6278 66.375V69H35.9574V64.6364H36.6051V65.3182H36.6619C36.7642 65.0966 36.9195 64.9186 37.1278 64.7841C37.3362 64.6477 37.6051 64.5795 37.9347 64.5795C38.2301 64.5795 38.4886 64.6402 38.7102 64.7614C38.9318 64.8807 39.1042 65.0625 39.2273 65.3068C39.3504 65.5492 39.4119 65.8561 39.4119 66.2273V69H38.7415V66.2727C38.7415 65.9299 38.6525 65.6629 38.4744 65.4716C38.2964 65.2784 38.0521 65.1818 37.7415 65.1818C37.5275 65.1818 37.3362 65.2282 37.1676 65.321C37.0009 65.4138 36.8693 65.5492 36.7727 65.7273C36.6761 65.9053 36.6278 66.1212 36.6278 66.375ZM42.3984 70.7273C42.0746 70.7273 41.7962 70.6856 41.5632 70.6023C41.3303 70.5208 41.1361 70.4129 40.9808 70.2784C40.8274 70.1458 40.7053 70.0038 40.6143 69.8523L41.1484 69.4773C41.209 69.5568 41.2857 69.6477 41.3786 69.75C41.4714 69.8542 41.5982 69.9441 41.7592 70.0199C41.9221 70.0975 42.1352 70.1364 42.3984 70.1364C42.7507 70.1364 43.0414 70.0511 43.2706 69.8807C43.4998 69.7102 43.6143 69.4432 43.6143 69.0795V68.1932H43.5575C43.5083 68.2727 43.4382 68.3712 43.3473 68.4886C43.2583 68.6042 43.1295 68.7074 42.9609 68.7983C42.7943 68.8873 42.5689 68.9318 42.2848 68.9318C41.9325 68.9318 41.6162 68.8485 41.3359 68.6818C41.0575 68.5152 40.8369 68.2727 40.674 67.9545C40.513 67.6364 40.4325 67.25 40.4325 66.7955C40.4325 66.3485 40.5111 65.9593 40.6683 65.6278C40.8255 65.2945 41.0443 65.0369 41.3246 64.8551C41.6049 64.6714 41.9287 64.5795 42.2962 64.5795C42.5803 64.5795 42.8056 64.6269 42.9723 64.7216C43.1409 64.8144 43.2696 64.9205 43.3587 65.0398C43.4496 65.1572 43.5196 65.2538 43.5689 65.3295H43.6371V64.6364H44.2848V69.125C44.2848 69.5 44.1996 69.8049 44.0291 70.0398C43.8606 70.2765 43.6333 70.4498 43.3473 70.5597C43.0632 70.6714 42.7469 70.7273 42.3984 70.7273ZM42.3757 68.3295C42.6446 68.3295 42.8719 68.268 43.0575 68.1449C43.2431 68.0218 43.3842 67.8447 43.4808 67.6136C43.5774 67.3826 43.6257 67.1061 43.6257 66.7841C43.6257 66.4697 43.5784 66.1922 43.4837 65.9517C43.389 65.7112 43.2488 65.5227 43.0632 65.3864C42.8776 65.25 42.6484 65.1818 42.3757 65.1818C42.0916 65.1818 41.8549 65.2538 41.6655 65.3977C41.478 65.5417 41.3369 65.7348 41.2422 65.9773C41.1494 66.2197 41.103 66.4886 41.103 66.7841C41.103 67.0871 41.1503 67.3551 41.245 67.5881C41.3416 67.8191 41.4837 68.0009 41.6712 68.1335C41.8606 68.2642 42.0954 68.3295 42.3757 68.3295Z" fill="#E6C252"/>
<path d="M30 44C39.9411 44 48 35.9411 48 26C48 16.0589 39.9411 8 30 8C20.0589 8 12 16.0589 12 26C12 35.9411 20.0589 44 30 44Z" fill="#E6C252"/>
<path fill-rule="evenodd" clip-rule="evenodd" d="M27.3909 30.9222C27.4793 31.0923 27.5542 31.2284 27.6766 31.4529C27.0915 31.7114 26.5336 31.9496 25.9417 32.2081C26.2751 32.7048 26.3431 33.2558 26.0778 33.8954C26.7922 33.8137 27.3773 33.5824 27.9556 33.3035C28.0848 33.2422 28.2209 33.1742 28.3366 33.0858C28.6767 32.8068 28.9081 32.9089 29.085 33.2694C26.7514 35.086 22.2883 35.4057 19.2743 32.3306C16.3012 29.2962 16.3148 24.561 19.2471 21.5334C22.2814 18.4038 26.8126 18.7848 29.085 20.5605C28.9013 20.9211 28.6904 20.9687 28.3298 20.7442C27.5406 20.2543 26.7377 19.9958 26.0982 19.9686C26.3431 20.5537 26.2887 21.1116 25.9349 21.6286C26.5268 21.8804 27.0847 22.1185 27.6834 22.377C27.561 22.6015 27.4861 22.7512 27.4045 22.9009C24.5742 21.7239 22.5264 22.0913 21.016 24.0235C19.7437 25.6563 19.6825 28.0103 20.8731 29.65C21.6215 30.6773 22.608 31.3372 23.8599 31.589C25.1117 31.8407 26.2751 31.5686 27.3841 30.929L27.3909 30.9222ZM17.8388 28.3981C17.8864 29.1261 18.4919 30.514 18.9613 30.8542C19.1722 30.2623 19.6417 29.9629 20.2268 29.8269C19.9751 29.2146 19.7437 28.6499 19.5668 28.2008C18.9613 28.2689 18.4239 28.3301 17.8388 28.3913V28.3981ZM17.832 25.6155C18.4511 25.3161 19.0022 25.4318 19.4988 25.772C19.7505 25.1529 19.9819 24.595 20.2336 23.9895C19.6009 23.901 19.1722 23.5472 18.9409 22.9417C18.3762 23.5608 17.8728 24.7651 17.832 25.6155ZM21.8596 31.4665C21.744 32.0788 21.397 32.5211 20.7575 32.7932C21.6079 33.3851 22.4651 33.7593 23.404 33.8886C23.3632 33.5552 23.2816 33.2626 23.3156 32.9837C23.3496 32.7048 23.4925 32.4394 23.5877 32.1809C23.0162 31.9428 22.4583 31.7114 21.8664 31.4665H21.8596ZM23.4993 19.921C22.4515 20.091 21.5943 20.4516 20.8255 21.0095C21.084 21.2204 21.3494 21.3769 21.5195 21.6014C21.6963 21.8191 21.7848 22.1117 21.9005 22.3498C22.4651 22.1117 23.023 21.8804 23.6149 21.6354C23.2884 21.1184 23.1795 20.5809 23.4993 19.921ZM20.3424 30.4256C19.8594 30.4392 19.4716 30.8542 19.4852 31.3509C19.4988 31.8475 19.9002 32.2285 20.3969 32.2081C20.8867 32.1877 21.2881 31.7727 21.2745 31.2964C21.2609 30.827 20.8187 30.412 20.3492 30.4256H20.3424ZM20.3629 21.6218C19.8526 21.6286 19.4784 22.0096 19.492 22.5267C19.492 23.0098 19.8798 23.3839 20.3629 23.3907C20.8527 23.3907 21.2745 22.9893 21.2677 22.5063C21.2677 22.0164 20.8527 21.615 20.3629 21.6218ZM24.7579 21.5606C25.2478 21.5606 25.6628 21.166 25.6696 20.6761C25.6696 20.1999 25.2546 19.7781 24.7715 19.7781C24.3021 19.7781 23.9007 20.1727 23.8871 20.6421C23.8735 21.132 24.2749 21.5538 24.7647 21.5538L24.7579 21.5606ZM25.6764 33.1674C25.6764 32.6843 25.275 32.2625 24.7919 32.2625C24.3089 32.2625 23.8871 32.6639 23.8803 33.1402C23.8803 33.6096 24.2953 34.0382 24.7715 34.0518C25.2478 34.0587 25.6696 33.6436 25.6764 33.1674ZM18.5463 26.0237C18.0565 26.0237 17.6346 26.4319 17.6415 26.915C17.6415 27.398 18.0633 27.813 18.5463 27.8062C19.0294 27.8062 19.4376 27.3776 19.424 26.8878C19.4172 26.4183 19.0158 26.0305 18.5395 26.0237H18.5463Z" fill="#231F20"/>
<path fill-rule="evenodd" clip-rule="evenodd" d="M35.9972 35.814C30.9694 35.8208 26.9826 31.868 27.0302 26.7994C27.0778 22.0437 30.8334 18.227 35.5686 18.0092C40.5148 17.7847 44.7125 21.6763 44.8486 26.6157C45.0051 32.351 40.2086 35.9365 35.9904 35.814H35.9972ZM44.2703 26.9287C44.3383 22.52 40.6304 18.6692 36.2354 18.5943C31.5069 18.5127 27.697 22.139 27.6085 26.7926C27.5201 31.3645 31.2416 35.2017 35.902 35.2425C40.6372 35.2834 44.3043 31.3713 44.2703 26.9287Z" fill="#231F20"/>
<path fill-rule="evenodd" clip-rule="evenodd" d="M30.1462 34.0859C27.1731 36.5216 21.8051 36.5624 18.4578 33.0722C15.1921 29.6636 15.1513 24.2753 18.5122 20.7306C21.7371 17.3357 26.9077 17.2404 30.153 19.7373C29.9353 20.0843 29.7244 20.1183 29.3434 19.887C26.5131 18.1793 23.5876 18.0705 20.7438 19.7373C17.8046 21.4586 16.3895 24.1392 16.6072 27.5478C17.0086 33.773 24.0775 37.3108 29.323 33.9635C29.6133 33.7775 29.8831 33.8183 30.1326 34.0859H30.1462Z" fill="#231F20"/>
<path fill-rule="evenodd" clip-rule="evenodd" d="M27.0506 29.8338C27.0779 29.8815 27.1187 29.9291 27.1391 29.9767C27.1799 30.0856 27.2139 30.1944 27.2479 30.3033C26.2138 31.2013 24.3633 31.317 22.9685 30.589C20.9071 29.5073 20.1723 26.9695 21.3085 24.8809C22.3902 22.8942 24.962 22.1799 26.9486 23.282C27.3364 23.4998 27.2479 23.7039 27.0302 24.0168C26.0437 23.3705 24.9688 23.1528 23.8258 23.5202C23.0638 23.7651 22.4447 24.2209 21.9888 24.8877C21.084 26.2144 21.1384 27.9425 22.1317 29.1467C23.3223 30.5958 24.8055 30.8067 27.0575 29.8406L27.0506 29.8338Z" fill="#231F20"/>
<path fill-rule="evenodd" clip-rule="evenodd" d="M27.6765 32.6777C27.5133 32.807 27.4112 32.9499 27.3092 32.9499C27.2139 32.9499 27.1119 32.8002 27.0166 32.7117C27.1119 32.6097 27.1935 32.4464 27.3092 32.4124C27.384 32.392 27.5133 32.5553 27.6765 32.6777Z" fill="#231F20"/>
<path fill-rule="evenodd" clip-rule="evenodd" d="M27.3363 21.5403C27.2002 21.377 27.0301 21.2613 27.0505 21.1865C27.0777 21.0708 27.2274 20.9756 27.3226 20.8735C27.4111 20.962 27.5608 21.0504 27.5744 21.1525C27.588 21.2477 27.4519 21.3634 27.3363 21.5403Z" fill="#231F20"/>
<path fill-rule="evenodd" clip-rule="evenodd" d="M19.5394 29.3032C19.3557 29.4256 19.2401 29.5617 19.1448 29.5481C19.0428 29.5345 18.8999 29.378 18.8999 29.2828C18.8999 29.1943 19.0632 29.0446 19.1584 29.0378C19.2537 29.031 19.3557 29.1671 19.5394 29.3032Z" fill="#231F20"/>
<path fill-rule="evenodd" clip-rule="evenodd" d="M19.1449 24.1323C19.2809 24.3092 19.417 24.4181 19.4102 24.5065C19.4034 24.6086 19.2537 24.697 19.1721 24.7923C19.0768 24.7038 18.9272 24.629 18.9068 24.5269C18.8931 24.4385 19.0224 24.316 19.1449 24.1323Z" fill="#231F20"/>
<path fill-rule="evenodd" clip-rule="evenodd" d="M22.5195 33.0654C22.397 32.8885 22.2542 32.7796 22.261 32.6776C22.2678 32.5755 22.4243 32.4871 22.5127 32.3918C22.608 32.4871 22.7644 32.5687 22.778 32.6708C22.7848 32.7728 22.6488 32.8885 22.5195 33.0654Z" fill="#231F20"/>
<path fill-rule="evenodd" clip-rule="evenodd" d="M22.5263 20.7581C22.6556 20.9213 22.8053 21.0234 22.7985 21.1254C22.7985 21.2275 22.6488 21.3296 22.5671 21.4316C22.4651 21.3364 22.3086 21.2547 22.2746 21.1391C22.2542 21.0574 22.4039 20.9349 22.5263 20.7581Z" fill="#231F20"/>
<path fill-rule="evenodd" clip-rule="evenodd" d="M43.6648 26.9695C43.6648 31.2149 40.127 34.7323 35.8408 34.6234C31.4457 34.5214 28.112 30.9972 28.2345 26.6565C28.3569 22.4111 31.9084 19.091 36.215 19.1999C40.3515 19.3019 43.7805 22.8806 43.6648 26.9695ZM31.1736 26.8742C31.0987 29.3779 33.2214 31.5891 35.766 31.6775C38.4261 31.766 40.6169 29.7045 40.6849 27.0511C40.7529 24.4454 38.7051 22.2342 36.1606 22.1662C33.4187 22.0914 31.2484 24.1392 31.1736 26.8742ZM39.9909 21.0368C39.1065 20.4721 38.2765 20.0639 37.2559 19.9278C37.5009 20.5674 37.4396 21.1253 37.1062 21.6355C37.7186 21.8873 38.2833 22.1186 38.8684 22.3567C38.984 21.7512 39.3242 21.3226 39.9977 21.0368H39.9909ZM43.0185 28.3506C42.9709 28.3098 42.9232 28.2621 42.8756 28.2213C42.2837 28.5207 41.7326 28.4118 41.2292 28.0648C40.9774 28.6704 40.7393 29.2282 40.4876 29.8406C41.1203 29.9358 41.5557 30.3032 41.8075 30.9155C41.8619 30.9155 41.9095 30.9019 41.964 30.8951C42.3177 30.0447 42.6715 29.1942 43.0185 28.3438V28.3506ZM28.9352 28.1805C29.1393 29.2418 29.4727 30.1059 29.9762 30.7862C30.4524 30.4053 30.8946 30.0515 31.3437 29.6977C31.1464 29.2214 30.9151 28.6636 30.6769 28.0648C30.1599 28.405 29.6088 28.5207 28.942 28.1805H28.9352ZM42.9505 25.6496C42.7804 24.5814 42.3994 23.7446 41.8075 22.8874C41.5557 23.5677 41.0999 23.8943 40.4876 24.0031C40.7461 24.6223 40.9774 25.1733 41.2224 25.7516C41.7462 25.4523 42.2769 25.2958 42.9437 25.6496H42.9505ZM30.0714 22.867C29.5135 23.765 29.0917 24.5951 28.9556 25.6428C29.6088 25.2958 30.1531 25.4591 30.6701 25.7653C30.9219 25.1597 31.1532 24.6019 31.3981 23.9963C30.779 23.9011 30.3436 23.5609 30.0714 22.8738V22.867ZM38.7255 31.5278C38.2696 31.7183 37.6982 31.9565 37.1471 32.1878C37.2355 32.4735 37.358 32.7321 37.3852 33.0042C37.4124 33.2831 37.3512 33.5757 37.324 33.8546C38.1064 33.841 39.5215 33.2355 39.7936 32.8681C39.433 32.4123 39.0861 31.9837 38.7187 31.5346L38.7255 31.5278ZM34.7931 21.6355C34.4529 21.1185 34.378 20.5674 34.6502 19.9278C33.6229 20.0911 32.7724 20.4585 31.9356 21.0504C32.5819 21.3226 32.9221 21.792 33.0514 22.3703C33.6501 22.1186 34.1943 21.8873 34.7931 21.6423V21.6355ZM33.0105 31.4598C32.9357 32.1061 32.5343 32.5007 31.9288 32.8001C32.7928 33.3716 33.6297 33.7662 34.6434 33.8818C34.3712 33.2355 34.4529 32.6912 34.7794 32.1946C34.1807 31.9428 33.6297 31.7115 33.0105 31.453V31.4598ZM35.9633 21.5675C36.4327 21.5607 36.8545 21.1185 36.8477 20.6558C36.8409 20.1932 36.3919 19.7714 35.9224 19.785C35.453 19.7986 35.0244 20.234 35.038 20.6966C35.0516 21.1593 35.4938 21.5811 35.9633 21.5675ZM41.2564 31.3305C41.2564 30.8611 40.8278 30.4325 40.3583 30.4325C39.8753 30.4325 39.4671 30.8407 39.4671 31.3305C39.4671 31.8272 39.8549 32.2218 40.3583 32.215C40.855 32.215 41.2632 31.8136 41.2632 31.3305H41.2564ZM30.6021 26.9287C30.6157 26.4728 30.1871 26.0374 29.7108 26.0238C29.2346 26.017 28.806 26.4252 28.7992 26.9014C28.7924 27.3709 29.221 27.8063 29.6836 27.8063C30.1599 27.8063 30.5817 27.4049 30.5953 26.9287H30.6021ZM42.1885 26.0238C41.7054 26.0238 41.2836 26.4592 41.2972 26.9287C41.3108 27.4117 41.7258 27.8199 42.2157 27.8063C42.6715 27.7995 43.0797 27.3845 43.0797 26.9219C43.0797 26.432 42.6715 26.017 42.1885 26.0238ZM31.5546 30.4325C31.0715 30.4257 30.6565 30.8271 30.6429 31.3169C30.6293 31.8136 31.0171 32.215 31.5206 32.2218C32.0036 32.2354 32.4322 31.8272 32.439 31.3509C32.4458 30.8815 32.024 30.4461 31.5546 30.4393V30.4325ZM39.4739 22.5132C39.4739 23.0098 39.8821 23.3976 40.3855 23.3908C40.8618 23.3908 41.2564 22.9894 41.2564 22.5132C41.2564 22.0097 40.8618 21.6151 40.3651 21.6151C39.8481 21.6151 39.4739 22.0029 39.4807 22.5132H39.4739ZM35.9633 34.0519C36.4463 34.0383 36.8613 33.6165 36.8477 33.1471C36.8341 32.6708 36.4123 32.2626 35.936 32.2694C35.4598 32.2694 35.038 32.7048 35.0516 33.1743C35.0652 33.6505 35.4938 34.0655 35.9633 34.0519ZM32.4322 22.5064C32.4322 22.0233 32.0172 21.6219 31.5206 21.6219C31.0171 21.6219 30.6429 22.0097 30.6497 22.5268C30.6565 23.0166 31.0375 23.3908 31.5206 23.3908C32.0104 23.3908 32.4322 22.9826 32.4322 22.5064Z" fill="#231F20"/>
<path fill-rule="evenodd" clip-rule="evenodd" d="M35.9565 31.0584C33.5889 31.0584 31.7927 29.2215 31.7927 26.813C31.7927 24.6019 33.6773 22.7717 35.9429 22.7717C38.2152 22.7717 40.0998 24.6019 40.1066 26.7994C40.1066 29.2147 38.3173 31.0516 35.9565 31.0584ZM39.5079 26.9083C39.5283 24.9897 37.9363 23.3704 35.9973 23.3432C34.0583 23.316 32.3982 24.9012 32.3642 26.7926C32.337 28.8269 33.8882 30.4597 35.8816 30.4801C37.8955 30.5005 39.4807 28.9357 39.5079 26.9083Z" fill="#231F20"/>
<path fill-rule="evenodd" clip-rule="evenodd" d="M38.3309 20.7644C38.467 20.9481 38.6031 21.0502 38.6031 21.1522C38.6031 21.2543 38.4466 21.3427 38.365 21.438C38.2697 21.3495 38.1132 21.2679 38.0996 21.1726C38.086 21.0774 38.2153 20.9549 38.3309 20.7644Z" fill="#231F20"/>
<path fill-rule="evenodd" clip-rule="evenodd" d="M41.6713 29.6978C41.5624 29.5073 41.4332 29.3848 41.4536 29.2964C41.474 29.1943 41.6305 29.1263 41.7257 29.0378C41.8073 29.1399 41.957 29.2283 41.957 29.3304C41.957 29.4188 41.8141 29.5209 41.6713 29.6978Z" fill="#231F20"/>
<path fill-rule="evenodd" clip-rule="evenodd" d="M30.153 28.9155C30.2959 29.0856 30.4523 29.1877 30.4455 29.2829C30.4455 29.385 30.2891 29.5415 30.1938 29.5551C30.1122 29.5619 29.9421 29.4122 29.9285 29.3101C29.9149 29.2149 30.0441 29.0992 30.1598 28.9155H30.153Z" fill="#231F20"/>
<path fill-rule="evenodd" clip-rule="evenodd" d="M41.6848 24.1528C41.8277 24.3229 41.9706 24.425 41.9706 24.5202C41.9706 24.6223 41.8209 24.7856 41.7324 24.7924C41.644 24.7992 41.4807 24.6563 41.4603 24.561C41.4399 24.4726 41.576 24.3501 41.6848 24.1596V24.1528Z" fill="#231F20"/>
<path fill-rule="evenodd" clip-rule="evenodd" d="M30.1938 24.1391C30.323 24.316 30.4659 24.4317 30.4523 24.5201C30.4387 24.6222 30.2754 24.7719 30.1802 24.7719C30.0917 24.7719 29.9352 24.6086 29.9216 24.5065C29.9148 24.4181 30.0577 24.3092 30.1938 24.1323V24.1391Z" fill="#231F20"/>
<path fill-rule="evenodd" clip-rule="evenodd" d="M38.7118 32.6979C38.5349 32.8204 38.4192 32.9632 38.324 32.9496C38.2219 32.936 38.0723 32.7727 38.0723 32.6775C38.0723 32.5822 38.2356 32.4257 38.3376 32.4189C38.4329 32.4189 38.5417 32.5618 38.7118 32.7047V32.6979Z" fill="#231F20"/>
<path fill-rule="evenodd" clip-rule="evenodd" d="M33.9424 21.1388C33.7859 21.2749 33.6634 21.4382 33.5886 21.4178C33.4661 21.3906 33.3777 21.2409 33.2756 21.1388C33.3709 21.0504 33.4593 20.8939 33.5614 20.8803C33.6566 20.8667 33.7723 21.0096 33.9356 21.132L33.9424 21.1388Z" fill="#231F20"/>
<path fill-rule="evenodd" clip-rule="evenodd" d="M33.5207 33.0654C33.4118 32.8817 33.2825 32.7661 33.2962 32.6708C33.3098 32.5688 33.4662 32.4871 33.5547 32.3987C33.6499 32.5007 33.7928 32.6028 33.8132 32.7184C33.8268 32.8001 33.6635 32.9089 33.5207 33.0722V33.0654Z" fill="#231F20"/>
</svg>
