<svg width="61" height="82" viewBox="0 0 61 82" fill="none" xmlns="http://www.w3.org/2000/svg">
<path d="M16.5457 59V53.9091H19.6181V54.456H17.1622V56.1761H19.459V56.723H17.1622V58.4531H19.6579V59H16.5457ZM22.35 55.1818V55.679H20.2918V55.1818H22.35ZM20.9082 59V54.6548C20.9082 54.4361 20.9596 54.2538 21.0624 54.108C21.1651 53.9621 21.2985 53.8527 21.4626 53.7798C21.6266 53.7069 21.7998 53.6705 21.9821 53.6705C22.1263 53.6705 22.2439 53.6821 22.3351 53.7053C22.4262 53.7285 22.4942 53.75 22.5389 53.7699L22.3699 54.277C22.3401 54.267 22.2986 54.2546 22.2456 54.2397C22.1942 54.2248 22.1263 54.2173 22.0418 54.2173C21.8479 54.2173 21.7078 54.2662 21.6217 54.364C21.5372 54.4618 21.4949 54.6051 21.4949 54.794V59H20.9082ZM24.8725 55.1818V55.679H22.8142V55.1818H24.8725ZM23.4307 59V54.6548C23.4307 54.4361 23.4821 54.2538 23.5848 54.108C23.6876 53.9621 23.821 53.8527 23.985 53.7798C24.1491 53.7069 24.3223 53.6705 24.5046 53.6705C24.6487 53.6705 24.7664 53.6821 24.8576 53.7053C24.9487 53.7285 25.0166 53.75 25.0614 53.7699L24.8924 54.277C24.8625 54.267 24.8211 54.2546 24.7681 54.2397C24.7167 54.2248 24.6487 54.2173 24.5642 54.2173C24.3703 54.2173 24.2303 54.2662 24.1441 54.364C24.0596 54.4618 24.0174 54.6051 24.0174 54.794V59H23.4307ZM25.6946 59V55.1818H26.2813V59H25.6946ZM25.9929 54.5455C25.8786 54.5455 25.78 54.5065 25.6971 54.4286C25.6159 54.3507 25.5753 54.2571 25.5753 54.1477C25.5753 54.0384 25.6159 53.9447 25.6971 53.8668C25.78 53.7889 25.8786 53.75 25.9929 53.75C26.1073 53.75 26.2051 53.7889 26.2863 53.8668C26.3691 53.9447 26.4106 54.0384 26.4106 54.1477C26.4106 54.2571 26.3691 54.3507 26.2863 54.4286C26.2051 54.5065 26.1073 54.5455 25.9929 54.5455ZM28.9069 59.0795C28.549 59.0795 28.2407 58.995 27.9822 58.826C27.7237 58.657 27.5248 58.4241 27.3856 58.1275C27.2464 57.8308 27.1768 57.492 27.1768 57.1108C27.1768 56.723 27.2481 56.3808 27.3906 56.0842C27.5348 55.7859 27.7353 55.553 27.9921 55.3857C28.2507 55.2166 28.5523 55.1321 28.897 55.1321C29.1654 55.1321 29.4074 55.1818 29.6228 55.2812C29.8383 55.3807 30.0148 55.5199 30.1523 55.6989C30.2898 55.8778 30.3752 56.0866 30.4083 56.3253H29.8217C29.7769 56.1513 29.6775 55.9972 29.5234 55.8629C29.3709 55.727 29.1654 55.6591 28.9069 55.6591C28.6782 55.6591 28.4777 55.7187 28.3054 55.8381C28.1347 55.9557 28.0013 56.1223 27.9051 56.3377C27.8107 56.5515 27.7634 56.8026 27.7634 57.0909C27.7634 57.3859 27.8099 57.6428 27.9027 57.8615C27.9971 58.0803 28.1297 58.2501 28.3004 58.3711C28.4727 58.4921 28.6749 58.5526 28.9069 58.5526C29.0594 58.5526 29.1978 58.526 29.322 58.473C29.4463 58.42 29.5516 58.3438 29.6377 58.2443C29.7239 58.1449 29.7852 58.0256 29.8217 57.8864H30.4083C30.3752 58.1117 30.2932 58.3147 30.1622 58.4954C30.033 58.6744 29.8615 58.8169 29.6477 58.9229C29.4356 59.0273 29.1886 59.0795 28.9069 59.0795ZM31.2659 59V55.1818H31.8526V59H31.2659ZM31.5642 54.5455C31.4499 54.5455 31.3513 54.5065 31.2684 54.4286C31.1872 54.3507 31.1466 54.2571 31.1466 54.1477C31.1466 54.0384 31.1872 53.9447 31.2684 53.8668C31.3513 53.7889 31.4499 53.75 31.5642 53.75C31.6786 53.75 31.7764 53.7889 31.8576 53.8668C31.9404 53.9447 31.9818 54.0384 31.9818 54.1477C31.9818 54.2571 31.9404 54.3507 31.8576 54.4286C31.7764 54.5065 31.6786 54.5455 31.5642 54.5455ZM34.5279 59.0795C34.16 59.0795 33.8427 58.9983 33.5759 58.8359C33.3107 58.6719 33.106 58.4432 32.9619 58.1499C32.8194 57.8549 32.7481 57.5118 32.7481 57.1207C32.7481 56.7296 32.8194 56.3849 32.9619 56.0866C33.106 55.7867 33.3066 55.553 33.5634 55.3857C33.822 55.2166 34.1236 55.1321 34.4683 55.1321C34.6671 55.1321 34.8635 55.1652 35.0574 55.2315C35.2513 55.2978 35.4278 55.4055 35.5869 55.5547C35.746 55.7022 35.8727 55.8977 35.9672 56.1413C36.0617 56.3849 36.1089 56.6849 36.1089 57.0412V57.2898H33.1657V56.7827H35.5123C35.5123 56.5672 35.4692 56.375 35.383 56.206C35.2985 56.0369 35.1775 55.9035 35.0201 55.8058C34.8643 55.708 34.6804 55.6591 34.4683 55.6591C34.2346 55.6591 34.0324 55.7171 33.8617 55.8331C33.6927 55.9474 33.5626 56.0966 33.4715 56.2805C33.3803 56.4645 33.3347 56.6617 33.3347 56.8722V57.2102C33.3347 57.4986 33.3845 57.743 33.4839 57.9435C33.585 58.1424 33.725 58.294 33.904 58.3984C34.083 58.5012 34.2909 58.5526 34.5279 58.5526C34.682 58.5526 34.8212 58.531 34.9455 58.4879C35.0715 58.4432 35.18 58.3769 35.2712 58.2891C35.3623 58.1996 35.4328 58.0885 35.4825 57.956L36.0492 58.1151C35.9896 58.3073 35.8893 58.4763 35.7484 58.6222C35.6076 58.7663 35.4336 58.879 35.2264 58.9602C35.0193 59.0398 34.7864 59.0795 34.5279 59.0795ZM37.5879 56.7031V59H37.0013V55.1818H37.568V55.7784H37.6178C37.7073 55.5845 37.8431 55.4287 38.0254 55.3111C38.2077 55.1918 38.443 55.1321 38.7314 55.1321C38.9899 55.1321 39.2161 55.1851 39.41 55.2912C39.6039 55.3956 39.7547 55.5547 39.8624 55.7685C39.9702 55.9806 40.024 56.2491 40.024 56.5739V59H39.4374V56.6136C39.4374 56.3137 39.3595 56.08 39.2037 55.9126C39.0479 55.7436 38.8341 55.6591 38.5624 55.6591C38.3751 55.6591 38.2077 55.6997 38.0602 55.7809C37.9144 55.8621 37.7992 55.9806 37.7147 56.1364C37.6302 56.2921 37.5879 56.4811 37.5879 56.7031ZM42.7565 55.1818V55.679H40.7778V55.1818H42.7565ZM41.3545 54.267H41.9412V57.9062C41.9412 58.072 41.9652 58.1963 42.0133 58.2791C42.063 58.3603 42.126 58.415 42.2022 58.4432C42.2801 58.4697 42.3621 58.483 42.4483 58.483C42.5129 58.483 42.5659 58.4796 42.6074 58.473C42.6488 58.4647 42.682 58.4581 42.7068 58.4531L42.8261 58.9801C42.7864 58.995 42.7308 59.0099 42.6596 59.0249C42.5883 59.0414 42.498 59.0497 42.3886 59.0497C42.2229 59.0497 42.0605 59.0141 41.9014 58.9428C41.744 58.8716 41.6131 58.763 41.5087 58.6172C41.4059 58.4714 41.3545 58.2874 41.3545 58.0653V54.267ZM9.82937 69V63.9091H11.5495C11.9489 63.9091 12.2754 63.9812 12.5289 64.1254C12.7842 64.2679 12.9731 64.4609 13.0957 64.7045C13.2183 64.9482 13.2797 65.2199 13.2797 65.5199C13.2797 65.8198 13.2183 66.0924 13.0957 66.3377C12.9747 66.583 12.7875 66.7785 12.5339 66.9244C12.2804 67.0685 11.9556 67.1406 11.5595 67.1406H10.3265V66.5938H11.5396C11.813 66.5938 12.0326 66.5465 12.1983 66.4521C12.3641 66.3576 12.4842 66.23 12.5588 66.0692C12.635 65.9068 12.6731 65.7237 12.6731 65.5199C12.6731 65.3161 12.635 65.1338 12.5588 64.973C12.4842 64.8123 12.3632 64.6863 12.1958 64.5952C12.0285 64.5024 11.8064 64.456 11.5297 64.456H10.4458V69H9.82937ZM15.753 69.0795C15.3851 69.0795 15.0678 68.9983 14.801 68.8359C14.5358 68.6719 14.3311 68.4432 14.187 68.1499C14.0444 67.8549 13.9732 67.5118 13.9732 67.1207C13.9732 66.7296 14.0444 66.3849 14.187 66.0866C14.3311 65.7867 14.5317 65.553 14.7885 65.3857C15.0471 65.2166 15.3487 65.1321 15.6934 65.1321C15.8922 65.1321 16.0886 65.1652 16.2825 65.2315C16.4764 65.2978 16.6529 65.4055 16.812 65.5547C16.9711 65.7022 17.0978 65.8977 17.1923 66.1413C17.2868 66.3849 17.334 66.6849 17.334 67.0412V67.2898H14.3908V66.7827H16.7374C16.7374 66.5672 16.6943 66.375 16.6081 66.206C16.5236 66.0369 16.4026 65.9035 16.2452 65.8058C16.0894 65.708 15.9055 65.6591 15.6934 65.6591C15.4597 65.6591 15.2575 65.7171 15.0868 65.8331C14.9178 65.9474 14.7877 66.0966 14.6966 66.2805C14.6054 66.4645 14.5598 66.6617 14.5598 66.8722V67.2102C14.5598 67.4986 14.6096 67.743 14.709 67.9435C14.8101 68.1424 14.9501 68.294 15.1291 68.3984C15.3081 68.5012 15.516 68.5526 15.753 68.5526C15.9071 68.5526 16.0463 68.531 16.1706 68.4879C16.2966 68.4432 16.4051 68.3769 16.4963 68.2891C16.5874 68.1996 16.6578 68.0885 16.7076 67.956L17.2743 68.1151C17.2147 68.3073 17.1144 68.4763 16.9735 68.6222C16.8327 68.7663 16.6587 68.879 16.4515 68.9602C16.2444 69.0398 16.0115 69.0795 15.753 69.0795ZM18.2264 69V65.1818H18.7931V65.7585H18.8329C18.9025 65.5696 19.0285 65.4163 19.2108 65.2987C19.3931 65.181 19.5985 65.1222 19.8272 65.1222C19.8703 65.1222 19.9242 65.123 19.9888 65.1246C20.0534 65.1263 20.1023 65.1288 20.1355 65.1321V65.7287C20.1156 65.7237 20.07 65.7163 19.9988 65.7063C19.9292 65.6947 19.8554 65.6889 19.7775 65.6889C19.5919 65.6889 19.4262 65.7279 19.2804 65.8058C19.1362 65.882 19.0218 65.988 18.9373 66.1239C18.8545 66.2582 18.813 66.4115 18.813 66.5838V69H18.2264ZM22.7704 65.1818V65.679H20.7122V65.1818H22.7704ZM21.3287 69V64.6548C21.3287 64.4361 21.38 64.2538 21.4828 64.108C21.5855 63.9621 21.7189 63.8527 21.883 63.7798C22.0471 63.7069 22.2202 63.6705 22.4025 63.6705C22.5467 63.6705 22.6644 63.6821 22.7555 63.7053C22.8467 63.7285 22.9146 63.75 22.9593 63.7699L22.7903 64.277C22.7605 64.267 22.719 64.2546 22.666 64.2397C22.6146 64.2248 22.5467 64.2173 22.4622 64.2173C22.2683 64.2173 22.1283 64.2662 22.0421 64.364C21.9576 64.4618 21.9153 64.6051 21.9153 64.794V69H21.3287ZM24.9865 69.0795C24.6418 69.0795 24.3394 68.9975 24.0792 68.8335C23.8207 68.6694 23.6185 68.4399 23.4727 68.1449C23.3285 67.8499 23.2564 67.5052 23.2564 67.1108C23.2564 66.7131 23.3285 66.3659 23.4727 66.0692C23.6185 65.7726 23.8207 65.5423 24.0792 65.3782C24.3394 65.2141 24.6418 65.1321 24.9865 65.1321C25.3312 65.1321 25.6328 65.2141 25.8913 65.3782C26.1515 65.5423 26.3537 65.7726 26.4979 66.0692C26.6437 66.3659 26.7166 66.7131 26.7166 67.1108C26.7166 67.5052 26.6437 67.8499 26.4979 68.1449C26.3537 68.4399 26.1515 68.6694 25.8913 68.8335C25.6328 68.9975 25.3312 69.0795 24.9865 69.0795ZM24.9865 68.5526C25.2483 68.5526 25.4638 68.4854 25.6328 68.3512C25.8018 68.217 25.927 68.0405 26.0082 67.8217C26.0894 67.603 26.13 67.366 26.13 67.1108C26.13 66.8556 26.0894 66.6178 26.0082 66.3974C25.927 66.177 25.8018 65.9988 25.6328 65.8629C25.4638 65.727 25.2483 65.6591 24.9865 65.6591C24.7247 65.6591 24.5092 65.727 24.3402 65.8629C24.1712 65.9988 24.046 66.177 23.9648 66.3974C23.8836 66.6178 23.843 66.8556 23.843 67.1108C23.843 67.366 23.8836 67.603 23.9648 67.8217C24.046 68.0405 24.1712 68.217 24.3402 68.3512C24.5092 68.4854 24.7247 68.5526 24.9865 68.5526ZM27.6121 69V65.1818H28.1789V65.7585H28.2187C28.2883 65.5696 28.4142 65.4163 28.5965 65.2987C28.7788 65.181 28.9843 65.1222 29.213 65.1222C29.2561 65.1222 29.3099 65.123 29.3746 65.1246C29.4392 65.1263 29.4881 65.1288 29.5212 65.1321V65.7287C29.5013 65.7237 29.4558 65.7163 29.3845 65.7063C29.3149 65.6947 29.2412 65.6889 29.1633 65.6889C28.9777 65.6889 28.8119 65.7279 28.6661 65.8058C28.5219 65.882 28.4076 65.988 28.3231 66.1239C28.2402 66.2582 28.1988 66.4115 28.1988 66.5838V69H27.6121ZM30.2166 69V65.1818H30.7834V65.7784H30.8331C30.9126 65.5746 31.0411 65.4163 31.2184 65.3036C31.3957 65.1893 31.6087 65.1321 31.8572 65.1321C32.1091 65.1321 32.3188 65.1893 32.4862 65.3036C32.6552 65.4163 32.7869 65.5746 32.8814 65.7784H32.9212C33.0189 65.5812 33.1656 65.4246 33.3612 65.3086C33.5567 65.1909 33.7912 65.1321 34.0646 65.1321C34.406 65.1321 34.6853 65.239 34.9023 65.4528C35.1194 65.6649 35.228 65.9955 35.228 66.4446V69H34.6413V66.4446C34.6413 66.1629 34.5643 65.9615 34.4102 65.8406C34.256 65.7196 34.0746 65.6591 33.8658 65.6591C33.5973 65.6591 33.3893 65.7403 33.2418 65.9027C33.0943 66.0634 33.0206 66.2673 33.0206 66.5142V69H32.424V66.3849C32.424 66.1679 32.3536 65.993 32.2127 65.8604C32.0719 65.7262 31.8904 65.6591 31.6683 65.6591C31.5159 65.6591 31.3733 65.6997 31.2408 65.7809C31.1098 65.8621 31.0038 65.9748 30.9226 66.119C30.843 66.2615 30.8033 66.4264 30.8033 66.6136V69H30.2166ZM37.4242 69.0895C37.1822 69.0895 36.9627 69.0439 36.7654 68.9528C36.5682 68.86 36.4116 68.7266 36.2956 68.5526C36.1796 68.3769 36.1216 68.1648 36.1216 67.9162C36.1216 67.6974 36.1647 67.5201 36.2509 67.3842C36.3371 67.2467 36.4522 67.139 36.5964 67.0611C36.7406 66.9832 36.8997 66.9252 37.0737 66.8871C37.2493 66.8473 37.4258 66.8158 37.6032 66.7926C37.8352 66.7628 38.0233 66.7404 38.1674 66.7255C38.3133 66.7089 38.4193 66.6816 38.4856 66.6435C38.5536 66.6054 38.5875 66.5391 38.5875 66.4446V66.4247C38.5875 66.1795 38.5204 65.9889 38.3862 65.853C38.2536 65.7171 38.0523 65.6491 37.7821 65.6491C37.5021 65.6491 37.2825 65.7105 37.1234 65.8331C36.9643 65.9557 36.8525 66.0866 36.7878 66.2259L36.231 66.027C36.3304 65.795 36.463 65.6143 36.6287 65.4851C36.7961 65.3542 36.9784 65.263 37.1756 65.2116C37.3745 65.1586 37.57 65.1321 37.7623 65.1321C37.8849 65.1321 38.0257 65.147 38.1848 65.1768C38.3456 65.205 38.5005 65.2638 38.6497 65.3533C38.8005 65.4428 38.9256 65.5779 39.025 65.7585C39.1245 65.9392 39.1742 66.1811 39.1742 66.4844V69H38.5875V68.483H38.5577C38.5179 68.5658 38.4516 68.6545 38.3588 68.7489C38.266 68.8434 38.1426 68.9238 37.9885 68.9901C37.8343 69.0563 37.6462 69.0895 37.4242 69.0895ZM37.5137 68.5625C37.7457 68.5625 37.9412 68.5169 38.1003 68.4258C38.2611 68.3346 38.382 68.217 38.4632 68.0728C38.5461 67.9286 38.5875 67.777 38.5875 67.6179V67.081C38.5627 67.1108 38.508 67.1381 38.4235 67.163C38.3406 67.1862 38.2445 67.2069 38.1351 67.2251C38.0274 67.2417 37.9222 67.2566 37.8194 67.2699C37.7183 67.2815 37.6363 67.2914 37.5733 67.2997C37.4209 67.3196 37.2783 67.3519 37.1458 67.3967C37.0149 67.4397 36.9088 67.5052 36.8276 67.593C36.748 67.6792 36.7083 67.7969 36.7083 67.946C36.7083 68.1499 36.7837 68.304 36.9345 68.4084C37.0869 68.5111 37.28 68.5625 37.5137 68.5625ZM40.8316 66.7031V69H40.2449V65.1818H40.8117V65.7784H40.8614C40.9509 65.5845 41.0868 65.4287 41.2691 65.3111C41.4514 65.1918 41.6867 65.1321 41.9751 65.1321C42.2336 65.1321 42.4598 65.1851 42.6537 65.2912C42.8476 65.3956 42.9984 65.5547 43.1061 65.7685C43.2138 65.9806 43.2677 66.2491 43.2677 66.5739V69H42.681V66.6136C42.681 66.3137 42.6031 66.08 42.4474 65.9126C42.2916 65.7436 42.0778 65.6591 41.806 65.6591C41.6188 65.6591 41.4514 65.6997 41.3039 65.7809C41.1581 65.8621 41.0429 65.9806 40.9584 66.1364C40.8738 66.2921 40.8316 66.4811 40.8316 66.7031ZM45.8908 69.0795C45.5328 69.0795 45.2246 68.995 44.9661 68.826C44.7076 68.657 44.5087 68.4241 44.3695 68.1275C44.2303 67.8308 44.1607 67.492 44.1607 67.1108C44.1607 66.723 44.2319 66.3808 44.3745 66.0842C44.5186 65.7859 44.7192 65.553 44.976 65.3857C45.2346 65.2166 45.5362 65.1321 45.8809 65.1321C46.1493 65.1321 46.3913 65.1818 46.6067 65.2812C46.8221 65.3807 46.9986 65.5199 47.1362 65.6989C47.2737 65.8778 47.3591 66.0866 47.3922 66.3253H46.8056C46.7608 66.1513 46.6614 65.9972 46.5073 65.8629C46.3548 65.727 46.1493 65.6591 45.8908 65.6591C45.6621 65.6591 45.4616 65.7187 45.2892 65.8381C45.1185 65.9557 44.9851 66.1223 44.889 66.3377C44.7946 66.5515 44.7473 66.8026 44.7473 67.0909C44.7473 67.3859 44.7937 67.6428 44.8865 67.8615C44.981 68.0803 45.1136 68.2501 45.2843 68.3711C45.4566 68.4921 45.6588 68.5526 45.8908 68.5526C46.0433 68.5526 46.1816 68.526 46.3059 68.473C46.4302 68.42 46.5355 68.3438 46.6216 68.2443C46.7078 68.1449 46.7691 68.0256 46.8056 67.8864H47.3922C47.3591 68.1117 47.277 68.3147 47.1461 68.4954C47.0169 68.6744 46.8453 68.8169 46.6316 68.9229C46.4194 69.0273 46.1725 69.0795 45.8908 69.0795ZM49.8507 69.0795C49.4828 69.0795 49.1654 68.9983 48.8986 68.8359C48.6335 68.6719 48.4288 68.4432 48.2846 68.1499C48.1421 67.8549 48.0708 67.5118 48.0708 67.1207C48.0708 66.7296 48.1421 66.3849 48.2846 66.0866C48.4288 65.7867 48.6293 65.553 48.8862 65.3857C49.1447 65.2166 49.4463 65.1321 49.791 65.1321C49.9899 65.1321 50.1863 65.1652 50.3801 65.2315C50.574 65.2978 50.7505 65.4055 50.9096 65.5547C51.0687 65.7022 51.1955 65.8977 51.29 66.1413C51.3844 66.3849 51.4316 66.6849 51.4316 67.0412V67.2898H48.4885V66.7827H50.835C50.835 66.5672 50.792 66.375 50.7058 66.206C50.6213 66.0369 50.5003 65.9035 50.3429 65.8058C50.1871 65.708 50.0031 65.6591 49.791 65.6591C49.5574 65.6591 49.3552 65.7171 49.1845 65.8331C49.0154 65.9474 48.8854 66.0966 48.7942 66.2805C48.7031 66.4645 48.6575 66.6617 48.6575 66.8722V67.2102C48.6575 67.4986 48.7072 67.743 48.8066 67.9435C48.9077 68.1424 49.0478 68.294 49.2267 68.3984C49.4057 68.5012 49.6137 68.5526 49.8507 68.5526C50.0048 68.5526 50.144 68.531 50.2683 68.4879C50.3942 68.4432 50.5028 68.3769 50.5939 68.2891C50.6851 68.1996 50.7555 68.0885 50.8052 67.956L51.372 68.1151C51.3123 68.3073 51.2121 68.4763 51.0712 68.6222C50.9303 68.7663 50.7563 68.879 50.5492 68.9602C50.342 69.0398 50.1092 69.0795 49.8507 69.0795Z" fill="#E5C152"/>
<path d="M30 44C39.9411 44 48 35.9411 48 26C48 16.0589 39.9411 8 30 8C20.0589 8 12 16.0589 12 26C12 35.9411 20.0589 44 30 44Z" fill="#E6C252"/>
<path fill-rule="evenodd" clip-rule="evenodd" d="M23.2333 31.9907C24.1292 30.8889 24.9736 29.8385 25.8798 28.7264C25.9931 29.0662 26.0754 29.3236 26.1578 29.5708C26.405 30.2916 26.58 31.033 26.8992 31.7127C27.7642 33.525 29.0514 34.9152 31.0388 35.5021C32.223 35.8523 33.4278 35.8728 34.6326 35.6257C35.4256 35.461 36.2082 35.2859 36.9805 35.0593C37.5777 34.8946 38.1544 34.6474 38.7413 34.4415C38.7928 34.4209 38.8443 34.4106 38.8958 34.39C38.9061 34.4106 38.9164 34.4312 38.937 34.4518C38.6384 34.668 38.3397 34.874 38.0308 35.0799C37.0731 35.7184 36.0434 36.223 34.9622 36.5834C33.5514 37.0571 32.0892 37.2321 30.6166 36.9438C29.3191 36.6863 28.1761 36.0891 27.1979 35.1829C26.4461 34.4827 25.8283 33.6795 25.334 32.7733C25.3134 32.7321 25.2825 32.7012 25.2104 32.588C24.3558 33.6074 23.5217 34.596 22.6567 35.636C22.564 35.4095 22.4816 35.2344 22.4095 35.0593C22.1212 34.2561 21.7917 33.4632 21.5651 32.6394C21.0606 30.8168 20.9473 28.9838 21.6887 27.1818C22.2036 25.9255 23.0686 24.9678 24.2013 24.2161C25.2002 23.5571 26.3226 23.2378 27.4553 22.9495C27.5274 22.9289 27.6098 22.9392 27.7024 22.9804C27.548 23.0628 27.4038 23.1349 27.2493 23.2172C27.0949 23.2996 26.9404 23.3717 26.786 23.4541C25.6635 24.0616 24.6338 24.7928 23.8718 25.8431C22.9038 27.1715 22.564 28.644 22.8111 30.2607C22.8832 30.6932 22.9862 31.1257 23.0789 31.5582C23.1098 31.6818 23.1612 31.7847 23.2436 31.9804L23.2333 31.9907Z" fill="#231F20"/>
<path fill-rule="evenodd" clip-rule="evenodd" d="M38.4121 28.7883H34.221C34.4269 28.4794 34.5814 28.2117 34.7668 27.9645C35.364 27.1613 35.8892 26.3066 36.229 25.3593C37.0734 23.0526 36.8366 20.9108 35.3125 18.9439C34.4681 17.8524 33.4075 16.9874 32.2645 16.2357C31.6775 15.8444 31.0494 15.5046 30.4418 15.1339C30.4109 15.1133 30.38 15.0824 30.2771 15C32.6455 15.6076 34.7565 16.5343 36.4144 18.2746C38.0311 19.9737 38.6489 22.0126 38.34 24.3501C38.2267 25.1945 38.0002 25.9977 37.6604 26.7803C37.6604 26.8009 37.6604 26.8318 37.6604 26.9245H41.6558C41.5528 27.1304 41.491 27.254 41.4189 27.3673C40.8423 28.2838 40.3171 29.2414 39.6684 30.1064C38.7107 31.3833 37.5059 32.413 35.9613 32.9279C34.3961 33.4531 32.8411 33.3707 31.3068 32.7529C30.483 32.4233 29.721 31.9703 29.0311 31.4039C28.8972 31.2906 28.7736 31.1773 28.6707 31.0126C29.0311 31.167 29.3915 31.3215 29.7519 31.476C31.1112 32.0629 32.5322 32.3204 34.0048 32.1041C34.7565 31.9908 35.4567 31.6819 36.1054 31.2597C36.991 30.6728 37.6913 29.8902 38.2885 29.0252C38.3194 28.9737 38.3503 28.9119 38.4018 28.7883H38.4121Z" fill="#231F20"/>
<path fill-rule="evenodd" clip-rule="evenodd" d="M25.262 16.2253C25.5297 16.2562 25.7562 16.2768 25.9828 16.2974C26.7963 16.3798 27.6201 16.4107 28.413 16.5549C29.9061 16.8226 31.3169 17.3169 32.5114 18.2848C33.4588 19.0469 34.1384 20.0045 34.5297 21.1681C35.024 22.6407 35.0446 24.1235 34.6842 25.6269C34.643 25.8123 34.5915 25.9977 34.5503 26.183H34.4782C34.4782 26.0903 34.4782 25.9977 34.4782 25.8947C34.4988 24.7208 34.3443 23.5777 33.953 22.4656C33.3661 20.8386 32.3054 19.6235 30.6887 18.9851C29.9885 18.707 29.2368 18.5629 28.5057 18.3672C28.4439 18.3466 28.3821 18.3672 28.2688 18.3672C28.8661 19.6132 29.453 20.8386 30.04 22.0537C30.0194 22.0743 29.9988 22.1052 29.9885 22.1258C29.7311 22.0949 29.4633 22.0743 29.2059 22.0228C28.032 21.8066 26.8581 21.6933 25.6533 21.8787C24.5411 22.0537 23.5217 22.4244 22.6052 23.1041C21.5755 23.8764 20.8958 24.9061 20.4119 26.08C20.0103 27.0686 19.7734 28.088 19.6087 29.1384C19.4851 29.9107 19.4336 30.7036 19.3409 31.5068C19.2997 31.4141 19.2482 31.3318 19.2379 31.2391C19.032 29.9519 18.9393 28.6647 19.0423 27.3672C19.1556 25.9874 19.5366 24.7002 20.2265 23.4954C20.659 22.7436 21.2357 22.1052 21.905 21.5697C22.6361 20.9931 23.4702 20.5915 24.3764 20.3237C25.1075 20.1075 25.8489 19.9633 26.6109 19.9427C26.8272 19.9427 26.8787 19.8604 26.7757 19.6544C26.2814 18.6144 25.8077 17.564 25.3238 16.524C25.2929 16.4519 25.2723 16.3695 25.2414 16.2459L25.262 16.2253Z" fill="#231F20"/>
</svg>
