<svg width="36" height="36" viewBox="0 0 36 36" fill="none" xmlns="http://www.w3.org/2000/svg">
<path d="M18 36C27.9411 36 36 27.9411 36 18C36 8.05887 27.9411 0 18 0C8.05888 0 0 8.05887 0 18C0 27.9411 8.05888 36 18 36Z" fill="#E6C252"/>
<mask id="mask0_315_487" style="mask-type:luminance" maskUnits="userSpaceOnUse" x="12" y="5" width="14" height="28">
<path d="M25.6145 5H12.2V32.21H25.6145V5Z" fill="white"/>
</mask>
<g mask="url(#mask0_315_487)">
<path d="M21.1431 23.1398C20.8256 23.1398 20.5082 23.294 20.1817 23.4573C19.8642 23.6114 19.5468 24.0831 19.3835 24.3915V16.5731C19.8642 16.5731 20.1817 16.1015 20.1817 15.6389V14.2331C20.1817 14.2331 20.3449 14.0789 20.3449 13.9156C20.3449 13.9156 20.8256 13.5982 21.3064 13.1356C21.7871 12.8272 22.2678 12.2014 22.2678 11.2581V7.82059H20.8347V5.63473C20.8347 5.32635 20.6715 5.16309 20.354 5.16309C20.0366 5.16309 19.8733 5.31728 19.8733 5.63473V7.82059H17.4788V5.63473C17.4788 5.32635 17.1614 5.16309 16.8439 5.16309C16.6807 5.16309 16.3632 5.31728 16.3632 5.63473V7.82059H14.9302V9.54389H15.0934V11.2672C15.0934 12.2014 15.5741 12.8272 15.8916 13.1447C16.3723 13.6163 16.853 13.9247 16.853 13.9247C16.853 14.0789 17.0162 14.2421 17.0162 14.2421V15.648C17.0162 16.1196 17.3337 16.5822 17.8144 16.5822V20.0197C17.6511 19.5481 17.3337 19.2397 17.0162 19.0855C16.6988 18.9313 16.3813 18.7681 16.2181 18.7681L12.2273 18.6139L14.3043 21.743C14.4676 22.0514 14.785 22.3689 15.1025 22.523C16.0639 22.9947 17.1795 22.6772 17.8144 21.743V21.4256V31.7472H19.4107V25.8064V26.1238C20.0456 27.058 21.1703 27.3755 22.1227 26.9038C22.4401 26.7497 22.7576 26.4322 22.9208 26.278L24.9978 22.9947L21.1612 23.1489L21.1431 23.1398Z" fill="black"/>
</g>
</svg>
