<svg width="37" height="37" viewBox="0 0 37 37" fill="none" xmlns="http://www.w3.org/2000/svg">
<rect x="0.779297" y="0.919922" width="36" height="36" rx="18" fill="white"/>
<g clip-path="url(#clip0_531_916)">
<path d="M20.1583 15.0066H22.9717L22.6433 18.1155H20.1583V27.1357H16.4254V18.1155H14.5645V15.0066H16.4254V13.1346C16.4254 11.8064 16.7392 10.8011 17.3669 10.1188C17.9945 9.43642 19.0271 9.09524 20.4648 9.09524H22.9498V12.2042H21.3953C21.1107 12.2042 20.8826 12.2279 20.7111 12.2753C20.5396 12.3228 20.4156 12.4085 20.3389 12.5326C20.2623 12.6566 20.2131 12.7825 20.1912 12.9102C20.1693 13.038 20.1583 13.2186 20.1583 13.4521V15.0066Z" fill="#3B5998"/>
</g>
<defs>
<clipPath id="clip0_531_916">
<rect width="8.58" height="20" fill="white" transform="matrix(1 0 0 -1 14.4785 28.9199)"/>
</clipPath>
</defs>
</svg>
