<svg width="61" height="82" viewBox="0 0 61 82" fill="none" xmlns="http://www.w3.org/2000/svg">
<path d="M11.8972 59V53.9091H12.5137V56.1761H15.2282V53.9091H15.8447V59H15.2282V56.723H12.5137V59H11.8972ZM16.9993 59V55.1818H17.586V59H16.9993ZM17.2976 54.5455C17.1833 54.5455 17.0847 54.5065 17.0018 54.4286C16.9206 54.3507 16.88 54.2571 16.88 54.1477C16.88 54.0384 16.9206 53.9447 17.0018 53.8668C17.0847 53.7889 17.1833 53.75 17.2976 53.75C17.412 53.75 17.5098 53.7889 17.591 53.8668C17.6738 53.9447 17.7152 54.0384 17.7152 54.1477C17.7152 54.2571 17.6738 54.3507 17.591 54.4286C17.5098 54.5065 17.412 54.5455 17.2976 54.5455ZM20.2017 60.5114C19.9183 60.5114 19.6747 60.4749 19.4708 60.402C19.267 60.3307 19.0971 60.2363 18.9612 60.1186C18.827 60.0026 18.7201 59.8783 18.6406 59.7457L19.1079 59.4176C19.1609 59.4872 19.2281 59.5668 19.3093 59.6562C19.3905 59.7474 19.5015 59.8261 19.6424 59.8924C19.7849 59.9603 19.9713 59.9943 20.2017 59.9943C20.5099 59.9943 20.7643 59.9197 20.9648 59.7706C21.1653 59.6214 21.2656 59.3878 21.2656 59.0696V58.294H21.2159C21.1728 58.3636 21.1115 58.4498 21.0319 58.5526C20.954 58.6536 20.8413 58.744 20.6938 58.8235C20.548 58.9014 20.3508 58.9403 20.1022 58.9403C19.794 58.9403 19.5172 58.8674 19.272 58.7216C19.0284 58.5758 18.8353 58.3636 18.6928 58.0852C18.5519 57.8068 18.4815 57.4687 18.4815 57.071C18.4815 56.6799 18.5503 56.3394 18.6878 56.0494C18.8254 55.7577 19.0168 55.5323 19.262 55.3732C19.5073 55.2125 19.7907 55.1321 20.1122 55.1321C20.3608 55.1321 20.558 55.1735 20.7038 55.2564C20.8513 55.3376 20.964 55.4304 21.0419 55.5348C21.1214 55.6375 21.1827 55.7221 21.2258 55.7884H21.2855V55.1818H21.8522V59.1094C21.8522 59.4375 21.7777 59.7043 21.6285 59.9098C21.481 60.117 21.2822 60.2686 21.0319 60.3647C20.7833 60.4625 20.5066 60.5114 20.2017 60.5114ZM20.1818 58.4134C20.4171 58.4134 20.616 58.3595 20.7784 58.2518C20.9408 58.1441 21.0642 57.9891 21.1487 57.7869C21.2333 57.5848 21.2755 57.3428 21.2755 57.0611C21.2755 56.786 21.2341 56.5432 21.1512 56.3327C21.0684 56.1223 20.9457 55.9574 20.7833 55.8381C20.6209 55.7187 20.4204 55.6591 20.1818 55.6591C19.9332 55.6591 19.726 55.7221 19.5603 55.848C19.3963 55.974 19.2728 56.143 19.1899 56.3551C19.1087 56.5672 19.0681 56.8026 19.0681 57.0611C19.0681 57.3262 19.1096 57.5607 19.1924 57.7646C19.2769 57.9667 19.4012 58.1258 19.5653 58.2418C19.731 58.3562 19.9365 58.4134 20.1818 58.4134ZM23.5127 56.7031V59H22.9261V53.9091H23.5127V55.7784H23.5625C23.6519 55.5812 23.7862 55.4246 23.9652 55.3086C24.1458 55.1909 24.3861 55.1321 24.686 55.1321C24.9462 55.1321 25.1741 55.1843 25.3696 55.2887C25.5652 55.3915 25.7168 55.5497 25.8245 55.7635C25.9339 55.9756 25.9886 56.2457 25.9886 56.5739V59H25.4019V56.6136C25.4019 56.3104 25.3232 56.0759 25.1658 55.9102C25.01 55.7428 24.7938 55.6591 24.517 55.6591C24.3248 55.6591 24.1524 55.6997 24 55.7809C23.8492 55.8621 23.7298 55.9806 23.642 56.1364C23.5558 56.2921 23.5127 56.4811 23.5127 56.7031ZM31.8942 55.1818C31.8644 54.9299 31.7434 54.7344 31.5313 54.5952C31.3192 54.456 31.059 54.3864 30.7508 54.3864C30.5254 54.3864 30.3282 54.4228 30.1591 54.4957C29.9918 54.5687 29.8608 54.6689 29.7664 54.7965C29.6736 54.9241 29.6272 55.0691 29.6272 55.2315C29.6272 55.3674 29.6595 55.4843 29.7241 55.582C29.7904 55.6781 29.8749 55.7585 29.9777 55.8232C30.0804 55.8861 30.1881 55.9383 30.3008 55.9798C30.4135 56.0195 30.5171 56.0518 30.6116 56.0767L31.1286 56.2159C31.2612 56.2507 31.4087 56.2988 31.5711 56.3601C31.7351 56.4214 31.8917 56.5051 32.0409 56.6112C32.1917 56.7156 32.316 56.8498 32.4138 57.0138C32.5115 57.1779 32.5604 57.3793 32.5604 57.6179C32.5604 57.893 32.4883 58.1416 32.3441 58.3636C32.2016 58.5857 31.9928 58.7622 31.7177 58.8931C31.4443 59.024 31.112 59.0895 30.7209 59.0895C30.3563 59.0895 30.0406 59.0307 29.7738 58.913C29.5087 58.7953 29.2999 58.6313 29.1474 58.4208C28.9966 58.2103 28.9113 57.9659 28.8914 57.6875H29.5277C29.5443 57.8797 29.6089 58.0388 29.7216 58.1648C29.836 58.2891 29.9802 58.3819 30.1542 58.4432C30.3298 58.5028 30.5187 58.5327 30.7209 58.5327C30.9562 58.5327 31.1675 58.4946 31.3548 58.4183C31.5421 58.3404 31.6904 58.2327 31.7998 58.0952C31.9091 57.956 31.9638 57.7936 31.9638 57.608C31.9638 57.4389 31.9166 57.3014 31.8221 57.1953C31.7277 57.0893 31.6034 57.0031 31.4493 56.9368C31.2951 56.8705 31.1286 56.8125 30.9496 56.7628L30.3232 56.5838C29.9255 56.4695 29.6106 56.3062 29.3786 56.0941C29.1466 55.882 29.0306 55.6044 29.0306 55.2614C29.0306 54.9763 29.1076 54.7277 29.2618 54.5156C29.4175 54.3018 29.6263 54.1361 29.8882 54.0185C30.1517 53.8991 30.4458 53.8395 30.7706 53.8395C31.0988 53.8395 31.3904 53.8983 31.6456 54.016C31.9008 54.132 32.103 54.2911 32.2522 54.4933C32.403 54.6954 32.4825 54.925 32.4908 55.1818H31.8942ZM33.4945 60.4318V55.1818H34.0612V55.7884H34.1308C34.1739 55.7221 34.2336 55.6375 34.3098 55.5348C34.3877 55.4304 34.4987 55.3376 34.6429 55.2564C34.7887 55.1735 34.9859 55.1321 35.2345 55.1321C35.556 55.1321 35.8394 55.2125 36.0847 55.3732C36.3299 55.534 36.5213 55.7618 36.6589 56.0568C36.7964 56.3518 36.8652 56.6998 36.8652 57.1009C36.8652 57.5052 36.7964 57.8557 36.6589 58.1523C36.5213 58.4473 36.3307 58.676 36.0871 58.8384C35.8435 58.9992 35.5626 59.0795 35.2445 59.0795C34.9992 59.0795 34.8028 59.0389 34.6553 58.9577C34.5078 58.8749 34.3943 58.7812 34.3148 58.6768C34.2352 58.5708 34.1739 58.483 34.1308 58.4134H34.0811V60.4318H33.4945ZM34.0712 57.0909C34.0712 57.3793 34.1134 57.6336 34.1979 57.854C34.2824 58.0728 34.4059 58.2443 34.5683 58.3686C34.7307 58.4912 34.9296 58.5526 35.1649 58.5526C35.4102 58.5526 35.6148 58.4879 35.7789 58.3587C35.9446 58.2277 36.0689 58.0521 36.1518 57.8317C36.2363 57.6096 36.2785 57.3627 36.2785 57.0909C36.2785 56.8224 36.2371 56.5805 36.1543 56.3651C36.073 56.148 35.9496 55.9764 35.7839 55.8505C35.6198 55.7229 35.4135 55.6591 35.1649 55.6591C34.9263 55.6591 34.7257 55.7196 34.5633 55.8406C34.4009 55.9599 34.2783 56.1272 34.1954 56.3427C34.1126 56.5565 34.0712 56.8059 34.0712 57.0909ZM39.3609 59.0795C38.993 59.0795 38.6757 58.9983 38.4089 58.8359C38.1437 58.6719 37.9391 58.4432 37.7949 58.1499C37.6524 57.8549 37.5811 57.5118 37.5811 57.1207C37.5811 56.7296 37.6524 56.3849 37.7949 56.0866C37.9391 55.7867 38.1396 55.553 38.3964 55.3857C38.655 55.2166 38.9566 55.1321 39.3013 55.1321C39.5001 55.1321 39.6965 55.1652 39.8904 55.2315C40.0843 55.2978 40.2608 55.4055 40.4199 55.5547C40.579 55.7022 40.7057 55.8977 40.8002 56.1413C40.8947 56.3849 40.9419 56.6849 40.9419 57.0412V57.2898H37.9987V56.7827H40.3453C40.3453 56.5672 40.3022 56.375 40.216 56.206C40.1315 56.0369 40.0105 55.9035 39.8531 55.8058C39.6973 55.708 39.5134 55.6591 39.3013 55.6591C39.0676 55.6591 38.8654 55.7171 38.6947 55.8331C38.5257 55.9474 38.3956 56.0966 38.3045 56.2805C38.2133 56.4645 38.1677 56.6617 38.1677 56.8722V57.2102C38.1677 57.4986 38.2175 57.743 38.3169 57.9435C38.418 58.1424 38.558 58.294 38.737 58.3984C38.916 58.5012 39.1239 58.5526 39.3609 58.5526C39.515 58.5526 39.6543 58.531 39.7785 58.4879C39.9045 58.4432 40.013 58.3769 40.1042 58.2891C40.1953 58.1996 40.2658 58.0885 40.3155 57.956L40.8822 58.1151C40.8226 58.3073 40.7223 58.4763 40.5815 58.6222C40.4406 58.7663 40.2666 58.879 40.0594 58.9602C39.8523 59.0398 39.6195 59.0795 39.3609 59.0795ZM43.4351 59.0795C43.0672 59.0795 42.7499 58.9983 42.4831 58.8359C42.2179 58.6719 42.0133 58.4432 41.8691 58.1499C41.7266 57.8549 41.6553 57.5118 41.6553 57.1207C41.6553 56.7296 41.7266 56.3849 41.8691 56.0866C42.0133 55.7867 42.2138 55.553 42.4707 55.3857C42.7292 55.2166 43.0308 55.1321 43.3755 55.1321C43.5744 55.1321 43.7707 55.1652 43.9646 55.2315C44.1585 55.2978 44.335 55.4055 44.4941 55.5547C44.6532 55.7022 44.78 55.8977 44.8744 56.1413C44.9689 56.3849 45.0161 56.6849 45.0161 57.0412V57.2898H42.0729V56.7827H44.4195C44.4195 56.5672 44.3764 56.375 44.2903 56.206C44.2057 56.0369 44.0848 55.9035 43.9273 55.8058C43.7716 55.708 43.5876 55.6591 43.3755 55.6591C43.1418 55.6591 42.9396 55.7171 42.769 55.8331C42.5999 55.9474 42.4698 56.0966 42.3787 56.2805C42.2875 56.4645 42.242 56.6617 42.242 56.8722V57.2102C42.242 57.4986 42.2917 57.743 42.3911 57.9435C42.4922 58.1424 42.6322 58.294 42.8112 58.3984C42.9902 58.5012 43.1982 58.5526 43.4351 58.5526C43.5893 58.5526 43.7285 58.531 43.8528 58.4879C43.9787 58.4432 44.0873 58.3769 44.1784 58.2891C44.2695 58.1996 44.34 58.0885 44.3897 57.956L44.9565 58.1151C44.8968 58.3073 44.7965 58.4763 44.6557 58.6222C44.5148 58.7663 44.3408 58.879 44.1337 58.9602C43.9265 59.0398 43.6937 59.0795 43.4351 59.0795ZM47.3503 59.0795C47.0321 59.0795 46.7512 58.9992 46.5076 58.8384C46.264 58.676 46.0734 58.4473 45.9359 58.1523C45.7983 57.8557 45.7295 57.5052 45.7295 57.1009C45.7295 56.6998 45.7983 56.3518 45.9359 56.0568C46.0734 55.7618 46.2648 55.534 46.5101 55.3732C46.7553 55.2125 47.0387 55.1321 47.3602 55.1321C47.6088 55.1321 47.8052 55.1735 47.9494 55.2564C48.0952 55.3376 48.2062 55.4304 48.2824 55.5348C48.3603 55.6375 48.4208 55.7221 48.4639 55.7884H48.5136V53.9091H49.1003V59H48.5335V58.4134H48.4639C48.4208 58.483 48.3595 58.5708 48.28 58.6768C48.2004 58.7812 48.0869 58.8749 47.9394 58.9577C47.7919 59.0389 47.5955 59.0795 47.3503 59.0795ZM47.4298 58.5526C47.6651 58.5526 47.864 58.4912 48.0264 58.3686C48.1888 58.2443 48.3123 58.0728 48.3968 57.854C48.4813 57.6336 48.5236 57.3793 48.5236 57.0909C48.5236 56.8059 48.4821 56.5565 48.3993 56.3427C48.3164 56.1272 48.1938 55.9599 48.0314 55.8406C47.869 55.7196 47.6685 55.6591 47.4298 55.6591C47.1812 55.6591 46.9741 55.7229 46.8084 55.8505C46.6443 55.9764 46.5208 56.148 46.438 56.3651C46.3568 56.5805 46.3162 56.8224 46.3162 57.0909C46.3162 57.3627 46.3576 57.6096 46.4405 57.8317C46.525 58.0521 46.6493 58.2277 46.8133 58.3587C46.9791 58.4879 47.1846 58.5526 47.4298 58.5526ZM25.0427 69V63.9091H28.0953V64.456H25.6592V66.1761H27.8666V66.723H25.6592V69H25.0427ZM30.1952 69.0895C29.9532 69.0895 29.7337 69.0439 29.5364 68.9528C29.3392 68.86 29.1826 68.7266 29.0666 68.5526C28.9506 68.3769 28.8926 68.1648 28.8926 67.9162C28.8926 67.6974 28.9357 67.5201 29.0219 67.3842C29.1081 67.2467 29.2232 67.139 29.3674 67.0611C29.5116 66.9832 29.6707 66.9252 29.8447 66.8871C30.0203 66.8473 30.1968 66.8158 30.3742 66.7926C30.6062 66.7628 30.7943 66.7404 30.9384 66.7255C31.0843 66.7089 31.1903 66.6816 31.2566 66.6435C31.3246 66.6054 31.3585 66.5391 31.3585 66.4446V66.4247C31.3585 66.1795 31.2914 65.9889 31.1572 65.853C31.0246 65.7171 30.8233 65.6491 30.5531 65.6491C30.2731 65.6491 30.0535 65.7105 29.8944 65.8331C29.7353 65.9557 29.6234 66.0866 29.5588 66.2259L29.002 66.027C29.1014 65.795 29.234 65.6143 29.3997 65.4851C29.5671 65.3542 29.7494 65.263 29.9466 65.2116C30.1455 65.1586 30.341 65.1321 30.5332 65.1321C30.6559 65.1321 30.7967 65.147 30.9558 65.1768C31.1166 65.205 31.2715 65.2638 31.4207 65.3533C31.5715 65.4428 31.6966 65.5779 31.796 65.7585C31.8955 65.9392 31.9452 66.1811 31.9452 66.4844V69H31.3585V68.483H31.3287C31.2889 68.5658 31.2226 68.6545 31.1298 68.7489C31.037 68.8434 30.9136 68.9238 30.7595 68.9901C30.6053 69.0563 30.4172 69.0895 30.1952 69.0895ZM30.2847 68.5625C30.5167 68.5625 30.7122 68.5169 30.8713 68.4258C31.0321 68.3346 31.153 68.217 31.2342 68.0728C31.3171 67.9286 31.3585 67.777 31.3585 67.6179V67.081C31.3337 67.1108 31.279 67.1381 31.1945 67.163C31.1116 67.1862 31.0155 67.2069 30.9061 67.2251C30.7984 67.2417 30.6932 67.2566 30.5904 67.2699C30.4893 67.2815 30.4073 67.2914 30.3443 67.2997C30.1919 67.3196 30.0493 67.3519 29.9168 67.3967C29.7859 67.4397 29.6798 67.5052 29.5986 67.593C29.519 67.6792 29.4793 67.7969 29.4793 67.946C29.4793 68.1499 29.5547 68.304 29.7055 68.4084C29.8579 68.5111 30.051 68.5625 30.2847 68.5625ZM33.6026 66.7031V69H33.0159V65.1818H33.5827V65.7784H33.6324C33.7219 65.5845 33.8578 65.4287 34.0401 65.3111C34.2224 65.1918 34.4577 65.1321 34.746 65.1321C35.0046 65.1321 35.2308 65.1851 35.4247 65.2912C35.6186 65.3956 35.7694 65.5547 35.8771 65.7685C35.9848 65.9806 36.0387 66.2491 36.0387 66.5739V69H35.452V66.6136C35.452 66.3137 35.3741 66.08 35.2184 65.9126C35.0626 65.7436 34.8488 65.6591 34.577 65.6591C34.3898 65.6591 34.2224 65.6997 34.0749 65.7809C33.9291 65.8621 33.8139 65.9806 33.7294 66.1364C33.6448 66.2921 33.6026 66.4811 33.6026 66.7031Z" fill="#E5C152"/>
<path d="M30 44C39.9411 44 48 35.9411 48 26C48 16.0589 39.9411 8 30 8C20.0589 8 12 16.0589 12 26C12 35.9411 20.0589 44 30 44Z" fill="#E6C252"/>
<path d="M29.9553 13.2576C23.4987 13.2576 18.2573 18.4887 18.2573 24.9452C18.2573 31.4017 23.4987 36.6432 29.9553 36.6432C36.4118 36.6432 41.6532 31.4017 41.6532 24.9452C41.6532 18.4887 36.4221 13.2576 29.9553 13.2576ZM29.9553 29.0848C27.6795 29.0848 25.826 27.2313 25.826 24.9555C25.826 22.6798 27.6795 20.8262 29.9553 20.8262C32.231 20.8262 34.0846 22.6798 34.0846 24.9555C34.0846 27.2313 32.231 29.0848 29.9553 29.0848Z" fill="white"/>
<path d="M29.9553 13V21.0938" stroke="#231F20" stroke-width="0.67" stroke-linecap="round" stroke-linejoin="round"/>
<path d="M29.9553 28.8274V36.9109" stroke="#231F20" stroke-width="0.67" stroke-linecap="round" stroke-linejoin="round"/>
<path d="M41.9107 24.9658H33.8271" stroke="#231F20" stroke-width="0.67" stroke-linecap="round" stroke-linejoin="round"/>
<path d="M26.0938 24.9658H18" stroke="#231F20" stroke-width="0.67" stroke-linecap="round" stroke-linejoin="round"/>
<path d="M38.4094 16.5012L32.6943 22.2266" stroke="#231F20" stroke-width="0.67" stroke-linecap="round" stroke-linejoin="round"/>
<path d="M27.2266 27.6946L21.5115 33.4097" stroke="#231F20" stroke-width="0.67" stroke-linecap="round" stroke-linejoin="round"/>
<path d="M38.4094 33.4097L32.6943 27.6946" stroke="#231F20" stroke-width="0.67" stroke-linecap="round" stroke-linejoin="round"/>
<path d="M27.2266 22.2266L21.5115 16.5012" stroke="#231F20" stroke-width="0.67" stroke-linecap="round" stroke-linejoin="round"/>
<path d="M25.373 14.1123L28.5241 21.4235" stroke="#231F20" stroke-width="0.67" stroke-linecap="round" stroke-linejoin="round"/>
<path d="M31.4382 28.467L34.5481 35.7988" stroke="#231F20" stroke-width="0.67" stroke-linecap="round" stroke-linejoin="round"/>
<path d="M40.8089 20.373L33.4668 23.4726" stroke="#231F20" stroke-width="0.67" stroke-linecap="round" stroke-linejoin="round"/>
<path d="M26.4542 26.4385L19.1121 29.5483" stroke="#231F20" stroke-width="0.67" stroke-linecap="round" stroke-linejoin="round"/>
<path d="M34.3833 14.0505L31.3867 21.4338" stroke="#231F20" stroke-width="0.67" stroke-linecap="round" stroke-linejoin="round"/>
<path d="M28.5239 28.4875L25.5376 35.8708" stroke="#231F20" stroke-width="0.67" stroke-linecap="round" stroke-linejoin="round"/>
<path d="M40.8706 29.3833L33.4873 26.3867" stroke="#231F20" stroke-width="0.67" stroke-linecap="round" stroke-linejoin="round"/>
<path d="M26.4336 23.5241L19.0503 20.5378" stroke="#231F20" stroke-width="0.67" stroke-linecap="round" stroke-linejoin="round"/>
<path d="M32.365 13.4326L30.6865 21.1557" stroke="#231F20" stroke-width="0.67" stroke-linecap="round" stroke-linejoin="round"/>
<path d="M29.1832 28.6831L27.5562 36.4886" stroke="#231F20" stroke-width="0.67" stroke-linecap="round" stroke-linejoin="round"/>
<path d="M41.4886 27.3653L33.6831 25.7383" stroke="#231F20" stroke-width="0.67" stroke-linecap="round" stroke-linejoin="round"/>
<path d="M26.2381 24.1832L18.4326 22.5562" stroke="#231F20" stroke-width="0.67" stroke-linecap="round" stroke-linejoin="round"/>
<path d="M39.8099 18.5093L33.1475 22.8754" stroke="#231F20" stroke-width="0.67" stroke-linecap="round" stroke-linejoin="round"/>
<path d="M26.7733 27.0457L20.1108 31.4118" stroke="#231F20" stroke-width="0.67" stroke-linecap="round" stroke-linejoin="round"/>
<path d="M32.0459 28.1477L36.412 34.8102V39.444" fill="white"/>
<path d="M32.0459 28.1477L36.412 34.8102V39.444" stroke="#231F20" stroke-width="0.67" stroke-linecap="round" stroke-linejoin="round"/>
<path d="M27.8752 21.7736L23.509 15.1111" stroke="#231F20" stroke-width="0.67" stroke-linecap="round" stroke-linejoin="round"/>
<path d="M27.6797 13.4119L29.2243 21.2277" stroke="#231F20" stroke-width="0.67" stroke-linecap="round" stroke-linejoin="round"/>
<path d="M30.6968 28.6934L32.2414 36.5091" stroke="#231F20" stroke-width="0.67" stroke-linecap="round" stroke-linejoin="round"/>
<path d="M41.5091 22.6797L33.6934 24.2243" stroke="#231F20" stroke-width="0.67" stroke-linecap="round" stroke-linejoin="round"/>
<path d="M26.2277 25.697L18.4119 27.2313" stroke="#231F20" stroke-width="0.67" stroke-linecap="round" stroke-linejoin="round"/>
<path d="M36.5149 15.1833L32.0767 21.7943" stroke="#231F20" stroke-width="0.67" stroke-linecap="round" stroke-linejoin="round"/>
<path d="M27.834 28.1167L23.3958 34.738V39.4439" fill="white"/>
<path d="M27.834 28.1167L23.3958 34.738V39.4439" stroke="#231F20" stroke-width="0.67" stroke-linecap="round" stroke-linejoin="round"/>
<path d="M39.738 31.5149L33.1167 27.0767" stroke="#231F20" stroke-width="0.67" stroke-linecap="round" stroke-linejoin="round"/>
<path d="M26.7941 22.8342L20.1831 18.4062" stroke="#231F20" stroke-width="0.67" stroke-linecap="round" stroke-linejoin="round"/>
</svg>
