<svg width="68" height="71" viewBox="0 0 68 71" fill="none" xmlns="http://www.w3.org/2000/svg">
<g filter="url(#filter0_b_533_863)">
<path d="M30.7124 32.0143L31.5462 25.2246H29.1467C29.0568 25.2246 28.9738 25.1769 28.9301 25.0996C28.8859 25.0218 28.8874 24.9273 28.9336 24.851L34.207 16.2137C34.2676 16.1147 34.3899 16.0704 34.5012 16.1088C34.612 16.1467 34.681 16.256 34.6666 16.3712L33.8328 23.1608H36.2328C36.3222 23.1608 36.4052 23.2086 36.4494 23.2864C36.4932 23.3637 36.4917 23.4587 36.4455 23.5345L31.172 32.1718C31.1258 32.2471 31.0443 32.2905 30.9594 32.2905C30.932 32.2905 30.9047 32.286 30.8779 32.2772C30.7676 32.2392 30.6985 32.13 30.7124 32.0143ZM23.0341 18.9426C23.1265 18.9357 23.207 18.8791 23.2438 18.7949C23.4579 18.3046 24.1685 17.1097 25.3252 16.095C26.4263 15.1296 27.6069 14.5856 28.8466 14.4709C27.107 15.5476 26.0984 16.8227 25.5414 17.7586C24.8417 18.9333 24.6822 19.8298 24.6758 19.8672C24.6639 19.9386 24.6837 20.0115 24.7304 20.0666C24.7776 20.1222 24.8467 20.1542 24.9198 20.1547C24.9451 20.1547 24.9699 20.1552 24.9953 20.1552C29.1875 20.1547 30.6856 18.0624 32.0078 16.2147C33.2793 14.4374 34.3789 12.9028 37.5237 13.0648C37.6355 13.0707 37.7364 13.0028 37.7721 12.8984C37.8079 12.794 37.7696 12.6788 37.6782 12.6163C35.0194 10.7962 32.4053 9.93166 29.909 10.0474C27.8439 10.1424 25.9115 10.9488 24.4666 12.3175C23.4743 13.2573 22.7563 14.4246 22.4453 15.6037C22.1258 16.8114 22.2535 17.9565 22.8045 18.8279C22.8537 18.9052 22.9417 18.9495 23.0341 18.9426ZM32.5128 33.25C26.9326 33.25 22.3928 28.7518 22.3928 23.2229C22.3928 21.8837 22.6543 20.5874 23.1697 19.366C23.1275 19.4263 23.0601 19.4657 22.9844 19.4714C22.892 19.4783 22.804 19.434 22.7548 19.3567C22.6613 19.2087 22.5809 19.0522 22.5119 18.8895C21.9062 20.2579 21.5984 21.7153 21.5984 23.2229C21.5984 26.1116 22.7337 28.8272 24.7951 30.8698C26.8566 32.9123 29.5974 34.0371 32.5128 34.0371C34.5663 34.0371 36.5672 33.469 38.2993 32.3942C39.9543 31.3672 41.3004 29.921 42.1998 28.2086H41.2962C39.492 31.3311 36.1723 33.25 32.5128 33.25ZM44.3941 15.8585C44.3941 15.4811 44.0836 15.174 43.7018 15.174C43.3201 15.174 43.011 15.4811 43.011 15.8585V18.755H44.3941V15.8585ZM40.8208 26.4101V27.5128C40.8208 27.6229 40.9146 27.7159 41.0257 27.7159H42.7187C42.8298 27.7159 42.9237 27.6229 42.9237 27.5128V26.4101C42.5918 26.5147 42.2386 26.5715 41.8722 26.5715C41.5058 26.5715 41.1527 26.5147 40.8208 26.4101ZM40.7335 15.8585C40.7335 15.4811 40.4236 15.174 40.0426 15.174C39.6616 15.174 39.3503 15.4811 39.3503 15.8585V18.755H40.7335V15.8585ZM38.9425 21.3159C38.9258 21.3159 38.9092 21.3152 38.8926 21.3146V23.1266C38.8926 24.7545 40.2292 26.0789 41.8722 26.0789C43.5152 26.0789 44.8519 24.7545 44.8519 23.1266V21.3146C44.8353 21.3152 44.8187 21.3159 44.8019 21.3159H38.9425ZM38.1475 19.2477V20.0354C38.1475 20.4698 38.5041 20.8232 38.9425 20.8232H44.8019C45.2411 20.8232 45.5984 20.4698 45.5984 20.0354V19.2477H38.1475Z" fill="#D3D3D3"/>
<path d="M10.4698 49.1309H9.34276L8.00582 47.2343H6.8088V49.1309H5.85273V43.6898H8.27787C9.52931 43.6898 10.2988 44.3505 10.2988 45.4154C10.2988 46.3171 9.76249 46.8612 9.00075 47.071L10.4698 49.1309ZM9.32721 45.4698C9.32721 44.8713 8.90748 44.5604 8.20014 44.5604H6.8088V46.387H8.20792C8.89193 46.387 9.32721 46.0295 9.32721 45.4698ZM13.7473 47.3431V45.0268H14.6878V49.1309H13.7473V48.4935C13.483 48.8821 13.1022 49.2164 12.4648 49.2164C11.5398 49.2164 11.0035 48.5945 11.0035 47.6385V45.0268H11.944V47.3586C11.944 47.996 12.2627 48.3613 12.8223 48.3613C13.3664 48.3613 13.7473 47.9805 13.7473 47.3431ZM16.4998 46.8145V49.1309H15.5593V45.0268H16.4998V45.6641C16.7641 45.2755 17.145 44.9413 17.7824 44.9413C18.7073 44.9413 19.2437 45.5631 19.2437 46.5192V49.1309H18.3031V46.799C18.3031 46.1616 17.9845 45.7963 17.4248 45.7963C16.8807 45.7963 16.4998 46.1772 16.4998 46.8145ZM22.9989 47.9183C22.9989 48.7811 22.3304 49.2086 21.4754 49.2086C20.8924 49.2086 20.2473 48.9987 19.7343 48.5945L20.154 47.9572C20.5971 48.2914 21.079 48.4624 21.4987 48.4624C21.9029 48.4624 22.1361 48.2914 22.1361 48.0193V48.0038C22.1361 47.6851 21.7008 47.5763 21.2189 47.4286C20.6126 47.2576 19.9364 47.0089 19.9364 46.2238V46.2083C19.9364 45.431 20.5815 44.9568 21.3977 44.9568C21.9107 44.9568 22.4703 45.1356 22.9056 45.4232L22.5325 46.0917C22.1361 45.8507 21.7163 45.703 21.3743 45.703C21.009 45.703 20.7991 45.874 20.7991 46.115V46.1305C20.7991 46.4259 21.2422 46.5503 21.7241 46.7057C22.3226 46.8923 22.9989 47.1643 22.9989 47.9027V47.9183ZM28.0653 44.5215H25.7101V43.6898H29.3089V44.4049L27.7932 45.9595C28.6249 46.0683 29.3944 46.4803 29.3944 47.4986C29.3944 48.509 28.6172 49.2241 27.4901 49.2241C26.5418 49.2241 25.8656 48.8277 25.407 48.2681L26.0754 47.6462C26.4641 48.1048 26.8993 48.3613 27.5056 48.3613C28.042 48.3613 28.4462 48.0349 28.4462 47.5296C28.4462 46.9855 27.9642 46.6824 27.1947 46.6824H26.7517L26.5962 46.0839L28.0653 44.5215ZM34.9456 49.1309H33.8185L32.3883 47.071L30.9503 49.1309H29.8543L31.8364 46.3637L29.9321 43.6898H31.0591L32.4116 45.6408L33.7719 43.6898H34.8678L32.9713 46.3482L34.9456 49.1309ZM37.6375 49.1309V43.6898H38.5935V48.2603H41.454V49.1309H37.6375ZM46.1051 47.0788C46.1051 48.2525 45.1723 49.2241 43.9053 49.2241C42.6539 49.2241 41.7289 48.2681 41.7289 47.0944C41.7289 45.9129 42.6617 44.9413 43.9209 44.9413C45.1801 44.9413 46.1051 45.8973 46.1051 47.0788ZM45.1645 47.0944C45.1645 46.3637 44.6438 45.7652 43.9053 45.7652C43.1514 45.7652 42.6695 46.3559 42.6695 47.0788C42.6695 47.8095 43.1902 48.408 43.9209 48.408C44.6826 48.408 45.1645 47.8172 45.1645 47.0944ZM47.6925 46.8145V49.1309H46.752V45.0268H47.6925V45.6641C47.9568 45.2755 48.3377 44.9413 48.975 44.9413C49.9 44.9413 50.4363 45.5631 50.4363 46.5192V49.1309H49.4958V46.799C49.4958 46.1616 49.1771 45.7963 48.6175 45.7963C48.0734 45.7963 47.6925 46.1772 47.6925 46.8145ZM55.2953 48.2914C55.2953 49.7449 54.5025 50.3901 53.0878 50.3901C52.4116 50.3901 51.782 50.2191 51.2534 49.9004L51.6032 49.193C52.0385 49.4651 52.5048 49.6283 53.0645 49.6283C53.904 49.6283 54.3626 49.193 54.3626 48.3691V48.0504C54.0205 48.4935 53.593 48.8044 52.9168 48.8044C51.953 48.8044 51.0513 48.0971 51.0513 46.8767C51.0513 45.6564 51.9607 44.9413 52.9168 44.9413C53.6086 44.9413 54.0361 45.26 54.3548 45.6408V45.0268H55.2953V48.2914ZM54.3703 46.8767C54.3703 46.1849 53.8185 45.7341 53.1655 45.7341C52.5126 45.7341 51.9996 46.1849 51.9996 46.8689C51.9996 47.553 52.5204 48.0116 53.1655 48.0116C53.8185 48.0116 54.3703 47.553 54.3703 46.8767ZM56.8726 47.4131C56.9814 48.0815 57.4478 48.4546 58.0541 48.4546C58.5127 48.4546 58.8391 48.2836 59.1656 47.9649L59.7175 48.4546C59.3288 48.921 58.7925 49.2241 58.0385 49.2241C56.8493 49.2241 55.9321 48.3613 55.9321 47.0866C55.9321 45.9051 56.7638 44.9413 57.9375 44.9413C59.2433 44.9413 59.904 45.9673 59.904 47.1565C59.904 47.242 59.8962 47.3198 59.8885 47.4131H56.8726ZM56.8648 46.7912H58.9713C58.9091 46.1849 58.5515 45.7108 57.9297 45.7108C57.3545 45.7108 56.9503 46.1538 56.8648 46.7912ZM61.4781 47.5685V49.1309H60.5376V45.0268H61.4781V45.9517C61.7347 45.3377 62.2088 44.918 62.9317 44.949V45.944H62.8773C62.0533 45.944 61.4781 46.4803 61.4781 47.5685ZM18.9661 56.0788C18.9661 57.2525 18.0334 58.2241 16.7664 58.2241C15.515 58.2241 14.59 57.2681 14.59 56.0944C14.59 54.9129 15.5228 53.9413 16.782 53.9413C18.0412 53.9413 18.9661 54.8973 18.9661 56.0788ZM18.0256 56.0944C18.0256 55.3637 17.5048 54.7652 16.7664 54.7652C16.0124 54.7652 15.5305 55.3559 15.5305 56.0788C15.5305 56.8095 16.0513 57.408 16.782 57.408C17.5437 57.408 18.0256 56.8172 18.0256 56.0944ZM20.5536 55.8145V58.1309H19.6131V54.0268H20.5536V54.6641C20.8179 54.2755 21.1987 53.9413 21.8361 53.9413C22.7611 53.9413 23.2974 54.5631 23.2974 55.5192V58.1309H22.3569V55.799C22.3569 55.1616 22.0382 54.7963 21.4785 54.7963C20.9344 54.7963 20.5536 55.1772 20.5536 55.8145ZM26.3049 52.6898H27.261V58.1309H26.3049V52.6898ZM29.2383 55.8145V58.1309H28.2977V54.0268H29.2383V54.6641C29.5025 54.2755 29.8834 53.9413 30.5208 53.9413C31.4458 53.9413 31.9821 54.5631 31.9821 55.5192V58.1309H31.0416V55.799C31.0416 55.1616 30.7229 54.7963 30.1632 54.7963C29.6191 54.7963 29.2383 55.1772 29.2383 55.8145ZM34.3807 57.0427L35.4922 54.0268H36.4794L34.8004 58.162H33.9532L32.2665 54.0268H33.2769L34.3807 57.0427ZM37.4467 56.4131C37.5556 57.0815 38.0219 57.4546 38.6282 57.4546C39.0868 57.4546 39.4133 57.2836 39.7397 56.9649L40.2916 57.4546C39.903 57.921 39.3666 58.2241 38.6127 58.2241C37.4234 58.2241 36.5062 57.3613 36.5062 56.0866C36.5062 54.9051 37.3379 53.9413 38.5116 53.9413C39.8175 53.9413 40.4782 54.9673 40.4782 56.1565C40.4782 56.242 40.4704 56.3198 40.4626 56.4131H37.4467ZM37.439 55.7912H39.5454C39.4832 55.1849 39.1257 54.7108 38.5039 54.7108C37.9287 54.7108 37.5245 55.1538 37.439 55.7912ZM42.0523 56.5685V58.1309H41.1118V54.0268H42.0523V54.9517C42.3088 54.3377 42.783 53.918 43.5058 53.949V54.944H43.4514C42.6275 54.944 42.0523 55.4803 42.0523 56.5685ZM45.1466 54.8352V56.8483C45.1466 57.2137 45.3331 57.3613 45.6518 57.3613C45.8617 57.3613 46.0482 57.3147 46.2348 57.2214V57.9909C46.0016 58.1231 45.7373 58.2008 45.3875 58.2008C44.6958 58.2008 44.2061 57.8977 44.2061 56.996V54.8352H43.6853V54.0268H44.2061V52.8997H45.1466V54.0268H46.2503V54.8352H45.1466ZM47.4902 56.4131C47.599 57.0815 48.0654 57.4546 48.6716 57.4546C49.1302 57.4546 49.4567 57.2836 49.7832 56.9649L50.335 57.4546C49.9464 57.921 49.4101 58.2241 48.6561 58.2241C47.4668 58.2241 46.5496 57.3613 46.5496 56.0866C46.5496 54.9051 47.3813 53.9413 48.5551 53.9413C49.8609 53.9413 50.5216 54.9673 50.5216 56.1565C50.5216 56.242 50.5138 56.3198 50.506 56.4131H47.4902ZM47.4824 55.7912H49.5888C49.5267 55.1849 49.1691 54.7108 48.5473 54.7108C47.9721 54.7108 47.5679 55.1538 47.4824 55.7912ZM52.0957 56.5685V58.1309H51.1552V54.0268H52.0957V54.9517C52.3522 54.3377 52.8264 53.918 53.5493 53.949V54.944H53.4948C52.6709 54.944 52.0957 55.4803 52.0957 56.5685Z" fill="white" fill-opacity="0.7"/>
</g>
<defs>
<filter id="filter0_b_533_863" x="-7.3086" y="-7.41016" width="82.6172" height="85.8203" filterUnits="userSpaceOnUse" color-interpolation-filters="sRGB">
<feFlood flood-opacity="0" result="BackgroundImageFix"/>
<feGaussianBlur in="BackgroundImageFix" stdDeviation="3.70508"/>
<feComposite in2="SourceAlpha" operator="in" result="effect1_backgroundBlur_533_863"/>
<feBlend mode="normal" in="SourceGraphic" in2="effect1_backgroundBlur_533_863" result="shape"/>
</filter>
</defs>
</svg>
