<svg width="61" height="82" viewBox="0 0 61 82" fill="none" xmlns="http://www.w3.org/2000/svg">
<path d="M5.45779 59V53.9091H7.17796C7.57568 53.9091 7.90215 53.977 8.15736 54.1129C8.41257 54.2472 8.60149 54.4319 8.72412 54.6673C8.84675 54.9026 8.90807 55.1702 8.90807 55.4702C8.90807 55.7701 8.84675 56.0361 8.72412 56.2681C8.60149 56.5001 8.4134 56.6824 8.15985 56.815C7.90629 56.9459 7.58231 57.0114 7.1879 57.0114H5.79585V56.4545H7.16801C7.43979 56.4545 7.65854 56.4148 7.82426 56.3352C7.99164 56.2557 8.11262 56.143 8.18719 55.9972C8.26342 55.8497 8.30154 55.674 8.30154 55.4702C8.30154 55.2663 8.26342 55.0882 8.18719 54.9357C8.11096 54.7833 7.98915 54.6656 7.82178 54.5827C7.6544 54.4982 7.43316 54.456 7.15807 54.456H6.07426V59H5.45779ZM7.85409 56.7131L9.10693 59H8.39102L7.15807 56.7131H7.85409ZM12.262 57.4389V55.1818H12.8487V59H12.262V58.3537H12.2223C12.1328 58.5476 11.9936 58.7125 11.8046 58.8484C11.6157 58.9826 11.3771 59.0497 11.0887 59.0497C10.8501 59.0497 10.638 58.9975 10.4524 58.8931C10.2668 58.7871 10.1209 58.628 10.0149 58.4158C9.90881 58.2021 9.85578 57.9328 9.85578 57.608V55.1818H10.4424V57.5682C10.4424 57.8466 10.5203 58.0687 10.6761 58.2344C10.8335 58.4001 11.034 58.483 11.2777 58.483C11.4235 58.483 11.5718 58.4457 11.7226 58.3711C11.8751 58.2965 12.0027 58.1822 12.1054 58.0281C12.2098 57.8739 12.262 57.6776 12.262 57.4389ZM14.5098 56.7031V59H13.9232V55.1818H14.4899V55.7784H14.5396C14.6291 55.5845 14.765 55.4287 14.9473 55.3111C15.1296 55.1918 15.3649 55.1321 15.6533 55.1321C15.9118 55.1321 16.138 55.1851 16.3319 55.2912C16.5258 55.3956 16.6766 55.5547 16.7843 55.7685C16.892 55.9806 16.9459 56.2491 16.9459 56.5739V59H16.3592V56.6136C16.3592 56.3137 16.2814 56.08 16.1256 55.9126C15.9698 55.7436 15.756 55.6591 15.4842 55.6591C15.297 55.6591 15.1296 55.6997 14.9821 55.7809C14.8363 55.8621 14.7211 55.9806 14.6366 56.1364C14.5521 56.2921 14.5098 56.4811 14.5098 56.7031ZM20.7224 56.0369L20.1954 56.1861C20.1623 56.0982 20.1134 56.0129 20.0488 55.93C19.9858 55.8455 19.8996 55.7759 19.7903 55.7212C19.6809 55.6665 19.5409 55.6392 19.3702 55.6392C19.1365 55.6392 18.9418 55.6931 18.786 55.8008C18.6319 55.9068 18.5548 56.0419 18.5548 56.206C18.5548 56.3518 18.6079 56.467 18.7139 56.5515C18.82 56.636 18.9857 56.7064 19.2111 56.7628L19.7778 56.902C20.1192 56.9848 20.3736 57.1116 20.541 57.2823C20.7083 57.4513 20.792 57.6693 20.792 57.9361C20.792 58.1548 20.7291 58.3504 20.6031 58.5227C20.4788 58.6951 20.3048 58.831 20.0811 58.9304C19.8574 59.0298 19.5972 59.0795 19.3006 59.0795C18.9111 59.0795 18.5888 58.995 18.3336 58.826C18.0784 58.657 17.9168 58.41 17.8489 58.0852L18.4057 57.946C18.4587 58.1515 18.559 58.3056 18.7065 58.4084C18.8556 58.5111 19.0503 58.5625 19.2906 58.5625C19.5641 58.5625 19.7811 58.5045 19.9419 58.3885C20.1043 58.2708 20.1855 58.13 20.1855 57.9659C20.1855 57.8333 20.1391 57.7223 20.0463 57.6328C19.9535 57.5417 19.811 57.4737 19.6187 57.429L18.9824 57.2798C18.6327 57.197 18.3758 57.0685 18.2118 56.8945C18.0494 56.7189 17.9682 56.4993 17.9682 56.2358C17.9682 56.0204 18.0287 55.8298 18.1496 55.6641C18.2723 55.4983 18.4388 55.3683 18.6493 55.2738C18.8614 55.1793 19.1017 55.1321 19.3702 55.1321C19.748 55.1321 20.0446 55.215 20.2601 55.3807C20.4772 55.5464 20.6313 55.7652 20.7224 56.0369ZM25.3541 59.0696C25.026 59.0696 24.7335 59.0133 24.4766 58.9006C24.2214 58.7879 24.0184 58.6313 23.8676 58.4308C23.7184 58.2286 23.6372 57.9941 23.624 57.7273H24.2504C24.2637 57.8913 24.32 58.033 24.4194 58.1523C24.5189 58.27 24.649 58.3612 24.8097 58.4258C24.9705 58.4904 25.1486 58.5227 25.3441 58.5227C25.5629 58.5227 25.7568 58.4846 25.9258 58.4084C26.0949 58.3321 26.2274 58.2261 26.3236 58.0902C26.4197 57.9543 26.4677 57.7969 26.4677 57.6179C26.4677 57.4306 26.4213 57.2657 26.3285 57.1232C26.2357 56.979 26.0998 56.8664 25.9209 56.7852C25.7419 56.704 25.5231 56.6634 25.2646 56.6634H24.8569V56.1165H25.2646C25.4668 56.1165 25.6441 56.08 25.7966 56.0071C25.9507 55.9342 26.0708 55.8314 26.157 55.6989C26.2448 55.5663 26.2888 55.4105 26.2888 55.2315C26.2888 55.0592 26.2506 54.9092 26.1744 54.7816C26.0982 54.654 25.9905 54.5546 25.8513 54.4833C25.7137 54.4121 25.5513 54.3764 25.364 54.3764C25.1884 54.3764 25.0227 54.4087 24.8669 54.4734C24.7128 54.5363 24.5868 54.6283 24.489 54.7493C24.3913 54.8686 24.3382 55.0128 24.3299 55.1818H23.7334C23.7433 54.915 23.8237 54.6813 23.9745 54.4808C24.1253 54.2786 24.3225 54.1212 24.5661 54.0085C24.8114 53.8958 25.0807 53.8395 25.374 53.8395C25.6888 53.8395 25.959 53.9033 26.1843 54.0309C26.4097 54.1568 26.5829 54.3234 26.7039 54.5305C26.8249 54.7377 26.8853 54.9614 26.8853 55.2017C26.8853 55.4884 26.8099 55.7328 26.6591 55.935C26.51 56.1372 26.307 56.2772 26.0501 56.3551V56.3949C26.3716 56.4479 26.6227 56.5846 26.8033 56.805C26.9839 57.0238 27.0743 57.2947 27.0743 57.6179C27.0743 57.8946 26.9989 58.1432 26.8481 58.3636C26.6989 58.5824 26.4951 58.7547 26.2366 58.8807C25.978 59.0066 25.6839 59.0696 25.3541 59.0696ZM28.5384 55.1818L29.4532 56.7429L30.3679 55.1818H31.0441L29.8111 57.0909L31.0441 59H30.3679L29.4532 57.5185L28.5384 59H27.8623L29.0753 57.0909L27.8623 55.1818H28.5384ZM34.4366 53.9091V59H33.8499V53.9091H34.4366ZM37.0622 59.0795C36.7175 59.0795 36.4151 58.9975 36.1549 58.8335C35.8964 58.6694 35.6942 58.4399 35.5483 58.1449C35.4042 57.8499 35.3321 57.5052 35.3321 57.1108C35.3321 56.7131 35.4042 56.3659 35.5483 56.0692C35.6942 55.7726 35.8964 55.5423 36.1549 55.3782C36.4151 55.2141 36.7175 55.1321 37.0622 55.1321C37.4069 55.1321 37.7085 55.2141 37.967 55.3782C38.2272 55.5423 38.4294 55.7726 38.5736 56.0692C38.7194 56.3659 38.7923 56.7131 38.7923 57.1108C38.7923 57.5052 38.7194 57.8499 38.5736 58.1449C38.4294 58.4399 38.2272 58.6694 37.967 58.8335C37.7085 58.9975 37.4069 59.0795 37.0622 59.0795ZM37.0622 58.5526C37.324 58.5526 37.5395 58.4854 37.7085 58.3512C37.8775 58.217 38.0026 58.0405 38.0839 57.8217C38.1651 57.603 38.2057 57.366 38.2057 57.1108C38.2057 56.8556 38.1651 56.6178 38.0839 56.3974C38.0026 56.177 37.8775 55.9988 37.7085 55.8629C37.5395 55.727 37.324 55.6591 37.0622 55.6591C36.8004 55.6591 36.5849 55.727 36.4159 55.8629C36.2468 55.9988 36.1217 56.177 36.0405 56.3974C35.9593 56.6178 35.9187 56.8556 35.9187 57.1108C35.9187 57.366 35.9593 57.603 36.0405 57.8217C36.1217 58.0405 36.2468 58.217 36.4159 58.3512C36.5849 58.4854 36.8004 58.5526 37.0622 58.5526ZM40.2745 56.7031V59H39.6878V55.1818H40.2546V55.7784H40.3043C40.3938 55.5845 40.5297 55.4287 40.712 55.3111C40.8943 55.1918 41.1296 55.1321 41.4179 55.1321C41.6764 55.1321 41.9027 55.1851 42.0965 55.2912C42.2904 55.3956 42.4412 55.5547 42.549 55.7685C42.6567 55.9806 42.7105 56.2491 42.7105 56.5739V59H42.1239V56.6136C42.1239 56.3137 42.046 56.08 41.8902 55.9126C41.7344 55.7436 41.5207 55.6591 41.2489 55.6591C41.0616 55.6591 40.8943 55.6997 40.7468 55.7809C40.6009 55.8621 40.4858 55.9806 40.4012 56.1364C40.3167 56.2921 40.2745 56.4811 40.2745 56.7031ZM45.3237 60.5114C45.0403 60.5114 44.7967 60.4749 44.5929 60.402C44.3891 60.3307 44.2192 60.2363 44.0833 60.1186C43.9491 60.0026 43.8422 59.8783 43.7627 59.7457L44.23 59.4176C44.283 59.4872 44.3501 59.5668 44.4313 59.6562C44.5125 59.7474 44.6236 59.8261 44.7644 59.8924C44.9069 59.9603 45.0934 59.9943 45.3237 59.9943C45.632 59.9943 45.8863 59.9197 46.0869 59.7706C46.2874 59.6214 46.3877 59.3878 46.3877 59.0696V58.294H46.3379C46.2948 58.3636 46.2335 58.4498 46.154 58.5526C46.0761 58.6536 45.9634 58.744 45.8159 58.8235C45.6701 58.9014 45.4729 58.9403 45.2243 58.9403C44.9161 58.9403 44.6393 58.8674 44.394 58.7216C44.1504 58.5758 43.9574 58.3636 43.8149 58.0852C43.674 57.8068 43.6036 57.4687 43.6036 57.071C43.6036 56.6799 43.6723 56.3394 43.8099 56.0494C43.9474 55.7577 44.1388 55.5323 44.3841 55.3732C44.6294 55.2125 44.9127 55.1321 45.2342 55.1321C45.4828 55.1321 45.68 55.1735 45.8259 55.2564C45.9734 55.3376 46.086 55.4304 46.1639 55.5348C46.2435 55.6375 46.3048 55.7221 46.3479 55.7884H46.4075V55.1818H46.9743V59.1094C46.9743 59.4375 46.8997 59.7043 46.7506 59.9098C46.6031 60.117 46.4042 60.2686 46.154 60.3647C45.9054 60.4625 45.6287 60.5114 45.3237 60.5114ZM45.3038 58.4134C45.5392 58.4134 45.738 58.3595 45.9004 58.2518C46.0628 58.1441 46.1863 57.9891 46.2708 57.7869C46.3553 57.5848 46.3976 57.3428 46.3976 57.0611C46.3976 56.786 46.3562 56.5432 46.2733 56.3327C46.1904 56.1223 46.0678 55.9574 45.9054 55.8381C45.743 55.7187 45.5425 55.6591 45.3038 55.6591C45.0553 55.6591 44.8481 55.7221 44.6824 55.848C44.5183 55.974 44.3949 56.143 44.312 56.3551C44.2308 56.5672 44.1902 56.8026 44.1902 57.0611C44.1902 57.3262 44.2316 57.5607 44.3145 57.7646C44.399 57.9667 44.5233 58.1258 44.6874 58.2418C44.8531 58.3562 45.0586 58.4134 45.3038 58.4134ZM49.649 59.0795C49.2811 59.0795 48.9638 58.9983 48.697 58.8359C48.4318 58.6719 48.2271 58.4432 48.083 58.1499C47.9404 57.8549 47.8692 57.5118 47.8692 57.1207C47.8692 56.7296 47.9404 56.3849 48.083 56.0866C48.2271 55.7867 48.4277 55.553 48.6845 55.3857C48.943 55.2166 49.2447 55.1321 49.5894 55.1321C49.7882 55.1321 49.9846 55.1652 50.1785 55.2315C50.3724 55.2978 50.5489 55.4055 50.708 55.5547C50.8671 55.7022 50.9938 55.8977 51.0883 56.1413C51.1828 56.3849 51.23 56.6849 51.23 57.0412V57.2898H48.2868V56.7827H50.6334C50.6334 56.5672 50.5903 56.375 50.5041 56.206C50.4196 56.0369 50.2986 55.9035 50.1412 55.8058C49.9854 55.708 49.8015 55.6591 49.5894 55.6591C49.3557 55.6591 49.1535 55.7171 48.9828 55.8331C48.8138 55.9474 48.6837 56.0966 48.5926 56.2805C48.5014 56.4645 48.4558 56.6617 48.4558 56.8722V57.2102C48.4558 57.4986 48.5055 57.743 48.605 57.9435C48.7061 58.1424 48.8461 58.294 49.0251 58.3984C49.2041 58.5012 49.412 58.5526 49.649 58.5526C49.8031 58.5526 49.9423 58.531 50.0666 58.4879C50.1926 58.4432 50.3011 58.3769 50.3923 58.2891C50.4834 58.1996 50.5538 58.0885 50.6036 57.956L51.1703 58.1151C51.1107 58.3073 51.0104 58.4763 50.8695 58.6222C50.7287 58.7663 50.5547 58.879 50.3475 58.9602C50.1404 59.0398 49.9075 59.0795 49.649 59.0795ZM52.1224 59V55.1818H52.6891V55.7585H52.7289C52.7985 55.5696 52.9245 55.4163 53.1068 55.2987C53.289 55.181 53.4945 55.1222 53.7232 55.1222C53.7663 55.1222 53.8202 55.123 53.8848 55.1246C53.9494 55.1263 53.9983 55.1288 54.0315 55.1321V55.7287C54.0116 55.7237 53.966 55.7163 53.8948 55.7063C53.8252 55.6947 53.7514 55.6889 53.6735 55.6889C53.4879 55.6889 53.3222 55.7279 53.1764 55.8058C53.0322 55.882 52.9178 55.988 52.8333 56.1239C52.7505 56.2582 52.709 56.4115 52.709 56.5838V59H52.1224ZM14.6335 69.0795C14.2888 69.0795 13.9863 68.9975 13.7262 68.8335C13.4676 68.6694 13.2655 68.4399 13.1196 68.1449C12.9755 67.8499 12.9034 67.5052 12.9034 67.1108C12.9034 66.7131 12.9755 66.3659 13.1196 66.0692C13.2655 65.7726 13.4676 65.5423 13.7262 65.3782C13.9863 65.2141 14.2888 65.1321 14.6335 65.1321C14.9782 65.1321 15.2798 65.2141 15.5383 65.3782C15.7985 65.5423 16.0007 65.7726 16.1448 66.0692C16.2907 66.3659 16.3636 66.7131 16.3636 67.1108C16.3636 67.5052 16.2907 67.8499 16.1448 68.1449C16.0007 68.4399 15.7985 68.6694 15.5383 68.8335C15.2798 68.9975 14.9782 69.0795 14.6335 69.0795ZM14.6335 68.5526C14.8953 68.5526 15.1108 68.4854 15.2798 68.3512C15.4488 68.217 15.5739 68.0405 15.6551 67.8217C15.7363 67.603 15.7769 67.366 15.7769 67.1108C15.7769 66.8556 15.7363 66.6178 15.6551 66.3974C15.5739 66.177 15.4488 65.9988 15.2798 65.8629C15.1108 65.727 14.8953 65.6591 14.6335 65.6591C14.3716 65.6591 14.1562 65.727 13.9872 65.8629C13.8181 65.9988 13.693 66.177 13.6118 66.3974C13.5306 66.6178 13.49 66.8556 13.49 67.1108C13.49 67.366 13.5306 67.603 13.6118 67.8217C13.693 68.0405 13.8181 68.217 13.9872 68.3512C14.1562 68.4854 14.3716 68.5526 14.6335 68.5526ZM17.8457 66.7031V69H17.2591V65.1818H17.8259V65.7784H17.8756C17.9651 65.5845 18.101 65.4287 18.2832 65.3111C18.4655 65.1918 18.7009 65.1321 18.9892 65.1321C19.2477 65.1321 19.4739 65.1851 19.6678 65.2912C19.8617 65.3956 20.0125 65.5547 20.1203 65.7685C20.228 65.9806 20.2818 66.2491 20.2818 66.5739V69H19.6952V66.6136C19.6952 66.3137 19.6173 66.08 19.4615 65.9126C19.3057 65.7436 19.092 65.6591 18.8202 65.6591C18.6329 65.6591 18.4655 65.6997 18.318 65.7809C18.1722 65.8621 18.057 65.9806 17.9725 66.1364C17.888 66.2921 17.8457 66.4811 17.8457 66.7031ZM24.0186 63.9091V69H23.4021V63.9091H24.0186ZM25.7618 66.7031V69H25.1751V65.1818H25.7419V65.7784H25.7916C25.8811 65.5845 26.017 65.4287 26.1993 65.3111C26.3816 65.1918 26.6169 65.1321 26.9052 65.1321C27.1638 65.1321 27.39 65.1851 27.5839 65.2912C27.7777 65.3956 27.9285 65.5547 28.0363 65.7685C28.144 65.9806 28.1978 66.2491 28.1978 66.5739V69H27.6112V66.6136C27.6112 66.3137 27.5333 66.08 27.3775 65.9126C27.2218 65.7436 27.008 65.6591 26.7362 65.6591C26.5489 65.6591 26.3816 65.6997 26.2341 65.7809C26.0882 65.8621 25.9731 65.9806 25.8885 66.1364C25.804 66.2921 25.7618 66.4811 25.7618 66.7031ZM32.2553 65.1818L30.8434 69H30.2468L28.8348 65.1818H29.4712L30.5252 68.2244H30.5649L31.6189 65.1818H32.2553ZM34.4937 69.0795C34.1258 69.0795 33.8085 68.9983 33.5417 68.8359C33.2765 68.6719 33.0719 68.4432 32.9277 68.1499C32.7852 67.8549 32.7139 67.5118 32.7139 67.1207C32.7139 66.7296 32.7852 66.3849 32.9277 66.0866C33.0719 65.7867 33.2724 65.553 33.5293 65.3857C33.7878 65.2166 34.0894 65.1321 34.4341 65.1321C34.6329 65.1321 34.8293 65.1652 35.0232 65.2315C35.2171 65.2978 35.3936 65.4055 35.5527 65.5547C35.7118 65.7022 35.8386 65.8977 35.933 66.1413C36.0275 66.3849 36.0747 66.6849 36.0747 67.0412V67.2898H33.1315V66.7827H35.4781C35.4781 66.5672 35.435 66.375 35.3489 66.206C35.2643 66.0369 35.1434 65.9035 34.9859 65.8058C34.8302 65.708 34.6462 65.6591 34.4341 65.6591C34.2004 65.6591 33.9982 65.7171 33.8275 65.8331C33.6585 65.9474 33.5284 66.0966 33.4373 66.2805C33.3461 66.4645 33.3006 66.6617 33.3006 66.8722V67.2102C33.3006 67.4986 33.3503 67.743 33.4497 67.9435C33.5508 68.1424 33.6908 68.294 33.8698 68.3984C34.0488 68.5012 34.2568 68.5526 34.4937 68.5526C34.6479 68.5526 34.7871 68.531 34.9114 68.4879C35.0373 68.4432 35.1458 68.3769 35.237 68.2891C35.3281 68.1996 35.3986 68.0885 35.4483 67.956L36.015 68.1151C35.9554 68.3073 35.8551 68.4763 35.7143 68.6222C35.5734 68.7663 35.3994 68.879 35.1922 68.9602C34.9851 69.0398 34.7523 69.0795 34.4937 69.0795ZM36.9671 69V65.1818H37.5339V65.7585H37.5736C37.6432 65.5696 37.7692 65.4163 37.9515 65.2987C38.1338 65.181 38.3393 65.1222 38.568 65.1222C38.611 65.1222 38.6649 65.123 38.7295 65.1246C38.7942 65.1263 38.8431 65.1288 38.8762 65.1321V65.7287C38.8563 65.7237 38.8107 65.7163 38.7395 65.7063C38.6699 65.6947 38.5961 65.6889 38.5182 65.6889C38.3326 65.6889 38.1669 65.7279 38.0211 65.8058C37.8769 65.882 37.7626 65.988 37.678 66.1239C37.5952 66.2582 37.5538 66.4115 37.5538 66.5838V69H36.9671ZM41.4714 65.1818V65.679H39.4927V65.1818H41.4714ZM40.0694 64.267H40.656V67.9062C40.656 68.072 40.6801 68.1963 40.7281 68.2791C40.7778 68.3603 40.8408 68.415 40.917 68.4432C40.9949 68.4697 41.077 68.483 41.1631 68.483C41.2278 68.483 41.2808 68.4796 41.3222 68.473C41.3637 68.4647 41.3968 68.4581 41.4217 68.4531L41.541 68.9801C41.5012 68.995 41.4457 69.0099 41.3744 69.0249C41.3032 69.0414 41.2128 69.0497 41.1035 69.0497C40.9378 69.0497 40.7753 69.0141 40.6163 68.9428C40.4588 68.8716 40.3279 68.763 40.2235 68.6172C40.1208 68.4714 40.0694 68.2874 40.0694 68.0653V64.267ZM43.9137 69.0795C43.5458 69.0795 43.2284 68.9983 42.9616 68.8359C42.6965 68.6719 42.4918 68.4432 42.3476 68.1499C42.2051 67.8549 42.1338 67.5118 42.1338 67.1207C42.1338 66.7296 42.2051 66.3849 42.3476 66.0866C42.4918 65.7867 42.6923 65.553 42.9492 65.3857C43.2077 65.2166 43.5093 65.1321 43.854 65.1321C44.0529 65.1321 44.2492 65.1652 44.4431 65.2315C44.637 65.2978 44.8135 65.4055 44.9726 65.5547C45.1317 65.7022 45.2585 65.8977 45.3529 66.1413C45.4474 66.3849 45.4946 66.6849 45.4946 67.0412V67.2898H42.5514V66.7827H44.898C44.898 66.5672 44.855 66.375 44.7688 66.206C44.6843 66.0369 44.5633 65.9035 44.4059 65.8058C44.2501 65.708 44.0661 65.6591 43.854 65.6591C43.6203 65.6591 43.4182 65.7171 43.2475 65.8331C43.0784 65.9474 42.9483 66.0966 42.8572 66.2805C42.7661 66.4645 42.7205 66.6617 42.7205 66.8722V67.2102C42.7205 67.4986 42.7702 67.743 42.8696 67.9435C42.9707 68.1424 43.1108 68.294 43.2897 68.3984C43.4687 68.5012 43.6767 68.5526 43.9137 68.5526C44.0678 68.5526 44.207 68.531 44.3313 68.4879C44.4572 68.4432 44.5658 68.3769 44.6569 68.2891C44.7481 68.1996 44.8185 68.0885 44.8682 67.956L45.435 68.1151C45.3753 68.3073 45.2751 68.4763 45.1342 68.6222C44.9933 68.7663 44.8193 68.879 44.6122 68.9602C44.405 69.0398 44.1722 69.0795 43.9137 69.0795ZM46.387 69V65.1818H46.9538V65.7585H46.9936C47.0632 65.5696 47.1891 65.4163 47.3714 65.2987C47.5537 65.181 47.7592 65.1222 47.9879 65.1222C48.031 65.1222 48.0848 65.123 48.1495 65.1246C48.2141 65.1263 48.263 65.1288 48.2961 65.1321V65.7287C48.2762 65.7237 48.2307 65.7163 48.1594 65.7063C48.0898 65.6947 48.0161 65.6889 47.9382 65.6889C47.7526 65.6889 47.5868 65.7279 47.441 65.8058C47.2968 65.882 47.1825 65.988 47.098 66.1239C47.0151 66.2582 46.9737 66.4115 46.9737 66.5838V69H46.387Z" fill="#E5C152"/>
<path d="M30 44C39.9411 44 48 35.9411 48 26C48 16.0589 39.9411 8 30 8C20.0589 8 12 16.0589 12 26C12 35.9411 20.0589 44 30 44Z" fill="#E6C252"/>
<path d="M40.9347 21.1431C40.9347 20.9477 40.9277 20.7523 40.9064 20.5569C40.6938 18.154 38.6741 16.2577 36.3001 16.2505C33.9899 16.2505 31.6796 16.2505 29.3694 16.2505C29.1001 16.2505 28.9229 16.3591 28.8025 16.6051C28.4269 17.3868 28.0442 18.1612 27.6686 18.9357C27.619 19.0442 27.5623 19.0949 27.4347 19.0876C27.13 19.0804 26.8182 19.0876 26.5135 19.0876C26.4568 19.0876 26.4001 19.0876 26.3363 19.0804C26.3363 18.7619 26.3363 18.4652 26.3363 18.1757C26.3221 17.5243 25.819 16.9815 25.1812 16.967C24.4513 16.9525 23.7213 16.9525 22.9914 16.967C22.4316 16.9743 21.9497 17.394 21.8647 17.9586C21.8151 18.2626 21.8434 18.581 21.8292 18.8922C21.8292 18.9574 21.8292 19.0153 21.8221 19.0876C21.5316 19.0876 21.2694 19.0876 21.0001 19.0876C19.8804 19.0876 19.0513 19.9344 19.0513 21.0852C19.0513 24.8343 19.0513 28.5834 19.0513 32.3253C19.0513 33.2083 19.5119 33.9031 20.3198 34.2143C20.4261 34.2577 20.4473 34.3084 20.4473 34.4097C20.4473 34.663 20.4473 34.9164 20.4473 35.1697C20.4473 35.5098 20.667 35.7487 20.9717 35.7487C21.2694 35.7487 21.4749 35.5098 21.482 35.1697C21.482 34.9019 21.482 34.6268 21.482 34.3446H38.4899C38.4899 34.3446 38.504 34.3808 38.504 34.3952C38.504 34.663 38.504 34.9236 38.504 35.1914C38.504 35.5243 38.7308 35.7559 39.0284 35.7487C39.319 35.7487 39.5316 35.5098 39.5316 35.1914C39.5316 34.9236 39.5316 34.6558 39.5316 34.3952C39.5316 34.3373 39.5883 34.2505 39.6379 34.2288C40.4883 33.8741 40.9206 33.2227 40.9206 32.2746C40.9206 28.5617 40.9206 24.8488 40.9206 21.1359M22.8851 18.1612C22.8851 18.1106 23.0056 18.0237 23.0694 18.0165C23.7497 18.0092 24.4371 18.0165 25.1174 18.0165C25.2308 18.0165 25.3088 18.0744 25.3088 18.1974C25.3088 18.4869 25.3088 18.7764 25.3088 19.0804H22.871C22.871 18.7692 22.8639 18.4652 22.878 18.1612M39.9001 30.4507C39.9001 31.0804 39.9001 31.7028 39.9001 32.3325C39.9001 32.9115 39.5387 33.2806 38.9647 33.2806C35.9741 33.2806 32.9765 33.2806 29.9859 33.2806C26.9954 33.2806 24.0119 33.2806 21.0284 33.2806C20.5536 33.2806 20.2064 33.0129 20.1143 32.5786C20.1001 32.499 20.093 32.4121 20.093 32.3325C20.093 28.5907 20.093 24.8488 20.093 21.1069C20.093 20.5135 20.4544 20.1443 21.0355 20.1443C23.2891 20.1443 25.5355 20.1443 27.7891 20.1443C28.1009 20.1443 28.2922 20.0213 28.4269 19.739C28.7883 18.9718 29.171 18.2191 29.5395 17.4519C29.5962 17.3289 29.6741 17.2999 29.7946 17.2999C31.956 17.2999 34.1103 17.2999 36.2718 17.2999C38.256 17.2999 39.8859 18.9574 39.893 20.9911C39.9001 24.1395 39.893 27.2951 39.893 30.4435" fill="#231F20"/>
<path d="M33.4368 26.1878C33.1391 26.1878 32.8344 26.1878 32.5368 26.1878H31.5375C31.573 26.101 31.6013 26.0431 31.6297 25.9852C31.9344 25.3627 32.2391 24.7403 32.5438 24.1106C32.6785 23.8356 32.5722 23.5316 32.3171 23.4013C32.0549 23.2711 31.7643 23.3652 31.6226 23.6402C31.1549 24.5811 30.6872 25.5292 30.2407 26.4773C30.184 26.6004 30.1911 26.7813 30.2336 26.9188C30.3116 27.1504 30.51 27.2373 30.7439 27.2373C31.3604 27.2373 31.984 27.2373 32.6289 27.2373C32.5935 27.3169 32.5722 27.3748 32.5438 27.4255C32.2391 28.0407 31.9344 28.6631 31.6368 29.2783C31.495 29.5751 31.5872 29.8863 31.8564 30.0165C32.1257 30.1468 32.4163 30.0455 32.558 29.756C33.0187 28.8296 33.4722 27.8959 33.9187 26.9695C34.11 26.5714 33.8691 26.1878 33.4368 26.1806" fill="#231F20"/>
<path d="M36.1865 18.3783C34.3723 18.3783 32.5652 18.3783 30.751 18.3783C30.4109 18.3783 30.177 18.5955 30.1699 18.8994C30.1699 19.2107 30.4038 19.4278 30.7439 19.4278C31.6439 19.4278 32.551 19.4278 33.451 19.4278C34.351 19.4278 35.2652 19.4278 36.1794 19.4278C36.5337 19.4278 36.7676 19.2107 36.7676 18.8922C36.7676 18.581 36.5337 18.3711 36.1865 18.3711" fill="#231F20"/>
<path d="M22.3963 25.1098C22.8427 25.1098 23.2892 25.1098 23.7285 25.1098C24.0403 25.1098 24.2671 24.8782 24.26 24.5814C24.26 24.2847 24.0333 24.0603 23.7215 24.0603C23.5018 24.0603 23.2821 24.0603 23.0624 24.0603C22.8427 24.0603 22.623 24.0603 22.4033 24.0603C22.0774 24.0603 21.8435 24.2774 21.8435 24.5814C21.8435 24.8782 22.0703 25.1098 22.3963 25.117" fill="#231F20"/>
<path d="M23.7356 26.188C23.2821 26.188 22.8215 26.188 22.3679 26.188C22.0703 26.188 21.8435 26.4196 21.8435 26.7091C21.8435 27.0058 22.0703 27.2374 22.375 27.2374C22.5947 27.2374 22.8144 27.2374 23.0341 27.2374C23.2679 27.2374 23.4947 27.2374 23.7285 27.2374C24.0403 27.2374 24.2671 27.0058 24.26 26.7091C24.26 26.4196 24.0333 26.1952 23.7356 26.188Z" fill="#231F20"/>
<path d="M23.7282 28.3157C23.5085 28.3157 23.2888 28.3157 23.0692 28.3157C22.8424 28.3157 22.6156 28.3157 22.3959 28.3157H22.3818C22.0699 28.3229 21.8432 28.5473 21.8503 28.844C21.8503 29.1335 22.077 29.3651 22.3747 29.3651C22.8282 29.3651 23.2888 29.3651 23.7424 29.3651C24.04 29.3651 24.2668 29.1263 24.2668 28.844C24.2668 28.54 24.0471 28.3157 23.7353 28.3157" fill="#231F20"/>
</svg>
