<svg width="60" height="61" viewBox="0 0 60 61" fill="none" xmlns="http://www.w3.org/2000/svg">
<g clip-path="url(#clip0_323_537)">
<path d="M59.3764 30.3763C59.3764 14.0897 46.1735 0.886719 29.8868 0.886719C13.6002 0.886719 0.397217 14.0897 0.397217 30.3763V31.5105C0.397217 47.7972 13.6002 61.0001 29.8868 61.0001C46.1735 61.0001 59.3764 47.7972 59.3764 31.5105V30.3763Z" fill="#E5C152"/>
<path d="M50.9487 21.4723C50.9487 21.094 50.9355 20.7157 50.8957 20.3373C50.4979 15.6852 46.7186 12.014 42.2763 12C37.9533 12 33.6304 12 29.3074 12C28.8035 12 28.472 12.2102 28.2466 12.6866C27.5438 14.1999 26.8277 15.6993 26.1249 17.1986C26.0321 17.4088 25.926 17.5068 25.6873 17.4928C25.1171 17.4788 24.5336 17.4928 23.9634 17.4928C23.8573 17.4928 23.7512 17.4928 23.6319 17.4788C23.6319 16.8623 23.6319 16.2878 23.6319 15.7273C23.6054 14.4662 22.6639 13.4152 21.4704 13.3872C20.1046 13.3592 18.7387 13.3592 17.3729 13.3872C16.3253 13.4012 15.4236 14.2139 15.2645 15.3069C15.1716 15.8954 15.2247 16.512 15.1982 17.1145C15.1982 17.2406 15.1982 17.3527 15.1849 17.4928C14.6412 17.4928 14.1506 17.4928 13.6467 17.4928C11.5515 17.4928 10 19.1323 10 21.3602C10 28.6186 10 35.877 10 43.1214C10 44.8309 10.8619 46.1761 12.3736 46.7786C12.5725 46.8627 12.6123 46.9607 12.6123 47.1569C12.6123 47.6473 12.6123 48.1378 12.6123 48.6282C12.6123 49.2868 13.0234 49.7492 13.5936 49.7492C14.1506 49.7492 14.5351 49.2868 14.5484 48.6282C14.5484 48.1098 14.5484 47.5773 14.5484 47.0308H46.3738C46.3738 47.0308 46.4004 47.1009 46.4004 47.1289C46.4004 47.6473 46.4004 48.1518 46.4004 48.6702C46.4004 49.3148 46.8247 49.7632 47.3816 49.7492C47.9253 49.7492 48.3231 49.2868 48.3231 48.6702C48.3231 48.1518 48.3231 47.6333 48.3231 47.1289C48.3231 47.0168 48.4292 46.8486 48.5221 46.8066C50.1133 46.12 50.9222 44.8589 50.9222 43.0233C50.9222 35.835 50.9222 28.6466 50.9222 21.4583M17.174 15.6993C17.174 15.6012 17.3994 15.433 17.5188 15.419C18.7918 15.405 20.0781 15.419 21.3511 15.419C21.5632 15.419 21.7091 15.5311 21.7091 15.7693C21.7091 16.3298 21.7091 16.8903 21.7091 17.4788H17.1475C17.1475 16.8763 17.1342 16.2878 17.1607 15.6993M49.0127 39.4922C49.0127 40.7112 49.0127 41.9163 49.0127 43.1354C49.0127 44.2564 48.3364 44.971 47.2623 44.971C41.6663 44.971 36.0571 44.971 30.4611 44.971C24.8651 44.971 19.2824 44.971 13.6997 44.971C12.8112 44.971 12.1615 44.4525 11.9891 43.6118C11.9626 43.4577 11.9493 43.2895 11.9493 43.1354C11.9493 35.891 11.9493 28.6466 11.9493 21.4023C11.9493 20.2533 12.6256 19.5386 13.713 19.5386C17.9298 19.5386 22.1335 19.5386 26.3503 19.5386C26.9338 19.5386 27.2918 19.3004 27.5438 18.7539C28.2201 17.2686 28.9361 15.8114 29.6257 14.326C29.7318 14.0878 29.8777 14.0318 30.1031 14.0318C34.1476 14.0318 38.1788 14.0318 42.2233 14.0318C45.9362 14.0318 48.9862 17.2406 48.9994 21.1781C49.0127 27.2734 48.9994 33.3828 48.9994 39.4782" fill="#231F20"/>
<path d="M36.9184 31.2392C36.3614 31.2392 35.7912 31.2392 35.2343 31.2392H33.3645C33.4308 31.071 33.4839 30.9589 33.5369 30.8468C34.1071 29.6417 34.6773 28.4367 35.2475 27.2176C35.4995 26.6851 35.3006 26.0966 34.8232 25.8444C34.3325 25.5922 33.7888 25.7743 33.5236 26.3068C32.6484 28.1284 31.7732 29.964 30.9378 31.7996C30.8317 32.0379 30.845 32.3882 30.9246 32.6544C31.0704 33.1028 31.4417 33.2709 31.8793 33.2709C33.033 33.2709 34.1999 33.2709 35.4067 33.2709C35.3404 33.4251 35.3006 33.5372 35.2475 33.6353C34.6773 34.8263 34.1071 36.0314 33.5502 37.2224C33.2849 37.7969 33.4573 38.3994 33.9612 38.6517C34.4651 38.9039 35.0088 38.7077 35.274 38.1472C36.136 36.3536 36.9847 34.5461 37.8201 32.7525C38.1781 31.9818 37.7273 31.2392 36.9184 31.2251" fill="#231F20"/>
<path d="M42.0637 16.1195C38.6689 16.1195 35.2875 16.1195 31.8928 16.1195C31.2563 16.1195 30.8187 16.5399 30.8054 17.1284C30.8054 17.7309 31.243 18.1513 31.8795 18.1513C33.5636 18.1513 35.261 18.1513 36.9451 18.1513C38.6292 18.1513 40.3398 18.1513 42.0504 18.1513C42.7134 18.1513 43.151 17.7309 43.151 17.1144C43.151 16.5118 42.7134 16.1055 42.0637 16.1055" fill="#231F20"/>
<path d="M16.2592 29.1519C17.0946 29.1519 17.93 29.1519 18.7522 29.1519C19.3356 29.1519 19.76 28.7035 19.7467 28.129C19.7467 27.5545 19.3224 27.1201 18.7389 27.1201C18.3278 27.1201 17.9168 27.1201 17.5057 27.1201C17.0946 27.1201 16.6835 27.1201 16.2724 27.1201C15.6624 27.1201 15.2249 27.5405 15.2249 28.129C15.2249 28.7035 15.6492 29.1519 16.2592 29.1659" fill="#231F20"/>
<path d="M18.7654 31.2393C17.9168 31.2393 17.0548 31.2393 16.2061 31.2393C15.6492 31.2393 15.2249 31.6877 15.2249 32.2481C15.2249 32.8227 15.6492 33.271 16.2194 33.271C16.6305 33.271 17.0415 33.271 17.4526 33.271C17.8902 33.271 18.3146 33.271 18.7522 33.271C19.3356 33.271 19.76 32.8227 19.7467 32.2481C19.7467 31.6877 19.3224 31.2533 18.7654 31.2393Z" fill="#231F20"/>
<path d="M18.7517 35.3586C18.3406 35.3586 17.9295 35.3586 17.5184 35.3586C17.0941 35.3586 16.6698 35.3586 16.2587 35.3586H16.2322C15.6487 35.3727 15.2243 35.807 15.2376 36.3815C15.2376 36.942 15.662 37.3904 16.2189 37.3904C17.0676 37.3904 17.9295 37.3904 18.7782 37.3904C19.3351 37.3904 19.7595 36.928 19.7595 36.3815C19.7595 35.793 19.3484 35.3586 18.7649 35.3586" fill="#231F20"/>
</g>
<defs>
<clipPath id="clip0_323_537">
<rect width="60" height="61" fill="white"/>
</clipPath>
</defs>
</svg>
