<svg width="36" height="36" viewBox="0 0 36 36" fill="none" xmlns="http://www.w3.org/2000/svg">
<path d="M18 36C27.9411 36 36 27.9411 36 18C36 8.05887 27.9411 0 18 0C8.05888 0 0 8.05887 0 18C0 27.9411 8.05888 36 18 36Z" fill="#E6C252"/>
<path d="M30.3776 16.715L25.8292 9.29162C24.126 6.51402 21.2034 4.86328 18.0001 4.86328C14.7969 4.86328 11.8743 6.51402 10.1711 9.29162L5.62273 16.715C3.81305 19.6606 3.72595 23.2488 5.37111 26.2933C7.02595 29.3377 10.0453 31.1565 13.4518 31.1565H22.5485C25.955 31.1565 28.9743 29.3377 30.6292 26.2933C32.284 23.2488 32.1872 19.6705 30.3776 16.7249V16.715ZM29.3518 25.5618C27.9582 28.1318 25.413 29.6639 22.5485 29.6639H13.4518C10.5776 29.6639 8.0324 28.1318 6.64853 25.5717C5.25498 23.0017 5.3324 19.9868 6.86144 17.5058L11.4098 10.0824C12.8421 7.74961 15.3098 6.34598 18.0098 6.34598C20.7098 6.34598 23.1776 7.73972 24.6098 10.0824L29.1582 17.5058C30.6776 19.9868 30.7647 23.0116 29.3711 25.5717L29.3518 25.5618ZM16.5679 17.7628L16.1227 18.2175L16.5679 18.6722H19.4324L19.8776 18.2175L19.4324 17.7628H16.5679ZM16.5679 17.4267V15.2916L15.6872 14.9555V17.8814L15.9098 18.1088L16.5679 17.4366V17.4267ZM11.0518 17.4267V15.0643L10.7227 14.1648C10.4324 14.2438 10.2485 14.4317 10.1711 14.7282V17.8814L10.3937 18.1088L11.0518 17.4366V17.4267ZM16.5679 18.9984L15.9098 18.3262L15.6872 18.5536V21.4794L16.5679 21.1433V18.9984ZM25.1518 21.8155L24.7066 21.3608H22.0743L21.1937 21.6969V22.2603H24.7066L25.1518 21.8056V21.8155ZM24.9389 17.4267L25.5969 18.0989L25.8195 17.8715V15.2817L25.2679 14.7183L24.9389 15.0544V17.4168V17.4267ZM24.9389 18.9984V21.3608L25.2679 21.6969L25.8195 21.1335V18.5437L25.5969 18.3163L24.9389 18.9885V18.9984ZM24.726 15.0544L25.1711 14.5997L24.726 14.145H21.1937V14.7084L22.0743 15.0445H24.7163L24.726 15.0544ZM22.0743 17.4267V15.2916L21.1937 14.9555V17.8814L21.4163 18.1088L22.0743 17.4366V17.4267ZM22.0743 18.9984L21.4163 18.3262L21.1937 18.5536V21.4794L22.0743 21.1433V18.9984ZM19.5389 15.0544L19.8679 14.1549H16.2389C15.9485 14.234 15.7647 14.4218 15.6872 14.7183L16.5679 15.0544H19.5292H19.5389ZM19.5389 21.3608H16.5582L15.6776 21.6969C15.755 21.9934 15.9389 22.1812 16.2292 22.2603H19.8679L19.5389 21.3608ZM19.3937 23.9605H18.9389V26.5997H20.7485V26.1747H19.3937V23.9605ZM18.213 24.2076C18.126 24.1285 18.0292 24.0692 17.9034 24.0297C17.7872 23.9901 17.6421 23.9704 17.4969 23.9704H16.4808V26.6096H16.9356V25.7595H17.4485C17.5937 25.7595 17.7292 25.7397 17.855 25.7002C17.9808 25.6606 18.0872 25.6013 18.184 25.5321C18.2808 25.4531 18.3485 25.3641 18.4066 25.2554C18.4647 25.1466 18.484 25.0083 18.484 24.8699C18.484 24.7315 18.4647 24.6129 18.4163 24.5041C18.3679 24.3954 18.3098 24.3064 18.2227 24.2274L18.213 24.2076ZM18.0195 24.86C18.0195 24.9984 17.9711 25.1071 17.8647 25.1961C17.7679 25.285 17.6324 25.3246 17.4582 25.3246H16.9356V24.3756H17.4582C17.6324 24.3756 17.7679 24.4152 17.8647 24.4943C17.9614 24.5733 18.0195 24.6919 18.0195 24.8501V24.86ZM22.1421 23.9407L21.0098 26.5997H21.4743L21.7356 25.9671H22.955L23.2163 26.5997H23.7001L22.5679 23.9407H22.1518H22.1421ZM21.9001 25.5519L22.3453 24.4943L22.7905 25.5519H21.9001ZM24.726 25.1269L24.0098 23.9605H23.4679L24.4937 25.5618V26.5997H24.9485V25.5519L25.9743 23.9605H25.4518L24.726 25.1269ZM12.9679 26.5997H13.4227V23.9605H12.9679V26.5997ZM10.7227 22.2702L11.0518 21.3707V19.0083L10.3937 18.3361L10.1711 18.5634V21.7167C10.2485 22.0132 10.4324 22.201 10.7227 22.2801V22.2702ZM15.7356 25.3443C15.6679 25.285 15.5808 25.2257 15.4743 25.1862C15.3679 25.1466 15.2518 25.1071 15.1163 25.0676C14.9905 25.0379 14.884 25.0083 14.8066 24.9786C14.7292 24.9489 14.6614 24.9193 14.6227 24.8896C14.5743 24.86 14.5453 24.8204 14.526 24.7809C14.5066 24.7414 14.4969 24.7018 14.4969 24.6524C14.4969 24.5536 14.5356 24.4844 14.613 24.4251C14.6905 24.3658 14.7872 24.3361 14.9227 24.3361C15.0389 24.3361 15.155 24.3559 15.2711 24.4053C15.3872 24.4547 15.5034 24.5239 15.6195 24.603L15.8614 24.257C15.726 24.1483 15.5905 24.0692 15.4356 24.0099C15.2808 23.9506 15.1163 23.9209 14.9227 23.9209C14.7969 23.9209 14.6808 23.9407 14.5647 23.9803C14.4582 24.0198 14.3614 24.0692 14.284 24.1384C14.2066 24.2076 14.1485 24.2867 14.1001 24.3756C14.0614 24.4646 14.0324 24.5733 14.0324 24.6821C14.0324 24.8106 14.0518 24.9094 14.0905 24.9984C14.1292 25.0873 14.1872 25.1565 14.255 25.2158C14.3324 25.2751 14.4195 25.3246 14.526 25.3641C14.6324 25.4036 14.7582 25.4432 14.8937 25.4728C15.0098 25.5025 15.1163 25.5321 15.184 25.5519C15.2614 25.5816 15.3195 25.6112 15.3582 25.6409C15.3969 25.6705 15.4356 25.7101 15.4453 25.7496C15.4647 25.7891 15.4743 25.8287 15.4743 25.8781C15.4743 25.9868 15.4356 26.0659 15.3485 26.1252C15.2614 26.1845 15.155 26.2142 15.0195 26.2142C14.855 26.2142 14.7195 26.1845 14.584 26.1252C14.4485 26.0659 14.3324 25.977 14.2066 25.8682L13.9356 26.2043C14.0905 26.3427 14.255 26.4514 14.4389 26.5206C14.6227 26.5898 14.8066 26.6195 15.0098 26.6195C15.1453 26.6195 15.2711 26.5997 15.3776 26.57C15.4937 26.5305 15.5905 26.4811 15.6679 26.4119C15.7453 26.3427 15.813 26.2636 15.8614 26.1648C15.9098 26.0659 15.9292 25.9572 15.9292 25.8287C15.9292 25.7101 15.9098 25.6211 15.8808 25.542C15.8421 25.463 15.7937 25.3839 15.726 25.3246L15.7356 25.3443ZM12.0195 24.346C11.8937 24.2274 11.7485 24.1384 11.584 24.0692C11.4195 24 11.226 23.9704 11.0324 23.9704H10.0647V26.6096H11.0324C11.2356 26.6096 11.4195 26.5799 11.584 26.5107C11.7485 26.4415 11.8937 26.3526 12.0195 26.234C12.1453 26.1153 12.2324 25.977 12.3001 25.8188C12.3679 25.6606 12.3969 25.4827 12.3969 25.2949C12.3969 25.0972 12.3679 24.9292 12.3001 24.771C12.2324 24.6129 12.1356 24.4745 12.0195 24.3559V24.346ZM11.9227 25.2949C11.9227 25.4234 11.9034 25.542 11.855 25.6508C11.8163 25.7595 11.7485 25.8583 11.6711 25.9374C11.5937 26.0165 11.4969 26.0758 11.3905 26.1252C11.284 26.1648 11.1582 26.1944 11.0227 26.1944H10.5098V24.3954H11.0227C11.1582 24.3954 11.284 24.4152 11.3905 24.4646C11.4969 24.514 11.5937 24.5733 11.6711 24.6524C11.7485 24.7315 11.8066 24.8303 11.855 24.9391C11.8937 25.0478 11.9227 25.1664 11.9227 25.2949ZM14.7969 21.7068L13.9163 21.3707H11.2743L10.9453 22.2702H14.255C14.5453 22.1911 14.7292 22.0033 14.8066 21.7068H14.7969Z" fill="#231F20"/>
</svg>
