<svg width="115" height="35" viewBox="0 0 115 35" fill="none" xmlns="http://www.w3.org/2000/svg">
<path d="M16.2967 8.08528C21.9275 8.08528 26.5082 12.666 26.5082 18.2967C26.5082 23.9275 21.9275 28.5082 16.2967 28.5082C10.666 28.5082 6.08528 23.9275 6.08528 18.2967C6.08528 12.666 10.666 8.08528 16.2967 8.08528ZM16.2967 7C10.0599 7 5 12.0599 5 18.2967C5 24.5335 10.0599 29.5935 16.2967 29.5935C22.5335 29.5935 27.5935 24.5335 27.5935 18.2967C27.5935 12.0599 22.5335 7 16.2967 7Z" fill="white" fill-opacity="0.7"/>
<path d="M17.8611 7.81738H15.0352V12.0175H17.8611V7.81738Z" fill="white" fill-opacity="0.7"/>
<path d="M17.8611 24.3855H15.0352V28.5857H17.8611V24.3855Z" fill="white" fill-opacity="0.7"/>
<path d="M26.1402 14.4597L24.8367 11.9524L21.1101 13.8899L22.4136 16.3972L26.1402 14.4597Z" fill="white" fill-opacity="0.7"/>
<path d="M24.8417 24.3843L26.1453 21.877L22.4187 19.9395L21.1151 22.4468L24.8417 24.3843Z" fill="white" fill-opacity="0.7"/>
<path d="M11.6329 22.4419L10.3293 19.9346L6.60274 21.872L7.90631 24.3794L11.6329 22.4419Z" fill="white" fill-opacity="0.7"/>
<path d="M10.3356 16.4045L11.6392 13.8972L7.91256 11.9598L6.609 14.4671L10.3356 16.4045Z" fill="white" fill-opacity="0.7"/>
<path d="M16.5434 14.5052C18.5095 14.5052 20.1163 16.0274 20.2643 17.9584H21.9768C21.8288 15.0831 19.4609 12.7998 16.5504 12.7998C13.6399 12.7998 11.272 15.0902 11.124 17.9584H12.8365C12.9774 16.0274 14.5842 14.5052 16.5574 14.5052H16.5434Z" fill="white" fill-opacity="0.7"/>
<path d="M16.5434 21.9683C14.6476 21.9683 13.0832 20.5518 12.8436 18.7195H11.124C11.3707 21.4961 13.6963 23.6807 16.5434 23.6807C19.3904 23.6807 21.716 21.5031 21.9627 18.7195H20.2432C20.0036 20.5518 18.4461 21.9683 16.5434 21.9683Z" fill="white" fill-opacity="0.7"/>
<path d="M16.5432 19.227C17.1231 19.227 17.5932 18.7569 17.5932 18.177C17.5932 17.5971 17.1231 17.127 16.5432 17.127C15.9633 17.127 15.4932 17.5971 15.4932 18.177C15.4932 18.7569 15.9633 19.227 16.5432 19.227Z" fill="white" fill-opacity="0.7"/>
<path d="M37.4679 9.65131L39.144 9.11637H39.9108V15.4018H38.8231V10.2308L37.6997 10.5428L37.4679 9.65131ZM46.361 12.2724C46.361 14.0645 45.2733 15.5088 43.6329 15.5088C41.9924 15.5088 40.9225 14.0823 40.9225 12.2903C40.9225 10.4982 42.0102 9.05396 43.6507 9.05396C45.2912 9.05396 46.361 10.4804 46.361 12.2724ZM45.2288 12.2903C45.2288 11.051 44.6047 10.0436 43.6329 10.0436C42.6611 10.0436 42.0548 11.0243 42.0548 12.2724C42.0548 13.5206 42.6789 14.5192 43.6507 14.5192C44.6225 14.5192 45.2288 13.5295 45.2288 12.2903ZM52.456 12.2724C52.456 14.0645 51.3683 15.5088 49.7279 15.5088C48.0874 15.5088 47.0175 14.0823 47.0175 12.2903C47.0175 10.4982 48.1052 9.05396 49.7457 9.05396C51.3862 9.05396 52.456 10.4804 52.456 12.2724ZM51.3237 12.2903C51.3237 11.051 50.6997 10.0436 49.7279 10.0436C48.7561 10.0436 48.1498 11.0243 48.1498 12.2724C48.1498 13.5206 48.7739 14.5192 49.7457 14.5192C50.7175 14.5192 51.3237 13.5295 51.3237 12.2903ZM55.9744 10.6766C55.9744 11.5503 55.3771 12.2814 54.4944 12.2814C53.6207 12.2814 53.0323 11.5592 53.0323 10.6944C53.0323 9.8207 53.6296 9.08961 54.5123 9.08961C55.386 9.08961 55.9744 9.81178 55.9744 10.6766ZM59.1127 9.16094L54.5479 15.4018H53.6653L58.2301 9.16094H59.1127ZM59.7457 13.8683C59.7457 14.7421 59.1484 15.4731 58.2657 15.4731C57.392 15.4731 56.8036 14.751 56.8036 13.8862C56.8036 13.0124 57.4009 12.2814 58.2835 12.2814C59.1573 12.2814 59.7457 13.0035 59.7457 13.8683ZM55.1809 10.6944C55.1809 10.1773 54.8956 9.77612 54.4944 9.77612C54.0754 9.77612 53.8258 10.1773 53.8258 10.6766C53.8258 11.1937 54.1111 11.5949 54.5123 11.5949C54.9313 11.5949 55.1809 11.1937 55.1809 10.6944ZM58.9522 13.8862C58.9522 13.3691 58.6669 12.9679 58.2657 12.9679C57.8467 12.9679 57.597 13.3691 57.597 13.8683C57.597 14.3854 57.8823 14.7866 58.2835 14.7866C58.7026 14.7866 58.9522 14.3854 58.9522 13.8862ZM68.3621 14.4033C67.7112 15.0809 66.998 15.5088 65.83 15.5088C64.0112 15.5088 62.6561 14.0912 62.6561 12.2903C62.6561 10.5072 63.9845 9.05396 65.8746 9.05396C67.0247 9.05396 67.7201 9.45515 68.3175 10.0257L67.6131 10.837C67.1139 10.3734 66.5789 10.0614 65.8657 10.0614C64.671 10.0614 63.8062 11.0421 63.8062 12.2724C63.8062 13.5028 64.671 14.5013 65.8657 14.5013C66.6324 14.5013 67.1228 14.1893 67.6577 13.69L68.3621 14.4033ZM75.2337 12.2724C75.2337 14.0377 73.8786 15.5088 71.9617 15.5088C70.0449 15.5088 68.7075 14.0556 68.7075 12.2903C68.7075 10.525 70.0627 9.05396 71.9795 9.05396C73.8964 9.05396 75.2337 10.5072 75.2337 12.2724ZM74.0836 12.2903C74.0836 11.0688 73.201 10.0614 71.9617 10.0614C70.7225 10.0614 69.8576 11.051 69.8576 12.2724C69.8576 13.4939 70.7403 14.5013 71.9795 14.5013C73.2188 14.5013 74.0836 13.5117 74.0836 12.2903ZM81.0343 11.2561C81.0343 12.6647 79.9109 13.3958 78.5379 13.3958H77.2987V15.4018H76.2021V9.16094H78.6628C80.116 9.16094 81.0343 9.98117 81.0343 11.2561ZM79.9199 11.2828C79.9199 10.5428 79.3938 10.1595 78.5736 10.1595H77.2987V12.4062H78.5736C79.4027 12.4062 79.9199 11.9515 79.9199 11.2828ZM86.633 11.2561C86.633 12.6647 85.5096 13.3958 84.1366 13.3958H82.8974V15.4018H81.8008V9.16094H84.2615C85.7147 9.16094 86.633 9.98117 86.633 11.2561ZM85.5186 11.2828C85.5186 10.5428 84.9925 10.1595 84.1723 10.1595H82.8974V12.4062H84.1723C85.0015 12.4062 85.5186 11.9515 85.5186 11.2828ZM92.0267 9.16094V10.1416H88.4961V11.7643H91.6254V12.745H88.4961V14.4211H92.0712V15.4018H87.3995V9.16094H92.0267ZM98.3114 15.4018H97.0187L95.4852 13.2264H94.1122V15.4018H93.0156V9.16094H95.7972C97.2327 9.16094 98.1153 9.91876 98.1153 11.1402C98.1153 12.1744 97.5001 12.7985 96.6264 13.0392L98.3114 15.4018ZM97.0008 11.2026C97.0008 10.5161 96.5194 10.1595 95.7081 10.1595H94.1122V12.2546H95.717C96.5016 12.2546 97.0008 11.8445 97.0008 11.2026ZM43.0758 21.9262L41.1054 24.8683H41.0698L39.1173 21.944V26.4018H38.0385V20.1609H39.2064L41.1054 23.112L43.0045 20.1609H44.1724V26.4018H43.0758V21.9262ZM51.6719 23.2724C51.6719 25.0377 50.3167 26.5088 48.3999 26.5088C46.483 26.5088 45.1457 25.0556 45.1457 23.2903C45.1457 21.525 46.5008 20.0539 48.4177 20.0539C50.3345 20.0539 51.6719 21.5072 51.6719 23.2724ZM50.5218 23.2903C50.5218 22.0688 49.6391 21.0614 48.3999 21.0614C47.1606 21.0614 46.2958 22.051 46.2958 23.2724C46.2958 24.4939 47.1784 25.5013 48.4177 25.5013C49.657 25.5013 50.5218 24.5117 50.5218 23.2903ZM54.9396 21.1773V26.4018H53.8341V21.1773H51.8549V20.1609H56.9189V21.1773H54.9396ZM63.6355 23.2724C63.6355 25.0377 62.2803 26.5088 60.3635 26.5088C58.4466 26.5088 57.1093 25.0556 57.1093 23.2903C57.1093 21.525 58.4644 20.0539 60.3813 20.0539C62.2981 20.0539 63.6355 21.5072 63.6355 23.2724ZM62.4854 23.2903C62.4854 22.0688 61.6027 21.0614 60.3635 21.0614C59.1242 21.0614 58.2594 22.051 58.2594 23.2724C58.2594 24.4939 59.142 25.5013 60.3813 25.5013C61.6205 25.5013 62.4854 24.5117 62.4854 23.2903ZM69.8996 26.4018H68.6069L67.0734 24.2264H65.7004V26.4018H64.6038V20.1609H67.3854C68.8209 20.1609 69.7035 20.9187 69.7035 22.1402C69.7035 23.1744 69.0883 23.7985 68.2146 24.0392L69.8996 26.4018ZM68.5891 22.2026C68.5891 21.5161 68.1076 21.1595 67.2963 21.1595H65.7004V23.2546H67.3052C68.0898 23.2546 68.5891 22.8445 68.5891 22.2026Z" fill="white" fill-opacity="0.7"/>
</svg>
