<svg width="36" height="36" viewBox="0 0 36 36" fill="none" xmlns="http://www.w3.org/2000/svg">
<path d="M18 36C27.9411 36 36 27.9411 36 18C36 8.05887 27.9411 0 18 0C8.05888 0 0 8.05887 0 18C0 27.9411 8.05888 36 18 36Z" fill="#E6C252"/>
<path d="M12.1548 9.18292L10.8 8.90615L10.3645 9.35096L11.1774 10.1813L10.6161 10.7447L8.09033 8.15492L9.25162 6.97864C9.85162 6.36579 10.5194 6.32625 11.0419 6.86003C11.4484 7.28507 11.4871 7.76942 11.2839 8.22411L12.8032 8.52065L12.1548 9.18292ZM10.5097 7.46299C10.2678 7.21587 9.98711 7.2653 9.70646 7.54207L9.15485 8.10549L9.88065 8.84685L10.4419 8.27353C10.7129 7.99676 10.7226 7.69034 10.5097 7.47288V7.46299Z" fill="#231F20"/>
<path d="M14.768 6.28651L13.0648 7.17613C13.297 7.46279 13.597 7.51221 13.9067 7.35405C14.139 7.23544 14.2744 7.0674 14.3712 6.79063L14.9422 6.9389C14.8551 7.34417 14.6228 7.69013 14.1777 7.92737C13.4422 8.31287 12.639 8.06575 12.2615 7.30463C11.9035 6.58305 12.1067 5.74285 12.8228 5.36723C13.6357 4.94219 14.3325 5.39689 14.6906 6.0987C14.7293 6.17778 14.739 6.2272 14.768 6.28651ZM13.1035 5.93066C12.8132 6.07893 12.7357 6.38536 12.8422 6.7412L13.8873 6.19755C13.6841 5.90101 13.4035 5.78239 13.1035 5.93066Z" fill="#231F20"/>
<path d="M16.955 6.95881L16.2679 7.09719L14.6711 4.54694L15.4744 4.3789L16.4324 6.09884L16.6744 4.13179L17.4679 3.97363L16.955 6.95881Z" fill="#231F20"/>
<path d="M20.6615 5.83196L18.7551 5.68369C18.8035 6.04942 19.0357 6.257 19.3841 6.28665C19.6454 6.30642 19.839 6.23723 20.0712 6.04942L20.4873 6.48435C20.2067 6.79077 19.8293 6.95881 19.3261 6.91927C18.5035 6.85008 17.9422 6.21746 18.0099 5.35749C18.068 4.54695 18.6777 3.94398 19.4712 4.00329C20.3809 4.07249 20.7486 4.83361 20.6906 5.62438C20.6906 5.71334 20.6712 5.76277 20.6615 5.83196ZM19.4228 4.6458C19.1035 4.61614 18.8712 4.83361 18.7841 5.18945L19.9551 5.27842C19.9357 4.92257 19.7519 4.66557 19.4228 4.63591V4.6458Z" fill="#231F20"/>
<path d="M23.0419 5.69359C22.5484 5.52555 22.1516 5.73313 21.9484 6.36575L21.629 7.34433L20.8936 7.09721L21.7548 4.43823L22.4903 4.68535L22.3161 5.21912C22.5871 4.90281 22.9065 4.74466 23.3323 4.9127L23.0807 5.70347H23.0419V5.69359Z" fill="#231F20"/>
<path d="M23.4971 8.28346C23.168 8.08577 22.868 7.74969 22.6938 7.30488L23.2455 7.02811C23.3906 7.37407 23.6035 7.63107 23.8164 7.76946C24.01 7.88808 24.1358 7.86831 24.2035 7.76946C24.2906 7.6113 24.0874 7.4235 23.8745 7.18626C23.6035 6.88972 23.3229 6.50422 23.5938 6.03964C23.8842 5.54541 24.4261 5.50587 24.9003 5.79252C25.2003 5.97045 25.4616 6.27687 25.6164 6.60307L25.0842 6.91938C24.9293 6.64261 24.7455 6.41526 24.5809 6.30653C24.4164 6.20768 24.2906 6.22745 24.2422 6.3263C24.1648 6.47457 24.3487 6.67226 24.5519 6.90949C24.8132 7.2258 25.1035 7.62119 24.8519 8.05611C24.5422 8.59977 24.01 8.59977 23.4971 8.29335V8.28346Z" fill="#231F20"/>
<path d="M27.2226 10.043L25.8968 8.63941C25.6936 8.94583 25.7323 9.25226 25.9742 9.50926C26.1581 9.69707 26.342 9.78603 26.642 9.79592L26.671 10.3989C26.2646 10.4384 25.8678 10.3 25.5291 9.9343C24.9581 9.33134 24.9484 8.47137 25.5581 7.87829C26.1194 7.31486 26.971 7.26544 27.5226 7.85852C28.1613 8.53068 27.9388 9.34122 27.3775 9.89476C27.3194 9.95407 27.2904 9.98373 27.2323 10.0331L27.2226 10.043ZM27.0678 8.31321C26.8452 8.07598 26.5355 8.08587 26.2355 8.29345L27.0484 9.15341C27.271 8.87664 27.2904 8.56033 27.0678 8.31321Z" fill="#231F20"/>
<path d="M20.2841 10.3889C19.0648 10.3889 17.8454 10.3889 16.6261 10.3889C15.1454 10.3889 14.197 11.3576 14.197 12.87C14.197 16.7448 14.197 20.6294 14.197 24.5042C14.197 25.9771 15.1648 26.9754 16.6067 26.9853C17.8551 26.9853 19.1132 26.9952 20.3615 26.9853C21.7648 26.9754 22.7325 25.9672 22.7325 24.5339C22.7325 22.5866 22.7325 20.6294 22.7325 18.6822C22.7325 16.7349 22.7325 14.8271 22.7325 12.8996C22.7325 11.3774 21.7841 10.3988 20.2938 10.3889M22.1325 24.6229C22.1325 25.5916 21.4454 26.3428 20.497 26.3626C19.1422 26.3922 17.7873 26.3922 16.4325 26.3626C15.4648 26.3428 14.7873 25.5817 14.7873 24.5932C14.7873 22.6261 14.7873 20.6492 14.7873 18.6822C14.7873 16.7349 14.7873 14.7777 14.7873 12.8304C14.7873 11.753 15.4841 11.0117 16.539 11.0018C17.8454 10.9919 19.1519 11.0018 20.4486 11.0018C21.4164 11.0018 22.1422 11.7629 22.1422 12.7612C22.1422 16.7151 22.1422 20.669 22.1422 24.6229" fill="#231F20"/>
<path d="M18.4746 12.2373C16.8488 12.2175 15.5036 13.5816 15.494 15.2422C15.4843 16.9325 16.781 18.2966 18.4165 18.3164C20.081 18.3361 21.4165 17.0017 21.4359 15.3114C21.4552 13.6211 20.1391 12.257 18.4843 12.2373M18.4359 17.7134C17.1391 17.7134 16.0843 16.6063 16.0843 15.2719C16.0843 13.9276 17.1391 12.8501 18.4552 12.8501C19.7907 12.8501 20.8456 13.9276 20.8359 15.2818C20.8359 16.636 19.7617 17.7233 18.4359 17.7134Z" fill="#231F20"/>
<path d="M18.455 13.7593C17.6324 13.7593 16.955 14.4512 16.9647 15.2815C16.9647 16.1217 17.6324 16.7939 18.4647 16.7939C19.2776 16.7939 19.9357 16.1217 19.9453 15.2914C19.9453 14.4611 19.2776 13.7593 18.455 13.7593ZM18.426 16.181C17.9324 16.1711 17.555 15.756 17.5647 15.242C17.5744 14.7379 18.0002 14.3326 18.4744 14.3524C18.9679 14.3721 19.3453 14.7972 19.3357 15.3013C19.326 15.8153 18.9195 16.1909 18.426 16.181Z" fill="#231F20"/>
<path d="M17.4873 19.4331H16.4614C16.2873 19.4331 16.1421 19.5814 16.1421 19.7593C16.1421 19.9372 16.2873 20.0855 16.4614 20.0855H17.4873C17.6614 20.0855 17.8066 19.9372 17.8066 19.7593C17.8066 19.5814 17.6614 19.4331 17.4873 19.4331Z" fill="#231F20"/>
<path d="M20.4389 19.4331H19.4131C19.2389 19.4331 19.0938 19.5814 19.0938 19.7593C19.0938 19.9372 19.2389 20.0855 19.4131 20.0855H20.4389C20.6131 20.0855 20.7583 19.9372 20.7583 19.7593C20.7583 19.5814 20.6131 19.4331 20.4389 19.4331Z" fill="#231F20"/>
<path d="M17.4873 21.094H16.4614C16.2873 21.094 16.1421 21.2423 16.1421 21.4202C16.1421 21.5981 16.2873 21.7464 16.4614 21.7464H17.4873C17.6614 21.7464 17.8066 21.5981 17.8066 21.4202C17.8066 21.2423 17.6614 21.094 17.4873 21.094Z" fill="#231F20"/>
<path d="M20.4389 21.094H19.4131C19.2389 21.094 19.0938 21.2423 19.0938 21.4202C19.0938 21.5981 19.2389 21.7464 19.4131 21.7464H20.4389C20.6131 21.7464 20.7583 21.5981 20.7583 21.4202C20.7583 21.2423 20.6131 21.094 20.4389 21.094Z" fill="#231F20"/>
<path d="M17.4873 22.6655H16.4614C16.2873 22.6655 16.1421 22.8138 16.1421 22.9917C16.1421 23.1696 16.2873 23.3179 16.4614 23.3179H17.4873C17.6614 23.3179 17.8066 23.1696 17.8066 22.9917C17.8066 22.8138 17.6614 22.6655 17.4873 22.6655Z" fill="#231F20"/>
<path d="M20.4389 22.6655H19.4131C19.2389 22.6655 19.0938 22.8138 19.0938 22.9917C19.0938 23.1696 19.2389 23.3179 19.4131 23.3179H20.4389C20.6131 23.3179 20.7583 23.1696 20.7583 22.9917C20.7583 22.8138 20.6131 22.6655 20.4389 22.6655Z" fill="#231F20"/>
<path d="M12.0969 15.2819C12.0969 15.7663 12.3001 16.1913 12.6195 16.4977C12.7163 16.5867 12.8518 16.5867 12.9485 16.4977C13.055 16.3989 13.055 16.2309 12.9485 16.132C12.726 15.9244 12.5808 15.618 12.5808 15.2819C12.5808 14.9459 12.726 14.6394 12.9485 14.4318C13.055 14.333 13.055 14.165 12.9485 14.076C12.8518 13.987 12.7163 13.987 12.6195 14.076C12.3001 14.3824 12.0969 14.8075 12.0969 15.2918" fill="#231F20"/>
<path d="M10.442 12.0198C9.63881 12.86 9.14526 14.0165 9.14526 15.2817C9.14526 16.5469 9.63881 17.6936 10.442 18.5436C10.5291 18.6425 10.684 18.6425 10.7807 18.5535C10.8775 18.4547 10.8872 18.2965 10.7807 18.1977C10.0646 17.4464 9.61946 16.4086 9.61946 15.2817C9.61946 14.1548 10.0646 13.117 10.7807 12.3657C10.8775 12.2669 10.8678 12.1087 10.7807 12.0099C10.684 11.9209 10.5388 11.9209 10.442 12.0198Z" fill="#231F20"/>
<path d="M11.9036 13.0775C11.8068 12.9885 11.6617 12.9885 11.5649 13.0775C11.0133 13.6409 10.6746 14.4218 10.6746 15.2817C10.6746 16.1417 11.0133 16.9226 11.5746 17.486C11.6617 17.575 11.8165 17.5849 11.9036 17.486C12.0004 17.3872 12.01 17.229 11.9036 17.1302C11.4391 16.6557 11.1488 16.0033 11.1488 15.2719C11.1488 14.5404 11.4391 13.888 11.9036 13.4135C12.0004 13.3147 11.9907 13.1565 11.9036 13.0577" fill="#231F20"/>
<path d="M24.6968 15.2818C24.6968 14.7975 24.4936 14.3724 24.1743 14.066C24.0775 13.977 23.942 13.977 23.8452 14.066C23.7388 14.1648 23.7388 14.3329 23.8452 14.4317C24.0678 14.6393 24.213 14.9457 24.213 15.2818C24.213 15.6179 24.0678 15.9243 23.8452 16.1319C23.7388 16.2307 23.7388 16.3988 23.8452 16.4877C23.942 16.5767 24.0775 16.5767 24.1743 16.4877C24.4936 16.1813 24.6968 15.7563 24.6968 15.2719" fill="#231F20"/>
<path d="M26.3615 18.5436C27.1647 17.7034 27.6583 16.5469 27.6583 15.2817C27.6583 14.0165 27.1647 12.8698 26.3615 12.0198C26.2744 11.9209 26.1196 11.9209 26.0228 12.0099C25.926 12.1087 25.9163 12.2669 26.0228 12.3657C26.7389 13.117 27.1841 14.1548 27.1841 15.2817C27.1841 16.4086 26.7389 17.4464 26.0228 18.1977C25.926 18.2965 25.9357 18.4547 26.0228 18.5535C26.1196 18.6425 26.2647 18.6425 26.3615 18.5436Z" fill="#231F20"/>
<path d="M24.9002 17.4859C24.997 17.5748 25.1422 17.5748 25.2389 17.4859C25.7906 16.9225 26.1293 16.1416 26.1293 15.2816C26.1293 14.4216 25.7906 13.6407 25.2293 13.0773C25.1422 12.9884 24.9873 12.9785 24.9002 13.0773C24.8035 13.1762 24.7938 13.3343 24.9002 13.4332C25.3647 13.9076 25.6551 14.56 25.6551 15.2915C25.6551 16.0229 25.3647 16.6753 24.9002 17.1498C24.8035 17.2486 24.8131 17.4068 24.9002 17.5056" fill="#231F20"/>
<path d="M12.6388 27.8944L11.3808 30.5139L10.6743 30.158L11.9324 27.5386L10.955 27.0444L11.2743 26.3821L13.9356 27.7165L13.6163 28.3788L12.6388 27.8845V27.8944Z" fill="#231F20"/>
<path d="M15.0001 31.71L15.0872 31.3245C14.8646 31.5123 14.5936 31.6704 14.2065 31.5815C13.6355 31.4431 13.3839 30.9785 13.5291 30.3558L13.9259 28.5864L14.6807 28.7644L14.342 30.2866C14.2549 30.6523 14.3904 30.8797 14.671 30.9489C14.9613 31.0181 15.1839 30.8698 15.271 30.5041L15.6097 28.9818L16.3646 29.1597L15.7549 31.8879L15.0001 31.71Z" fill="#231F20"/>
<path d="M18.7548 30.0295C18.2419 30.0196 17.9129 30.326 17.8936 30.9982L17.8645 32.0361L17.0903 32.0163L17.1581 29.2189L17.9323 29.2387V29.8021C18.0871 29.4166 18.3484 29.1794 18.8032 29.209L18.7839 30.0393H18.7452L18.7548 30.0295Z" fill="#231F20"/>
<path d="M21.5325 31.7396C21.126 31.8187 20.8357 31.6803 20.6228 31.4925L20.6905 31.8483L19.926 31.9966L19.2292 28.2503L19.9938 28.1021L20.2551 29.4958C20.3905 29.1992 20.6131 28.962 21.0099 28.8829C21.6389 28.7643 22.326 29.1498 22.5002 30.0691C22.6744 30.9983 22.1809 31.6111 21.5422 31.7396H21.5325ZM21.7357 30.2174C21.6486 29.7627 21.2905 29.5156 20.9421 29.5848C20.5841 29.6539 20.3422 30.0098 20.4292 30.4744C20.5163 30.939 20.8647 31.1861 21.2228 31.1169C21.5809 31.0477 21.8228 30.6918 21.7357 30.2273V30.2174Z" fill="#231F20"/>
<path d="M25.3742 30.425C24.6097 30.8007 23.7678 30.5041 23.4291 29.7727C23.0904 29.0412 23.3807 28.1713 24.1549 27.7858C24.9194 27.4102 25.7613 27.7068 26.1 28.4382C26.4387 29.1697 26.1484 30.0395 25.3742 30.425ZM25.4033 28.7941C25.2291 28.4184 24.8129 28.2306 24.4258 28.4185C24.0291 28.6161 23.9323 29.0511 24.1065 29.4267C24.2807 29.8122 24.6968 30 25.0839 29.8122C25.4807 29.6145 25.5775 29.1796 25.4033 28.8138V28.7941Z" fill="#231F20"/>
</svg>
