<svg width="77" height="64" viewBox="0 0 77 64" fill="none" xmlns="http://www.w3.org/2000/svg">
<path d="M1.4461 27.5818C1.4461 25.6097 3.04485 24.0109 5.01701 24.0109H71.6308C73.6029 24.0109 75.2017 25.6097 75.2017 27.5818V35.0483C75.2017 37.0204 73.6029 38.6192 71.6308 38.6192H5.01702C3.04485 38.6192 1.4461 37.0204 1.4461 35.0483V27.5818Z" stroke="#C7BCD2" stroke-width="2.59703"/>
<path d="M34.3011 4.17188L38.0926 6.24642L41.7869 4.00336L40.9856 8.25036L44.2604 11.0707L39.9737 11.621L38.3034 15.6071L36.4553 11.7002L32.1481 11.3434L35.2928 8.37852L34.3011 4.17188Z" fill="#C7BCD2"/>
<path d="M22.191 9.3528L24.6931 10.7219L27.1311 9.24158L26.6023 12.0443L28.7635 13.9056L25.9345 14.2687L24.8322 16.8993L23.6126 14.321L20.7701 14.0855L22.8454 12.1289L22.191 9.3528Z" fill="#C7BCD2"/>
<path d="M16.3369 16.4717L17.8594 17.3047L19.3429 16.404L19.0211 18.1094L20.3361 19.2419L18.6148 19.4629L17.944 21.0635L17.202 19.4947L15.4724 19.3514L16.7352 18.1609L16.3369 16.4717Z" fill="#C7BCD2"/>
<path d="M49.2422 8.53853L51.5825 9.81903L53.8628 8.43451L53.3682 11.056L55.3896 12.7968L52.7436 13.1365L51.7126 15.5969L50.5719 13.1853L47.9133 12.9651L49.8543 11.1351L49.2422 8.53853Z" fill="#C7BCD2"/>
<path d="M57.3301 15.7385L59.4075 16.8751L61.4316 15.6462L60.9925 17.9731L62.7868 19.5184L60.4381 19.8199L59.523 22.0038L58.5104 19.8632L56.1505 19.6678L57.8735 18.0433L57.3301 15.7385Z" fill="#C7BCD2"/>
<path d="M59.6667 40.2422L60.6308 42.405L62.9857 42.6536L61.2266 44.2388L61.7179 46.5553L59.6667 45.3722L57.6154 46.5553L58.1068 44.2388L56.3477 42.6536L58.7026 42.405L59.6667 40.2422Z" fill="#C7BCD2"/>
<path d="M18.4401 41.8662L19.4042 44.0291L21.7591 44.2776L20 45.8629L20.4914 48.1793L18.4401 46.9962L16.3889 48.1793L16.8802 45.8629L15.1211 44.2776L17.476 44.0291L18.4401 41.8662Z" fill="#C7BCD2"/>
<path d="M51.9571 46.7363L53.1228 49.3515L55.9702 49.652L53.8433 51.5688L54.4373 54.3698L51.9571 52.9392L49.4768 54.3698L50.0709 51.5688L47.944 49.652L50.7914 49.3515L51.9571 46.7363Z" fill="#C7BCD2"/>
<path d="M25.3379 47.709L26.5037 50.3242L29.3511 50.6247L27.2241 52.5415L27.8182 55.3424L25.3379 53.9119L22.8577 55.3424L23.4518 52.5415L21.3248 50.6247L24.1722 50.3242L25.3379 47.709Z" fill="#C7BCD2"/>
<path fill-rule="evenodd" clip-rule="evenodd" d="M66.294 41.216C62.3895 52.5503 51.631 60.6934 38.9707 60.6934C26.3103 60.6934 15.5519 52.5503 11.6473 41.216H8.91321C12.9158 54.008 24.8592 63.2904 38.9707 63.2904C53.0821 63.2904 65.0256 54.008 69.0282 41.216H66.294ZM12.0024 21.4136C16.1745 10.5894 26.6757 2.90953 38.9707 2.90953C51.2656 2.90953 61.7668 10.5894 65.9389 21.4136H68.706C64.414 9.12676 52.7217 0.3125 38.9707 0.3125C25.2197 0.3125 13.5274 9.12676 9.23538 21.4136H12.0024Z" fill="#C7BCD2"/>
<path fill-rule="evenodd" clip-rule="evenodd" d="M33.9934 12.9666C29.1753 14.2368 25.0878 17.3067 22.4933 21.4139H25.6657C28.2645 18.0896 32.0818 15.7641 36.4459 15.1092L35.4911 13.0907L33.9934 12.9666ZM40.1594 14.9625C45.0785 15.3043 49.4172 17.7537 52.2786 21.4139H55.451C52.6707 17.0126 48.1759 13.8024 42.9048 12.7217L40.9957 12.9667L40.1594 14.9625ZM21.9171 41.2156C25.2362 47.2158 31.6297 51.2787 38.9722 51.2787C46.3146 51.2787 52.7081 47.2158 56.0272 41.2156H52.9856C49.9542 45.7192 44.8091 48.6818 38.9722 48.6818C33.1352 48.6818 27.9902 45.7192 24.9588 41.2156H21.9171Z" fill="#C7BCD2"/>
<path d="M17.1521 30.7201C17.1521 32.3504 15.8841 33.1957 14.3041 33.1957H13.1267V35.3091H11.5769V28.2646H14.4551C16.1357 28.2646 17.1521 29.2609 17.1521 30.7V30.7201ZM15.5822 30.7503V30.7302C15.5822 30.0358 15.0991 29.6635 14.3242 29.6635H13.1267V31.8171H14.3544C15.1293 31.8171 15.5822 31.3541 15.5822 30.7503ZM25.2931 35.3091H23.4817L21.9722 33.0549H20.7545V35.3091H19.2047V28.2646H22.425C24.0855 28.2646 25.0818 29.1402 25.0818 30.5893V30.6094C25.0818 31.7466 24.4679 32.4611 23.5723 32.7932L25.2931 35.3091ZM23.5119 30.6899V30.6698C23.5119 30.0056 23.049 29.6635 22.2942 29.6635H20.7545V31.6862H22.3244C23.0792 31.6862 23.5119 31.2837 23.5119 30.6899ZM32.7467 35.3091H27.3829V28.2646H32.6964V29.6433H28.9226V31.0724H32.2435V32.4511H28.9226V33.9304H32.7467V35.3091ZM42.0748 35.3091H40.5351V30.7101L38.5525 33.7191H38.5123L36.5499 30.7403V35.3091H35.0303V28.2646H36.7009L38.5525 31.2434L40.4042 28.2646H42.0748V35.3091ZM46.293 35.3091H44.7432V28.2646H46.293V35.3091ZM54.9872 32.2397C54.9872 34.3732 53.7897 35.4198 51.8978 35.4198C50.0058 35.4198 48.8485 34.3631 48.8485 32.29V28.2646H50.3983V32.2498C50.3983 33.397 50.9719 33.9908 51.9179 33.9908C52.8638 33.9908 53.4375 33.4171 53.4375 32.3001V28.2646H54.9872V32.2397ZM64.5159 35.3091H62.9762V30.7101L60.9937 33.7191H60.9535L58.9911 30.7403V35.3091H57.4715V28.2646H59.142L60.9937 31.2434L62.8454 28.2646H64.5159V35.3091Z" fill="#C7BCD2"/>
</svg>
