<svg width="101" height="35" viewBox="0 0 101 35" fill="none" xmlns="http://www.w3.org/2000/svg">
<path d="M3.69277 13.932H31.8061C32.6384 13.932 33.3132 14.6067 33.3132 15.439V18.5901C33.3132 19.4225 32.6384 20.0972 31.8061 20.0972H3.69277C2.86044 20.0972 2.18571 19.4225 2.18571 18.5901V15.439C2.18571 14.6067 2.86044 13.932 3.69277 13.932Z" stroke="#B6B5B4" stroke-width="1.09604"/>
<path d="M16.0517 5.55898L17.6519 6.4345L19.211 5.48785L18.8728 7.28024L20.2549 8.47053L18.4457 8.70276L17.7408 10.385L16.9609 8.73618L15.1431 8.58561L16.4702 7.33433L16.0517 5.55898Z" fill="#B6B5B4"/>
<path d="M10.9407 7.74561L11.9966 8.3234L13.0256 7.69868L12.8024 8.88154L13.7145 9.66705L12.5206 9.82031L12.0553 10.9305L11.5406 9.84236L10.341 9.74299L11.2168 8.91723L10.9407 7.74561Z" fill="#B6B5B4"/>
<path d="M8.47034 10.7501L9.11288 11.1017L9.73895 10.7215L9.60314 11.4413L10.1581 11.9192L9.43166 12.0125L9.14859 12.688L8.83541 12.0259L8.10548 11.9654L8.6384 11.463L8.47034 10.7501Z" fill="#B6B5B4"/>
<path d="M22.3577 7.40205L23.3453 7.94247L24.3077 7.35815L24.099 8.46449L24.9521 9.19919L23.8354 9.34254L23.4002 10.3809L22.9188 9.36317L21.7968 9.27023L22.616 8.49788L22.3577 7.40205Z" fill="#B6B5B4"/>
<path d="M25.7714 10.4406L26.6481 10.9203L27.5023 10.4017L27.317 11.3837L28.0743 12.0359L27.083 12.1631L26.6968 13.0848L26.2695 12.1814L25.2735 12.0989L26.0007 11.4134L25.7714 10.4406Z" fill="#B6B5B4"/>
<path d="M26.7572 20.782L27.1641 21.6948L28.158 21.7997L27.4156 22.4688L27.6229 23.4464L26.7572 22.9471L25.8915 23.4464L26.0989 22.4688L25.3565 21.7997L26.3504 21.6948L26.7572 20.782Z" fill="#B6B5B4"/>
<path d="M9.35807 21.4673L9.76495 22.3801L10.7588 22.485L10.0164 23.1541L10.2238 24.1317L9.35807 23.6324L8.49237 24.1317L8.69973 23.1541L7.95734 22.485L8.95119 22.3801L9.35807 21.4673Z" fill="#B6B5B4"/>
<path d="M23.5035 23.5227L23.9955 24.6264L25.1972 24.7532L24.2995 25.5622L24.5503 26.7443L23.5035 26.1405L22.4567 26.7443L22.7075 25.5622L21.8098 24.7532L23.0115 24.6264L23.5035 23.5227Z" fill="#B6B5B4"/>
<path d="M12.2689 23.9334L12.7609 25.0371L13.9626 25.1639L13.0649 25.9729L13.3156 27.155L12.2689 26.5513L11.2221 27.155L11.4729 25.9729L10.5752 25.1639L11.7769 25.0371L12.2689 23.9334Z" fill="#B6B5B4"/>
<path fill-rule="evenodd" clip-rule="evenodd" d="M29.5549 21.1931C27.9071 25.9766 23.3666 29.4133 18.0235 29.4133C12.6803 29.4133 8.13987 25.9766 6.49203 21.1931H5.33813C7.02734 26.5918 12.0679 30.5094 18.0235 30.5094C23.979 30.5094 29.0196 26.5918 30.7088 21.1931H29.5549ZM6.64196 12.8358C8.40275 8.26764 12.8346 5.02652 18.0235 5.02652C23.2123 5.02652 27.6442 8.26764 29.405 12.8358H30.5728C28.7614 7.65037 23.8269 3.93048 18.0235 3.93048C12.2201 3.93048 7.28556 7.65037 5.47416 12.8358H6.64196Z" fill="#B6B5B4"/>
<path fill-rule="evenodd" clip-rule="evenodd" d="M15.923 9.2707C13.8893 9.80666 12.1639 11.1024 11.0689 12.8359H12.4077C13.5046 11.4329 15.1158 10.4514 16.9578 10.1751L16.5547 9.32303L15.923 9.2707ZM18.5248 10.1133C20.6008 10.2576 22.4317 11.2913 23.6393 12.8359H24.9782C23.8047 10.9783 21.9075 9.62343 19.6827 9.16742L18.8779 9.27073L18.5248 10.1133ZM10.8257 21.193C12.2264 23.7253 14.9247 25.44 18.0235 25.44C21.1223 25.44 23.8206 23.7253 25.2213 21.193H23.9377C22.6583 23.0936 20.4869 24.3439 18.0235 24.3439C15.5601 24.3439 13.3887 23.0936 12.1094 21.193H10.8257Z" fill="#B6B5B4"/>
<path d="M8.81393 16.5431C8.81393 17.2311 8.27879 17.5879 7.61198 17.5879H7.11507V18.4798H6.46101V15.5068H7.67569C8.38497 15.5068 8.81393 15.9273 8.81393 16.5346V16.5431ZM8.15137 16.5558V16.5473C8.15137 16.2543 7.94751 16.0971 7.62048 16.0971H7.11507V17.006H7.63322C7.96025 17.006 8.15137 16.8107 8.15137 16.5558ZM12.2497 18.4798H11.4852L10.8482 17.5284H10.3343V18.4798H9.68021V15.5068H11.0393C11.7401 15.5068 12.1605 15.8763 12.1605 16.4879V16.4964C12.1605 16.9763 11.9015 17.2779 11.5235 17.418L12.2497 18.4798ZM11.498 16.5304V16.5219C11.498 16.2416 11.3026 16.0971 10.9841 16.0971H10.3343V16.9508H10.9968C11.3154 16.9508 11.498 16.7809 11.498 16.5304ZM15.3954 18.4798H13.1317V15.5068H15.3742V16.0887H13.7815V16.6917H15.1831V17.2736H13.7815V17.8979H15.3954V18.4798ZM19.3322 18.4798H18.6824V16.5389L17.8457 17.8087H17.8287L17.0005 16.5516V18.4798H16.3592V15.5068H17.0642L17.8457 16.764L18.6272 15.5068H19.3322V18.4798ZM21.1124 18.4798H20.4584V15.5068H21.1124V18.4798ZM24.7817 17.1844C24.7817 18.0848 24.2763 18.5265 23.4778 18.5265C22.6794 18.5265 22.1909 18.0806 22.1909 17.2057V15.5068H22.845V17.1887C22.845 17.6728 23.0871 17.9234 23.4863 17.9234C23.8856 17.9234 24.1276 17.6813 24.1276 17.2099V15.5068H24.7817V17.1844ZM28.8032 18.4798H28.1533V16.5389L27.3166 17.8087H27.2997L26.4715 16.5516V18.4798H25.8301V15.5068H26.5352L27.3166 16.764L28.0981 15.5068H28.8032V18.4798Z" fill="#B6B5B4"/>
<path d="M46.3822 11.2562C46.3822 12.6648 45.2588 13.3959 43.8858 13.3959H42.6466V15.4019H41.55V9.16101H44.0107C45.4639 9.16101 46.3822 9.98124 46.3822 11.2562ZM45.2678 11.2829C45.2678 10.5429 44.7417 10.1596 43.9215 10.1596H42.6466V12.4063H43.9215C44.7507 12.4063 45.2678 11.9516 45.2678 11.2829ZM52.4445 15.4019H51.1518L49.6183 13.2265H48.2453V15.4019H47.1487V9.16101H49.9303C51.3657 9.16101 52.2484 9.91883 52.2484 11.1403C52.2484 12.1745 51.6332 12.7986 50.7595 13.0393L52.4445 15.4019ZM51.1339 11.2027C51.1339 10.5162 50.6525 10.1596 49.8412 10.1596H48.2453V12.2547H49.8501C50.6347 12.2547 51.1339 11.8446 51.1339 11.2027ZM57.8621 9.16101V10.1417H54.3316V11.7644H57.4609V12.7451H54.3316V14.4212H57.9067V15.4019H53.2349V9.16101H57.8621ZM63.8884 10.9263L61.918 13.8684H61.8824L59.9299 10.9441V15.4019H58.8511V9.16101H60.019L61.918 12.1121L63.817 9.16101H64.985V15.4019H63.8884V10.9263ZM66.297 9.16101H67.3937V15.4019H66.297V9.16101ZM73.95 9.16101V12.7005C73.95 14.5639 72.898 15.5 71.2664 15.5C69.6438 15.5 68.6096 14.5639 68.6096 12.754V9.16101H69.7062V12.7094C69.7062 13.8684 70.3035 14.4925 71.2843 14.4925C72.2561 14.4925 72.8534 13.9041 72.8534 12.754V9.16101H73.95ZM80.136 10.9263L78.1656 13.8684H78.13L76.1775 10.9441V15.4019H75.0987V9.16101H76.2666L78.1656 12.1121L80.0646 9.16101H81.2326V15.4019H80.136V10.9263ZM44.7774 20.1164L47.5234 26.4019H46.3644L45.7314 24.8952H42.7803L42.1384 26.4019H41.015L43.761 20.1164H44.7774ZM45.3302 23.9234L44.2514 21.427L43.1815 23.9234H45.3302ZM52.8642 20.161V21.1417H49.3336V22.7644H52.463V23.7451H49.3336V25.4212H52.9088V26.4019H48.237V20.161H52.8642ZM54.7803 21.7926C54.7803 22.2829 55.0656 22.4969 56.2603 22.7822C57.5798 23.1032 58.2663 23.5757 58.2663 24.6188C58.2663 25.7957 57.348 26.4911 56.0374 26.4911C55.0835 26.4911 54.183 26.1612 53.4341 25.4925L54.0938 24.708C54.6912 25.2251 55.2885 25.5193 56.0642 25.5193C56.7418 25.5193 57.1697 25.2072 57.1697 24.7258C57.1697 24.2711 56.9201 24.0304 55.761 23.7629C54.4326 23.4419 53.6837 23.0497 53.6837 21.8906C53.6837 20.8029 54.5753 20.0719 55.8145 20.0719C56.7239 20.0719 57.4461 20.3482 58.0791 20.8564L57.4907 21.6856C56.929 21.2665 56.3673 21.0437 55.7967 21.0437C55.1548 21.0437 54.7803 21.3735 54.7803 21.7926ZM61.7077 21.1774V26.4019H60.6022V21.1774H58.623V20.161H63.687V21.1774H61.7077ZM68.5677 23.7718H65.5899V26.4019H64.4933V20.161H65.5899V22.7554H68.5677V20.161H69.6643V26.4019H68.5677V23.7718ZM75.5376 20.161V21.1417H72.0071V22.7644H75.1364V23.7451H72.0071V25.4212H75.5822V26.4019H70.9104V20.161H75.5376ZM79.1656 21.1774V26.4019H78.06V21.1774H76.0808V20.161H81.1448V21.1774H79.1656ZM82.0135 20.161H83.1102V26.4019H82.0135V20.161ZM89.8537 25.4034C89.2029 26.081 88.4897 26.5089 87.3217 26.5089C85.5029 26.5089 84.1478 25.0913 84.1478 23.2904C84.1478 21.5073 85.4762 20.054 87.3663 20.054C88.5164 20.054 89.2118 20.4552 89.8092 21.0258L89.1048 21.8371C88.6056 21.3735 88.0706 21.0615 87.3574 21.0615C86.1627 21.0615 85.2979 22.0422 85.2979 23.2725C85.2979 24.5029 86.1627 25.5014 87.3574 25.5014C88.1241 25.5014 88.6145 25.1894 89.1494 24.6901L89.8537 25.4034Z" fill="white" fill-opacity="0.7"/>
</svg>
