<svg width="61" height="82" viewBox="0 0 61 82" fill="none" xmlns="http://www.w3.org/2000/svg">
<path d="M19.9425 59V58.5526L21.6229 56.7131C21.8201 56.4976 21.9825 56.3104 22.1101 56.1513C22.2377 55.9905 22.3322 55.8397 22.3935 55.6989C22.4565 55.5563 22.488 55.4072 22.488 55.2514C22.488 55.0724 22.4449 54.9175 22.3587 54.7866C22.2742 54.6557 22.1582 54.5546 22.0107 54.4833C21.8632 54.4121 21.6975 54.3764 21.5135 54.3764C21.318 54.3764 21.1473 54.417 21.0015 54.4982C20.8573 54.5778 20.7454 54.6896 20.6659 54.8338C20.588 54.978 20.5491 55.147 20.5491 55.3409H19.9624C19.9624 55.0426 20.0312 54.7808 20.1687 54.5554C20.3063 54.33 20.4935 54.1544 20.7305 54.0284C20.9691 53.9025 21.2368 53.8395 21.5334 53.8395C21.8317 53.8395 22.096 53.9025 22.3264 54.0284C22.5567 54.1544 22.7374 54.3242 22.8683 54.538C22.9992 54.7518 23.0647 54.9896 23.0647 55.2514C23.0647 55.4387 23.0307 55.6218 22.9628 55.8008C22.8965 55.9781 22.7805 56.1761 22.6147 56.3949C22.4507 56.612 22.2228 56.8771 21.9312 57.1903L20.7877 58.4134V58.4531H23.1542V59H19.9425ZM27.1638 59L25.7717 53.9091H26.3981L27.462 58.0554H27.5118L28.5956 53.9091H29.2916L30.3754 58.0554H30.4251L31.489 53.9091H32.1155L30.7234 59H30.087L28.9635 54.9432H28.9237L27.8001 59H27.1638ZM33.5721 59.0895C33.3302 59.0895 33.1106 59.0439 32.9134 58.9528C32.7162 58.86 32.5596 58.7266 32.4436 58.5526C32.3276 58.3769 32.2696 58.1648 32.2696 57.9162C32.2696 57.6974 32.3127 57.5201 32.3988 57.3842C32.485 57.2467 32.6002 57.139 32.7444 57.0611C32.8885 56.9832 33.0476 56.9252 33.2216 56.8871C33.3973 56.8473 33.5738 56.8158 33.7511 56.7926C33.9831 56.7628 34.1712 56.7404 34.3154 56.7255C34.4612 56.7089 34.5673 56.6816 34.6336 56.6435C34.7015 56.6054 34.7355 56.5391 34.7355 56.4446V56.4247C34.7355 56.1795 34.6684 55.9889 34.5341 55.853C34.4016 55.7171 34.2002 55.6491 33.9301 55.6491C33.65 55.6491 33.4304 55.7105 33.2714 55.8331C33.1123 55.9557 33.0004 56.0866 32.9358 56.2259L32.379 56.027C32.4784 55.795 32.611 55.6143 32.7767 55.4851C32.9441 55.3542 33.1263 55.263 33.3236 55.2116C33.5224 55.1586 33.718 55.1321 33.9102 55.1321C34.0328 55.1321 34.1737 55.147 34.3328 55.1768C34.4935 55.205 34.6485 55.2638 34.7976 55.3533C34.9484 55.4428 35.0736 55.5779 35.173 55.7585C35.2724 55.9392 35.3221 56.1811 35.3221 56.4844V59H34.7355V58.483H34.7057C34.6659 58.5658 34.5996 58.6545 34.5068 58.7489C34.414 58.8434 34.2905 58.9238 34.1364 58.9901C33.9823 59.0563 33.7942 59.0895 33.5721 59.0895ZM33.6616 58.5625C33.8936 58.5625 34.0892 58.5169 34.2483 58.4258C34.409 58.3346 34.53 58.217 34.6112 58.0728C34.6941 57.9286 34.7355 57.777 34.7355 57.6179V57.081C34.7106 57.1108 34.6559 57.1381 34.5714 57.163C34.4886 57.1862 34.3924 57.2069 34.2831 57.2251C34.1754 57.2417 34.0701 57.2566 33.9674 57.2699C33.8663 57.2815 33.7843 57.2914 33.7213 57.2997C33.5688 57.3196 33.4263 57.3519 33.2937 57.3967C33.1628 57.4397 33.0567 57.5052 32.9755 57.593C32.896 57.6792 32.8562 57.7969 32.8562 57.946C32.8562 58.1499 32.9316 58.304 33.0824 58.4084C33.2349 58.5111 33.428 58.5625 33.6616 58.5625ZM36.634 60.4318C36.5346 60.4318 36.4459 60.4235 36.368 60.407C36.2901 60.392 36.2363 60.3771 36.2065 60.3622L36.3556 59.8452C36.4981 59.8816 36.6241 59.8949 36.7334 59.8849C36.8428 59.875 36.9398 59.8261 37.0243 59.7383C37.1105 59.6521 37.1892 59.5121 37.2604 59.3182L37.3698 59.0199L35.9579 55.1818H36.5942L37.6482 58.2244H37.688L38.742 55.1818H39.3783L37.7576 59.5568C37.6847 59.754 37.5944 59.9173 37.4866 60.0465C37.3789 60.1774 37.2538 60.2744 37.1113 60.3374C36.9704 60.4003 36.8113 60.4318 36.634 60.4318ZM16.344 69V63.9091H18.0642C18.4619 63.9091 18.7884 63.977 19.0436 64.1129C19.2988 64.2472 19.4877 64.4319 19.6104 64.6673C19.733 64.9026 19.7943 65.1702 19.7943 65.4702C19.7943 65.7701 19.733 66.0361 19.6104 66.2681C19.4877 66.5001 19.2996 66.6824 19.0461 66.815C18.7925 66.9459 18.4685 67.0114 18.0741 67.0114H16.6821V66.4545H18.0542C18.326 66.4545 18.5448 66.4148 18.7105 66.3352C18.8779 66.2557 18.9988 66.143 19.0734 65.9972C19.1497 65.8497 19.1878 65.674 19.1878 65.4702C19.1878 65.2663 19.1497 65.0882 19.0734 64.9357C18.9972 64.7833 18.8754 64.6656 18.708 64.5827C18.5406 64.4982 18.3194 64.456 18.0443 64.456H16.9605V69H16.344ZM18.7403 66.7131L19.9932 69H19.2773L18.0443 66.7131H18.7403ZM22.2521 69.0795C21.9074 69.0795 21.605 68.9975 21.3448 68.8335C21.0863 68.6694 20.8841 68.4399 20.7383 68.1449C20.5941 67.8499 20.522 67.5052 20.522 67.1108C20.522 66.7131 20.5941 66.3659 20.7383 66.0692C20.8841 65.7726 21.0863 65.5423 21.3448 65.3782C21.605 65.2141 21.9074 65.1321 22.2521 65.1321C22.5968 65.1321 22.8984 65.2141 23.157 65.3782C23.4171 65.5423 23.6193 65.7726 23.7635 66.0692C23.9093 66.3659 23.9822 66.7131 23.9822 67.1108C23.9822 67.5052 23.9093 67.8499 23.7635 68.1449C23.6193 68.4399 23.4171 68.6694 23.157 68.8335C22.8984 68.9975 22.5968 69.0795 22.2521 69.0795ZM22.2521 68.5526C22.514 68.5526 22.7294 68.4854 22.8984 68.3512C23.0675 68.217 23.1926 68.0405 23.2738 67.8217C23.355 67.603 23.3956 67.366 23.3956 67.1108C23.3956 66.8556 23.355 66.6178 23.2738 66.3974C23.1926 66.177 23.0675 65.9988 22.8984 65.8629C22.7294 65.727 22.514 65.6591 22.2521 65.6591C21.9903 65.6591 21.7749 65.727 21.6058 65.8629C21.4368 65.9988 21.3117 66.177 21.2305 66.3974C21.1493 66.6178 21.1087 66.8556 21.1087 67.1108C21.1087 67.366 21.1493 67.603 21.2305 67.8217C21.3117 68.0405 21.4368 68.217 21.6058 68.3512C21.7749 68.4854 21.9903 68.5526 22.2521 68.5526ZM26.5383 65.1818V65.679H24.5596V65.1818H26.5383ZM25.1363 64.267H25.7229V67.9062C25.7229 68.072 25.747 68.1963 25.795 68.2791C25.8447 68.3603 25.9077 68.415 25.9839 68.4432C26.0618 68.4697 26.1439 68.483 26.23 68.483C26.2947 68.483 26.3477 68.4796 26.3891 68.473C26.4305 68.4647 26.4637 68.4581 26.4885 68.4531L26.6079 68.9801C26.5681 68.995 26.5126 69.0099 26.4413 69.0249C26.3701 69.0414 26.2797 69.0497 26.1704 69.0497C26.0046 69.0497 25.8422 69.0141 25.6831 68.9428C25.5257 68.8716 25.3948 68.763 25.2904 68.6172C25.1876 68.4714 25.1363 68.2874 25.1363 68.0653V64.267ZM28.5443 69.0895C28.3023 69.0895 28.0828 69.0439 27.8856 68.9528C27.6884 68.86 27.5318 68.7266 27.4157 68.5526C27.2997 68.3769 27.2417 68.1648 27.2417 67.9162C27.2417 67.6974 27.2848 67.5201 27.371 67.3842C27.4572 67.2467 27.5724 67.139 27.7165 67.0611C27.8607 66.9832 28.0198 66.9252 28.1938 66.8871C28.3695 66.8473 28.546 66.8158 28.7233 66.7926C28.9553 66.7628 29.1434 66.7404 29.2876 66.7255C29.4334 66.7089 29.5394 66.6816 29.6057 66.6435C29.6737 66.6054 29.7077 66.5391 29.7077 66.4446V66.4247C29.7077 66.1795 29.6405 65.9889 29.5063 65.853C29.3737 65.7171 29.1724 65.6491 28.9023 65.6491C28.6222 65.6491 28.4026 65.7105 28.2435 65.8331C28.0844 65.9557 27.9726 66.0866 27.9079 66.2259L27.3511 66.027C27.4506 65.795 27.5831 65.6143 27.7488 65.4851C27.9162 65.3542 28.0985 65.263 28.2957 65.2116C28.4946 65.1586 28.6901 65.1321 28.8824 65.1321C29.005 65.1321 29.1459 65.147 29.305 65.1768C29.4657 65.205 29.6206 65.2638 29.7698 65.3533C29.9206 65.4428 30.0457 65.5779 30.1452 65.7585C30.2446 65.9392 30.2943 66.1811 30.2943 66.4844V69H29.7077V68.483H29.6778C29.6381 68.5658 29.5718 68.6545 29.479 68.7489C29.3862 68.8434 29.2627 68.9238 29.1086 68.9901C28.9545 69.0563 28.7664 69.0895 28.5443 69.0895ZM28.6338 68.5625C28.8658 68.5625 29.0613 68.5169 29.2204 68.4258C29.3812 68.3346 29.5022 68.217 29.5834 68.0728C29.6662 67.9286 29.7077 67.777 29.7077 67.6179V67.081C29.6828 67.1108 29.6281 67.1381 29.5436 67.163C29.4607 67.1862 29.3646 67.2069 29.2552 67.2251C29.1475 67.2417 29.0423 67.2566 28.9395 67.2699C28.8385 67.2815 28.7564 67.2914 28.6934 67.2997C28.541 67.3196 28.3985 67.3519 28.2659 67.3967C28.135 67.4397 28.0289 67.5052 27.9477 67.593C27.8682 67.6792 27.8284 67.7969 27.8284 67.946C27.8284 68.1499 27.9038 68.304 28.0546 68.4084C28.2071 68.5111 28.4001 68.5625 28.6338 68.5625ZM33.0256 65.1818V65.679H31.0469V65.1818H33.0256ZM31.6236 64.267H32.2102V67.9062C32.2102 68.072 32.2343 68.1963 32.2823 68.2791C32.332 68.3603 32.395 68.415 32.4712 68.4432C32.5491 68.4697 32.6312 68.483 32.7173 68.483C32.782 68.483 32.835 68.4796 32.8764 68.473C32.9179 68.4647 32.951 68.4581 32.9759 68.4531L33.0952 68.9801C33.0554 68.995 32.9999 69.0099 32.9286 69.0249C32.8574 69.0414 32.767 69.0497 32.6577 69.0497C32.492 69.0497 32.3295 69.0141 32.1705 68.9428C32.013 68.8716 31.8821 68.763 31.7777 68.6172C31.675 68.4714 31.6236 68.2874 31.6236 68.0653V64.267ZM33.908 69V65.1818H34.4947V69H33.908ZM34.2063 64.5455C34.092 64.5455 33.9934 64.5065 33.9105 64.4286C33.8293 64.3507 33.7887 64.2571 33.7887 64.1477C33.7887 64.0384 33.8293 63.9447 33.9105 63.8668C33.9934 63.7889 34.092 63.75 34.2063 63.75C34.3207 63.75 34.4184 63.7889 34.4996 63.8668C34.5825 63.9447 34.6239 64.0384 34.6239 64.1477C34.6239 64.2571 34.5825 64.3507 34.4996 64.4286C34.4184 64.5065 34.3207 64.5455 34.2063 64.5455ZM37.1203 69.0795C36.7756 69.0795 36.4732 68.9975 36.213 68.8335C35.9545 68.6694 35.7523 68.4399 35.6064 68.1449C35.4623 67.8499 35.3902 67.5052 35.3902 67.1108C35.3902 66.7131 35.4623 66.3659 35.6064 66.0692C35.7523 65.7726 35.9545 65.5423 36.213 65.3782C36.4732 65.2141 36.7756 65.1321 37.1203 65.1321C37.465 65.1321 37.7666 65.2141 38.0251 65.3782C38.2853 65.5423 38.4875 65.7726 38.6317 66.0692C38.7775 66.3659 38.8504 66.7131 38.8504 67.1108C38.8504 67.5052 38.7775 67.8499 38.6317 68.1449C38.4875 68.4399 38.2853 68.6694 38.0251 68.8335C37.7666 68.9975 37.465 69.0795 37.1203 69.0795ZM37.1203 68.5526C37.3821 68.5526 37.5976 68.4854 37.7666 68.3512C37.9356 68.217 38.0608 68.0405 38.142 67.8217C38.2232 67.603 38.2638 67.366 38.2638 67.1108C38.2638 66.8556 38.2232 66.6178 38.142 66.3974C38.0608 66.177 37.9356 65.9988 37.7666 65.8629C37.5976 65.727 37.3821 65.6591 37.1203 65.6591C36.8585 65.6591 36.643 65.727 36.474 65.8629C36.305 65.9988 36.1798 66.177 36.0986 66.3974C36.0174 66.6178 35.9768 66.8556 35.9768 67.1108C35.9768 67.366 36.0174 67.603 36.0986 67.8217C36.1798 68.0405 36.305 68.217 36.474 68.3512C36.643 68.4854 36.8585 68.5526 37.1203 68.5526ZM40.3326 66.7031V69H39.7459V65.1818H40.3127V65.7784H40.3624C40.4519 65.5845 40.5878 65.4287 40.7701 65.3111C40.9524 65.1918 41.1877 65.1321 41.476 65.1321C41.7346 65.1321 41.9608 65.1851 42.1547 65.2912C42.3485 65.3956 42.4993 65.5547 42.6071 65.7685C42.7148 65.9806 42.7686 66.2491 42.7686 66.5739V69H42.182V66.6136C42.182 66.3137 42.1041 66.08 41.9483 65.9126C41.7926 65.7436 41.5788 65.6591 41.307 65.6591C41.1197 65.6591 40.9524 65.6997 40.8049 65.7809C40.659 65.8621 40.5439 65.9806 40.4593 66.1364C40.3748 66.2921 40.3326 66.4811 40.3326 66.7031Z" fill="#E5C152"/>
<path d="M30 44C39.9411 44 48 35.9411 48 26C48 16.0589 39.9411 8 30 8C20.0589 8 12 16.0589 12 26C12 35.9411 20.0589 44 30 44Z" fill="#E6C252"/>
<path d="M38.9693 20.111L40.2236 18.7575C40.3654 18.7575 40.3654 18.6228 40.3654 18.4882L40.2236 18.3535L34.774 17L36.1701 22.152C36.2646 22.2417 36.3567 22.3315 36.4465 22.4213C36.4465 22.4213 36.5882 22.4213 36.5882 22.2866L37.9843 20.9331C39.522 22.8323 40.3583 25.1354 40.3583 27.4386C40.3583 33.1362 35.6102 37.7425 29.8843 37.7425C24.0165 37.7425 19.2685 33.1291 19.2685 27.4386C19.2685 25.1354 20.1047 22.8252 21.6425 21.0677L22.8969 22.2866C23.0386 22.4213 23.1732 22.4213 23.1732 22.4213C23.2677 22.3315 23.315 22.2417 23.315 22.152L24.8528 17L19.4031 18.3535L19.2614 18.4882V18.7575L20.6575 20.111C18.8433 22.1449 18 24.7244 18 27.4315C18 33.8024 23.3079 38.9543 29.8701 38.9543C36.4323 38.9543 41.7472 33.8024 41.7472 27.4315C41.7472 24.7173 40.7693 22.1449 38.9551 20.111H38.9693Z" fill="black"/>
<path d="M29.9411 26.156C30.9544 26.156 31.8828 26.9781 31.8828 28.0411C31.8828 29.1041 30.9544 29.9261 29.9411 29.9261C28.8426 29.9261 27.9143 29.1041 27.9143 28.0411C27.9143 26.9781 28.8426 26.156 29.9411 26.156ZM29.9411 30.734C31.4576 30.734 32.641 29.508 32.641 28.034C32.641 26.56 31.4576 25.334 29.9411 25.334C28.4245 25.334 27.156 26.56 27.156 28.034C27.156 29.508 28.4174 30.734 29.9411 30.734Z" fill="black"/>
<path d="M29.948 26.0497C29.2252 26.0497 28.637 25.4615 28.637 24.7386V20.6284C28.637 19.9056 29.2252 19.3174 29.948 19.3174C30.6708 19.3174 31.259 19.9056 31.259 20.6284V24.7386C31.259 25.4615 30.6708 26.0497 29.948 26.0497ZM29.948 20.0544C29.6291 20.0544 29.374 20.3095 29.374 20.6284V24.7386C29.374 25.0575 29.6291 25.3127 29.948 25.3127C30.2669 25.3127 30.522 25.0575 30.522 24.7386V20.6284C30.522 20.3095 30.2669 20.0544 29.948 20.0544Z" fill="black"/>
<path d="M36.4112 33.292C36.064 33.3345 35.7238 33.2424 35.4474 33.0298L32.1947 30.5212C31.9183 30.3086 31.7411 29.9967 31.6986 29.6495C31.6561 29.3023 31.7482 28.9621 31.9608 28.6857C32.4002 28.1117 33.2222 28.0054 33.7962 28.4519L37.049 30.9605C37.623 31.3999 37.7293 32.2219 37.2829 32.796C37.0703 33.0723 36.7584 33.2495 36.4112 33.292ZM32.9175 28.9125C32.7758 28.9338 32.634 29.0046 32.5348 29.1322C32.4427 29.2527 32.4002 29.4015 32.4214 29.5574C32.4427 29.7133 32.5207 29.8408 32.6411 29.9401L35.8939 32.4487C36.1348 32.6401 36.5104 32.5905 36.7018 32.3424C36.8931 32.0944 36.8506 31.733 36.5955 31.5345L33.3427 29.0259C33.2151 28.9267 33.0663 28.8912 32.9175 28.9125Z" fill="black"/>
<path d="M22.578 32.789C22.1387 32.215 22.245 31.393 22.8119 30.9536L26.0647 28.4449C26.6387 28.0056 27.4607 28.1048 27.9001 28.6788C28.1127 28.9552 28.2048 29.2953 28.1623 29.6426C28.1198 29.9898 27.9426 30.3016 27.6662 30.5142L24.4135 33.0229C24.1371 33.2355 23.7969 33.3276 23.4497 33.2851C23.1025 33.2426 22.7906 33.0654 22.578 32.789ZM26.5182 29.0261L23.2654 31.5347C23.0174 31.7261 22.9678 32.0875 23.1591 32.3426C23.3505 32.5977 23.719 32.6331 23.967 32.4489L27.2198 29.9402C27.3402 29.8481 27.4182 29.7135 27.4395 29.5576C27.4607 29.4016 27.4182 29.2528 27.3261 29.1324C27.2269 29.0048 27.0922 28.9339 26.9434 28.9127C26.7946 28.8914 26.6458 28.9339 26.5182 29.0261Z" fill="black"/>
</svg>
