<svg width="36" height="36" viewBox="0 0 36 36" fill="none" xmlns="http://www.w3.org/2000/svg">
<path d="M18 36C27.9411 36 36 27.9411 36 18C36 8.05887 27.9411 0 18 0C8.05888 0 0 8.05887 0 18C0 27.9411 8.05888 36 18 36Z" fill="#E6C252"/>
<path d="M27.7095 10.3587L29.0662 8.8976C29.218 8.8976 29.218 8.75528 29.218 8.60347L29.0662 8.46115L23.1837 7L24.6923 12.56C24.7935 12.6548 24.8947 12.7529 24.9959 12.8541C24.9959 12.8541 25.1477 12.8541 25.1477 12.7118L26.6563 11.2506C28.3167 13.3 29.218 15.7859 29.218 18.2812C29.218 24.4294 24.0945 29.4106 17.9084 29.4106C11.5704 29.4106 6.44687 24.4294 6.44687 18.2812C6.44687 15.7954 7.34823 13.3 9.00863 11.4024L10.3654 12.7213C10.5172 12.8636 10.669 12.8636 10.669 12.8636C10.7702 12.7687 10.8208 12.6707 10.8208 12.5694L12.4812 7.00949L6.59868 8.47064L6.44687 8.61296V8.90709L7.95546 10.3682C5.99145 12.56 5.09009 15.3494 5.09009 18.2717C5.09009 25.1505 10.8208 30.72 17.9084 30.72C24.9959 30.72 30.7266 25.16 30.7266 18.2717C30.7266 15.3399 29.6735 12.56 27.7095 10.3682V10.3587Z" fill="black"/>
<path d="M17.9652 16.8866C19.0563 16.8866 20.0621 17.7689 20.0621 18.917C20.0621 20.065 19.0563 20.9474 17.9652 20.9474C16.7792 20.9474 15.783 20.065 15.783 18.917C15.783 17.7689 16.7887 16.8866 17.9652 16.8866ZM17.9652 21.8393C19.6066 21.8393 20.878 20.511 20.878 18.9265C20.878 17.342 19.6066 16.0137 17.9652 16.0137C16.3238 16.0137 14.9575 17.342 14.9575 18.9265C14.9575 20.511 16.3238 21.8393 17.9652 21.8393Z" fill="black"/>
<path d="M17.9652 16.7724C17.1872 16.7724 16.5515 16.1367 16.5515 15.3587V10.9183C16.5515 10.1403 17.1872 9.50464 17.9652 9.50464C18.7432 9.50464 19.3789 10.1403 19.3789 10.9183V15.3587C19.3789 16.1367 18.7432 16.7724 17.9652 16.7724ZM17.9652 10.3016C17.6237 10.3016 17.3485 10.5768 17.3485 10.9183V15.3587C17.3485 15.7003 17.6237 15.9754 17.9652 15.9754C18.3068 15.9754 18.5819 15.7003 18.5819 15.3587V10.9183C18.5819 10.5768 18.3068 10.3016 17.9652 10.3016Z" fill="black"/>
<path d="M24.9483 24.5905C24.5688 24.6379 24.1988 24.5335 23.9046 24.3058L20.3941 21.5923C20.0905 21.3646 19.9007 21.0325 19.8533 20.653C19.8058 20.2734 19.9102 19.9034 20.1379 19.6093C20.6123 18.9926 21.5042 18.8787 22.1209 19.3531L25.6315 22.0667C26.2482 22.5411 26.362 23.4329 25.8876 24.0497C25.6599 24.3533 25.3278 24.543 24.9483 24.5905ZM21.1721 19.8654C21.0108 19.8844 20.8685 19.9698 20.7641 20.1026C20.6598 20.2355 20.6218 20.3968 20.6408 20.5581C20.6597 20.7194 20.7451 20.8712 20.878 20.9661L24.3885 23.6796C24.6542 23.8789 25.0527 23.8314 25.2614 23.5658C25.4702 23.3001 25.4227 22.9016 25.1476 22.6929L21.637 19.9793C21.5042 19.8749 21.3334 19.837 21.1816 19.856L21.1721 19.8654Z" fill="black"/>
<path d="M10.0142 24.0497C9.53983 23.4329 9.65369 22.5411 10.2704 22.0667L13.781 19.3531C14.3977 18.8787 15.2896 18.9926 15.764 19.6093C15.9917 19.9034 16.096 20.2829 16.0486 20.653C16.0012 21.023 15.8114 21.3646 15.5078 21.5923L11.9972 24.3058C11.7031 24.5335 11.3236 24.6379 10.9535 24.5905C10.5835 24.543 10.2419 24.3533 10.0142 24.0497ZM14.2648 19.9888L10.7543 22.7024C10.4791 22.9111 10.4317 23.3001 10.6404 23.5753C10.8492 23.8504 11.2477 23.8884 11.5133 23.6891L15.0239 20.9755C15.1567 20.8712 15.2421 20.7289 15.2611 20.5676C15.2801 20.4063 15.2421 20.245 15.1377 20.1121C15.0334 19.9793 14.8816 19.8939 14.7298 19.8749C14.578 19.856 14.4072 19.8939 14.2743 19.9983L14.2648 19.9888Z" fill="black"/>
</svg>
