<svg width="36" height="36" viewBox="0 0 36 36" fill="none" xmlns="http://www.w3.org/2000/svg">
<path d="M18 36C27.9411 36 36 27.9411 36 18C36 8.05887 27.9411 0 18 0C8.05888 0 0 8.05887 0 18C0 27.9411 8.05888 36 18 36Z" fill="#E6C252"/>
<path d="M5.72998 21.35C5.92998 17.68 8.54998 12.48 14.32 10.56C19.82 8.71996 25.47 10.96 28.34 14.85C27.61 15.13 26.88 15.42 26.16 15.7C25.54 15.94 24.92 16.17 24.31 16.43C24.13 16.5 24.03 16.5 23.89 16.34C22.28 14.46 20.25 13.28 17.8 12.86C14.95 12.37 12.33 12.99 9.98998 14.67C7.73998 16.28 6.36998 18.47 5.82998 21.18C5.82998 21.23 5.79998 21.27 5.78998 21.32C5.78998 21.32 5.76998 21.32 5.73998 21.35H5.72998Z" fill="black"/>
<path d="M29.28 15.58C29.19 15.65 29.1 15.71 29.01 15.78C25.92 17.92 22.84 20.06 19.75 22.2C19.62 22.29 19.51 22.43 19.44 22.57C19.03 23.42 18.11 23.88 17.2 23.68C16.29 23.48 15.63 22.65 15.64 21.7C15.64 20.78 16.32 19.96 17.24 19.78C17.44 19.74 17.66 19.73 17.85 19.77C18.13 19.82 18.36 19.75 18.61 19.65C22.05 18.31 25.49 16.97 28.93 15.63C29.03 15.59 29.14 15.55 29.25 15.51C29.26 15.53 29.27 15.55 29.29 15.58H29.28Z" fill="black"/>
<path d="M25.6199 19.25C26.9099 18.36 28.1799 17.48 29.5299 16.55C29.8299 17.38 30.1499 18.1501 30.3999 18.9501C30.7499 20.0701 30.8799 21.22 30.8699 22.39C30.8699 22.64 30.7899 22.73 30.5299 22.73C29.2399 22.73 27.9499 22.73 26.6499 22.73C26.4099 22.73 26.3299 22.66 26.3199 22.41C26.2499 21.33 26.0299 20.28 25.6199 19.25Z" fill="black"/>
</svg>
