<svg width="79" height="58" viewBox="0 0 79 58" fill="none" xmlns="http://www.w3.org/2000/svg">
<path d="M6 38.8567C6 38.8567 5.99999 39.5389 6.74824 39.5389C6.74824 40.2212 6.74823 40.9034 7.49648 41.5856C8.24472 42.9501 8.97099 44.3366 9.71923 45.701C11.1937 47.0655 11.9419 47.7477 13.4164 48.4519C14.8909 49.8164 16.3874 50.4986 17.8619 51.2028C18.6102 51.2028 19.3364 51.8851 20.0846 51.8851C21.5591 51.8851 22.3074 52.5673 23.0556 52.5673H26.7528C27.5011 52.5673 27.5011 51.8851 28.2273 51.8851C29.7018 51.8851 31.1983 51.2028 32.6728 50.5206C34.1473 49.8384 35.6438 49.1561 37.1183 48.4739C37.8665 47.7917 39.341 46.4272 40.0892 45.723C41.5637 45.0408 43.0602 44.3585 43.7865 43.6763C46.7574 42.3119 48.2319 41.6296 49.7064 40.9254H52.6774V41.6076H55.6484C57.1229 42.2899 58.6194 42.9721 60.0938 44.3585C61.5683 45.0408 62.3166 46.4052 63.0648 47.1094C63.8131 47.7917 63.813 48.4739 64.5393 49.1561V49.8383L66.762 48.4739H67.5103L68.9848 47.7917C68.9848 47.1094 68.2365 47.1094 68.2365 47.1094C68.2365 45.745 67.4883 45.0628 66.762 43.6763C66.0138 42.3119 64.5393 40.9254 63.0648 39.561C62.3166 38.8787 61.5903 38.1965 60.8421 37.5143C60.0938 36.8321 58.6193 36.8321 57.8711 36.1498C56.3966 35.4676 54.9001 35.4676 54.1739 34.7854H49.7284C48.2539 34.7854 46.0312 34.7854 44.5347 35.4676C43.7864 36.1498 42.312 36.8321 40.8375 37.5143C39.363 38.8788 37.8665 39.561 36.392 40.2652C34.9175 40.9474 34.1693 41.6297 33.421 42.3119C30.45 44.3586 28.2273 45.0628 26.7528 45.745H23.0556C22.3074 45.745 20.8329 45.745 20.0846 45.0628C18.6101 45.0628 17.8619 44.3806 16.3874 43.6983C16.3874 43.6983 15.6392 43.0161 14.9129 43.0161C14.9129 42.3339 14.1647 42.3339 13.4384 41.6517C12.6902 40.9695 11.964 40.2872 11.2157 38.9008C11.2157 38.9008 10.4675 38.2185 10.4675 37.5363C10.4675 37.5363 10.4675 36.8541 9.71923 36.8541L6.022 38.9008L6 38.8567Z" fill="#C7BCD2"/>
<path d="M6 23.9358V24.618C6 24.618 5.99999 25.3003 6.74824 25.3003C6.74824 25.9825 6.74823 26.6647 7.49648 27.347C8.24472 28.7114 8.97099 30.0979 9.71923 30.7801C11.1937 32.1445 11.9419 33.531 13.4164 34.2132C14.8909 35.5777 16.3874 36.2599 17.8619 36.9642C18.6102 36.9642 19.3364 36.9641 20.0846 37.6464H23.0556L23.8039 38.3286H26.0266C26.0266 37.6464 26.7749 37.6464 26.7749 37.6464H28.2493C29.7238 37.6464 31.2203 36.9641 32.6948 36.2819C34.1693 35.5997 35.6658 34.9174 37.1403 33.531C37.8885 32.8488 39.363 32.1666 40.1112 31.4843C41.5857 30.8021 43.0822 30.1199 43.8085 29.4376C46.7794 28.0732 48.2539 26.6867 49.7284 26.6867H52.6994C53.4477 26.6867 54.9221 27.369 55.6704 27.369C57.1449 28.0512 58.6414 28.7334 60.1158 29.4156C61.5903 30.7801 62.3386 31.4623 63.0868 32.1666C63.8351 32.8488 63.8351 33.531 64.5613 34.9175L66.784 34.2352L69.0068 32.8708C69.0068 32.8708 68.2585 32.8708 68.2585 32.1885C68.2585 31.5063 67.5103 30.1419 66.784 29.4376C66.0358 28.0732 64.5613 26.6867 63.0868 25.3223C62.3386 24.6401 61.6123 23.9578 60.8641 23.2756C60.1158 22.5934 58.6414 21.9112 57.8931 21.9112C56.4186 21.2289 54.9221 20.5467 54.1959 20.5467H52.7214C52.2226 20.5467 51.9732 20.3193 51.9732 19.8645H49.7504C48.2759 20.5467 46.0532 20.5467 44.5567 21.2289C43.8084 21.9112 42.334 22.5934 40.8595 23.2756C39.385 23.9578 37.8885 25.3223 36.414 26.0265C34.9395 26.7087 34.1913 27.391 33.4431 28.0732C30.4721 29.4377 28.2493 30.8241 26.7749 30.8241C26.7749 31.5063 26.0266 31.5063 26.0266 31.5063H23.0556C22.3074 31.5063 20.8329 31.5063 20.0846 30.8241C18.6101 30.8241 17.8619 30.1419 16.3874 29.4597C16.3874 29.4597 15.6392 28.7774 14.9129 28.7774C14.9129 28.0952 14.1647 28.0952 13.4384 27.413C12.6902 26.7308 11.964 25.3663 11.2157 24.6621C11.2157 23.9798 10.4675 23.9799 10.4675 23.2976C10.4675 22.6154 10.4675 22.6154 9.71923 22.6154L6.022 23.9798L6 23.9358Z" fill="#C7BCD2"/>
<path d="M8.99341 10.0934C8.99341 10.5482 9.24282 11.003 9.74165 11.4578C9.74165 12.14 9.74164 12.8223 10.4899 13.5045C11.2381 14.8689 11.9644 16.2554 12.7126 16.9376C14.1871 18.3021 14.9354 19.6885 16.4098 20.3707C17.8843 21.053 19.3808 21.7352 20.8553 22.4174C21.6036 23.0996 22.3298 23.0997 23.078 23.0997C24.5525 23.7819 25.3008 23.7819 26.049 23.7819H31.2427C32.7172 23.0996 34.2137 23.0996 35.6882 21.7352C37.1627 21.053 38.6592 20.3707 40.1337 19.6885C40.8819 19.0063 42.3564 18.3241 43.1047 17.6418C44.5791 16.9596 46.0756 15.5952 46.8019 14.8909C49.7728 13.5265 51.2473 12.8443 52.7218 12.8443H55.6928C56.4411 12.8443 57.9155 12.8443 58.6638 13.5265C60.1383 14.2087 61.6348 14.8909 63.1092 15.5731C64.5837 16.9376 65.332 17.6198 66.0802 18.324C66.8285 19.0063 66.8285 19.6885 67.5547 20.3707V21.053L69.7774 20.3707L70.5257 19.6885L72.0002 19.0063L71.2519 18.324C71.2519 16.9596 70.5037 16.2774 69.7774 15.5731C69.0292 14.2087 67.5547 12.8222 66.0802 11.4578C65.332 10.7756 64.6057 10.0934 63.8575 9.41113C63.1092 8.72891 61.6348 8.04666 60.8865 7.36444C59.412 7.36444 57.9155 6.68222 57.1893 6.68222C56.4631 6.68222 56.441 6 55.7148 6H52.7438C51.2693 6 49.0466 6.68221 47.5501 7.36444C46.8019 7.36444 45.3274 8.04668 43.8529 9.41113C42.3784 10.0934 40.8819 10.7756 39.4074 12.162C37.9329 12.8443 37.1847 13.5265 36.4365 13.5265C33.4655 15.5732 31.2427 16.2774 29.7682 16.9596H29.02C29.02 16.9596 28.2718 16.9596 28.2718 17.6418H26.049C25.3008 17.6418 23.8263 16.9596 23.078 16.9596C21.6036 16.2774 20.8553 16.2774 19.3808 15.5952C19.3808 14.9129 18.6326 14.9129 17.9063 14.2307C17.9063 14.2307 17.1581 13.5485 16.4318 13.5485C15.6836 12.184 14.9574 11.5018 14.2091 10.7976C14.2091 10.1153 13.4609 9.43313 13.4609 9.43313V8.75091H12.7126V8.06869L9.0154 10.1153L8.99341 10.0934Z" fill="#C7BCD2"/>
</svg>
