<svg width="36" height="36" viewBox="0 0 36 36" fill="none" xmlns="http://www.w3.org/2000/svg">
<path d="M18 36C27.9411 36 36 27.9411 36 18C36 8.05887 27.9411 0 18 0C8.05888 0 0 8.05887 0 18C0 27.9411 8.05888 36 18 36Z" fill="#E6C252"/>
<mask id="mask0_302_311" style="mask-type:luminance" maskUnits="userSpaceOnUse" x="6" y="5" width="24" height="26">
<path d="M29.4387 5.85156H6.56128V30.1481H29.4387V5.85156Z" fill="white"/>
</mask>
<g mask="url(#mask0_302_311)">
<path d="M17.642 27.7364C12.7549 27.7364 8.71942 23.7529 8.71942 18.7809C8.71942 13.8089 12.7452 9.97368 17.642 9.97368C22.5388 9.97368 26.7097 13.9572 26.7097 18.7809C26.7097 23.7529 22.6839 27.7364 17.642 27.7364ZM25.2678 10.6854L26.4194 9.41025C25.5581 8.56017 24.4065 7.84847 23.2549 7.27516L22.5388 8.83694C21.8226 8.55028 21.0968 8.26363 20.2355 8.12524L20.3807 7.98685L20.8162 6.42508C20.8162 6.28669 20.671 6.13842 20.5259 6.00003C20.5259 6.00003 18.8033 5.71338 17.6517 5.71338C16.5001 5.71338 14.7775 6.00003 14.7775 6.00003C14.4872 6.13842 14.4872 6.28669 14.4872 6.42508L14.9226 7.98685V8.12524C14.2065 8.26363 13.4807 8.55028 12.7646 8.83694L12.0484 7.27516C10.7517 7.84847 9.74522 8.55028 8.73877 9.41025L10.0355 10.8336C7.87748 12.8205 6.43555 15.6673 6.43555 18.7908C6.43555 24.8995 11.4678 29.8814 17.6517 29.8814C23.8355 29.8814 28.8678 24.9094 28.8678 18.7908C28.8678 15.6673 27.4259 12.8205 25.2678 10.6854Z" fill="black"/>
<path d="M17.0614 12.2473L16.7808 19.7794H18.6485L18.3582 12.2473H17.0614Z" fill="black"/>
</g>
</svg>
