<svg width="55" height="55" viewBox="0 0 55 55" fill="none" xmlns="http://www.w3.org/2000/svg">
<path d="M50.0332 8.87931C49.3963 8.26951 48.7766 7.65971 48.1397 7.06685C47.8815 6.81277 47.6061 6.81277 47.3996 7.03297C47.2102 7.23624 47.2274 7.49032 47.4856 7.72747C47.761 7.99849 48.0537 8.26951 48.3635 8.55747H23.9724V9.84483H48.2086C47.8987 10.1158 47.5889 10.353 47.2619 10.5732C46.9865 10.7765 46.9348 11.0305 47.0897 11.2677C47.2446 11.4879 47.5545 11.5218 47.8127 11.3185C48.5356 10.7934 49.2586 10.2852 49.9643 9.76013C50.3258 9.48911 50.343 9.18421 50.016 8.86237L50.0332 8.87931Z" fill="#C7BCD2"/>
<path d="M51.3411 15.2826C50.7042 14.6728 50.0845 14.063 49.4476 13.4702C49.1894 13.2161 48.914 13.2161 48.7074 13.4363C48.5181 13.6396 48.5353 13.8936 48.7935 14.1308C49.0689 14.4018 49.3615 14.6728 49.6714 14.9608H30.0483V16.2481H49.5337C49.2238 16.5192 48.914 16.7563 48.5869 16.9765C48.3115 17.1798 48.2599 17.4339 48.4148 17.671C48.5697 17.8912 48.8796 17.9251 49.1378 17.7218C49.8607 17.1967 50.5837 16.6886 51.2894 16.1635C51.6509 15.8924 51.6681 15.5875 51.3411 15.2657V15.2826Z" fill="#C7BCD2"/>
<path d="M54.7671 21.7697C54.1302 21.1599 53.5105 20.5501 52.8736 19.9572C52.6154 19.7031 52.34 19.7031 52.1335 19.9234C51.9441 20.1266 51.9613 20.3807 52.2195 20.6178C52.4949 20.8889 52.7876 21.1599 53.0974 21.4479H33.4744V22.7352H52.9597C52.6499 23.0062 52.34 23.2434 52.013 23.4636C51.7376 23.6668 51.6859 23.9209 51.8408 24.1581C51.9958 24.3783 52.3056 24.4122 52.5638 24.2089C53.2868 23.6838 54.0097 23.1756 54.7154 22.6505C55.0769 22.3795 55.0941 22.0746 54.7671 21.7528V21.7697Z" fill="#C7BCD2"/>
<path d="M54.7494 27.8002C54.0953 27.1904 53.4412 26.5806 52.7871 25.9877C52.5117 25.7337 52.2363 25.7337 52.0297 25.9539C51.8231 26.1571 51.8576 26.4112 52.1158 26.6484C52.4084 26.9194 52.701 27.1904 53.0108 27.4784H35.2124V28.7657H52.8559C52.5289 29.0367 52.219 29.2739 51.892 29.4941C51.5994 29.6974 51.5477 29.9514 51.7199 30.1886C51.892 30.4088 52.2018 30.4427 52.46 30.2394C53.2002 29.7143 53.9404 29.2061 54.6805 28.681C55.0592 28.41 55.0764 28.1051 54.7322 27.7833L54.7494 27.8002Z" fill="#C7BCD2"/>
<path d="M54.7492 34.2028C54.0951 33.593 53.441 32.9832 52.7869 32.3903C52.5115 32.1363 52.2361 32.1363 52.0295 32.3565C51.823 32.5597 51.8574 32.8138 52.1156 33.051C52.4082 33.322 52.7008 33.593 53.0107 33.881H37.5876V35.1683H52.8557C52.5287 35.4393 52.2189 35.6765 51.8918 35.8967C51.5992 36.1 51.5475 36.354 51.7197 36.5912C51.8918 36.8114 52.2016 36.8453 52.4598 36.642C53.2 36.1169 53.9402 35.6087 54.6803 35.0836C55.059 34.8126 55.0763 34.5077 54.732 34.1859L54.7492 34.2028Z" fill="#C7BCD2"/>
<path d="M24.1783 24.7852C24.1783 27.3938 22.0611 29.4772 19.4103 29.4772C16.7766 29.4772 14.625 27.3768 14.625 24.7852C14.625 22.2105 16.7939 20.0762 19.4103 20.0762C22.0439 20.0762 24.1783 22.1935 24.1783 24.7852ZM17.0348 24.7852C17.0348 26.0895 18.0676 27.1227 19.3931 27.1227C20.7185 27.1227 21.7685 26.1064 21.7685 24.7852C21.7685 23.4809 20.7357 22.4476 19.4103 22.4476C18.0849 22.4476 17.0348 23.4639 17.0348 24.7682V24.7852Z" fill="#C7BCD2"/>
<path d="M12.9555 25.6661C13.4202 26.7333 13.8505 27.7157 14.3153 28.7998C12.8522 30.6123 12.2841 32.8143 12.5423 35.406C11.9054 34.8978 11.3374 34.5082 10.8382 34.0509C9.46117 32.8313 8.42838 31.3914 7.70543 29.7145C7.63658 29.562 7.63658 29.291 7.72264 29.1555C8.85871 27.3261 10.4768 26.1404 12.6112 25.683C12.7489 25.6492 12.9038 25.6661 12.9382 25.6492L12.9555 25.6661Z" fill="#C7BCD2"/>
<path d="M23.2839 19.822C22.3888 19.1783 21.4593 18.7718 20.4093 18.6024C20.306 18.6024 20.1683 18.433 20.1511 18.3314C19.8241 16.0107 18.6708 14.1475 16.8634 12.6738C16.8462 12.6568 16.829 12.623 16.7429 12.5213C17.3454 12.4366 17.879 12.3181 18.4298 12.2842C20.3921 12.1487 22.2856 12.4028 24.1102 13.1311C24.3856 13.2328 24.5061 13.3852 24.5577 13.6562C25.0569 15.8752 24.6782 17.9248 23.2667 19.822H23.2839Z" fill="#C7BCD2"/>
<path d="M25.8655 23.9385C25.4007 22.8713 24.9704 21.8719 24.5056 20.7709C25.9515 18.9585 26.5368 16.7564 26.2786 14.2156C26.6573 14.4697 26.9671 14.6899 27.2769 14.9101C28.9638 16.2144 30.2204 17.8405 31.0983 19.7546C31.2188 20.0256 31.2188 20.2289 31.0466 20.483C29.7901 22.3801 28.0687 23.5658 25.8655 23.9046V23.9385Z" fill="#C7BCD2"/>
<path d="M18.6702 31.1712C18.9629 33.4749 20.1333 35.4398 22.0612 36.9813C22.0612 37.0321 22.0612 37.066 22.0612 37.1168C21.1661 37.1845 20.2538 37.32 19.3588 37.32C17.7407 37.32 16.1743 37.0321 14.6768 36.4053C14.5218 36.3376 14.3497 36.1682 14.3153 36.0327C13.8161 33.8645 14.0915 31.8149 15.4341 29.9686C15.4686 29.9178 15.5374 29.85 15.503 29.9008C16.5702 30.3243 17.5858 30.7478 18.7047 31.1882L18.6702 31.1712Z" fill="#C7BCD2"/>
<path d="M18.5497 18.4332C17.4652 18.8906 16.4497 19.3141 15.348 19.7714C13.5062 18.3485 11.2685 17.7726 8.68652 18.0267C8.97915 17.6371 9.20292 17.3153 9.4439 17.0104C10.7865 15.3504 12.4562 14.0969 14.4357 13.2669C14.5906 13.1991 14.8316 13.1991 14.9693 13.2669C16.9316 14.4526 18.1882 16.1465 18.5669 18.4163C18.5669 18.501 18.5669 18.4502 18.5669 18.4163L18.5497 18.4332Z" fill="#C7BCD2"/>
<path d="M12.9386 24.0568C10.5976 24.3447 8.60088 25.4966 6.94842 27.4784C6.86235 26.8347 6.74186 26.3096 6.70743 25.7676C6.56973 23.8196 6.82792 21.9394 7.60252 20.1439C7.67137 19.9914 7.82629 19.8051 7.98121 19.7712C10.2017 19.2631 12.3017 19.551 14.1952 20.8722C14.2468 20.9061 14.2812 20.9569 14.2468 20.9231C13.8165 21.9733 13.3862 22.9896 12.9386 24.0737V24.0568Z" fill="#C7BCD2"/>
<path d="M31.925 22.1257C32.0111 23.0574 32.1315 23.9043 32.1488 24.7513C32.1832 26.3605 31.8561 27.9188 31.2537 29.4264C31.1504 29.6635 31.0299 29.799 30.7545 29.8499C28.6373 30.3241 26.675 30.0362 24.8504 28.8505C24.7299 28.7658 24.6094 28.6811 24.4717 28.5794C25.1258 27.7156 25.5217 26.767 25.711 25.7507C25.7282 25.649 25.8659 25.5304 25.952 25.5135C28.293 25.2086 30.1865 24.0906 31.7012 22.329C31.7356 22.2951 31.7873 22.2612 31.9422 22.1427L31.925 22.1257Z" fill="#C7BCD2"/>
<path d="M20.2712 31.1372C21.3729 30.6799 22.3713 30.2564 23.4729 29.7991C25.3147 31.2389 27.5524 31.7979 30.0655 31.5607C29.9967 31.6962 29.9623 31.7809 29.9106 31.8656C28.4991 33.8644 26.6745 35.3381 24.4196 36.3036C24.2819 36.3714 24.0409 36.3883 23.9204 36.3036C21.8893 35.1009 20.6327 33.3732 20.2712 31.1372Z" fill="#C7BCD2"/>
<path d="M20.8389 8.23593C20.0299 7.55838 19.2209 6.88082 18.3947 6.20327C18.0676 5.93224 17.7233 5.93224 17.4996 6.20327C17.2758 6.47429 17.3274 6.76225 17.6545 7.05021C18.0848 7.42287 18.5324 7.77858 19.0143 8.18512C18.8594 8.18512 18.7733 8.20205 18.6701 8.21899C17.6028 8.33756 16.5184 8.37144 15.4684 8.57471C7.42985 10.2008 1.93884 17.9927 3.19541 25.9879C3.21262 26.0895 3.24705 26.1911 3.26426 26.3097H4.41754C4.19377 24.9377 4.14213 23.5148 4.31426 21.9903C4.77902 17.8572 6.8446 14.5711 10.2356 12.0811C12.3528 10.5396 14.7455 9.67574 17.3619 9.38778C17.8955 9.33696 18.4291 9.33696 18.9455 9.30308C18.5151 9.76043 18.0676 10.1161 17.6373 10.4888C17.3102 10.7598 17.2758 11.0647 17.4996 11.3357C17.7061 11.5898 18.0676 11.5898 18.3774 11.3357C19.2037 10.6582 20.0299 9.9637 20.8389 9.2692C21.252 8.91349 21.252 8.54083 20.8389 8.18512V8.23593Z" fill="#C7BCD2"/>
<path d="M3.47142 28.444C3.00666 29.3926 2.54191 30.3412 2.09436 31.2897C1.90502 31.6793 2.0083 32.0012 2.33535 32.1367C2.6624 32.2722 2.93781 32.1536 3.12716 31.781C3.38535 31.2728 3.62634 30.7646 3.90175 30.1887C3.95339 30.3242 3.98782 30.4259 4.02224 30.5106C4.40093 31.493 4.71077 32.5263 5.19274 33.4749C8.82472 40.7247 17.8616 43.977 25.4182 40.7586C25.5215 40.7078 25.6076 40.6569 25.7109 40.6231L25.4182 39.522C24.1273 40.081 22.733 40.5045 21.201 40.7247C17.0182 41.3176 13.2657 40.1826 9.97801 37.591C7.92964 35.9649 6.46652 33.8983 5.537 31.4761C5.34766 30.9848 5.20995 30.4767 5.05503 29.9854C5.60586 30.2734 6.07061 30.6122 6.55258 30.934C6.89684 31.1712 7.2239 31.1373 7.41324 30.8493C7.60259 30.5783 7.51652 30.2395 7.20668 30.0193C6.32881 29.4095 5.45094 28.7997 4.55585 28.1899C4.10831 27.885 3.74683 27.9697 3.48863 28.4609L3.47142 28.444Z" fill="#C7BCD2"/>
</svg>
