<svg width="36" height="36" viewBox="0 0 36 36" fill="none" xmlns="http://www.w3.org/2000/svg">
<path d="M18 36C27.9411 36 36 27.9411 36 18C36 8.05887 27.9411 0 18 0C8.05888 0 0 8.05887 0 18C0 27.9411 8.05888 36 18 36Z" fill="#E6C252"/>
<path d="M30.1064 9.63753C29.7484 9.28168 29.4 8.92583 29.0419 8.57987C28.8968 8.4316 28.7419 8.4316 28.6258 8.5601C28.5193 8.67872 28.529 8.82699 28.6742 8.96537C28.829 9.12353 28.9935 9.28168 29.1677 9.44972H15.4548V10.201H29.0806C28.9064 10.3591 28.7323 10.4975 28.5484 10.626C28.3935 10.7446 28.3645 10.8929 28.4516 11.0313C28.5387 11.1598 28.7129 11.1795 28.8581 11.0609C29.2645 10.7545 29.671 10.458 30.0677 10.1515C30.271 9.99338 30.2806 9.81546 30.0968 9.62765L30.1064 9.63753Z" fill="black"/>
<path d="M30.8418 13.3741C30.4838 13.0183 30.1354 12.6624 29.7773 12.3164C29.6321 12.1682 29.4773 12.1682 29.3612 12.2967C29.2547 12.4153 29.2644 12.5636 29.4096 12.7019C29.5644 12.8601 29.7289 13.0183 29.9031 13.1863H18.8708V13.9375H29.8257C29.6515 14.0957 29.4773 14.2341 29.2934 14.3626C29.1386 14.4812 29.1096 14.6295 29.1967 14.7678C29.2838 14.8963 29.4579 14.9161 29.6031 14.7975C30.0096 14.4911 30.416 14.1945 30.8128 13.8881C31.016 13.73 31.0257 13.552 30.8418 13.3642V13.3741Z" fill="black"/>
<path d="M32.7678 17.1597C32.4098 16.8039 32.0614 16.4481 31.7033 16.1021C31.5582 15.9538 31.4033 15.9538 31.2872 16.0823C31.1807 16.2009 31.1904 16.3492 31.3356 16.4876C31.4904 16.6457 31.6549 16.8039 31.8291 16.9719H20.7969V17.7232H31.7517C31.5775 17.8813 31.4033 18.0197 31.2195 18.1482C31.0646 18.2668 31.0356 18.4151 31.1227 18.5535C31.2098 18.682 31.384 18.7018 31.5291 18.5831C31.9356 18.2767 32.342 17.9802 32.7388 17.6738C32.942 17.5156 32.9517 17.3377 32.7678 17.1499V17.1597Z" fill="black"/>
<path d="M32.758 20.6788C32.3903 20.3229 32.0226 19.9671 31.6548 19.6211C31.5 19.4729 31.3451 19.4729 31.229 19.6014C31.1129 19.72 31.1322 19.8682 31.2774 20.0066C31.4419 20.1648 31.6064 20.3229 31.7806 20.491H21.7742V21.2422H31.6935C31.5097 21.4004 31.3355 21.5388 31.1516 21.6673C30.9871 21.7859 30.958 21.9341 31.0548 22.0725C31.1516 22.201 31.3258 22.2208 31.4709 22.1022C31.8871 21.7958 32.3032 21.4992 32.7193 21.1928C32.9322 21.0346 32.9419 20.8567 32.7484 20.6689L32.758 20.6788Z" fill="black"/>
<path d="M32.758 24.4151C32.3903 24.0593 32.0225 23.7034 31.6548 23.3575C31.4999 23.2092 31.3451 23.2092 31.229 23.3377C31.1128 23.4563 31.1322 23.6046 31.2774 23.743C31.4419 23.9011 31.6064 24.0593 31.7806 24.2273H23.1096V24.9785H31.6935C31.5096 25.1367 31.3354 25.2751 31.1516 25.4036C30.987 25.5222 30.958 25.6705 31.0548 25.8089C31.1516 25.9374 31.3257 25.9571 31.4709 25.8385C31.887 25.5321 32.3032 25.2355 32.7193 24.9291C32.9322 24.771 32.9419 24.593 32.7483 24.4052L32.758 24.4151Z" fill="black"/>
<path d="M15.5707 18.9193C15.5707 20.4416 14.3804 21.6574 12.89 21.6574C11.4094 21.6574 10.1997 20.4317 10.1997 18.9193C10.1997 17.4169 11.4191 16.1714 12.89 16.1714C14.3707 16.1714 15.5707 17.407 15.5707 18.9193ZM11.5545 18.9193C11.5545 19.6804 12.1352 20.2834 12.8804 20.2834C13.6255 20.2834 14.2158 19.6903 14.2158 18.9193C14.2158 18.1582 13.6352 17.5552 12.89 17.5552C12.1449 17.5552 11.5545 18.1483 11.5545 18.9094V18.9193Z" fill="black"/>
<path d="M9.26103 19.4335C9.52232 20.0562 9.76426 20.6295 10.0255 21.2621C9.20297 22.3198 8.88361 23.6048 9.02877 25.1172C8.67071 24.8206 8.35135 24.5933 8.07071 24.3264C7.29651 23.6147 6.71587 22.7745 6.30942 21.7959C6.27071 21.7069 6.27071 21.5488 6.3191 21.4697C6.9578 20.4022 7.86748 19.7102 9.06748 19.4434C9.1449 19.4236 9.232 19.4335 9.25135 19.4236L9.26103 19.4335Z" fill="black"/>
<path d="M15.0678 16.0231C14.5646 15.6474 14.042 15.4102 13.4517 15.3114C13.3936 15.3114 13.3162 15.2125 13.3065 15.1532C13.1226 13.799 12.4743 12.7117 11.4581 11.8517C11.4484 11.8418 11.4388 11.8221 11.3904 11.7628C11.7291 11.7133 12.0291 11.6441 12.3388 11.6244C13.442 11.5453 14.5065 11.6936 15.5323 12.1186C15.6872 12.1779 15.7549 12.2669 15.7839 12.425C16.0646 13.7199 15.8517 14.916 15.0581 16.0231H15.0678Z" fill="black"/>
<path d="M16.5192 18.4253C16.2579 17.8025 16.0159 17.2193 15.7546 16.5768C16.5675 15.5192 16.8966 14.2342 16.7514 12.7515C16.9643 12.8997 17.1385 13.0282 17.3127 13.1567C18.2611 13.9179 18.9675 14.8668 19.4611 15.9838C19.5288 16.1419 19.5288 16.2605 19.4321 16.4088C18.7256 17.5159 17.7579 18.2078 16.5192 18.4055V18.4253Z" fill="black"/>
<path d="M12.474 22.6459C12.6385 23.9902 13.2966 25.1368 14.3804 26.0363C14.3804 26.066 14.3804 26.0858 14.3804 26.1154C13.8772 26.155 13.3643 26.234 12.8611 26.234C11.9514 26.234 11.0708 26.066 10.2288 25.7003C10.1417 25.6607 10.045 25.5619 10.0256 25.4828C9.74496 24.2176 9.8998 23.0215 10.6546 21.9441C10.674 21.9144 10.7127 21.8749 10.6934 21.9045C11.2934 22.1517 11.8643 22.3988 12.4934 22.6558L12.474 22.6459Z" fill="black"/>
<path d="M12.4062 15.2127C11.7966 15.4796 11.2256 15.7267 10.6062 15.9936C9.57076 15.1633 8.3127 14.8272 6.86108 14.9755C7.0256 14.7481 7.15141 14.5603 7.28689 14.3824C8.04173 13.4137 8.98044 12.6822 10.0933 12.1979C10.1804 12.1583 10.3159 12.1583 10.3933 12.1979C11.4966 12.8898 12.203 13.8783 12.4159 15.2028C12.4159 15.2226 12.4159 15.2522 12.4159 15.2028L12.4062 15.2127Z" fill="black"/>
<path d="M9.2516 18.4943C7.93547 18.6623 6.81289 19.3345 5.88385 20.491C5.83547 20.1154 5.76772 19.809 5.74837 19.4926C5.67095 18.3559 5.81611 17.2587 6.25159 16.2109C6.2903 16.122 6.3774 16.0132 6.4645 15.9935C7.71288 15.6969 8.89353 15.865 9.95805 16.636C9.98708 16.6557 10.0064 16.6854 9.98708 16.6656C9.74514 17.2785 9.50321 17.8716 9.2516 18.5042V18.4943Z" fill="black"/>
<path d="M19.9259 17.3674C19.9743 17.9111 20.042 18.4053 20.0517 18.8996C20.0711 19.8386 19.8872 20.748 19.5485 21.6277C19.4904 21.7661 19.4227 21.8452 19.2679 21.8748C18.0775 22.1516 16.9743 21.9836 15.9485 21.2917C15.8808 21.2422 15.813 21.1928 15.7356 21.1335C16.1033 20.6294 16.3259 20.0758 16.4324 19.4828C16.442 19.4234 16.5195 19.3543 16.5679 19.3444C17.884 19.1664 18.9485 18.5141 19.8001 17.486C19.8195 17.4663 19.8485 17.4465 19.9356 17.3773L19.9259 17.3674Z" fill="black"/>
<path d="M13.374 22.6261C13.9934 22.3592 14.5547 22.1121 15.174 21.8452C16.2095 22.6854 17.4676 23.0116 18.8805 22.8732C18.8418 22.9523 18.8224 23.0017 18.7934 23.0511C17.9998 24.2175 16.974 25.0775 15.7063 25.6409C15.6289 25.6805 15.4934 25.6904 15.4256 25.6409C14.2837 24.9391 13.5772 23.9309 13.374 22.6261Z" fill="black"/>
<path d="M13.6934 9.26205C13.2385 8.86667 12.7837 8.47128 12.3192 8.07589C12.1353 7.91774 11.9417 7.91774 11.8159 8.07589C11.6901 8.23405 11.7192 8.40209 11.903 8.57013C12.145 8.78759 12.3966 8.99517 12.6676 9.2324C12.5805 9.2324 12.5321 9.24228 12.474 9.25217C11.874 9.32136 11.2643 9.34113 10.674 9.45975C6.15465 10.4087 3.06755 14.9556 3.774 19.6212C3.78368 19.6805 3.80304 19.7398 3.81271 19.809H4.4611C4.33529 19.0083 4.30626 18.178 4.40304 17.2884C4.66433 14.8766 5.82562 12.9589 7.73207 11.5059C8.92239 10.6064 10.2676 10.1023 11.7385 9.93421C12.0385 9.90456 12.3385 9.90456 12.6288 9.88479C12.3869 10.1517 12.1353 10.3593 11.8934 10.5767C11.7095 10.7349 11.6901 10.9128 11.8159 11.0709C11.9321 11.2192 12.1353 11.2192 12.3095 11.0709C12.774 10.6756 13.2385 10.2703 13.6934 9.86502C13.9256 9.65744 13.9256 9.43998 13.6934 9.2324V9.26205Z" fill="black"/>
<path d="M3.92905 21.0544C3.66776 21.6079 3.40647 22.1614 3.15486 22.715C3.04841 22.9423 3.10647 23.1301 3.29034 23.2092C3.47421 23.2883 3.62905 23.2191 3.7355 23.0016C3.88067 22.7051 4.01615 22.4086 4.17099 22.0725C4.20002 22.1516 4.21938 22.2109 4.23873 22.2603C4.45163 22.8336 4.62583 23.4366 4.89679 23.9901C6.93873 28.2208 12.0194 30.1186 16.2678 28.2405C16.3258 28.2109 16.3742 28.1812 16.4323 28.1614L16.2678 27.5189C15.542 27.8451 14.7581 28.0923 13.8968 28.2208C11.5452 28.5667 9.4355 27.9044 7.58712 26.3921C6.4355 25.4432 5.61292 24.2372 5.09034 22.8237C4.98389 22.5371 4.90647 22.2405 4.81938 21.9539C5.12905 22.1219 5.39034 22.3196 5.66131 22.5074C5.85486 22.6458 6.03873 22.626 6.14518 22.458C6.25163 22.2998 6.20325 22.1021 6.02905 21.9736C5.5355 21.6178 5.04196 21.2619 4.53873 20.9061C4.28712 20.7282 4.08389 20.7776 3.93873 21.0642L3.92905 21.0544Z" fill="black"/>
</svg>
