<svg width="55" height="55" viewBox="0 0 55 55" fill="none" xmlns="http://www.w3.org/2000/svg">
<path d="M27.4586 0.000244141C12.3062 0.000244141 0 12.3061 0 27.4587C0.000117188 42.6111 12.3062 54.9174 27.4586 54.9174C42.6109 54.9174 54.9171 42.6112 54.9171 27.4587C54.9171 12.3064 42.6109 0.000244141 27.4586 0.000244141ZM3.84879 1.05493C3.14856 1.05493 2.477 1.3331 1.98186 1.82824C1.48672 2.32338 1.20855 2.99494 1.20855 3.69517C1.20852 4.04191 1.27679 4.38527 1.40946 4.70562C1.54213 5.02598 1.73661 5.31706 1.98178 5.56226C2.22695 5.80745 2.51802 6.00195 2.83836 6.13465C3.1587 6.26735 3.50205 6.33565 3.84879 6.33565C4.19553 6.33568 4.53888 6.26741 4.85924 6.13474C5.17959 6.00207 5.47068 5.8076 5.71587 5.56242C5.96106 5.31725 6.15556 5.02618 6.28826 4.70584C6.42096 4.38549 6.48926 4.04215 6.48926 3.69541C6.48929 3.34867 6.42102 3.00532 6.28835 2.68496C6.15568 2.3646 5.96121 2.07352 5.71603 1.82833C5.47086 1.58313 5.17979 1.38863 4.85945 1.25593C4.53911 1.12323 4.19553 1.05493 3.84879 1.05493ZM51.2218 1.05493C50.5216 1.05493 49.85 1.3331 49.3549 1.82824C48.8598 2.32338 48.5816 2.99494 48.5816 3.69517C48.5816 4.04191 48.6498 4.38527 48.7825 4.70562C48.9152 5.02598 49.1097 5.31706 49.3548 5.56226C49.6 5.80745 49.8911 6.00195 50.2114 6.13465C50.5317 6.26735 50.8751 6.33565 51.2218 6.33565C51.5686 6.33569 51.9119 6.26744 52.2323 6.13477C52.5527 6.00211 52.8438 5.80764 53.089 5.56246C53.3342 5.31729 53.5287 5.02622 53.6614 4.70587C53.7941 4.38551 53.8624 4.04216 53.8624 3.69541C53.8624 3.34865 53.7942 3.00528 53.6615 2.68491C53.5288 2.36454 53.3343 2.07344 53.0891 1.82824C52.8439 1.58305 52.5528 1.38855 52.2325 1.25587C51.9121 1.12318 51.5686 1.0549 51.2218 1.05493ZM27.4586 2.10962C41.471 2.10962 52.8077 13.4464 52.8077 27.4587C52.8077 41.4712 41.471 52.808 27.4586 52.808C13.4461 52.808 2.10938 41.4711 2.10938 27.4587C2.10938 13.4464 13.4462 2.10962 27.4586 2.10962ZM32.5778 4.7385C32.5209 4.73732 32.4659 4.73756 32.4125 4.73885C31.7039 4.75643 31.3075 5.00088 31.4112 5.52846C32.6387 10.4732 32.7881 15.582 30.815 20.0965C32.305 20.7797 33.5549 21.9009 34.3958 23.2954C37.7914 20.4803 41.2061 16.8128 43.3745 13.9455C46.4378 9.89499 36.1562 4.81502 32.5778 4.7385ZM21.0608 5.25319C16.3698 5.18897 8.08172 12.261 10.4401 13.0679C15.3386 14.4776 19.8397 16.9041 22.7629 20.8735C24.0536 19.9497 25.6241 19.3954 27.3193 19.3665C26.5792 15.0181 25.11 10.227 23.7111 6.91526C23.2187 5.74959 22.2566 5.26947 21.0608 5.25319ZM48.8125 19.751C48.6841 19.7533 48.5549 19.8076 48.426 19.9201C44.7589 23.4544 40.4108 26.1374 35.5166 26.6874C35.5407 26.9415 35.5543 27.1984 35.5543 27.4587C35.5543 28.8833 35.1817 30.223 34.5311 31.388C38.6671 32.9213 43.551 34.0447 47.1189 34.4891C52.9627 35.2168 51.032 19.7115 48.8125 19.751ZM7.37074 20.4049C1.72723 20.4643 4.18266 37.0073 6.48434 34.9986C10.1531 31.4625 14.5035 28.7783 19.4005 28.2303C19.3763 27.976 19.3628 27.719 19.3628 27.4587C19.3628 26.0356 19.7347 24.697 20.3843 23.5327C16.247 21.9984 11.3605 20.8741 7.79133 20.4296C7.64625 20.4115 7.50633 20.4032 7.37074 20.4049ZM27.4586 21.4724C26.1219 21.4724 24.8913 21.9056 23.8976 22.6394C24.1303 23.0574 24.3476 23.4897 24.548 23.9371C25.3405 23.2799 26.3558 22.8836 27.4586 22.8836C27.5575 22.8836 27.6554 22.8877 27.7527 22.8942C27.7218 22.4336 27.6786 21.9605 27.6229 21.4762C27.5681 21.475 27.5136 21.4724 27.4586 21.4724ZM29.8515 21.967C29.6068 22.376 29.3423 22.7785 29.0564 23.1742C30.146 23.5844 31.0413 24.4 31.5567 25.4348C31.9431 25.1758 32.3341 24.8996 32.7286 24.6067C32.0955 23.434 31.0822 22.501 29.8515 21.967ZM22.3539 24.321C21.7949 25.2322 21.4721 26.306 21.4721 27.4587C21.4721 27.6861 21.4857 27.9099 21.5101 28.1302C21.9847 28.138 22.464 28.1657 22.9478 28.2154C22.9062 27.969 22.8833 27.7164 22.8833 27.4587C22.8833 26.5228 23.1693 25.6498 23.6575 24.9224C23.2399 24.7174 22.805 24.5165 22.3539 24.321ZM27.4586 24.9931C26.0842 24.9931 24.9929 26.0844 24.9929 27.4587C24.9929 28.8331 26.0842 29.9244 27.4586 29.9244C28.8329 29.9244 29.9242 28.8331 29.9242 27.4587C29.9242 26.0844 28.8329 24.9931 27.4586 24.9931ZM31.9696 26.7041C32.0109 26.9499 32.0337 27.2017 32.0337 27.4587C32.0337 28.3962 31.747 29.2705 31.2574 29.9984C31.6751 30.2035 32.11 30.4045 32.5611 30.6C33.1219 29.688 33.4452 28.613 33.4452 27.4587C33.4452 27.232 33.4317 27.0087 33.4075 26.7884C32.9328 26.7812 32.4533 26.7536 31.9696 26.7041ZM23.3589 29.4798C22.9725 29.7387 22.5816 30.015 22.187 30.3077C22.8191 31.4802 23.8311 32.4136 25.0604 32.9484C25.3054 32.5396 25.5697 32.1369 25.8557 31.7414C24.7673 31.33 23.8731 30.5141 23.3589 29.4798ZM30.3635 30.9852C29.5716 31.6394 28.5585 32.034 27.4584 32.034C27.3571 32.034 27.2569 32.0293 27.157 32.0226C27.188 32.4832 27.2311 32.9564 27.2868 33.4408C27.3439 33.4423 27.4009 33.4452 27.4584 33.4452C28.7926 33.4452 30.021 33.0134 31.0137 32.2822C30.7809 31.8644 30.5639 31.4323 30.3635 30.9852ZM20.5192 31.6189C17.1217 34.4347 13.7047 38.1049 11.5351 40.9738C7.7775 45.9425 24.1016 52.4598 23.4988 49.3902C22.2707 44.4444 22.1218 39.3343 24.0964 34.8187C22.6077 34.1347 21.3593 33.0132 20.5192 31.6189ZM32.1491 34.0479C30.8577 34.9707 29.2862 35.5237 27.5903 35.5511C28.3304 39.9 29.7997 44.6914 31.1988 48.0035C33.623 53.7422 47.4293 42.8637 44.4694 41.8512C39.5721 40.4417 35.0725 38.0156 32.1491 34.0479ZM3.64641 48.5818C3.29967 48.5818 2.95632 48.6501 2.63596 48.7827C2.31561 48.9154 2.02452 49.1099 1.77933 49.3551C1.53413 49.6002 1.33963 49.8913 1.20694 50.2116C1.07424 50.532 1.00594 50.8753 1.00594 51.2221C1.00589 51.5689 1.07416 51.9122 1.20685 52.2326C1.33953 52.553 1.53403 52.8441 1.77924 53.0894C2.02445 53.3346 2.31557 53.5291 2.63596 53.6618C2.95635 53.7944 3.29974 53.8627 3.64652 53.8627C3.99326 53.8627 4.33661 53.7944 4.65695 53.6617C4.97729 53.529 5.26836 53.3345 5.51353 53.0893C5.75871 52.8441 5.95318 52.553 6.08585 52.2326C6.21852 51.9123 6.28679 51.5689 6.28676 51.2222C6.28676 50.522 6.00859 49.8504 5.51345 49.3553C5.01831 48.8601 4.34664 48.5818 3.64641 48.5818ZM51.2428 48.5818C50.8961 48.5818 50.5527 48.6501 50.2324 48.7827C49.912 48.9154 49.6209 49.1099 49.3757 49.3551C49.1305 49.6002 48.936 49.8913 48.8033 50.2116C48.6706 50.532 48.6023 50.8753 48.6023 51.2221C48.6023 51.5688 48.6706 51.9122 48.8032 52.2326C48.9359 52.5529 49.1303 52.844 49.3755 53.0892C49.6207 53.3344 49.9118 53.5289 50.2321 53.6617C50.5525 53.7944 50.8958 53.8627 51.2426 53.8627C51.5893 53.8627 51.9327 53.7944 52.2531 53.6617C52.5734 53.529 52.8645 53.3346 53.1097 53.0894C53.3549 52.8442 53.5494 52.5531 53.6821 52.2327C53.8148 51.9123 53.8831 51.569 53.883 51.2222C53.883 50.522 53.6049 49.8504 53.1097 49.3553C52.6146 48.8601 51.943 48.5818 51.2428 48.5818Z" fill="#DDD4E5"/>
</svg>
