<svg width="37" height="37" viewBox="0 0 37 37" fill="none" xmlns="http://www.w3.org/2000/svg">
<rect x="0.220703" y="0.919922" width="36" height="36" rx="18" fill="white"/>
<path d="M26.8361 13.3863C26.3471 14.1015 25.756 14.7108 25.0627 15.2144C25.07 15.3166 25.0736 15.4698 25.0736 15.6742C25.0736 16.6229 24.935 17.5698 24.6576 18.5149C24.3803 19.46 23.9589 20.3667 23.3933 21.2352C22.8277 22.1037 22.1544 22.8718 21.3736 23.5395C20.5927 24.2073 19.6512 24.74 18.5493 25.1378C17.4473 25.5355 16.2687 25.7344 15.0134 25.7344C13.0357 25.7344 11.2258 25.2053 9.58374 24.1471C9.83917 24.1763 10.1238 24.1909 10.4376 24.1909C12.0796 24.1909 13.5429 23.6873 14.8273 22.6802C14.061 22.6656 13.375 22.4302 12.7693 21.9741C12.1636 21.518 11.7476 20.936 11.5213 20.2281C11.7622 20.2646 11.9848 20.2828 12.1891 20.2828C12.5029 20.2828 12.8131 20.2427 13.1196 20.1624C12.3022 19.9945 11.6253 19.5877 11.0889 18.9418C10.5525 18.296 10.2843 17.5461 10.2843 16.6922V16.6484C10.7806 16.9258 11.3134 17.0754 11.8826 17.0973C11.4009 16.7762 11.0178 16.3565 10.7332 15.8384C10.4485 15.3202 10.3062 14.7583 10.3062 14.1525C10.3062 13.5103 10.4668 12.9155 10.7879 12.3682C11.671 13.4556 12.7456 14.3259 14.0118 14.979C15.278 15.6322 16.6335 15.9953 18.0785 16.0683C18.0202 15.7909 17.991 15.5209 17.991 15.2582C17.991 14.2803 18.3358 13.4465 19.0254 12.7568C19.7151 12.0672 20.5489 11.7223 21.5268 11.7223C22.5485 11.7223 23.4097 12.0945 24.1103 12.8389C24.9058 12.6857 25.6538 12.401 26.3544 11.9851C26.0844 12.8243 25.5662 13.4738 24.7999 13.9336C25.4786 13.8606 26.1574 13.6782 26.8361 13.3863Z" fill="#4099FF"/>
</svg>
