<svg width="271" height="96" viewBox="0 0 271 96" fill="none" xmlns="http://www.w3.org/2000/svg">
<g filter="url(#filter0_d_316_488)">
<rect x="4" y="2" width="263" height="87" rx="7" fill="white" fill-opacity="0.13" shape-rendering="crispEdges"/>
<rect x="3.46649" y="1.46649" width="264.067" height="88.067" rx="7.53351" stroke="#582C83" stroke-width="1.06701" shape-rendering="crispEdges"/>
<path d="M126.591 27.3762V25.5752H138.064V27.0487L132.422 33.2235C135.575 33.4808 138.349 34.9777 138.349 38.2522C138.349 41.5267 135.67 43.6317 132.328 43.6317C129.317 43.6317 127.088 42.3453 125.619 40.4742L127.088 39.1878C128.463 40.8718 130.147 41.8307 132.351 41.8307C134.556 41.8307 136.287 40.4742 136.287 38.3691C136.287 36.1472 134.224 34.9309 131.261 34.9309H130.099L129.696 33.7381L135.362 27.423H126.567L126.591 27.3762Z" fill="white"/>
<path d="M147.121 28.2644H149.017V33.4802H154.351V35.3046H149.017V40.5204H147.121V35.3046H141.787V33.4802H147.121V28.2644Z" fill="white"/>
<path d="M159.068 30.1597L157.575 29.0838C159.187 26.6981 160.894 25.3181 164.047 25.3181C167.2 25.3181 169.618 27.4465 169.618 30.3702C169.618 32.9898 168.243 34.5803 165.066 37.2934L160.254 41.5035H169.784V43.3279H157.219V41.7842L163.738 36.1006C166.488 33.6681 167.484 32.3115 167.484 30.5339C167.484 28.4523 165.825 27.1425 163.857 27.1425C161.795 27.1425 160.467 28.2184 159.021 30.1831L159.068 30.1597Z" fill="white"/>
<path d="M173.103 27.5864H172.107L174.43 24.499H175.331L177.654 27.5864H176.635L174.857 25.3176L173.079 27.5864H173.103Z" fill="white"/>
<path d="M196.145 43.3043H194.082V36.2875L186.615 25.5752H189.08L195.149 34.4397L201.265 25.5752H203.636L196.168 36.2641V43.3043H196.145Z" fill="white"/>
<path d="M209.302 41.9243C211.128 41.9243 212.408 41.1992 213.498 40.0765L214.731 41.1758C213.404 42.6494 211.768 43.6317 209.255 43.6317C205.604 43.6317 202.641 40.8718 202.641 36.802C202.641 32.9896 205.343 29.949 209.018 29.949C212.953 29.949 215.205 33.0364 215.205 36.8956C215.205 37.0827 215.205 37.2698 215.205 37.5037H204.68C204.964 40.3338 207.027 41.9477 209.35 41.9477L209.302 41.9243ZM213.166 36.0302C212.953 33.6445 211.578 31.5628 208.923 31.5628C206.624 31.5628 204.869 33.4574 204.609 36.0302H213.166Z" fill="white"/>
<path d="M219.164 32.7325L218.571 31.142C220.041 30.4871 221.463 30.0427 223.407 30.0427C227.034 30.0427 229.05 31.8671 229.05 35.3053V43.3045H227.153V41.3164C226.228 42.5092 224.688 43.5617 222.341 43.5617C219.875 43.5617 217.386 42.2052 217.386 39.4686C217.386 36.7321 219.709 35.2118 223.052 35.2118C224.735 35.2118 225.944 35.4457 227.129 35.7731V35.3053C227.129 32.943 225.659 31.7268 223.17 31.7268C221.606 31.7268 220.373 32.1244 219.14 32.6857L219.164 32.7325ZM219.377 39.4218C219.377 41.0825 220.918 42.0648 222.72 42.0648C225.162 42.0648 227.177 40.5913 227.177 38.5096V37.2466C226.205 36.966 224.901 36.6853 223.265 36.6853C220.776 36.6853 219.377 37.7612 219.377 39.4218Z" fill="white"/>
<path d="M234.976 43.3036H233.009V30.2056H234.976V33.6205C235.948 31.4453 237.868 29.8782 240.405 29.9718V32.0768H240.263C237.371 32.0768 235 34.135 235 38.0878V43.3036H234.976Z" fill="white"/>
<path d="M138.16 49.8762H139.819L144.75 64.705L149.894 49.923H152.028L145.603 67.7924H143.896L138.966 53.408L134.011 67.7924H132.328L125.903 49.923H128.108L133.252 64.705L138.183 49.8762H138.16Z" fill="white"/>
<path d="M154.09 57.0799L153.497 55.4894C154.967 54.8345 156.39 54.3901 158.333 54.3901C161.96 54.3901 163.976 56.2145 163.976 59.6527V67.6519H162.079V65.6872C161.154 66.88 159.614 67.9325 157.267 67.9325C154.801 67.9325 152.312 66.576 152.312 63.8394C152.312 61.1029 154.612 59.5826 157.978 59.5826C159.661 59.5826 160.87 59.8164 162.055 60.1439V59.6995C162.055 57.3372 160.586 56.1209 158.096 56.1209C156.532 56.1209 155.299 56.5186 154.066 57.0799H154.09ZM154.303 63.7692C154.303 65.4299 155.844 66.4122 157.646 66.4122C160.088 66.4122 162.079 64.9387 162.079 62.8571V61.594C161.107 61.3134 159.803 61.0327 158.167 61.0327C155.678 61.0327 154.303 62.1086 154.303 63.7692Z" fill="white"/>
<path d="M169.902 67.6752H167.935V54.5772H169.902V57.9921C170.874 55.8169 172.795 54.2498 175.331 54.3433V56.4484H175.189C172.297 56.4484 169.926 58.5066 169.926 62.4594V67.6752H169.902Z" fill="white"/>
<path d="M180.048 67.6752H178.081V54.5772H180.048V57.9921C181.02 55.8169 182.941 54.2498 185.477 54.3433V56.4484H185.335C182.443 56.4484 180.072 58.5066 180.072 62.4594V67.6752H180.048Z" fill="white"/>
<path d="M188.345 57.0799L187.753 55.4894C189.222 54.8345 190.645 54.3901 192.589 54.3901C196.216 54.3901 198.231 56.2145 198.231 59.6527V67.6519H196.334V65.6872C195.41 66.88 193.869 67.9325 191.522 67.9325C189.057 67.9325 186.567 66.576 186.567 63.8394C186.567 61.1029 188.867 59.5826 192.233 59.5826C193.916 59.5826 195.125 59.8164 196.311 60.1439V59.6995C196.311 57.3372 194.841 56.1209 192.352 56.1209C190.787 56.1209 189.554 56.5186 188.322 57.0799H188.345ZM188.559 63.7692C188.559 65.4299 190.1 66.4122 191.901 66.4122C194.343 66.4122 196.334 64.9387 196.334 62.8571V61.594C195.362 61.3134 194.059 61.0327 192.423 61.0327C189.934 61.0327 188.559 62.1086 188.559 63.7692Z" fill="white"/>
<path d="M204.158 67.6758H202.19V54.5778H204.158V56.8466C205.035 55.4198 206.41 54.2971 208.709 54.2971C211.91 54.2971 213.782 56.4255 213.782 59.5363V67.6758H211.815V60.0275C211.815 57.595 210.487 56.0747 208.14 56.0747C205.793 56.0747 204.158 57.712 204.158 60.1678V67.6758Z" fill="white"/>
<path d="M220.397 63.9569C220.397 65.5473 221.298 66.1321 222.625 66.1321C223.289 66.1321 223.858 66.0151 224.546 65.6643V67.3249C223.858 67.6757 223.1 67.8863 222.151 67.8863C220.018 67.8863 218.406 66.8571 218.406 64.1907V56.2852H216.557V54.5544H218.406V50.6016H220.373V54.5544H224.593V56.2852H220.373V63.9335L220.397 63.9569Z" fill="white"/>
<path d="M234.312 68.0966C233.174 70.8098 231.894 71.7921 229.903 71.7921C228.812 71.7921 227.983 71.5583 227.082 71.1373L227.746 69.5936C228.386 69.921 228.978 70.0847 229.832 70.0847C231.017 70.0847 231.752 69.4766 232.558 67.6289L226.537 54.5776H228.718L233.554 65.5004L237.821 54.5776H239.931L234.36 68.12L234.312 68.0966Z" fill="white"/>
<path d="M63.0952 80C81.0445 80 95.5952 64.5538 95.5952 45.5C95.5952 26.4462 81.0445 11 63.0952 11C45.146 11 30.5952 26.4462 30.5952 45.5C30.5952 64.5538 45.146 80 63.0952 80Z" fill="white"/>
<path d="M62.9765 20.8738C62.9765 20.8738 67.4103 21.7494 77.0359 24.201C86.1294 26.5093 89.3056 27.4327 89.3056 27.4327C89.3056 27.4327 89.7732 36.682 85.6457 53.4295C82.3243 66.9453 69.9094 74.4276 62.9765 78.6622C56.0435 74.4276 43.6286 66.9453 40.3073 53.4295C36.1797 36.682 36.6473 27.4327 36.6473 27.4327C36.6473 27.4327 39.8397 26.5093 48.917 24.201C58.5426 21.7494 62.9765 20.8738 62.9765 20.8738Z" fill="white"/>
<path d="M62.9758 79.4106L62.4599 79.0922C58.945 76.943 54.1242 73.9979 49.7387 69.8747C44.5309 64.9874 41.145 59.4951 39.6939 53.573C35.5986 36.9369 36.0017 27.7831 36.0178 27.401V26.9553L36.4693 26.8279C36.5015 26.8279 39.7745 25.8727 48.7713 23.5803C58.3001 21.1605 62.8146 20.2531 62.863 20.2372L62.9919 20.2053L63.1209 20.2372C63.1209 20.2372 67.6838 21.1446 77.2126 23.5803C86.2093 25.8727 89.4662 26.812 89.5146 26.8279L89.9499 26.9553L89.9822 27.401C89.9983 27.7831 90.4014 36.9369 86.3061 53.573C84.8389 59.4951 81.4691 64.9874 76.2613 69.8747C71.8758 73.9979 67.055 76.943 63.5401 79.0922L63.0242 79.4106H62.9758ZM37.2754 27.9264C37.2432 29.9641 37.3722 38.8791 40.9193 53.2864C44.1278 66.3405 55.8655 73.584 62.9597 77.9301C70.07 73.584 81.7916 66.3405 85.0001 53.2864C88.5472 38.8791 88.6762 29.9641 88.6439 27.9264C87.4831 27.608 83.9682 26.6369 76.8418 24.822C68.232 22.6251 63.7336 21.6859 62.9436 21.5267C62.1535 21.6859 57.6552 22.641 49.0454 24.822C41.9189 26.6369 38.4041 27.608 37.2432 27.9264" fill="white"/>
<path d="M62.9763 21.749C62.9763 21.749 67.2812 22.6087 76.6004 24.9807C85.4198 27.2254 88.4993 28.1169 88.4993 28.1169C88.4993 28.1169 88.9508 37.0797 84.9522 53.3177C81.7276 66.4196 69.6836 73.679 62.9763 77.7863C56.2529 73.679 44.225 66.4196 41.0004 53.3177C37.0019 37.0797 37.4533 28.1169 37.4533 28.1169C37.4533 28.1169 40.5328 27.2254 49.3522 24.9807C58.6714 22.6087 62.9763 21.749 62.9763 21.749Z" fill="#184893"/>
<path d="M62.9763 21.749V77.7863C56.2529 73.679 44.225 66.4196 41.0004 53.3177C37.0019 37.0797 37.4533 28.1169 37.4533 28.1169C37.4533 28.1169 40.549 27.2254 49.3522 24.9807C58.6875 22.6087 62.9763 21.749 62.9763 21.749Z" fill="#2B72B9"/>
<path d="M55.3496 50.1667L57.9777 47.0623C59.4772 48.3996 60.9444 49.1796 62.7018 49.1796C64.7333 49.1796 66.007 48.2085 66.007 46.4733V46.4096C66.007 44.7381 64.5721 43.751 62.4922 43.751C61.2507 43.751 60.1221 44.0853 59.1869 44.4833L56.6717 42.8277L57.236 33.1963H69.3929V36.9693H60.9605L60.7348 40.3442C61.5248 40.1532 62.2342 40.0099 63.3467 40.0099C67.2002 40.0099 70.2797 41.8566 70.2797 46.2663V46.3141C70.2797 50.4532 67.313 53.08 62.7502 53.08C59.59 53.08 57.2683 51.9656 55.3335 50.1507L55.3496 50.1667Z" fill="white"/>
<path d="M55.1722 57.9515L53.8179 55.8501H54.7208L55.5592 57.2351L56.4137 55.8501H57.2844L55.93 57.9356V59.3206H55.1561V57.9515H55.1722Z" fill="white"/>
<path d="M57.929 55.8501H60.5732V56.5346H58.6868V57.2351H60.3474V57.9197H58.6868V58.652H60.5893V59.3365H57.9128V55.866L57.929 55.8501Z" fill="white"/>
<path d="M62.7014 55.8347H63.4108L64.9102 59.3211H64.1041L63.7816 58.5411H62.2983L61.9758 59.3211H61.1858L62.6852 55.8347H62.7014ZM63.5075 57.8724L63.04 56.7421L62.5724 57.8724H63.5075Z" fill="white"/>
<path d="M65.5877 55.8501H67.2C67.6514 55.8501 67.99 55.9775 68.2157 56.2003C68.4092 56.3914 68.5221 56.662 68.5221 56.9963C68.5221 57.5694 68.2157 57.9197 67.7643 58.0789L68.6188 59.3206H67.7159L66.9581 58.2062H66.3454V59.3206H65.5715V55.8501H65.5877ZM67.1516 57.5376C67.5224 57.5376 67.7482 57.3465 67.7482 57.0441C67.7482 56.7098 67.5224 56.5346 67.1355 56.5346H66.3777V57.5376H67.1516Z" fill="white"/>
<path d="M69.1184 58.8109L69.5699 58.2696C69.8923 58.5243 70.2148 58.6835 70.6179 58.6835C70.9403 58.6835 71.1177 58.5562 71.1177 58.3492C71.1177 58.1422 71.0048 58.0467 70.4083 57.9034C69.6989 57.7283 69.2474 57.5373 69.2474 56.8368C69.2474 56.2 69.7633 55.7861 70.4728 55.7861C70.9887 55.7861 71.424 55.9453 71.7787 56.2319L71.3757 56.805C71.0693 56.598 70.763 56.4707 70.4566 56.4707C70.1503 56.4707 70.0052 56.598 70.0052 56.7732C70.0052 57.0119 70.1503 57.0915 70.763 57.2348C71.4724 57.4259 71.8755 57.6647 71.8755 58.2696C71.8755 58.9701 71.3434 59.3521 70.5856 59.3521C70.0536 59.3521 69.5215 59.1611 69.1023 58.795L69.1184 58.8109Z" fill="white"/>
<path d="M46.8369 61.0872H47.6592L48.3847 63.4433L49.1748 61.0872H49.8358L50.6259 63.4433L51.3514 61.0872H52.1576L50.9644 64.5736H50.2873L49.4972 62.2971L48.7072 64.5736H48.03L46.8369 61.0872Z" fill="white"/>
<path d="M53.8024 61.0708H54.5119L56.0113 64.5572H55.2052L54.8827 63.7771H53.3994L53.0769 64.5572H52.2869L53.7863 61.0708H53.8024ZM54.6086 63.1085L54.141 61.9782L53.6735 63.1085H54.6086Z" fill="white"/>
<path d="M56.6882 61.0869H58.3006C58.752 61.0869 59.0906 61.2143 59.3163 61.4371C59.5098 61.6282 59.6227 61.8988 59.6227 62.2331C59.6227 62.8062 59.3163 63.1565 58.8649 63.3157L59.7194 64.5574H58.8165L58.0587 63.443H57.446V64.5574H56.6721V61.0869H56.6882ZM58.2522 62.7744C58.623 62.7744 58.8488 62.5834 58.8488 62.2809C58.8488 61.9466 58.623 61.7715 58.2361 61.7715H57.4622V62.7744H58.2522Z" fill="white"/>
<path d="M60.4932 61.0869H62.1055C62.5569 61.0869 62.8955 61.2143 63.1213 61.4371C63.3147 61.6282 63.4276 61.8988 63.4276 62.2331C63.4276 62.8062 63.1213 63.1565 62.6698 63.3157L63.5243 64.5574H62.6214L61.8636 63.443H61.251V64.5574H60.4771V61.0869H60.4932ZM62.0571 62.7744C62.428 62.7744 62.6537 62.5834 62.6537 62.2809C62.6537 61.9466 62.428 61.7715 62.041 61.7715H61.2832V62.7744H62.0571Z" fill="white"/>
<path d="M65.5717 61.0708H66.2811L67.7967 64.5572H66.9906L66.6681 63.7771H65.1848L64.8623 64.5572H64.0723L65.5717 61.0708ZM66.3779 63.1085L65.9103 61.9782L65.4427 63.1085H66.3779Z" fill="white"/>
<path d="M68.4741 61.0869H69.1836L70.8281 63.2202V61.0869H71.5859V64.5574H70.9249L69.2158 62.3446V64.5574H68.458V61.0869H68.4741Z" fill="white"/>
<path d="M73.3591 61.8035H72.2949V61.103H75.2132V61.8035H74.1491V64.5735H73.3752V61.8035H73.3591Z" fill="white"/>
<path d="M77.0519 63.1883L75.6975 61.0869H76.6004L77.4388 62.4719L78.2933 61.0869H79.164L77.8096 63.1724V64.5574H77.0357V63.1883H77.0519Z" fill="white"/>
<path d="M50.0932 31.4448L50.4318 30.5852C50.7865 30.7284 51.1089 30.7444 51.4314 30.617C51.7055 30.5056 51.8184 30.2827 51.7216 30.0757C51.6249 29.8529 51.3669 29.8051 50.9961 29.9643L50.593 30.1394L50.2383 29.7096L50.7059 28.6589L49.3838 29.232L49.0452 28.4678L51.5281 27.3694L51.8345 28.038L51.3347 29.0887C51.8828 28.9773 52.3988 29.0887 52.6568 29.6459C52.9631 30.3464 52.6084 31.0309 51.8345 31.3652C51.1734 31.6518 50.593 31.6199 50.0932 31.413V31.4448Z" fill="white"/>
<path d="M53.9787 28.9611L53.1081 29.2318L52.834 28.388L53.7046 28.1174L53.4305 27.2418L54.3173 26.9712L54.5914 27.8468L55.4621 27.5761L55.7362 28.4199L54.8655 28.6905L55.1396 29.5661L54.2528 29.8367L53.9787 28.9611Z" fill="white"/>
<path d="M56.3811 28.9131L57.5581 27.6077C57.8483 27.2734 57.9451 27.0823 57.8967 26.8595C57.8483 26.6366 57.6548 26.5251 57.413 26.5729C57.1712 26.6207 56.9938 26.7958 56.7681 27.1779L55.9619 26.748C56.2683 26.1749 56.5907 25.8088 57.3163 25.6814C58.1224 25.5222 58.7673 25.8884 58.9125 26.5888C59.0253 27.1779 58.7835 27.544 58.2998 28.0375L57.7516 28.5947L59.2833 28.3082L59.4445 29.136L56.5101 29.6932L56.365 28.929L56.3811 28.9131Z" fill="white"/>
<path d="M59.7505 25.1403L60.1536 25.0925L60.6695 25.6816L60.2503 25.7293L59.9762 25.4587L59.7666 25.7771L59.3635 25.8248L59.7505 25.1403Z" fill="white"/>
<path d="M63.9906 27.4646L62.6362 25.0925L63.8293 25.1244L64.571 26.5094L65.3933 25.1721L66.5542 25.204L65.0547 27.4805L65.0063 28.8814L63.9583 28.8496L64.0067 27.4646H63.9906Z" fill="white"/>
<path d="M66.0551 27.5129C66.1679 26.6691 66.8612 26.096 67.7158 26.2074C68.7154 26.3348 69.0701 27.1149 68.9573 27.9586C68.9573 28.0223 68.9411 28.1019 68.925 28.1656L66.9902 27.9108C67.0225 28.2292 67.2321 28.4203 67.5545 28.4521C67.7964 28.484 68.006 28.4203 68.2317 28.2452L68.7315 28.7705C68.4091 29.0889 67.9737 29.264 67.4094 29.1844C66.5065 29.073 65.9422 28.3884 66.0551 27.5129ZM68.0382 27.5129C68.0382 27.1945 67.877 26.9716 67.6029 26.9397C67.3288 26.9079 67.1353 27.083 67.0386 27.3855L68.0382 27.5129Z" fill="white"/>
<path d="M69.1835 28.5319C69.3286 27.9429 69.8445 27.7518 70.5056 27.911C70.7635 27.9747 71.0054 28.0862 71.1505 28.1817V28.1339C71.2311 27.8474 71.086 27.6404 70.7152 27.5449C70.4088 27.4812 70.167 27.4812 69.8929 27.513L69.8606 26.7648C70.2154 26.7171 70.5701 26.7011 71.0538 26.8285C71.5536 26.9559 71.876 27.1469 72.0534 27.4335C72.2146 27.6882 72.2308 28.0066 72.134 28.3886L71.7471 29.9965L70.7635 29.7577L70.828 29.4712C70.5862 29.6304 70.2798 29.71 69.909 29.6144C69.3769 29.4871 69.0384 29.0891 69.1673 28.5319H69.1835ZM71.0376 28.7548L71.0699 28.6274C70.9893 28.5637 70.8442 28.5001 70.699 28.4682C70.4088 28.4046 70.2154 28.5001 70.1509 28.707C70.1025 28.914 70.2154 29.0573 70.425 29.105C70.7152 29.1687 70.957 29.0413 71.0376 28.7707V28.7548Z" fill="white"/>
<path d="M73.0848 27.4011L74.0522 27.7354L73.8587 28.2926C74.1489 27.9742 74.4875 27.815 74.939 27.9902L74.5843 28.9931L74.5037 28.9613C74.0038 28.7861 73.6169 28.9772 73.3912 29.614L73.1009 30.4577L72.1335 30.1393L73.0848 27.417V27.4011Z" fill="white"/>
<path d="M74.1648 30.4263L74.7614 30.0123C74.971 30.3467 75.2612 30.5855 75.5353 30.7128C75.6965 30.7765 75.7932 30.7606 75.8416 30.681C75.89 30.5695 75.761 30.4581 75.5191 30.2671C75.0516 29.9009 74.713 29.5507 74.9387 29.0094C75.1806 28.4363 75.7771 28.3249 76.3898 28.5955C76.7767 28.7706 77.1315 29.0572 77.3572 29.3756L76.7767 29.8213C76.5671 29.5507 76.3092 29.3278 76.0996 29.2323C75.9545 29.1686 75.8577 29.1845 75.8255 29.2641C75.7771 29.3756 75.9061 29.487 76.1641 29.694C76.6316 30.0601 76.9702 30.4263 76.7445 30.9357C76.4865 31.5247 75.9222 31.6362 75.2612 31.3496C74.8097 31.1586 74.4228 30.8402 74.1809 30.4103L74.1648 30.4263Z" fill="white"/>
</g>
<defs>
<filter id="filter0_d_316_488" x="0.0877445" y="0.933105" width="270.825" height="94.8245" filterUnits="userSpaceOnUse" color-interpolation-filters="sRGB">
<feFlood flood-opacity="0" result="BackgroundImageFix"/>
<feColorMatrix in="SourceAlpha" type="matrix" values="0 0 0 0 0 0 0 0 0 0 0 0 0 0 0 0 0 0 127 0" result="hardAlpha"/>
<feOffset dy="2.84536"/>
<feGaussianBlur stdDeviation="1.42268"/>
<feComposite in2="hardAlpha" operator="out"/>
<feColorMatrix type="matrix" values="0 0 0 0 0.345098 0 0 0 0 0.172549 0 0 0 0 0.513726 0 0 0 0.32 0"/>
<feBlend mode="normal" in2="BackgroundImageFix" result="effect1_dropShadow_316_488"/>
<feBlend mode="normal" in="SourceGraphic" in2="effect1_dropShadow_316_488" result="shape"/>
</filter>
</defs>
</svg>
