<svg width="271" height="96" viewBox="0 0 271 96" fill="none" xmlns="http://www.w3.org/2000/svg">
<g filter="url(#filter0_d_316_488)">
<rect x="4" y="1.8728" width="263" height="87" rx="7" fill="white" fill-opacity="0.13" shape-rendering="crispEdges"/>
<rect x="3.46649" y="1.3393" width="264.067" height="88.067" rx="7.53351" stroke="#582C83" stroke-width="1.06701" shape-rendering="crispEdges"/>
<path d="M124.218 28.031V26.23H135.691V27.7035L130.049 33.8783C133.202 34.1356 135.976 35.6325 135.976 38.907C135.976 42.1815 133.297 44.2865 129.955 44.2865C126.944 44.2865 124.715 43.0001 123.246 41.129L124.715 39.8425C126.09 41.5266 127.774 42.4855 129.978 42.4855C132.183 42.4855 133.913 41.129 133.913 39.0239C133.913 36.8019 131.851 35.5857 128.888 35.5857H127.726L127.323 34.3928L132.989 28.0777H124.194L124.218 28.031Z" fill="white"/>
<path d="M144.748 28.9192H146.644V34.135H151.978V35.9594H146.644V41.1752H144.748V35.9594H139.414V34.135H144.748V28.9192Z" fill="white"/>
<path d="M156.695 30.8145L155.202 29.7386C156.814 27.3529 158.521 25.9729 161.674 25.9729C164.827 25.9729 167.245 28.1013 167.245 31.025C167.245 33.6446 165.87 35.2351 162.693 37.9482L157.881 42.1583H167.411V43.9827H154.846V42.439L161.365 36.7554C164.115 34.3229 165.111 32.9663 165.111 31.1887C165.111 29.1071 163.452 27.7973 161.484 27.7973C159.422 27.7973 158.094 28.8732 156.648 30.8379L156.695 30.8145Z" fill="white"/>
<path d="M170.73 28.2412H169.734L172.057 25.1538H172.958L175.281 28.2412H174.262L172.484 25.9724L170.706 28.2412H170.73Z" fill="white"/>
<path d="M193.772 43.9591H191.709V36.9423L184.242 26.23H186.707L192.776 35.0945L198.892 26.23H201.263L193.795 36.9189V43.9591H193.772Z" fill="white"/>
<path d="M206.929 42.5791C208.755 42.5791 210.035 41.854 211.125 40.7313L212.358 41.8306C211.031 43.3041 209.395 44.2865 206.882 44.2865C203.231 44.2865 200.268 41.5266 200.268 37.4568C200.268 33.6444 202.97 30.6038 206.645 30.6038C210.58 30.6038 212.832 33.6911 212.832 37.5504C212.832 37.7375 212.832 37.9246 212.832 38.1585H202.307C202.591 40.9886 204.654 42.6025 206.977 42.6025L206.929 42.5791ZM210.793 36.685C210.58 34.2993 209.205 32.2176 206.55 32.2176C204.25 32.2176 202.496 34.1122 202.235 36.685H210.793Z" fill="white"/>
<path d="M216.791 33.3873L216.198 31.7968C217.668 31.1419 219.09 30.6975 221.034 30.6975C224.661 30.6975 226.676 32.5219 226.676 35.9601V43.9592H224.78V41.9712C223.855 43.164 222.314 44.2165 219.968 44.2165C217.502 44.2165 215.013 42.8599 215.013 40.1234C215.013 37.3869 217.336 35.8665 220.679 35.8665C222.362 35.8665 223.571 36.1004 224.756 36.4279V35.9601C224.756 33.5978 223.286 32.3815 220.797 32.3815C219.233 32.3815 218 32.7792 216.767 33.3405L216.791 33.3873ZM217.004 40.0766C217.004 41.7372 218.545 42.7196 220.347 42.7196C222.789 42.7196 224.804 41.2461 224.804 39.1644V37.9014C223.832 37.6207 222.528 37.3401 220.892 37.3401C218.403 37.3401 217.004 38.416 217.004 40.0766Z" fill="white"/>
<path d="M232.603 43.9584H230.635V30.8604H232.603V34.2753C233.575 32.1001 235.495 30.533 238.032 30.6265V32.7316H237.89C234.997 32.7316 232.627 34.7898 232.627 38.7426V43.9584H232.603Z" fill="white"/>
<path d="M135.786 50.531H137.446L142.377 65.3598L147.521 50.5778H149.655L143.23 68.4472H141.523L136.592 54.0628L131.638 68.4472H129.955L123.53 50.5778H125.735L130.879 65.3598L135.81 50.531H135.786Z" fill="white"/>
<path d="M151.717 57.7347L151.124 56.1442C152.594 55.4893 154.016 55.0449 155.96 55.0449C159.587 55.0449 161.602 56.8693 161.602 60.3075V68.3066H159.706V66.3419C158.781 67.5348 157.241 68.5873 154.894 68.5873C152.428 68.5873 149.939 67.2307 149.939 64.4942C149.939 61.7576 152.238 60.2373 155.605 60.2373C157.288 60.2373 158.497 60.4712 159.682 60.7987V60.3543C159.682 57.992 158.212 56.7757 155.723 56.7757C154.159 56.7757 152.926 57.1734 151.693 57.7347H151.717ZM151.93 64.424C151.93 66.0847 153.471 67.067 155.273 67.067C157.715 67.067 159.706 65.5935 159.706 63.5118V62.2488C158.734 61.9682 157.43 61.6875 155.794 61.6875C153.305 61.6875 151.93 62.7634 151.93 64.424Z" fill="white"/>
<path d="M167.529 68.33H165.562V55.232H167.529V58.6468C168.501 56.4716 170.422 54.9046 172.958 54.9981V57.1031H172.816C169.924 57.1031 167.553 59.1614 167.553 63.1142V68.33H167.529Z" fill="white"/>
<path d="M177.675 68.33H175.708V55.232H177.675V58.6468C178.647 56.4716 180.568 54.9046 183.104 54.9981V57.1031H182.962C180.07 57.1031 177.699 59.1614 177.699 63.1142V68.33H177.675Z" fill="white"/>
<path d="M185.972 57.7347L185.38 56.1442C186.849 55.4893 188.272 55.0449 190.216 55.0449C193.843 55.0449 195.858 56.8693 195.858 60.3075V68.3066H193.961V66.3419C193.037 67.5348 191.496 68.5873 189.149 68.5873C186.684 68.5873 184.194 67.2307 184.194 64.4942C184.194 61.7576 186.494 60.2373 189.86 60.2373C191.543 60.2373 192.752 60.4712 193.938 60.7987V60.3543C193.938 57.992 192.468 56.7757 189.979 56.7757C188.414 56.7757 187.181 57.1734 185.949 57.7347H185.972ZM186.186 64.424C186.186 66.0847 187.727 67.067 189.528 67.067C191.97 67.067 193.961 65.5935 193.961 63.5118V62.2488C192.989 61.9682 191.686 61.6875 190.05 61.6875C187.561 61.6875 186.186 62.7634 186.186 64.424Z" fill="white"/>
<path d="M201.785 68.3306H199.817V55.2326H201.785V57.5013C202.662 56.0746 204.037 54.9519 206.336 54.9519C209.536 54.9519 211.409 57.0803 211.409 60.1911V68.3306H209.442V60.6823C209.442 58.2498 208.114 56.7295 205.767 56.7295C203.42 56.7295 201.785 58.3667 201.785 60.8226V68.3306Z" fill="white"/>
<path d="M218.024 64.6116C218.024 66.2021 218.925 66.7868 220.252 66.7868C220.916 66.7868 221.485 66.6699 222.173 66.3191V67.9797C221.485 68.3305 220.727 68.541 219.778 68.541C217.645 68.541 216.033 67.5119 216.033 64.8455V56.9399H214.184V55.2091H216.033V51.2563H218V55.2091H222.22V56.9399H218V64.5882L218.024 64.6116Z" fill="white"/>
<path d="M231.939 68.7514C230.801 71.4646 229.521 72.4469 227.53 72.4469C226.439 72.4469 225.61 72.213 224.709 71.792L225.373 70.2483C226.013 70.5758 226.605 70.7395 227.459 70.7395C228.644 70.7395 229.379 70.1314 230.185 68.2836L224.164 55.2324H226.345L231.181 66.1552L235.448 55.2324H237.558L231.987 68.7748L231.939 68.7514Z" fill="white"/>
<path d="M60.968 73.8728C76.432 73.8728 88.968 61.1129 88.968 45.3728C88.968 29.6327 76.432 16.8728 60.968 16.8728C45.504 16.8728 32.968 29.6327 32.968 45.3728C32.968 61.1129 45.504 73.8728 60.968 73.8728Z" fill="white"/>
<path d="M60.7256 28.8201C60.7256 28.8201 63.6439 29.3959 69.9791 31.0083C75.9642 32.5264 78.0547 33.1337 78.0547 33.1337C78.0547 33.1337 78.3625 39.2167 75.6458 50.231C73.4598 59.12 65.2887 64.0408 60.7256 66.8258C56.1625 64.0408 47.9914 59.12 45.8054 50.231C43.0887 39.2167 43.3965 33.1337 43.3965 33.1337C43.3965 33.1337 45.4976 32.5264 51.4721 31.0083C57.8073 29.3959 60.7256 28.8201 60.7256 28.8201Z" fill="white"/>
<path d="M60.7254 67.3179L60.3858 67.1085C58.0725 65.6951 54.8995 63.7582 52.0131 61.0465C48.5855 57.8322 46.357 54.2201 45.4019 50.3253C42.7065 39.3842 42.9718 33.364 42.9824 33.1128V32.8196L43.2796 32.7358C43.3008 32.7358 45.455 32.1077 51.3764 30.6C57.648 29.0086 60.6193 28.4118 60.6511 28.4013L60.736 28.3804L60.8209 28.4013C60.8209 28.4013 63.8241 28.9981 70.0957 30.6C76.0171 32.1077 78.1607 32.7254 78.1925 32.7358L78.479 32.8196L78.5002 33.1128C78.5108 33.364 78.7761 39.3842 76.0807 50.3253C75.1151 54.2201 72.8972 57.8322 69.4696 61.0465C66.5832 63.7582 63.4102 65.6951 61.0968 67.1085L60.7573 67.3179H60.7254ZM43.8102 33.4583C43.7889 34.7984 43.8738 40.6616 46.2084 50.1368C48.3202 58.7221 56.0456 63.4859 60.7148 66.3442C65.3946 63.4859 73.1094 58.7221 75.2212 50.1368C77.5558 40.6616 77.6407 34.7984 77.6195 33.4583C76.8554 33.2489 74.542 32.6102 69.8516 31.4166C64.1849 29.9718 61.2242 29.3541 60.7042 29.2494C60.1842 29.3541 57.2235 29.9823 51.5568 31.4166C46.8664 32.6102 44.553 33.2489 43.7889 33.4583" fill="white"/>
<path d="M60.7256 29.396C60.7256 29.396 63.559 29.9614 69.6926 31.5214C75.4973 32.9976 77.5241 33.584 77.5241 33.584C77.5241 33.584 77.8213 39.4785 75.1895 50.1578C73.0672 58.7745 65.1401 63.5488 60.7256 66.25C56.3005 63.5488 48.384 58.7745 46.2617 50.1578C43.6299 39.4785 43.9271 33.584 43.9271 33.584C43.9271 33.584 45.9539 32.9976 51.7586 31.5214C57.8922 29.9614 60.7256 29.396 60.7256 29.396Z" fill="#184893"/>
<path d="M60.7256 29.396V66.25C56.3005 63.5488 48.384 58.7745 46.2617 50.1578C43.6299 39.4785 43.9271 33.584 43.9271 33.584C43.9271 33.584 45.9645 32.9976 51.7586 31.5214C57.9029 29.9614 60.7256 29.396 60.7256 29.396Z" fill="#2B72B9"/>
<path d="M55.7059 48.085L57.4357 46.0434C58.4226 46.9228 59.3882 47.4359 60.5449 47.4359C61.882 47.4359 62.7203 46.7972 62.7203 45.656V45.6141C62.7203 44.5147 61.7759 43.8656 60.407 43.8656C59.5899 43.8656 58.847 44.0855 58.2315 44.3472L56.5761 43.2584L56.9475 36.9241H64.9488V39.4054H59.3988L59.2503 41.6251C59.7703 41.4994 60.2372 41.4052 60.9694 41.4052C63.5056 41.4052 65.5325 42.6197 65.5325 45.5199V45.5513C65.5325 48.2734 63.5799 50.001 60.5768 50.001C58.4968 50.001 56.9687 49.2681 55.6953 48.0745L55.7059 48.085Z" fill="white"/>
<path d="M55.5894 53.205L54.698 51.823H55.2923L55.8441 52.7339L56.4065 51.823H56.9795L56.0881 53.1946V54.1054H55.5788V53.205H55.5894Z" fill="white"/>
<path d="M57.4037 51.823H59.144V52.2732H57.9024V52.7339H58.9955V53.1841H57.9024V53.6657H59.1546V54.1159H57.3931V51.8335L57.4037 51.823Z" fill="white"/>
<path d="M60.5449 51.8125H61.0118L61.9987 54.1054H61.4681L61.2559 53.5924H60.2796L60.0673 54.1054H59.5474L60.5343 51.8125H60.5449ZM61.0755 53.1526L60.7677 52.4093L60.46 53.1526H61.0755Z" fill="white"/>
<path d="M62.4444 51.823H63.5056C63.8028 51.823 64.0256 51.9068 64.1742 52.0533C64.3015 52.179 64.3758 52.357 64.3758 52.5768C64.3758 52.9537 64.1742 53.1841 63.877 53.2888L64.4395 54.1054H63.8452L63.3465 53.3725H62.9432V54.1054H62.4338V51.823H62.4444ZM63.4738 52.9328C63.7179 52.9328 63.8664 52.8072 63.8664 52.6082C63.8664 52.3884 63.7179 52.2732 63.4632 52.2732H62.9644V52.9328H63.4738Z" fill="white"/>
<path d="M64.7687 53.77L65.0658 53.4141C65.278 53.5816 65.4903 53.6863 65.7556 53.6863C65.9678 53.6863 66.0845 53.6025 66.0845 53.4664C66.0845 53.3303 66.0103 53.2675 65.6176 53.1733C65.1507 53.0581 64.8536 52.9325 64.8536 52.4718C64.8536 52.053 65.1931 51.7808 65.6601 51.7808C65.9996 51.7808 66.2862 51.8855 66.5196 52.0739L66.2543 52.4508C66.0527 52.3147 65.8511 52.231 65.6495 52.231C65.4478 52.231 65.3523 52.3147 65.3523 52.4299C65.3523 52.5869 65.4478 52.6393 65.8511 52.7335C66.318 52.8592 66.5833 53.0162 66.5833 53.4141C66.5833 53.8747 66.2331 54.126 65.7343 54.126C65.3842 54.126 65.034 54.0004 64.7581 53.7596L64.7687 53.77Z" fill="white"/>
<path d="M50.103 55.2673H50.6442L51.1218 56.8169L51.6417 55.2673H52.0768L52.5968 56.8169L53.0743 55.2673H53.6049L52.8197 57.5602H52.374L51.854 56.063L51.334 57.5602H50.8883L50.103 55.2673Z" fill="white"/>
<path d="M54.6875 55.2566H55.1544L56.1413 57.5495H55.6107L55.3984 57.0365H54.4222L54.2099 57.5495H53.6899L54.6768 55.2566H54.6875ZM55.218 56.5967L54.9103 55.8534L54.6026 56.5967H55.218Z" fill="white"/>
<path d="M56.587 55.2671H57.6482C57.9453 55.2671 58.1682 55.3509 58.3168 55.4974C58.4441 55.6231 58.5184 55.8011 58.5184 56.0209C58.5184 56.3978 58.3168 56.6282 58.0196 56.7329L58.5821 57.5495H57.9878L57.489 56.8166H57.0858V57.5495H56.5764V55.2671H56.587ZM57.6164 56.3769C57.8604 56.3769 58.009 56.2513 58.009 56.0523C58.009 55.8325 57.8604 55.7173 57.6058 55.7173H57.0964V56.3769H57.6164Z" fill="white"/>
<path d="M59.0914 55.2671H60.1526C60.4497 55.2671 60.6726 55.3509 60.8212 55.4974C60.9485 55.6231 61.0228 55.8011 61.0228 56.0209C61.0228 56.3978 60.8212 56.6282 60.524 56.7329L61.0864 57.5495H60.4922L59.9934 56.8166H59.5902V57.5495H59.0808V55.2671H59.0914ZM60.1208 56.3769C60.3648 56.3769 60.5134 56.2513 60.5134 56.0523C60.5134 55.8325 60.3648 55.7173 60.1102 55.7173H59.6114V56.3769H60.1208Z" fill="white"/>
<path d="M62.4339 55.2566H62.9008L63.8984 57.5495H63.3678L63.1555 57.0365H62.1792L61.967 57.5495H61.447L62.4339 55.2566ZM62.9645 56.5967L62.6568 55.8534L62.349 56.5967H62.9645Z" fill="white"/>
<path d="M64.3444 55.2671H64.8113L65.8937 56.6701V55.2671H66.3924V57.5495H65.9574L64.8325 56.0942V57.5495H64.3337V55.2671H64.3444Z" fill="white"/>
<path d="M67.5593 55.7383H66.8589V55.2776H68.7796V55.7383H68.0792V57.56H67.5699V55.7383H67.5593Z" fill="white"/>
<path d="M69.9898 56.6491L69.0984 55.2671H69.6926L70.2445 56.178L70.8069 55.2671H71.3799L70.4885 56.6386V57.5495H69.9792V56.6491H69.9898Z" fill="white"/>
<path d="M52.2464 35.7723L52.4693 35.207C52.7027 35.3012 52.915 35.3117 53.1272 35.2279C53.3076 35.1546 53.3819 35.008 53.3182 34.8719C53.2545 34.7253 53.0847 34.6939 52.8407 34.7986L52.5754 34.9138L52.3419 34.6311L52.6497 33.9401L51.7795 34.317L51.5566 33.8145L53.1909 33.092L53.3925 33.5318L53.0635 34.2228C53.4243 34.1495 53.7639 34.2228 53.9337 34.5892C54.1353 35.0499 53.9019 35.5001 53.3925 35.72C52.9574 35.9084 52.5754 35.8875 52.2464 35.7514V35.7723Z" fill="white"/>
<path d="M54.8037 34.1388L54.2307 34.3168L54.0503 33.7619L54.6233 33.5839L54.4429 33.0081L55.0266 32.8301L55.207 33.4059L55.78 33.2279L55.9604 33.7828L55.3874 33.9608L55.5678 34.5367L54.9841 34.7147L54.8037 34.1388Z" fill="white"/>
<path d="M56.385 34.1074L57.1597 33.2489C57.3507 33.029 57.4144 32.9034 57.3826 32.7568C57.3507 32.6102 57.2234 32.5369 57.0642 32.5683C56.905 32.5997 56.7883 32.7149 56.6397 32.9662L56.1091 32.6835C56.3108 32.3066 56.523 32.0658 57.0005 31.982C57.5311 31.8773 57.9556 32.1181 58.0511 32.5788C58.1254 32.9662 57.9662 33.207 57.6478 33.5316L57.287 33.898L58.2952 33.7095L58.4013 34.254L56.4699 34.6204L56.3744 34.1179L56.385 34.1074Z" fill="white"/>
<path d="M58.6026 31.6261L58.8679 31.5947L59.2075 31.9821L58.9316 32.0135L58.7511 31.8355L58.6132 32.0449L58.3479 32.0763L58.6026 31.6261Z" fill="white"/>
<path d="M61.3933 33.1547L60.502 31.5947L61.2872 31.6157L61.7754 32.5265L62.3166 31.6471L63.0806 31.668L62.0937 33.1652L62.0619 34.0866L61.3721 34.0656L61.404 33.1547H61.3933Z" fill="white"/>
<path d="M62.7521 33.1862C62.8264 32.6313 63.2827 32.2544 63.8451 32.3277C64.503 32.4115 64.7365 32.9245 64.6622 33.4794C64.6622 33.5213 64.6516 33.5736 64.641 33.6155L63.3676 33.448C63.3888 33.6574 63.5268 33.783 63.739 33.804C63.8982 33.8249 64.0361 33.783 64.1847 33.6679L64.5137 34.0134C64.3014 34.2228 64.0149 34.3379 63.6435 34.2856C63.0492 34.2123 62.6778 33.7621 62.7521 33.1862ZM64.0573 33.1862C64.0573 32.9768 63.9512 32.8303 63.7708 32.8093C63.5904 32.7884 63.4631 32.9035 63.3994 33.1025L64.0573 33.1862Z" fill="white"/>
<path d="M64.8109 33.8564C64.9064 33.469 65.246 33.3434 65.6811 33.4481C65.8509 33.4899 66.01 33.5632 66.1056 33.626V33.5946C66.1586 33.4062 66.0631 33.2701 65.819 33.2072C65.6174 33.1654 65.4582 33.1654 65.2778 33.1863L65.2566 32.6942C65.4901 32.6628 65.7235 32.6523 66.0419 32.7361C66.3708 32.8199 66.5831 32.9455 66.6998 33.134C66.8059 33.3015 66.8165 33.5109 66.7529 33.7621L66.4982 34.8196L65.8509 34.6626L65.8933 34.4741C65.7341 34.5788 65.5325 34.6311 65.2884 34.5683C64.9382 34.4846 64.7154 34.2228 64.8003 33.8564H64.8109ZM66.0313 34.003L66.0525 33.9192C65.9994 33.8773 65.9039 33.8354 65.8084 33.8145C65.6174 33.7726 65.4901 33.8354 65.4476 33.9715C65.4158 34.1077 65.4901 34.2019 65.628 34.2333C65.819 34.2752 65.9782 34.1914 66.0313 34.0134V34.003Z" fill="white"/>
<path d="M67.3788 33.1128L68.0155 33.3327L67.8882 33.6991C68.0792 33.4897 68.302 33.385 68.5991 33.5002L68.3657 34.1598L68.3126 34.1388C67.9837 34.0237 67.729 34.1493 67.5804 34.5681L67.3894 35.123L66.7527 34.9136L67.3788 33.1233V33.1128Z" fill="white"/>
<path d="M68.0896 35.1023L68.4822 34.8301C68.6202 35.0499 68.8112 35.207 68.9916 35.2908C69.0977 35.3326 69.1614 35.3222 69.1932 35.2698C69.2251 35.1965 69.1402 35.1232 68.981 34.9976C68.6733 34.7568 68.4504 34.5265 68.599 34.1705C68.7581 33.7936 69.1508 33.7203 69.554 33.8983C69.8087 34.0134 70.0422 34.2019 70.1907 34.4113L69.8087 34.7044C69.6708 34.5265 69.501 34.3799 69.363 34.3171C69.2675 34.2752 69.2038 34.2856 69.1826 34.338C69.1508 34.4113 69.2357 34.4846 69.4055 34.6207C69.7132 34.8615 69.9361 35.1023 69.7875 35.4373C69.6177 35.8247 69.2463 35.898 68.8112 35.7096C68.5141 35.5839 68.2594 35.3745 68.1002 35.0918L68.0896 35.1023Z" fill="white"/>
</g>
<defs>
<filter id="filter0_d_316_488" x="0.0877445" y="0.805908" width="270.825" height="94.8245" filterUnits="userSpaceOnUse" color-interpolation-filters="sRGB">
<feFlood flood-opacity="0" result="BackgroundImageFix"/>
<feColorMatrix in="SourceAlpha" type="matrix" values="0 0 0 0 0 0 0 0 0 0 0 0 0 0 0 0 0 0 127 0" result="hardAlpha"/>
<feOffset dy="2.84536"/>
<feGaussianBlur stdDeviation="1.42268"/>
<feComposite in2="hardAlpha" operator="out"/>
<feColorMatrix type="matrix" values="0 0 0 0 0.345098 0 0 0 0 0.172549 0 0 0 0 0.513726 0 0 0 0.32 0"/>
<feBlend mode="normal" in2="BackgroundImageFix" result="effect1_dropShadow_316_488"/>
<feBlend mode="normal" in="SourceGraphic" in2="effect1_dropShadow_316_488" result="shape"/>
</filter>
</defs>
</svg>
