{"accessors" : [{"bufferView" : 0, "byteOffset" : 0, "componentType" : 5123, "count" : 111426, "type" : "SCALAR", "max" : [21217], "min" : [0]}, {"bufferView" : 1, "byteOffset" : 0, "componentType" : 5126, "count" : 21218, "type" : "VEC3", "max" : [0.9498990178108215, 0.4023300111293793, 0.949338972568512], "min" : [-0.9498410224914551, -0.38302499055862427, -0.9494739770889282], "name" : "POSITION"}, {"bufferView" : 1, "byteOffset" : 12, "componentType" : 5126, "count" : 21218, "type" : "VEC2", "max" : [0.9943240284919739, 0.9995499849319458], "min" : [0.00044999999227002263, 0.00045102834701538086], "name" : "TEXCOORD_0"}, {"bufferView" : 1, "byteOffset" : 20, "componentType" : 5126, "count" : 21218, "type" : "VEC3", "max" : [1.0000019073486328, 1.0000044107437134, 1.0000044107437134], "min" : [-1.0000019073486328, -1.0000044107437134, -1.0000044107437134], "name" : "NORMAL"}], "asset" : {"generator" : "Aspose.3D 24.9.1", "version" : "2.0"}, "buffers" : [{"uri" : "data:application/octet-stream;base64,", "byteLength" : 901836}], "bufferViews" : [{"buffer" : 0, "byteOffset" : 0, "byteLength" : 222852, "target" : 34963}, {"buffer" : 0, "byteOffset" : 222856, "byteLength" : 678976, "byteStride" : 32, "target" : 34962}], "meshes" : [{"primitives" : [{"attributes" : {"POSITION" : 1, "TEXCOORD_0" : 2, "NORMAL" : 3}, "indices" : 0, "mode" : 4}], "name" : ""}], "nodes" : [{"mesh" : 0, "name" : ""}], "scene" : 0, "scenes" : [{"nodes" : [0]}]}