{
	"asset":{
		"generator":"Khronos glTF Blender I/O v4.3.47",
		"version":"2.0"
	},
	"scene":0,
	"scenes":[
		{
			"name":"Scene",
			"nodes":[
				3
			]
		}
	],
	"nodes":[
		{
			"mesh":0,
			"name":"Node2"
		},
		{
			"mesh":1,
			"name":"Node3"
		},
		{
			"children":[
				0,
				1
			],
			"mesh":2,
			"name":"Node1"
		},
		{
			"children":[
				2
			],
			"name":"Node0"
		}
	],
	"materials":[
		{
			"doubleSided":true,
			"name":"#DCE29AFF",
			"pbrMetallicRoughness":{
				"baseColorFactor":[
					0.8627451062202454,
					0.886274516582489,
					0.6039215922355652,
					1
				],
				"metallicFactor":0.05000000074505806,
				"roughnessFactor":0.5
			}
		},
		{
			"doubleSided":true,
			"name":"#666666FF",
			"pbrMetallicRoughness":{
				"baseColorFactor":[
					0.4000000059604645,
					0.4000000059604645,
					0.4000000059604645,
					1
				],
				"metallicFactor":0.05000000074505806,
				"roughnessFactor":0.5
			}
		}
	],
	"meshes":[
		{
			"name":"Mesh0.001",
			"primitives":[
				{
					"attributes":{
						"POSITION":0,
						"NORMAL":1
					},
					"indices":2,
					"material":0
				}
			]
		},
		{
			"name":"Mesh0.002",
			"primitives":[
				{
					"attributes":{
						"POSITION":3,
						"NORMAL":4
					},
					"indices":5,
					"material":1
				}
			]
		},
		{
			"name":"Mesh0",
			"primitives":[
				{
					"attributes":{
						"POSITION":6,
						"NORMAL":7
					},
					"indices":8,
					"material":1
				}
			]
		}
	],
	"accessors":[
		{
			"bufferView":0,
			"componentType":5126,
			"count":1740,
			"max":[
				85.24344635009766,
				-49,
				85.07368469238281
			],
			"min":[
				-85.24344635009766,
				-98.88469696044922,
				-85.07368469238281
			],
			"type":"VEC3"
		},
		{
			"bufferView":1,
			"componentType":5126,
			"count":1740,
			"type":"VEC3"
		},
		{
			"bufferView":2,
			"componentType":5123,
			"count":2520,
			"type":"SCALAR"
		},
		{
			"bufferView":3,
			"componentType":5126,
			"count":1120,
			"max":[
				83.00726318359375,
				-53,
				85.07368469238281
			],
			"min":[
				-85.24344635009766,
				-98.88469696044922,
				-85.07368469238281
			],
			"type":"VEC3"
		},
		{
			"bufferView":4,
			"componentType":5126,
			"count":1120,
			"type":"VEC3"
		},
		{
			"bufferView":5,
			"componentType":5123,
			"count":1848,
			"type":"SCALAR"
		},
		{
			"bufferView":6,
			"componentType":5126,
			"count":74469,
			"max":[
				555.6561279296875,
				357.3458557128906,
				373.4372253417969
			],
			"min":[
				-534.2061767578125,
				-111.4709701538086,
				-612.0596313476562
			],
			"type":"VEC3"
		},
		{
			"bufferView":7,
			"componentType":5126,
			"count":74469,
			"type":"VEC3"
		},
		{
			"bufferView":8,
			"componentType":5125,
			"count":100071,
			"type":"SCALAR"
		}
	],
	"bufferViews":[
		{
			"buffer":0,
			"byteLength":20880,
			"byteOffset":0,
			"target":34962
		},
		{
			"buffer":0,
			"byteLength":20880,
			"byteOffset":20880,
			"target":34962
		},
		{
			"buffer":0,
			"byteLength":5040,
			"byteOffset":41760,
			"target":34963
		},
		{
			"buffer":0,
			"byteLength":13440,
			"byteOffset":46800,
			"target":34962
		},
		{
			"buffer":0,
			"byteLength":13440,
			"byteOffset":60240,
			"target":34962
		},
		{
			"buffer":0,
			"byteLength":3696,
			"byteOffset":73680,
			"target":34963
		},
		{
			"buffer":0,
			"byteLength":893628,
			"byteOffset":77376,
			"target":34962
		},
		{
			"buffer":0,
			"byteLength":893628,
			"byteOffset":971004,
			"target":34962
		},
		{
			"buffer":0,
			"byteLength":400284,
			"byteOffset":1864632,
			"target":34963
		}
	],
	"buffers":[
		{
			"byteLength":2264916,
			"uri":"fan3d.bin"
		}
	]
}
