<svg width="164" height="81" viewBox="0 0 164 81" fill="none" xmlns="http://www.w3.org/2000/svg">
<g filter="url(#filter0_d_719_149)">
<path d="M4.13867 0H159.859V60.558C159.859 68.9137 153.075 75.6975 144.72 75.6975H19.2782C10.9225 75.6975 4.13867 68.9137 4.13867 60.558V0Z" fill="white"/>
</g>
<path d="M80.4785 56.3162V30.3628H85.6692V51.2648H92.6714L91.4802 56.3162H80.4785Z" fill="#582C83"/>
<path d="M94.9844 56.3162V30.3628H100.175V56.3162H94.9844Z" fill="#582C83"/>
<path d="M131.031 45.476V56.2752H125.84V30.3218H131.031V40.5288L138.172 30.3564H144.687L135.315 42.8279L144.722 56.2748H138.103L131.031 45.4756V45.476Z" fill="#582C83"/>
<path d="M19.2793 56.2327V30.2793H31.0193V35.4354H24.6443V40.4868H31.0193V45.4335H24.6443V51.042H31.089V56.2327H19.2793Z" fill="#43B02A"/>
<path d="M50.1114 36.2496C50.1785 36.2833 48.4058 35.1794 46.0986 35.1794C41.985 35.1794 37.9051 38.6909 37.9051 43.2393C37.9384 47.888 41.7176 51.3995 46.1985 51.3995C48.2051 51.3995 50.2451 50.3293 50.3121 50.2623V55.5464C50.2788 55.5797 48.4729 56.2484 46.0986 56.2822C38.8749 56.3488 32.6543 50.1286 32.8217 43.1727C32.9886 36.0493 38.8078 30.5312 45.8979 30.3305C47.5364 30.2967 50.0781 30.8988 50.1114 30.8655V36.25V36.2496Z" fill="#43B02A"/>
<path d="M65.2192 30.3639C72.3244 30.4305 77.9952 36.0014 78.1622 43.0062C78.3287 50.2114 72.3914 56.249 65.1863 56.316C58.0478 56.3493 52.0768 50.5453 52.0435 43.4068C51.9769 36.235 58.1149 30.2973 65.2196 30.3643L65.2192 30.3639ZM65.1859 35.2674C60.7825 35.2674 57.1135 38.7365 57.0132 43.1395C56.8795 47.8098 60.7492 51.4787 65.2858 51.4121C69.7221 51.3455 73.3582 47.6095 73.2583 43.1728C73.1917 38.7694 69.5889 35.2669 65.1859 35.2669V35.2674Z" fill="#43B02A"/>
<path d="M80.4785 56.3162V30.3628H85.6692V51.2648H92.6714L91.4802 56.3162H80.4785Z" fill="#582C83"/>
<path d="M94.9844 56.3162V30.3628H100.175V56.3162H94.9844Z" fill="#582C83"/>
<path d="M131.031 45.476V56.2752H125.84V30.3218H131.031V40.5288L138.172 30.3564H144.687L135.315 42.8279L144.722 56.2748H138.103L131.031 45.4756V45.476Z" fill="#582C83"/>
<path d="M123.527 38.9728V56.2751H116.049C116.368 54.833 117.55 53.1611 117.703 52.9483L117.761 52.8666C119.122 51.1108 119.936 48.81 119.936 46.7117C119.936 42.6249 116.828 39.3003 113.007 39.3003H113.007C109.186 39.3003 106.077 42.6249 106.077 46.7117C106.077 48.8105 106.891 51.1113 108.253 52.8666L108.31 52.9483C108.463 53.1611 109.645 54.833 109.965 56.2751H102.486V30.3217H114.876C119.655 30.3217 123.528 34.1948 123.528 38.9728H123.527ZM116.26 57.1052C115.779 57.456 115.266 57.6913 114.745 57.8457C114.223 58.0045 113.692 58.0702 113.161 58.0772C112.631 58.0741 112.099 58.0131 111.577 57.8578C111.056 57.7064 110.542 57.4729 110.061 57.1203C110.583 57.2501 112.644 57.2575 113.161 57.251C113.677 57.2549 115.738 57.2337 116.26 57.1048V57.1052ZM116.243 58.6421C116.257 58.6702 116.236 58.7013 116.18 58.7801C115.761 59.3714 115.091 60.1067 114.37 60.458C114.347 60.4696 114.242 60.5068 114.18 60.515C113.775 60.5704 113.68 60.5566 113.227 60.5566H113.096C112.643 60.5566 112.548 60.5704 112.143 60.515C112.081 60.5064 111.976 60.4692 111.952 60.458C111.232 60.1063 110.562 59.3714 110.143 58.7801C110.087 58.7013 110.066 58.6706 110.079 58.6421C111.024 58.9764 111.53 59.2429 113.162 59.2429C114.794 59.2429 115.286 58.9764 116.244 58.6421H116.243Z" fill="#582C83"/>
<defs>
<filter id="filter0_d_719_149" x="0.138672" y="-3" width="163.721" height="83.6975" filterUnits="userSpaceOnUse" color-interpolation-filters="sRGB">
<feFlood flood-opacity="0" result="BackgroundImageFix"/>
<feColorMatrix in="SourceAlpha" type="matrix" values="0 0 0 0 0 0 0 0 0 0 0 0 0 0 0 0 0 0 127 0" result="hardAlpha"/>
<feOffset dy="1"/>
<feGaussianBlur stdDeviation="2"/>
<feComposite in2="hardAlpha" operator="out"/>
<feColorMatrix type="matrix" values="0 0 0 0 0 0 0 0 0 0 0 0 0 0 0 0 0 0 0.08 0"/>
<feBlend mode="normal" in2="BackgroundImageFix" result="effect1_dropShadow_719_149"/>
<feBlend mode="normal" in="SourceGraphic" in2="effect1_dropShadow_719_149" result="shape"/>
</filter>
</defs>
</svg>
