{"accessors" : [{"bufferView" : 0, "byteOffset" : 0, "componentType" : 5123, "count" : 719316, "type" : "SCALAR", "max" : [59944], "min" : [0]}, {"bufferView" : 1, "byteOffset" : 0, "componentType" : 5126, "count" : 59945, "type" : "VEC3", "max" : [-17.441001892089844, 1542.395263671875, 14042.09375], "min" : [-1748.145263671875, -1277.2474365234375, 11416.8798828125], "name" : "POSITION"}], "asset" : {"generator" : "Aspose.3D 24.9.1", "version" : "2.0"}, "buffers" : [{"uri" : "data:application/octet-stream;base64,", "byteLength" : 2157980}], "bufferViews" : [{"buffer" : 0, "byteOffset" : 0, "byteLength" : 1438632, "target" : 34963}, {"buffer" : 0, "byteOffset" : 1438636, "byteLength" : 719340, "byteStride" : 12, "target" : 34962}], "meshes" : [{"primitives" : [{"attributes" : {"POSITION" : 1}, "indices" : 0, "mode" : 4}], "name" : ""}], "nodes" : [{"mesh" : 0, "name" : "kiy"}], "scene" : 0, "scenes" : [{"nodes" : [0]}]}