<svg width="254" height="28" viewBox="0 0 254 28" fill="none" xmlns="http://www.w3.org/2000/svg">
<path d="M6.464 8.97816C8.72 8.97816 10.144 10.0822 10.144 11.8422C10.144 13.2182 9.376 13.9222 8.544 14.3542C9.856 14.8022 10.768 15.5542 10.768 17.0902C10.768 19.1062 9.12 20.1782 6.624 20.1782H1.44V8.97816H6.464ZM6.064 13.6982C7.328 13.6982 8.176 13.2022 8.176 12.1622C8.176 11.2502 7.472 10.7222 6.208 10.7222H3.376V13.6982H6.064ZM6.64 18.4342C7.984 18.4342 8.8 17.9062 8.8 16.8822C8.8 15.9222 8.048 15.3622 6.496 15.3622H3.376V18.4342H6.64ZM21.7549 8.97816V15.3302C21.7549 18.6742 19.8669 20.3542 16.9389 20.3542C14.0269 20.3542 12.1709 18.6742 12.1709 15.4262V8.97816H14.1389V15.3462C14.1389 17.4262 15.2109 18.5462 16.9709 18.5462C18.7149 18.5462 19.7869 17.4902 19.7869 15.4262V8.97816H21.7549ZM29.0962 15.7142V20.1782H27.1122V15.7622L22.6642 8.97816H24.9842L28.1202 13.9382L31.2882 8.97816H33.5442L29.0962 15.7142ZM46.6102 16.7222V8.97816H48.5462V20.1782H46.8982L40.7222 12.2102V20.1782H38.7862V8.97816H40.6102L46.6102 16.7222ZM62.0029 14.5622C62.0029 17.7302 59.5709 20.3702 56.1309 20.3702C52.6909 20.3702 50.2909 17.7622 50.2909 14.5942C50.2909 11.4262 52.7229 8.78616 56.1629 8.78616C59.6029 8.78616 62.0029 11.3942 62.0029 14.5622ZM59.9389 14.5942C59.9389 12.4022 58.3549 10.5942 56.1309 10.5942C53.9069 10.5942 52.3549 12.3702 52.3549 14.5622C52.3549 16.7542 53.9389 18.5622 56.1629 18.5622C58.3869 18.5622 59.9389 16.7862 59.9389 14.5942ZM67.0673 17.2822L69.8193 8.94616H71.4833L74.2353 17.2822L76.9073 8.97816H78.9713L75.0673 20.2582H73.3713L70.6193 12.2102L67.8672 20.2582H66.1712L62.2672 8.97816H64.3953L67.0673 17.2822ZM90.2995 8.89816L95.2275 20.1782H93.1475L92.0115 17.4742H86.7155L85.5635 20.1782H83.5475L88.4755 8.89816H90.2995ZM91.2915 15.7302L89.3555 11.2502L87.4355 15.7302H91.2915ZM99.8066 10.8022V20.1782H97.8226V10.8022H94.2706V8.97816H103.359V10.8022H99.8066Z" fill="white"/>
<g clip-path="url(#clip0_399_240)">
<path d="M170.962 21.6307C166.002 25.2874 158.811 27.2384 152.62 27.2384C143.939 27.2384 136.124 24.0276 130.212 18.6877C129.747 18.2679 130.164 17.6955 130.721 18.0226C137.102 21.7348 144.991 23.9684 153.14 23.9684C158.636 23.9684 164.682 22.8312 170.242 20.4714C171.081 20.1146 171.784 21.0212 170.962 21.6307Z" fill="#FF9900"/>
<path d="M173.024 19.271C172.392 18.4609 168.832 18.8881 167.234 19.0778C166.748 19.1373 166.673 18.7136 167.112 18.4089C169.947 16.4133 174.6 16.9892 175.142 17.6581C175.685 18.3308 175.001 22.9944 172.337 25.2204C171.928 25.5623 171.538 25.3801 171.72 24.927C172.318 23.433 173.66 20.0847 173.024 19.271Z" fill="#FF9900"/>
<path d="M167.346 4.32108V2.38132C167.346 2.08777 167.569 1.89088 167.836 1.89088H176.521C176.8 1.89088 177.023 2.09159 177.023 2.38132V4.04241C177.019 4.32108 176.785 4.68536 176.369 5.26127L171.868 11.6864C173.541 11.6454 175.306 11.8945 176.822 12.7492C177.164 12.9424 177.257 13.2249 177.283 13.5035V15.5734C177.283 15.8558 176.971 16.1866 176.644 16.0155C173.972 14.6147 170.423 14.4623 167.469 16.0304C167.168 16.194 166.852 15.867 166.852 15.5845V13.6188C166.852 13.3028 166.855 12.7641 167.171 12.2847L172.385 4.80783H167.847C167.569 4.80783 167.346 4.61095 167.346 4.32108ZM135.666 16.4245H133.024C132.771 16.4059 132.571 16.2162 132.552 15.9748V2.41477C132.552 2.14347 132.779 1.92802 133.061 1.92802H135.525C135.781 1.93908 135.986 2.1361 136.004 2.38132V4.15383H136.053C136.696 2.44071 137.903 1.6417 139.531 1.6417C141.185 1.6417 142.218 2.44071 142.961 4.15383C143.6 2.44071 145.053 1.6417 146.61 1.6417C147.717 1.6417 148.929 2.09882 149.668 3.12434C150.504 4.26524 150.333 5.92251 150.333 7.37552L150.33 15.9336C150.33 16.2049 150.103 16.4242 149.821 16.4242H147.182C146.919 16.4056 146.707 16.1937 146.707 15.9336V8.74689C146.707 8.17467 146.759 6.74774 146.633 6.20514C146.436 5.29472 145.845 5.03831 145.079 5.03831C144.44 5.03831 143.771 5.46566 143.5 6.14944C143.229 6.83321 143.255 7.97765 143.255 8.74689V15.9339C143.255 16.2052 143.028 16.4245 142.746 16.4245H140.107C139.839 16.4059 139.632 16.194 139.632 15.9339L139.628 8.74689C139.628 7.23449 139.877 5.00854 138 5.00854C136.101 5.00854 136.176 7.17878 136.176 8.74689V15.9339C136.175 16.2052 135.949 16.4245 135.666 16.4245ZM184.499 1.64184C188.42 1.64184 190.542 5.00854 190.542 9.28963C190.542 13.4256 188.197 16.7069 184.499 16.7069C180.649 16.7069 178.553 13.3402 178.553 9.14477C178.553 4.92307 180.675 1.64184 184.499 1.64184ZM184.521 4.41024C182.574 4.41024 182.452 7.06354 182.452 8.71713C182.452 10.3745 182.425 13.9122 184.499 13.9122C186.546 13.9122 186.643 11.0583 186.643 9.31911C186.643 8.17453 186.595 6.80699 186.249 5.72194C185.952 4.77807 185.361 4.41024 184.521 4.41024ZM195.625 16.4245H192.994C192.73 16.4059 192.518 16.1941 192.518 15.9339L192.515 2.37026C192.537 2.12136 192.756 1.92802 193.024 1.92802H195.473C195.703 1.93908 195.893 2.09528 195.945 2.30704V4.38047H195.993C196.732 2.52618 197.769 1.6417 199.594 1.6417C200.779 1.6417 201.935 2.06906 202.678 3.23958C203.369 4.32463 203.369 6.1493 203.369 7.46099V15.9968C203.34 16.2347 203.12 16.4243 202.86 16.4243H200.211C199.969 16.4057 199.769 16.2273 199.743 15.9968V8.63166C199.743 7.14901 199.913 4.97877 198.089 4.97877C197.446 4.97877 196.855 5.40982 196.562 6.06382C196.19 6.89246 196.142 7.71755 196.142 8.63166V15.9337C196.138 16.2052 195.908 16.4245 195.625 16.4245ZM165.127 13.9383C164.644 13.2694 164.131 12.7268 164.131 11.4894V7.37198C164.131 5.6291 164.254 4.02753 162.968 2.82724C161.954 1.85361 160.274 1.51172 158.988 1.51172C156.476 1.51172 153.667 2.44808 153.08 5.55482C153.017 5.88551 153.258 6.06014 153.474 6.10847L156.034 6.38346C156.275 6.37226 156.45 6.13824 156.495 5.90039C156.714 4.83023 157.609 4.31371 158.617 4.31371C159.163 4.31371 159.78 4.51442 160.099 5.00117C160.471 5.54377 160.423 6.28693 160.423 6.91485V7.25674C158.892 7.43137 156.889 7.54292 155.454 8.17467C153.797 8.88821 152.637 10.3486 152.637 12.4928C152.637 15.239 154.365 16.6101 156.591 16.6101C158.468 16.6101 159.497 16.168 160.947 14.6888C161.426 15.3838 161.586 15.722 162.463 16.4504C162.66 16.5544 162.912 16.5432 163.087 16.3873L163.091 16.3947C163.618 15.9264 164.577 15.0904 165.116 14.6407C165.332 14.4623 165.295 14.1761 165.127 13.9383ZM159.928 12.7492C159.508 13.4925 158.84 13.9495 158.1 13.9495C157.086 13.9495 156.491 13.1765 156.491 12.0356C156.491 9.78375 158.509 9.37496 160.423 9.37496V9.94718C160.423 10.9765 160.449 11.8351 159.928 12.7492ZM130.49 13.9383C130.007 13.2694 129.494 12.7268 129.494 11.4894V7.37198C129.494 5.6291 129.616 4.02753 128.331 2.82724C127.316 1.85361 125.636 1.51172 124.351 1.51172C121.839 1.51172 119.033 2.44808 118.442 5.55482C118.383 5.88551 118.621 6.06014 118.836 6.10847L121.4 6.38346C121.638 6.37226 121.813 6.13824 121.857 5.90039C122.077 4.83023 122.976 4.31371 123.983 4.31371C124.525 4.31371 125.142 4.51442 125.466 5.00117C125.833 5.54377 125.785 6.28693 125.785 6.91485V7.25674C124.254 7.43137 122.251 7.54292 120.817 8.17467C119.163 8.88821 118 10.3486 118 12.4928C118 15.239 119.732 16.6101 121.954 16.6101C123.834 16.6101 124.86 16.168 126.309 14.6888C126.792 15.3838 126.948 15.722 127.825 16.4504C128.022 16.5544 128.275 16.5432 128.45 16.3873L128.457 16.3947C128.985 15.9264 129.943 15.0904 130.482 14.6407C130.698 14.4623 130.661 14.1761 130.49 13.9383ZM125.291 12.7492C124.871 13.4925 124.206 13.9495 123.463 13.9495C122.448 13.9495 121.857 13.1765 121.857 12.0356C121.857 9.78375 123.875 9.37496 125.785 9.37496V9.94718C125.785 10.9765 125.811 11.8351 125.291 12.7492Z" fill="white"/>
</g>
<defs>
<clipPath id="clip0_399_240">
<rect width="136" height="27.3563" fill="white" transform="translate(118)"/>
</clipPath>
</defs>
</svg>
