<svg width="83" height="83" viewBox="0 0 83 83" fill="none" xmlns="http://www.w3.org/2000/svg">
<path d="M5.44598 36.5818C5.44598 34.6097 7.04473 33.0109 9.01689 33.0109H75.6306C77.6028 33.0109 79.2016 34.6097 79.2016 36.5818V44.0483C79.2016 46.0204 77.6028 47.6192 75.6306 47.6192H9.01689C7.04473 47.6192 5.44598 46.0204 5.44598 44.0483V36.5818Z" stroke="#C7BCD2" stroke-width="2.59703"/>
<path d="M38.3008 13.1719L42.0923 15.2464L45.7866 13.0034L44.9853 17.2504L48.2601 20.0707L43.9734 20.621L42.303 24.6071L40.455 20.7002L36.1478 20.3434L39.2925 17.3785L38.3008 13.1719Z" fill="#C7BCD2"/>
<path d="M26.1908 18.3528L28.693 19.7219L31.131 18.2416L30.6022 21.0443L32.7634 22.9056L29.9344 23.2687L28.8321 25.8993L27.6125 23.321L24.77 23.0855L26.8453 21.1289L26.1908 18.3528Z" fill="#C7BCD2"/>
<path d="M20.3366 25.4717L21.8591 26.3047L23.3425 25.404L23.0207 27.1094L24.3358 28.2419L22.6144 28.4629L21.9437 30.0635L21.2016 28.4947L19.4721 28.3514L20.7348 27.1609L20.3366 25.4717Z" fill="#C7BCD2"/>
<path d="M53.2421 17.5385L55.5824 18.819L57.8627 17.4345L57.3681 20.056L59.3895 21.7968L56.7435 22.1365L55.7125 24.5969L54.5718 22.1853L51.9132 21.9651L53.8542 20.1351L53.2421 17.5385Z" fill="#C7BCD2"/>
<path d="M61.3301 24.7385L63.4075 25.8751L65.4316 24.6462L64.9925 26.9731L66.7868 28.5184L64.4381 28.8199L63.523 31.0038L62.5104 28.8632L60.1505 28.6678L61.8735 27.0433L61.3301 24.7385Z" fill="#C7BCD2"/>
<path d="M63.6666 49.2422L64.6306 51.405L66.9856 51.6536L65.2265 53.2388L65.7178 55.5553L63.6666 54.3722L61.6153 55.5553L62.1066 53.2388L60.3476 51.6536L62.7025 51.405L63.6666 49.2422Z" fill="#C7BCD2"/>
<path d="M22.44 50.8662L23.4041 53.0291L25.759 53.2776L23.9999 54.8629L24.4912 57.1793L22.44 55.9962L20.3887 57.1793L20.8801 54.8629L19.121 53.2776L21.4759 53.0291L22.44 50.8662Z" fill="#C7BCD2"/>
<path d="M55.957 55.7363L57.1227 58.3515L59.9701 58.652L57.8431 60.5688L58.4372 63.3698L55.957 61.9392L53.4767 63.3698L54.0708 60.5688L51.9438 58.652L54.7912 58.3515L55.957 55.7363Z" fill="#C7BCD2"/>
<path d="M29.3378 56.709L30.5035 59.3242L33.351 59.6247L31.224 61.5415L31.8181 64.3424L29.3378 62.9119L26.8576 64.3424L27.4517 61.5415L25.3247 59.6247L28.1721 59.3242L29.3378 56.709Z" fill="#C7BCD2"/>
<path fill-rule="evenodd" clip-rule="evenodd" d="M70.2939 50.216C66.3893 61.5503 55.6309 69.6934 42.9706 69.6934C30.3102 69.6934 19.5518 61.5503 15.6472 50.216H12.9131C16.9157 63.008 28.8591 72.2904 42.9706 72.2904C57.082 72.2904 69.0255 63.008 73.028 50.216H70.2939ZM16.0023 30.4136C20.1744 19.5894 30.6756 11.9095 42.9706 11.9095C55.2655 11.9095 65.7667 19.5894 69.9388 30.4136H72.7059C68.4139 18.1268 56.7216 9.3125 42.9706 9.3125C29.2196 9.3125 17.5272 18.1268 13.2353 30.4136H16.0023Z" fill="#C7BCD2"/>
<path fill-rule="evenodd" clip-rule="evenodd" d="M37.9933 21.9666C33.1752 23.2368 29.0877 26.3067 26.4932 30.4139H29.6656C32.2644 27.0896 36.0817 24.7641 40.4457 24.1092L39.491 22.0907L37.9933 21.9666ZM44.1592 23.9625C49.0784 24.3043 53.4171 26.7537 56.2785 30.4139H59.4509C56.6706 26.0126 52.1758 22.8024 46.9047 21.7217L44.9955 21.9667L44.1592 23.9625ZM25.917 50.2156C29.2361 56.2158 35.6296 60.2787 42.972 60.2787C50.3145 60.2787 56.708 56.2158 60.0271 50.2156H56.9854C53.954 54.7192 48.809 57.6818 42.972 57.6818C37.1351 57.6818 31.99 54.7192 28.9586 50.2156H25.917Z" fill="#C7BCD2"/>
<path d="M21.1519 39.7201C21.1519 41.3504 19.884 42.1957 18.304 42.1957H17.1266V44.3091H15.5768V37.2646H18.4549C20.1355 37.2646 21.1519 38.2609 21.1519 39.7V39.7201ZM19.582 39.7503V39.7302C19.582 39.0358 19.099 38.6635 18.3241 38.6635H17.1266V40.8171H18.3543C19.1292 40.8171 19.582 40.3541 19.582 39.7503ZM29.293 44.3091H27.4816L25.972 42.0549H24.7544V44.3091H23.2046V37.2646H26.4249C28.0854 37.2646 29.0817 38.1402 29.0817 39.5893V39.6094C29.0817 40.7466 28.4678 41.4611 27.5721 41.7932L29.293 44.3091ZM27.5118 39.6899V39.6698C27.5118 39.0056 27.0488 38.6635 26.2941 38.6635H24.7544V40.6862H26.3243C27.079 40.6862 27.5118 40.2837 27.5118 39.6899ZM36.7466 44.3091H31.3827V37.2646H36.6963V38.6433H32.9225V40.0724H36.2434V41.4511H32.9225V42.9304H36.7466V44.3091ZM46.0746 44.3091H44.5349V39.7101L42.5524 42.7191H42.5122L40.5498 39.7403V44.3091H39.0302V37.2646H40.7007L42.5524 40.2434L44.4041 37.2646H46.0746V44.3091ZM50.2929 44.3091H48.7431V37.2646H50.2929V44.3091ZM58.9871 41.2397C58.9871 43.3732 57.7896 44.4198 55.8976 44.4198C54.0057 44.4198 52.8484 43.3631 52.8484 41.29V37.2646H54.3982V41.2498C54.3982 42.397 54.9718 42.9908 55.9178 42.9908C56.8637 42.9908 57.4373 42.4171 57.4373 41.3001V37.2646H58.9871V41.2397ZM68.5158 44.3091H66.9761V39.7101L64.9936 42.7191H64.9534L62.991 39.7403V44.3091H61.4714V37.2646H63.1419L64.9936 40.2434L66.8453 37.2646H68.5158V44.3091Z" fill="#C7BCD2"/>
</svg>
