<svg width="81" height="83" viewBox="0 0 81 83" fill="none" xmlns="http://www.w3.org/2000/svg">
<path d="M40.4586 14.0002C25.3062 14.0002 13 26.3061 13 41.4587C13.0001 56.6111 25.3062 68.9174 40.4586 68.9174C55.6109 68.9174 67.9171 56.6112 67.9171 41.4587C67.9171 26.3064 55.6109 14.0002 40.4586 14.0002ZM16.8488 15.0549C16.1486 15.0549 15.477 15.3331 14.9819 15.8282C14.4867 16.3234 14.2086 16.9949 14.2086 17.6952C14.2085 18.0419 14.2768 18.3853 14.4095 18.7056C14.5421 19.026 14.7366 19.3171 14.9818 19.5623C15.227 19.8075 15.518 20.002 15.8384 20.1346C16.1587 20.2673 16.502 20.3356 16.8488 20.3356C17.1955 20.3357 17.5389 20.2674 17.8592 20.1347C18.1796 20.0021 18.4707 19.8076 18.7159 19.5624C18.9611 19.3173 19.1556 19.0262 19.2883 18.7058C19.421 18.3855 19.4893 18.0421 19.4893 17.6954C19.4893 17.3487 19.421 17.0053 19.2883 16.685C19.1557 16.3646 18.9612 16.0735 18.716 15.8283C18.4709 15.5831 18.1798 15.3886 17.8595 15.2559C17.5391 15.1232 17.1955 15.0549 16.8488 15.0549ZM64.2218 15.0549C63.5216 15.0549 62.85 15.3331 62.3549 15.8282C61.8598 16.3234 61.5816 16.9949 61.5816 17.6952C61.5816 18.0419 61.6498 18.3853 61.7825 18.7056C61.9152 19.026 62.1097 19.3171 62.3548 19.5623C62.6 19.8075 62.8911 20.002 63.2114 20.1346C63.5317 20.2673 63.8751 20.3356 64.2218 20.3356C64.5686 20.3357 64.9119 20.2674 65.2323 20.1348C65.5527 20.0021 65.8438 19.8076 66.089 19.5625C66.3342 19.3173 66.5287 19.0262 66.6614 18.7059C66.7941 18.3855 66.8624 18.0422 66.8624 17.6954C66.8624 17.3486 66.7942 17.0053 66.6615 16.6849C66.5288 16.3645 66.3343 16.0734 66.0891 15.8282C65.8439 15.583 65.5528 15.3886 65.2325 15.2559C64.9121 15.1232 64.5686 15.0549 64.2218 15.0549ZM40.4586 16.1096C54.471 16.1096 65.8077 27.4464 65.8077 41.4587C65.8077 55.4712 54.471 66.808 40.4586 66.808C26.4461 66.808 15.1094 55.4711 15.1094 41.4587C15.1094 27.4464 26.4462 16.1096 40.4586 16.1096ZM45.5778 18.7385C45.5209 18.7373 45.4659 18.7376 45.4125 18.7388C44.7039 18.7564 44.3075 19.0009 44.4112 19.5285C45.6387 24.4732 45.7881 29.582 43.815 34.0965C45.305 34.7797 46.5549 35.9009 47.3958 37.2954C50.7914 34.4803 54.2061 30.8128 56.3745 27.9455C59.4378 23.895 49.1562 18.815 45.5778 18.7385ZM34.0608 19.2532C29.3698 19.189 21.0817 26.261 23.4401 27.0679C28.3386 28.4776 32.8397 30.9041 35.7629 34.8735C37.0536 33.9497 38.6241 33.3954 40.3193 33.3665C39.5792 29.0181 38.11 24.227 36.7111 20.9153C36.2187 19.7496 35.2566 19.2695 34.0608 19.2532ZM61.8125 33.751C61.6841 33.7533 61.5549 33.8076 61.426 33.9201C57.7589 37.4544 53.4108 40.1374 48.5166 40.6874C48.5407 40.9415 48.5543 41.1984 48.5543 41.4587C48.5543 42.8833 48.1817 44.223 47.5311 45.388C51.6671 46.9213 56.551 48.0447 60.1189 48.4891C65.9627 49.2168 64.032 33.7115 61.8125 33.751ZM20.3707 34.4049C14.7272 34.4643 17.1827 51.0073 19.4843 48.9986C23.1531 45.4625 27.5035 42.7783 32.4005 42.2303C32.3763 41.976 32.3628 41.719 32.3628 41.4587C32.3628 40.0356 32.7347 38.697 33.3843 37.5327C29.247 35.9984 24.3605 34.8741 20.7913 34.4296C20.6462 34.4115 20.5063 34.4032 20.3707 34.4049ZM40.4586 35.4724C39.1219 35.4724 37.8913 35.9056 36.8976 36.6394C37.1303 37.0574 37.3476 37.4897 37.548 37.9371C38.3405 37.2799 39.3558 36.8836 40.4586 36.8836C40.5575 36.8836 40.6554 36.8877 40.7527 36.8942C40.7218 36.4336 40.6786 35.9605 40.6229 35.4762C40.5681 35.475 40.5136 35.4724 40.4586 35.4724ZM42.8515 35.967C42.6068 36.376 42.3423 36.7785 42.0564 37.1742C43.146 37.5844 44.0413 38.4 44.5567 39.4348C44.9431 39.1758 45.3341 38.8996 45.7286 38.6067C45.0955 37.434 44.0822 36.501 42.8515 35.967ZM35.3539 38.321C34.7949 39.2322 34.4721 40.306 34.4721 41.4587C34.4721 41.6861 34.4857 41.9099 34.5101 42.1302C34.9847 42.138 35.464 42.1657 35.9478 42.2154C35.9062 41.969 35.8833 41.7164 35.8833 41.4587C35.8833 40.5228 36.1693 39.6498 36.6575 38.9224C36.2399 38.7174 35.805 38.5165 35.3539 38.321ZM40.4586 38.9931C39.0842 38.9931 37.9929 40.0844 37.9929 41.4587C37.9929 42.8331 39.0842 43.9244 40.4586 43.9244C41.8329 43.9244 42.9242 42.8331 42.9242 41.4587C42.9242 40.0844 41.8329 38.9931 40.4586 38.9931ZM44.9696 40.7041C45.0109 40.9499 45.0337 41.2017 45.0337 41.4587C45.0337 42.3962 44.747 43.2705 44.2574 43.9984C44.6751 44.2035 45.11 44.4045 45.5611 44.6C46.1219 43.688 46.4452 42.613 46.4452 41.4587C46.4452 41.232 46.4317 41.0087 46.4075 40.7884C45.9328 40.7812 45.4533 40.7536 44.9696 40.7041ZM36.3589 43.4798C35.9725 43.7387 35.5816 44.015 35.187 44.3077C35.8191 45.4802 36.8311 46.4136 38.0604 46.9484C38.3054 46.5396 38.5697 46.1369 38.8557 45.7414C37.7673 45.33 36.8731 44.5141 36.3589 43.4798ZM43.3635 44.9852C42.5716 45.6394 41.5585 46.034 40.4584 46.034C40.3571 46.034 40.2569 46.0293 40.157 46.0226C40.188 46.4832 40.2311 46.9564 40.2868 47.4408C40.3439 47.4423 40.4009 47.4452 40.4584 47.4452C41.7926 47.4452 43.021 47.0134 44.0137 46.2822C43.7809 45.8644 43.5639 45.4323 43.3635 44.9852ZM33.5192 45.6189C30.1217 48.4347 26.7047 52.1049 24.5351 54.9738C20.7775 59.9425 37.1016 66.4598 36.4988 63.3902C35.2707 58.4444 35.1218 53.3343 37.0964 48.8187C35.6077 48.1347 34.3593 47.0132 33.5192 45.6189ZM45.1491 48.0479C43.8577 48.9707 42.2862 49.5237 40.5903 49.5511C41.3304 53.9 42.7997 58.6914 44.1988 62.0035C46.623 67.7422 60.4293 56.8637 57.4694 55.8512C52.5721 54.4417 48.0725 52.0156 45.1491 48.0479ZM16.6464 62.5818C16.2997 62.5818 15.9563 62.6501 15.636 62.7827C15.3156 62.9154 15.0245 63.1099 14.7793 63.3551C14.5341 63.6002 14.3396 63.8913 14.2069 64.2116C14.0742 64.532 14.0059 64.8753 14.0059 65.2221C14.0059 65.5689 14.0742 65.9122 14.2068 66.2326C14.3395 66.553 14.534 66.8441 14.7792 67.0894C15.0245 67.3346 15.3156 67.5291 15.636 67.6618C15.9564 67.7944 16.2997 67.8627 16.6465 67.8627C16.9933 67.8627 17.3366 67.7944 17.657 67.6617C17.9773 67.529 18.2684 67.3345 18.5135 67.0893C18.7587 66.8441 18.9532 66.553 19.0858 66.2326C19.2185 65.9123 19.2868 65.5689 19.2868 65.2222C19.2868 64.522 19.0086 63.8504 18.5135 63.3553C18.0183 62.8601 17.3466 62.5818 16.6464 62.5818ZM64.2428 62.5818C63.8961 62.5818 63.5527 62.6501 63.2324 62.7827C62.912 62.9154 62.6209 63.1099 62.3757 63.3551C62.1305 63.6002 61.936 63.8913 61.8033 64.2116C61.6706 64.532 61.6023 64.8753 61.6023 65.2221C61.6023 65.5688 61.6706 65.9122 61.8032 66.2326C61.9359 66.5529 62.1303 66.844 62.3755 67.0892C62.6207 67.3344 62.9118 67.5289 63.2321 67.6617C63.5525 67.7944 63.8958 67.8627 64.2426 67.8627C64.5893 67.8627 64.9327 67.7944 65.2531 67.6617C65.5734 67.529 65.8645 67.3346 66.1097 67.0894C66.3549 66.8442 66.5494 66.5531 66.6821 66.2327C66.8148 65.9123 66.8831 65.569 66.883 65.2222C66.883 64.522 66.6049 63.8504 66.1097 63.3553C65.6146 62.8601 64.943 62.5818 64.2428 62.5818Z" fill="#DDD4E5"/>
</svg>
